0
SECTION
2
HEADER
9
$INSUNITS
70
4
9
$ACADVER
1
AC1014
9
$HANDSEED
5
FFFF
0
ENDSEC
0
SECTION
2
TABLES
0
TABLE
2
VPORT
5
8
100
AcDbSymbolTable
0
ENDTAB
0
TABLE
2
LTYPE
5
5
100
AcDbSymbolTable
0
LTYPE
5
14
100
AcDbSymbolTableRecord
100
AcDbLinetypeTableRecord
2
BYBLOCK
70
0
0
LTYPE
5
15
100
AcDbSymbolTableRecord
100
AcDbLinetypeTableRecord
2
BYLAYER
70
0
0
ENDTAB
0
TABLE
2
LAYER
5
2
100
AcDbSymbolTable
70
2
0
LAYER
5
50
100
AcDbSymbolTableRecord
100
AcDbLayerTableRecord
2
0
70
0
6
CONTINUOUS
0
ENDTAB
0
TABLE
2
STYLE
5
3
100
AcDbSymbolTable
70
1
0
STYLE
5
11
100
AcDbSymbolTableRecord
100
AcDbTextStyleTableRecord
2
STANDARD
70
0
0
ENDTAB
0
TABLE
2
VIEW
5
6
100
AcDbSymbolTable
70
0
0
ENDTAB
0
TABLE
2
UCS
5
7
100
AcDbSymbolTable
70
0
0
ENDTAB
0
TABLE
2
APPID
5
9
100
AcDbSymbolTable
70
2
0
APPID
5
12
100
AcDbSymbolTableRecord
100
AcDbRegAppTableRecord
2
ACAD
70
0
0
ENDTAB
0
TABLE
2
DIMSTYLE
5
A
100
AcDbSymbolTable
70
1
0
ENDTAB
0
TABLE
2
BLOCK_RECORD
5
1
100
AcDbSymbolTable
70
1
0
BLOCK_RECORD
5
1F
100
AcDbSymbolTableRecord
100
AcDbBlockTableRecord
2
*MODEL_SPACE
0
BLOCK_RECORD
5
1B
100
AcDbSymbolTableRecord
100
AcDbBlockTableRecord
2
*PAPER_SPACE
0
ENDTAB
0
ENDSEC
0
SECTION
2
BLOCKS
0
BLOCK
5
20
100
AcDbEntity
100
AcDbBlockBegin
2
*MODEL_SPACE
0
ENDBLK
5
21
100
AcDbEntity
100
AcDbBlockEnd
0
BLOCK
5
1C
100
AcDbEntity
100
AcDbBlockBegin
2
*PAPER_SPACE
0
ENDBLK
5
1D
100
AcDbEntity
100
AcDbBlockEnd
0
ENDSEC
0
SECTION
2
ENTITIES
0
LWPOLYLINE
5
100
100
AcDbEntity
8
0
100
AcDbPolyline
90
8
70
1
43
0.0
10
130.79999999999998
20
-17
10
117.80000000000001
20
-17.000000000000011
42
-0.41421356237309503
10
117.30000000000001
20
-16.500000000000004
10
117.30000000000001
20
-3.5000000000000031
42
-0.41421356237309503
10
117.80000000000001
20
-3.0000000000000031
10
130.79999999999998
20
-2.999999999999996
42
-0.41421356237309503
10
131.29999999999998
20
-3.5000000000000031
10
131.29999999999998
20
-16.500000000000004
42
-0.41421356237309503
0
LWPOLYLINE
5
101
100
AcDbEntity
8
0
100
AcDbPolyline
90
8
70
1
43
0.0
10
55.099999999999994
20
-16.500000000000004
10
55.099999999999994
20
-3.5000000000000031
42
0.41421356237309503
10
54.600000000000001
20
-3.0000000000000031
10
41.599999999999994
20
-3.0000000000000031
42
0.41421356237309503
10
41.099999999999994
20
-3.5000000000000031
10
41.099999999999994
20
-16.500000000000004
42
0.41421356237309503
10
41.599999999999994
20
-17
10
54.600000000000001
20
-17
42
0.41421356237309503
0
LWPOLYLINE
5
102
100
AcDbEntity
8
0
100
AcDbPolyline
90
8
70
1
43
0.0
10
73.649999999999991
20
-17
10
60.649999999999991
20
-17
42
-0.41421356237309503
10
60.149999999999999
20
-16.500000000000004
10
60.149999999999999
20
-3.5000000000000031
42
-0.41421356237309503
10
60.649999999999991
20
-3.0000000000000031
10
73.649999999999991
20
-3.0000000000000049
42
-0.41421356237309503
10
74.149999999999991
20
-3.5000000000000031
10
74.149999999999991
20
-16.500000000000004
42
-0.41421356237309503
0
LWPOLYLINE
5
103
100
AcDbEntity
8
0
100
AcDbPolyline
90
8
70
1
43
0.0
10
93.200000000000003
20
-16.500000000000004
42
-0.41421356237309503
10
92.699999999999989
20
-17.000000000000004
10
79.699999999999989
20
-17
42
-0.41421356237309503
10
79.199999999999989
20
-16.500000000000004
10
79.199999999999989
20
-3.5000000000000031
42
-0.41421356237309503
10
79.699999999999989
20
-3.0000000000000031
10
92.699999999999989
20
-3.0000000000000138
42
-0.41421356237309503
10
93.199999999999989
20
-3.5000000000000031
0
LWPOLYLINE
5
104
100
AcDbEntity
8
0
100
AcDbPolyline
90
8
70
1
43
0.0
10
98.75
20
-17.000000000000011
42
-0.41421356237309503
10
98.25
20
-16.500000000000004
10
98.25
20
-3.5000000000000031
42
-0.41421356237309503
10
98.75
20
-3.0000000000000031
10
111.75
20
-2.999999999999996
42
-0.41421356237309503
10
112.25000000000001
20
-3.5000000000000031
10
112.25000000000001
20
-16.500000000000004
42
-0.41421356237309503
10
111.75
20
-17
0
LWPOLYLINE
5
105
100
AcDbEntity
8
0
100
AcDbPolyline
90
8
70
1
43
0.0
10
150.34999999999999
20
-16.500000000000004
10
150.34999999999999
20
-3.5000000000000031
42
0.41421356237309503
10
149.84999999999999
20
-3.0000000000000031
10
136.84999999999999
20
-3.0000000000000031
42
0.41421356237309503
10
136.34999999999999
20
-3.5000000000000031
10
136.34999999999999
20
-16.500000000000004
42
0.41421356237309503
10
136.84999999999999
20
-17
10
149.84999999999999
20
-17
42
0.41421356237309503
0
LWPOLYLINE
5
106
100
AcDbEntity
8
0
100
AcDbPolyline
90
8
70
1
43
0.0
10
16.499999999999993
20
-17
10
3.4999999999999942
20
-17.000000000000004
42
-0.41421356237309503
10
2.9999999999999942
20
-16.500000000000004
10
2.9999999999999942
20
-3.5000000000000031
42
-0.41421356237309503
10
3.4999999999999942
20
-3.0000000000000031
10
16.499999999999993
20
-3.0000000000000049
42
-0.41421356237309503
10
16.999999999999993
20
-3.5000000000000031
10
16.999999999999993
20
-16.500000000000004
42
-0.41421356237309503
0
LWPOLYLINE
5
107
100
AcDbEntity
8
0
100
AcDbPolyline
90
8
70
1
43
0.0
10
36.049999999999997
20
-16.500000000000004
42
-0.41421356237309503
10
35.549999999999997
20
-17.000000000000004
10
22.549999999999994
20
-17
42
-0.41421356237309503
10
22.049999999999997
20
-16.500000000000004
10
22.049999999999997
20
-3.5000000000000031
42
-0.41421356237309503
10
22.549999999999994
20
-3.0000000000000031
10
35.549999999999997
20
-3.0000000000000049
42
-0.41421356237309503
10
36.049999999999997
20
-3.5000000000000031
0
LWPOLYLINE
5
108
100
AcDbEntity
8
0
100
AcDbPolyline
90
8
70
1
43
0.0
10
213.05000000000001
20
-17.000000000000011
42
-0.41421356237309503
10
212.54999999999998
20
-16.500000000000004
10
212.54999999999998
20
-3.5000000000000031
42
-0.41421356237309503
10
213.05000000000001
20
-3.0000000000000031
10
226.05000000000001
20
-2.999999999999996
42
-0.41421356237309503
10
226.55000000000001
20
-3.5000000000000031
10
226.55000000000001
20
-16.500000000000004
42
-0.41421356237309503
10
226.05000000000001
20
-17
0
LWPOLYLINE
5
109
100
AcDbEntity
8
0
100
AcDbPolyline
90
8
70
1
43
0.0
10
187.94999999999999
20
-3.0000000000000031
10
174.95000000000002
20
-3.0000000000000031
42
0.41421356237309503
10
174.44999999999999
20
-3.5000000000000031
10
174.44999999999999
20
-16.500000000000004
42
0.41421356237309503
10
174.95000000000002
20
-17.000000000000004
10
187.94999999999999
20
-17.000000000000004
42
0.41421356237309503
10
188.44999999999999
20
-16.500000000000004
10
188.44999999999999
20
-3.5000000000000031
42
0.41421356237309503
0
LWPOLYLINE
5
110
100
AcDbEntity
8
0
100
AcDbPolyline
90
8
70
1
43
0.0
10
232.10000000000002
20
-17.000000000000011
42
-0.41421356237309503
10
231.59999999999999
20
-16.500000000000004
10
231.59999999999999
20
-3.5000000000000031
42
-0.41421356237309503
10
232.10000000000002
20
-3.0000000000000031
10
245.10000000000002
20
-2.999999999999996
42
-0.41421356237309503
10
245.60000000000002
20
-3.5000000000000031
10
245.60000000000002
20
-16.500000000000004
42
-0.41421356237309503
10
245.10000000000002
20
-17.000000000000004
0
LWPOLYLINE
5
111
100
AcDbEntity
8
0
100
AcDbPolyline
90
8
70
1
43
0.0
10
155.40000000000001
20
-16.500000000000004
10
155.40000000000001
20
-3.5000000000000031
42
-0.41421356237309503
10
155.90000000000001
20
-3.0000000000000031
10
168.90000000000001
20
-2.999999999999996
42
-0.41421356237309503
10
169.40000000000001
20
-3.5000000000000031
10
169.40000000000001
20
-16.500000000000004
42
-0.41421356237309503
10
168.90000000000001
20
-17
10
155.90000000000001
20
-17.000000000000011
42
-0.41421356237309503
0
LWPOLYLINE
5
112
100
AcDbEntity
8
0
100
AcDbPolyline
90
8
70
1
43
0.0
10
207.00000000000003
20
-17
10
194.00000000000003
20
-17.000000000000011
42
-0.41421356237309503
10
193.5
20
-16.500000000000004
10
193.5
20
-3.5000000000000031
42
-0.41421356237309503
10
194.00000000000003
20
-3.0000000000000031
10
207.00000000000003
20
-3.0000000000000315
42
-0.41421356237309503
10
207.5
20
-3.5000000000000031
10
207.50000000000003
20
-16.500000000000004
42
-0.41421356237309503
0
LWPOLYLINE
5
113
100
AcDbEntity
8
0
100
AcDbPolyline
90
8
70
1
43
0.0
10
31.574999999999996
20
-35.550000000000004
10
31.574999999999996
20
-22.550000000000004
42
-0.41421356237309503
10
32.074999999999996
20
-22.050000000000004
10
45.074999999999996
20
-22.050000000000004
42
-0.41421356237309503
10
45.574999999999989
20
-22.550000000000004
10
45.574999999999989
20
-35.550000000000004
42
-0.41421356237309503
10
45.074999999999996
20
-36.050000000000004
10
32.074999999999996
20
-36.050000000000004
42
-0.41421356237309503
0
LWPOLYLINE
5
114
100
AcDbEntity
8
0
100
AcDbPolyline
90
8
70
1
43
0.0
10
70.174999999999997
20
-36.050000000000004
42
-0.41421356237309503
10
69.674999999999997
20
-35.550000000000004
10
69.674999999999997
20
-22.550000000000004
42
-0.41421356237309503
10
70.174999999999997
20
-22.050000000000004
10
83.175000000000011
20
-22.049999999999997
42
-0.41421356237309503
10
83.675000000000011
20
-22.550000000000004
10
83.675000000000011
20
-35.550000000000004
42
-0.41421356237309503
10
83.175000000000011
20
-36.050000000000011
0
LWPOLYLINE
5
115
100
AcDbEntity
8
0
100
AcDbPolyline
90
8
70
1
43
0.0
10
102.22499999999999
20
-22.050000000000004
10
89.224999999999994
20
-22.050000000000004
42
0.41421356237309503
10
88.725000000000009
20
-22.550000000000004
10
88.724999999999994
20
-35.550000000000004
42
0.41421356237309503
10
89.224999999999994
20
-36.050000000000004
10
102.22499999999999
20
-36.050000000000011
42
0.41421356237309503
10
102.72500000000001
20
-35.550000000000004
10
102.72500000000001
20
-22.550000000000004
42
0.41421356237309503
0
LWPOLYLINE
5
116
100
AcDbEntity
8
0
100
AcDbPolyline
90
8
70
1
43
0.0
10
289.25
20
-17.000000000000011
42
-0.41421356237309503
10
288.74999999999994
20
-16.500000000000004
10
288.74999999999994
20
-3.5000000000000031
42
-0.41421356237309503
10
289.25
20
-3.0000000000000031
10
302.25
20
-2.999999999999996
42
-0.41421356237309503
10
302.75
20
-3.5000000000000031
10
302.75
20
-16.500000000000004
42
-0.41421356237309503
10
302.25
20
-17.000000000000004
0
LWPOLYLINE
5
117
100
AcDbEntity
8
0
100
AcDbPolyline
90
8
70
1
43
0.0
10
121.77500000000001
20
-35.550000000000004
10
121.77500000000001
20
-22.550000000000004
42
0.41421356237309503
10
121.27499999999999
20
-22.050000000000004
10
108.27500000000001
20
-22.050000000000004
42
0.41421356237309503
10
107.77500000000001
20
-22.550000000000004
10
107.77500000000001
20
-35.550000000000004
42
0.41421356237309503
10
108.27500000000001
20
-36.050000000000004
10
121.27499999999999
20
-36.050000000000004
42
0.41421356237309503
0
LWPOLYLINE
5
118
100
AcDbEntity
8
0
100
AcDbPolyline
90
8
70
1
43
0.0
10
64.625
20
-35.550000000000004
10
64.625
20
-22.550000000000004
42
0.41421356237309503
10
64.125
20
-22.050000000000004
10
51.125
20
-22.050000000000004
42
0.41421356237309503
10
50.625
20
-22.550000000000004
10
50.625
20
-35.550000000000004
42
0.41421356237309503
10
51.125
20
-36.050000000000004
10
64.125
20
-36.050000000000004
42
0.41421356237309503
0
LWPOLYLINE
5
119
100
AcDbEntity
8
0
100
AcDbPolyline
90
8
70
1
43
0.0
10
21.262499999999996
20
-22.050000000000004
42
-0.41421356237309503
10
21.762499999999996
20
-22.550000000000004
10
21.762499999999999
20
-35.550000000000004
42
-0.41421356237309503
10
21.262499999999996
20
-36.050000000000011
10
8.2624999999999957
20
-36.050000000000004
42
-0.41421356237309503
10
7.762499999999994
20
-35.550000000000004
10
7.7624999999999966
20
-22.550000000000004
42
-0.41421356237309503
10
8.2624999999999957
20
-22.050000000000004
0
LWPOLYLINE
5
120
100
AcDbEntity
8
0
100
AcDbPolyline
90
8
70
1
43
0.0
10
140.32499999999999
20
-36.050000000000011
10
127.325
20
-36.050000000000011
42
-0.41421356237309503
10
126.82499999999999
20
-35.550000000000004
10
126.82500000000002
20
-22.550000000000004
42
-0.41421356237309503
10
127.325
20
-22.050000000000004
10
140.32499999999999
20
-22.049999999999997
42
-0.41421356237309503
10
140.82499999999999
20
-22.550000000000004
10
140.82499999999999
20
-35.550000000000004
42
-0.41421356237309503
0
LWPOLYLINE
5
121
100
AcDbEntity
8
0
100
AcDbPolyline
90
8
70
1
43
0.0
10
145.87500000000003
20
-22.550000000000004
42
-0.41421356237309503
10
146.375
20
-22.050000000000004
10
159.375
20
-22.049999999999997
42
-0.41421356237309503
10
159.875
20
-22.550000000000004
10
159.875
20
-35.550000000000004
42
-0.41421356237309503
10
159.375
20
-36.050000000000011
10
146.375
20
-36.050000000000011
42
-0.41421356237309503
10
145.875
20
-35.550000000000004
0
LWPOLYLINE
5
122
100
AcDbEntity
8
0
100
AcDbPolyline
90
8
70
1
43
0.0
10
236.07500000000002
20
-35.550000000000004
10
236.07500000000002
20
-22.550000000000004
42
0.41421356237309503
10
235.57500000000002
20
-22.050000000000004
10
222.57499999999999
20
-22.050000000000004
42
0.41421356237309503
10
222.07499999999999
20
-22.550000000000004
10
222.07499999999999
20
-35.550000000000004
42
0.41421356237309503
10
222.57499999999999
20
-36.050000000000004
10
235.57500000000002
20
-36.050000000000004
42
0.41421356237309503
0
LWPOLYLINE
5
123
100
AcDbEntity
8
0
100
AcDbPolyline
90
8
70
1
43
0.0
10
278.4375
20
-36.050000000000011
10
265.4375
20
-36.050000000000011
42
-0.41421356237309503
10
264.9375
20
-35.550000000000004
10
264.9375
20
-22.550000000000004
42
-0.41421356237309503
10
265.4375
20
-22.050000000000004
10
278.4375
20
-22.050000000000033
42
-0.41421356237309503
10
278.9375
20
-22.550000000000004
10
278.9375
20
-35.550000000000004
42
-0.41421356237309503
0
LWPOLYLINE
5
124
100
AcDbEntity
8
0
100
AcDbPolyline
90
8
70
1
43
0.0
10
203.02500000000003
20
-22.550000000000004
42
-0.41421356237309503
10
203.52500000000003
20
-22.050000000000004
10
216.52500000000003
20
-22.050000000000033
42
-0.41421356237309503
10
217.02500000000001
20
-22.550000000000004
10
217.02500000000003
20
-35.550000000000004
42
-0.41421356237309503
10
216.52500000000003
20
-36.050000000000004
10
203.52500000000003
20
-36.050000000000011
42
-0.41421356237309503
10
203.02500000000003
20
-35.550000000000004
0
LWPOLYLINE
5
125
100
AcDbEntity
8
0
100
AcDbPolyline
90
8
70
1
43
0.0
10
178.42499999999998
20
-22.050000000000004
10
165.42500000000001
20
-22.050000000000004
42
0.41421356237309503
10
164.92500000000001
20
-22.550000000000004
10
164.92500000000001
20
-35.550000000000004
42
0.41421356237309503
10
165.42500000000001
20
-36.050000000000011
10
178.42499999999998
20
-36.050000000000011
42
0.41421356237309503
10
178.92499999999998
20
-35.550000000000004
10
178.92499999999998
20
-22.550000000000004
42
0.41421356237309503
0
LWPOLYLINE
5
126
100
AcDbEntity
8
0
100
AcDbPolyline
90
8
70
1
43
0.0
10
197.47500000000002
20
-22.049999999999997
42
-0.41421356237309503
10
197.97500000000002
20
-22.550000000000004
10
197.97500000000002
20
-35.550000000000004
42
-0.41421356237309503
10
197.47500000000002
20
-36.050000000000004
10
184.47500000000002
20
-36.050000000000011
42
-0.41421356237309503
10
183.97500000000002
20
-35.550000000000004
10
183.97500000000002
20
-22.550000000000004
42
-0.41421356237309503
10
184.47500000000002
20
-22.050000000000004
0
LWPOLYLINE
5
127
100
AcDbEntity
8
0
100
AcDbPolyline
90
8
70
1
43
0.0
10
113.03750000000001
20
-55.100000000000016
42
-0.41421356237309503
10
112.53749999999999
20
-54.600000000000009
10
112.53749999999999
20
-41.600000000000001
42
-0.41421356237309503
10
113.03750000000001
20
-41.100000000000001
10
126.03749999999999
20
-41.099999999999994
42
-0.41421356237309503
10
126.53750000000001
20
-41.600000000000001
10
126.53749999999999
20
-54.600000000000009
42
-0.41421356237309503
10
126.03749999999999
20
-55.100000000000009
0
LWPOLYLINE
5
128
100
AcDbEntity
8
0
100
AcDbPolyline
90
8
70
1
43
0.0
10
87.937500000000014
20
-41.099999999999994
42
-0.41421356237309503
10
88.437500000000014
20
-41.600000000000001
10
88.4375
20
-54.600000000000009
42
-0.41421356237309503
10
87.937500000000014
20
-55.100000000000009
10
74.9375
20
-55.100000000000009
42
-0.41421356237309503
10
74.4375
20
-54.600000000000009
10
74.4375
20
-41.600000000000001
42
-0.41421356237309503
10
74.9375
20
-41.100000000000001
0
LWPOLYLINE
5
129
100
AcDbEntity
8
0
100
AcDbPolyline
90
8
70
1
43
0.0
10
302.25
20
-22.050000000000004
10
289.25
20
-22.050000000000004
42
0.41421356237309503
10
288.75
20
-22.550000000000004
10
288.75
20
-35.550000000000004
42
0.41421356237309503
10
289.25
20
-36.050000000000011
10
302.25
20
-36.050000000000011
42
0.41421356237309503
10
302.75
20
-35.550000000000004
10
302.75
20
-22.550000000000004
42
0.41421356237309503
0
LWPOLYLINE
5
130
100
AcDbEntity
8
0
100
AcDbPolyline
90
8
70
1
43
0.0
10
255.12500000000003
20
-35.550000000000004
10
255.12500000000003
20
-22.550000000000004
42
0.41421356237309503
10
254.62500000000003
20
-22.050000000000004
10
241.625
20
-22.050000000000004
42
0.41421356237309503
10
241.125
20
-22.550000000000004
10
241.125
20
-35.550000000000004
42
0.41421356237309503
10
241.625
20
-36.050000000000011
10
254.62500000000003
20
-36.050000000000004
42
0.41421356237309503
0
LWPOLYLINE
5
131
100
AcDbEntity
8
0
100
AcDbPolyline
90
8
70
1
43
0.0
10
164.13749999999999
20
-55.100000000000009
10
151.13749999999999
20
-55.100000000000016
42
-0.41421356237309503
10
150.63749999999999
20
-54.600000000000009
10
150.63749999999999
20
-41.600000000000001
42
-0.41421356237309503
10
151.13749999999999
20
-41.100000000000001
10
164.13749999999999
20
-41.099999999999994
42
-0.41421356237309503
10
164.63750000000002
20
-41.600000000000001
10
164.63750000000002
20
-54.600000000000009
42
-0.41421356237309503
0
LWPOLYLINE
5
132
100
AcDbEntity
8
0
100
AcDbPolyline
90
8
70
1
43
0.0
10
23.643749999999994
20
-41.100000000000001
42
-0.41421356237309503
10
24.143749999999994
20
-41.600000000000001
10
24.143749999999994
20
-54.600000000000009
42
-0.41421356237309503
10
23.643749999999994
20
-55.100000000000009
10
10.643749999999994
20
-55.100000000000009
42
-0.41421356237309503
10
10.143749999999994
20
-54.600000000000009
10
10.143749999999995
20
-41.600000000000001
42
-0.41421356237309503
10
10.643749999999994
20
-41.100000000000001
0
LWPOLYLINE
5
133
100
AcDbEntity
8
0
100
AcDbPolyline
90
8
70
1
43
0.0
10
55.887500000000003
20
-55.100000000000009
42
-0.41421356237309503
10
55.387500000000003
20
-54.600000000000009
10
55.387500000000003
20
-41.600000000000001
42
-0.41421356237309503
10
55.887500000000003
20
-41.100000000000001
10
68.887499999999989
20
-41.100000000000001
42
-0.41421356237309503
10
69.387499999999989
20
-41.600000000000001
10
69.387499999999989
20
-54.600000000000009
42
-0.41421356237309503
10
68.887499999999989
20
-55.100000000000009
0
LWPOLYLINE
5
134
100
AcDbEntity
8
0
100
AcDbPolyline
90
8
70
1
43
0.0
10
131.58750000000001
20
-54.600000000000009
10
131.58750000000001
20
-41.600000000000001
42
-0.41421356237309503
10
132.08750000000003
20
-41.100000000000001
10
145.08750000000001
20
-41.099999999999994
42
-0.41421356237309503
10
145.58750000000001
20
-41.600000000000001
10
145.58750000000001
20
-54.600000000000009
42
-0.41421356237309503
10
145.08750000000001
20
-55.100000000000009
10
132.08750000000003
20
-55.100000000000016
42
-0.41421356237309503
0
LWPOLYLINE
5
135
100
AcDbEntity
8
0
100
AcDbPolyline
90
8
70
1
43
0.0
10
49.837499999999999
20
-41.100000000000001
10
36.837499999999991
20
-41.100000000000001
42
0.41421356237309503
10
36.337499999999991
20
-41.600000000000001
10
36.337499999999991
20
-54.600000000000009
42
0.41421356237309503
10
36.837499999999991
20
-55.100000000000009
10
49.837499999999999
20
-55.100000000000009
42
0.41421356237309503
10
50.337499999999991
20
-54.600000000000009
10
50.337499999999991
20
-41.600000000000001
42
0.41421356237309503
0
LWPOLYLINE
5
136
100
AcDbEntity
8
0
100
AcDbPolyline
90
8
70
1
43
0.0
10
107.48750000000001
20
-54.600000000000009
42
-0.41421356237309503
10
106.98750000000001
20
-55.100000000000009
10
93.987499999999997
20
-55.100000000000016
42
-0.41421356237309503
10
93.487499999999983
20
-54.600000000000009
10
93.487499999999983
20
-41.600000000000001
42
-0.41421356237309503
10
93.987499999999997
20
-41.100000000000001
10
106.98750000000001
20
-41.099999999999994
42
-0.41421356237309503
10
107.48750000000001
20
-41.600000000000001
0
LWPOLYLINE
5
137
100
AcDbEntity
8
0
100
AcDbPolyline
90
8
70
1
43
0.0
10
221.78750000000002
20
-54.600000000000009
10
221.78750000000002
20
-41.600000000000001
42
0.41421356237309503
10
221.28749999999999
20
-41.100000000000001
10
208.28749999999999
20
-41.100000000000001
42
0.41421356237309503
10
207.78749999999999
20
-41.600000000000001
10
207.78749999999999
20
-54.600000000000009
42
0.41421356237309503
10
208.28749999999999
20
-55.100000000000009
10
221.28749999999999
20
-55.100000000000009
42
0.41421356237309503
0
LWPOLYLINE
5
138
100
AcDbEntity
8
0
100
AcDbPolyline
90
8
70
1
43
0.0
10
202.23749999999998
20
-41.100000000000001
10
189.23749999999998
20
-41.100000000000001
42
0.41421356237309503
10
188.73749999999998
20
-41.600000000000001
10
188.73749999999998
20
-54.600000000000009
42
0.41421356237309503
10
189.23749999999998
20
-55.100000000000009
10
202.23749999999998
20
-55.100000000000009
42
0.41421356237309503
10
202.73750000000001
20
-54.600000000000009
10
202.73750000000001
20
-41.600000000000001
42
0.41421356237309503
0
LWPOLYLINE
5
139
100
AcDbEntity
8
0
100
AcDbPolyline
90
8
70
1
43
0.0
10
226.83750000000003
20
-54.600000000000009
10
226.83750000000001
20
-41.600000000000001
42
-0.41421356237309503
10
227.33750000000001
20
-41.100000000000001
10
240.33750000000001
20
-41.099999999999994
42
-0.41421356237309503
10
240.83750000000003
20
-41.600000000000001
10
240.83750000000003
20
-54.600000000000009
42
-0.41421356237309503
10
240.33750000000001
20
-55.100000000000009
10
227.33750000000001
20
-55.09999999999998
42
-0.41421356237309503
0
LWPOLYLINE
5
140
100
AcDbEntity
8
0
100
AcDbPolyline
90
8
70
1
43
0.0
10
183.1875
20
-55.100000000000009
10
170.1875
20
-55.100000000000016
42
-0.41421356237309503
10
169.6875
20
-54.600000000000009
10
169.6875
20
-41.600000000000001
42
-0.41421356237309503
10
170.1875
20
-41.100000000000001
10
183.1875
20
-41.099999999999994
42
-0.41421356237309503
10
183.68750000000003
20
-41.600000000000001
10
183.68750000000003
20
-54.600000000000009
42
-0.41421356237309503
0
LWPOLYLINE
5
141
100
AcDbEntity
8
0
100
AcDbPolyline
90
8
70
1
43
0.0
10
302.25
20
-41.100000000000001
10
289.25
20
-41.100000000000001
42
0.41421356237309503
10
288.75
20
-41.600000000000001
10
288.75
20
-54.600000000000009
42
0.41421356237309503
10
289.25
20
-55.100000000000009
10
302.25
20
-55.100000000000009
42
0.41421356237309503
10
302.75
20
-54.600000000000009
10
302.75
20
-41.600000000000001
42
0.41421356237309503
0
LWPOLYLINE
5
142
100
AcDbEntity
8
0
100
AcDbPolyline
90
8
70
1
43
0.0
10
97.962500000000006
20
-73.650000000000006
42
-0.41421356237309503
10
97.462500000000006
20
-74.150000000000006
10
84.462499999999991
20
-74.150000000000006
42
-0.41421356237309503
10
83.962499999999977
20
-73.650000000000006
10
83.962499999999977
20
-60.650000000000006
42
-0.41421356237309503
10
84.462499999999991
20
-60.150000000000006
10
97.462500000000006
20
-60.149999999999999
42
-0.41421356237309503
10
97.962500000000006
20
-60.650000000000006
0
LWPOLYLINE
5
143
100
AcDbEntity
8
0
100
AcDbPolyline
90
8
70
1
43
0.0
10
78.912499999999994
20
-73.650000000000006
42
-0.41421356237309503
10
78.412499999999994
20
-74.150000000000006
10
65.412499999999994
20
-74.150000000000006
42
-0.41421356237309503
10
64.912499999999994
20
-73.650000000000006
10
64.912499999999994
20
-60.650000000000006
42
-0.41421356237309503
10
65.412499999999994
20
-60.150000000000006
10
78.412499999999994
20
-60.150000000000006
42
-0.41421356237309503
10
78.912499999999994
20
-60.650000000000006
0
LWPOLYLINE
5
144
100
AcDbEntity
8
0
100
AcDbPolyline
90
8
70
1
43
0.0
10
59.862499999999997
20
-73.650000000000006
10
59.862499999999997
20
-60.650000000000006
42
0.41421356237309503
10
59.362500000000004
20
-60.150000000000006
10
46.362499999999997
20
-60.150000000000006
42
0.41421356237309503
10
45.862499999999997
20
-60.650000000000006
10
45.862499999999997
20
-73.650000000000006
42
0.41421356237309503
10
46.362499999999997
20
-74.150000000000006
10
59.362500000000004
20
-74.150000000000006
42
0.41421356237309503
0
LWPOLYLINE
5
145
100
AcDbEntity
8
0
100
AcDbPolyline
90
8
70
1
43
0.0
10
117.01249999999999
20
-73.650000000000006
42
-0.41421356237309503
10
116.51249999999999
20
-74.150000000000006
10
103.5125
20
-74.150000000000006
42
-0.41421356237309503
10
103.01249999999999
20
-73.650000000000006
10
103.01249999999999
20
-60.650000000000006
42
-0.41421356237309503
10
103.5125
20
-60.150000000000006
10
116.51249999999999
20
-60.149999999999999
42
-0.41421356237309503
10
117.0125
20
-60.650000000000006
0
LWPOLYLINE
5
146
100
AcDbEntity
8
0
100
AcDbPolyline
90
8
70
1
43
0.0
10
136.0625
20
-73.650000000000006
10
136.0625
20
-60.650000000000006
42
0.41421356237309503
10
135.5625
20
-60.150000000000006
10
122.56250000000001
20
-60.150000000000006
42
0.41421356237309503
10
122.0625
20
-60.650000000000006
10
122.0625
20
-73.650000000000006
42
0.41421356237309503
10
122.56250000000001
20
-74.150000000000006
10
135.5625
20
-74.150000000000006
42
0.41421356237309503
0
LWPOLYLINE
5
147
100
AcDbEntity
8
0
100
AcDbPolyline
90
8
70
1
43
0.0
10
211.76249999999999
20
-60.149999999999999
42
-0.41421356237309503
10
212.26249999999999
20
-60.650000000000006
10
212.26249999999999
20
-73.650000000000006
42
-0.41421356237309503
10
211.76249999999999
20
-74.150000000000006
10
198.76249999999999
20
-74.150000000000006
42
-0.41421356237309503
10
198.26249999999999
20
-73.650000000000006
10
198.26249999999999
20
-60.650000000000006
42
-0.41421356237309503
10
198.76249999999999
20
-60.150000000000006
0
LWPOLYLINE
5
148
100
AcDbEntity
8
0
100
AcDbPolyline
90
8
70
1
43
0.0
10
192.71250000000003
20
-60.150000000000006
10
179.71250000000001
20
-60.150000000000006
42
0.41421356237309503
10
179.21250000000001
20
-60.650000000000006
10
179.21250000000001
20
-73.650000000000006
42
0.41421356237309503
10
179.71250000000001
20
-74.150000000000006
10
192.71250000000003
20
-74.150000000000006
42
0.41421356237309503
10
193.21250000000003
20
-73.650000000000006
10
193.21250000000003
20
-60.650000000000006
42
0.41421356237309503
0
LWPOLYLINE
5
149
100
AcDbEntity
8
0
100
AcDbPolyline
90
8
70
1
43
0.0
10
160.66249999999999
20
-74.150000000000006
42
-0.41421356237309503
10
160.16249999999999
20
-73.650000000000006
10
160.16249999999999
20
-60.650000000000006
42
-0.41421356237309503
10
160.66249999999999
20
-60.150000000000006
10
173.66250000000002
20
-60.149999999999999
42
-0.41421356237309503
10
174.16250000000002
20
-60.650000000000006
10
174.16250000000002
20
-73.650000000000006
42
-0.41421356237309503
10
173.66250000000002
20
-74.150000000000006
0
LWPOLYLINE
5
150
100
AcDbEntity
8
0
100
AcDbPolyline
90
8
70
1
43
0.0
10
230.8125
20
-60.149999999999999
42
-0.41421356237309503
10
231.3125
20
-60.650000000000006
10
231.3125
20
-73.650000000000006
42
-0.41421356237309503
10
230.8125
20
-74.150000000000006
10
217.8125
20
-74.149999999999977
42
-0.41421356237309503
10
217.31250000000003
20
-73.650000000000006
10
217.3125
20
-60.650000000000006
42
-0.41421356237309503
10
217.8125
20
-60.150000000000006
0
LWPOLYLINE
5
151
100
AcDbEntity
8
0
100
AcDbPolyline
90
8
70
1
43
0.0
10
154.61250000000001
20
-60.150000000000006
10
141.61249999999998
20
-60.150000000000006
42
0.41421356237309503
10
141.11249999999998
20
-60.650000000000006
10
141.11249999999998
20
-73.650000000000006
42
0.41421356237309503
10
141.61249999999998
20
-74.150000000000006
10
154.61250000000001
20
-74.150000000000006
42
0.41421356237309503
10
155.11249999999998
20
-73.650000000000006
10
155.11249999999998
20
-60.650000000000006
42
0.41421356237309503
0
LWPOLYLINE
5
152
100
AcDbEntity
8
0
100
AcDbPolyline
90
8
70
1
43
0.0
10
283.20000000000005
20
-60.149999999999999
42
-0.41421356237309503
10
283.70000000000005
20
-60.650000000000006
10
283.70000000000005
20
-73.650000000000006
42
-0.41421356237309503
10
283.20000000000005
20
-74.150000000000006
10
270.20000000000005
20
-74.150000000000006
42
-0.41421356237309503
10
269.70000000000005
20
-73.650000000000006
10
269.70000000000005
20
-60.650000000000006
42
-0.41421356237309503
10
270.20000000000005
20
-60.150000000000006
0
LWPOLYLINE
5
153
100
AcDbEntity
8
0
100
AcDbPolyline
90
8
70
1
43
0.0
10
302.75
20
-73.650000000000006
10
302.75
20
-60.650000000000006
42
0.41421356237309503
10
302.25
20
-60.150000000000006
10
289.25
20
-60.150000000000006
42
0.41421356237309503
10
288.75
20
-60.650000000000006
10
288.75
20
-73.650000000000006
42
0.41421356237309503
10
289.25
20
-74.150000000000006
10
302.25
20
-74.150000000000006
42
0.41421356237309503
0
LWPOLYLINE
5
154
100
AcDbEntity
8
0
100
AcDbPolyline
90
8
70
1
43
0.0
10
244.00625000000002
20
-74.150000000000006
42
-0.41421356237309503
10
243.50625000000002
20
-73.650000000000006
10
243.50625000000002
20
-60.650000000000006
42
-0.41421356237309503
10
244.00625000000002
20
-60.150000000000006
10
257.00625000000002
20
-60.150000000000034
42
-0.41421356237309503
10
257.50625000000002
20
-60.650000000000006
10
257.50625000000002
20
-73.650000000000006
42
-0.41421356237309503
10
257.00625000000002
20
-74.150000000000006
0
LWPOLYLINE
5
155
100
AcDbEntity
8
0
100
AcDbPolyline
90
8
70
1
43
0.0
10
67.006249999999994
20
-92.699999999999989
10
67.006249999999994
20
-79.700000000000003
42
0.41421356237309503
10
66.506249999999994
20
-79.200000000000003
10
53.506250000000001
20
-79.200000000000003
42
0.41421356237309503
10
53.006250000000001
20
-79.700000000000003
10
53.006250000000001
20
-92.699999999999989
42
0.41421356237309503
10
53.506250000000001
20
-93.200000000000003
10
66.506249999999994
20
-93.200000000000003
42
0.41421356237309503
0
LINE
5
156
100
AcDbEntity
8
0
100
AcDbLine
10
163.04374999999999
20
-93.200000000000003
30
0
11
176.04375000000002
21
-93.200000000000003
31
0
0
LWPOLYLINE
5
157
100
AcDbEntity
8
0
100
AcDbPolyline
90
8
70
1
43
0.0
10
43.193750000000001
20
-92.699999999999989
10
43.193750000000001
20
-79.700000000000003
42
0.41421356237309503
10
42.693749999999994
20
-79.200000000000003
10
29.693749999999994
20
-79.200000000000003
42
0.41421356237309503
10
29.193749999999994
20
-79.700000000000003
10
29.193749999999994
20
-92.699999999999989
42
0.41421356237309503
10
29.693749999999994
20
-93.200000000000003
10
42.693749999999994
20
-93.200000000000003
42
0.41421356237309503
0
LWPOLYLINE
5
158
100
AcDbEntity
8
0
100
AcDbPolyline
90
8
70
1
43
0.0
10
19.381250000000001
20
-92.699999999999989
42
-0.41421356237309503
10
18.881249999999994
20
-93.200000000000003
10
5.8812499999999943
20
-93.200000000000003
42
-0.41421356237309503
10
5.3812499999999952
20
-92.699999999999989
10
5.3812499999999961
20
-79.700000000000003
42
-0.41421356237309503
10
5.8812499999999934
20
-79.200000000000003
10
18.881249999999994
20
-79.200000000000003
42
-0.41421356237309503
10
19.381249999999998
20
-79.700000000000003
0
LINE
5
159
100
AcDbEntity
8
0
100
AcDbLine
10
163.04374999999999
20
-79.200000000000003
30
0
11
176.04375000000002
21
-79.200000000000003
31
0
0
LWPOLYLINE
5
160
100
AcDbEntity
8
0
100
AcDbPolyline
90
8
70
1
43
0.0
10
209.38124999999999
20
-93.200000000000003
10
196.38125000000002
20
-93.200000000000003
42
-0.41421356237309503
10
195.88125000000002
20
-92.699999999999989
10
195.88125000000002
20
-79.700000000000003
42
-0.41421356237309503
10
196.38125000000002
20
-79.200000000000003
10
209.38124999999999
20
-79.199999999999989
42
-0.41421356237309503
10
209.88124999999999
20
-79.700000000000003
10
209.88124999999999
20
-92.699999999999989
42
-0.41421356237309503
0
LWPOLYLINE
5
161
100
AcDbEntity
8
0
100
AcDbPolyline
90
8
70
1
43
0.0
10
264.65000000000003
20
-92.699999999999989
42
-0.41421356237309503
10
264.15000000000003
20
-93.200000000000003
10
251.15000000000003
20
-93.200000000000003
42
-0.41421356237309503
10
250.65000000000001
20
-92.699999999999989
10
250.65000000000001
20
-79.700000000000003
42
-0.41421356237309503
10
251.15000000000003
20
-79.200000000000003
10
264.15000000000003
20
-79.199999999999989
42
-0.41421356237309503
10
264.65000000000003
20
-79.700000000000003
0
LWPOLYLINE
5
162
100
AcDbEntity
8
0
100
AcDbPolyline
90
8
70
1
43
0.0
10
233.69375000000002
20
-92.699999999999989
10
233.69375000000002
20
-79.700000000000003
42
0.41421356237309503
10
233.19375000000002
20
-79.200000000000003
10
220.19374999999999
20
-79.200000000000003
42
0.41421356237309503
10
219.69374999999999
20
-79.700000000000003
10
219.69374999999999
20
-92.699999999999989
42
0.41421356237309503
10
220.19374999999999
20
-93.200000000000003
10
233.19375000000002
20
-93.200000000000003
42
0.41421356237309503
0
LWPOLYLINE
5
163
100
AcDbEntity
8
0
100
AcDbPolyline
90
8
70
1
43
0.0
10
270.20000000000005
20
-93.200000000000003
42
-0.41421356237309503
10
269.70000000000005
20
-92.699999999999989
10
269.70000000000005
20
-79.700000000000003
42
-0.41421356237309503
10
270.20000000000005
20
-79.200000000000003
10
283.20000000000005
20
-79.199999999999989
42
-0.41421356237309503
10
283.70000000000005
20
-79.700000000000003
10
283.70000000000005
20
-92.699999999999989
42
-0.41421356237309503
10
283.20000000000005
20
-93.200000000000003
0
LWPOLYLINE
5
164
100
AcDbEntity
8
0
100
AcDbPolyline
90
8
70
1
43
0.0
10
288.75
20
-92.699999999999989
10
288.74999999999994
20
-79.700000000000003
42
-0.41421356237309503
10
289.25
20
-79.200000000000003
10
302.25
20
-79.199999999999989
42
-0.41421356237309503
10
302.75
20
-79.700000000000003
10
302.75
20
-92.699999999999989
42
-0.41421356237309503
10
302.25
20
-93.200000000000003
10
289.25
20
-93.19999999999996
42
-0.41421356237309503
0
LWPOLYLINE
5
165
100
AcDbEntity
8
0
100
AcDbPolyline
90
8
70
1
43
0.0
10
305.75
20
-92.699500000000029
10
305.75
20
-3.5000000000000036
42
0.41421356237309681
10
302.25000000000006
20
-3.8857805861880479e-15
10
3.4999999999999942
20
-3.8857805861880479e-15
42
0.41421356237309481
10
-5.5511151231257827e-15
20
-3.4999999999999964
10
-5.5511151231257827e-15
20
-92.699500000000015
42
0.41421356237309553
10
3.4999999999999787
20
-96.199500000000015
10
302.25000000000006
20
-96.199500000000015
42
0.41421356237309503
0
LWPOLYLINE
5
166
100
AcDbEntity
8
0
100
AcDbPolyline
90
40
70
1
43
0.0
10
30.194191322164265
20
-64.138021780158283
10
29.406191322164265
20
-64.138021780158283
42
-0.41421356237309503
10
28.906191322164268
20
-63.638021780158283
10
28.906191322164268
20
-60.649532994080168
42
0.41421356237310025
10
28.406191322164268
20
-60.149532994080168
10
15.406191322164297
20
-60.149532994080168
42
0.41421356237309503
10
14.9061913221643
20
-60.649532994080175
10
14.906191322164297
20
-63.638021780158283
42
-0.41421356237308071
10
14.406191322164297
20
-64.138021780158297
10
13.618191322164302
20
-64.138021780158283
42
-0.41421356237309892
10
13.1181913221643
20
-63.638021780158297
10
13.1181913221643
20
-60.638021780158304
42
0.41421356237309503
10
12.618191322164304
20
-60.138021780158297
10
6.9681913221643139
20
-60.138021780158297
42
0.41421356237309503
10
6.4681913221643157
20
-60.638021780158304
10
6.4681913221643184
20
-73.638021780158283
42
0.41421356237308787
10
6.9681913221643157
20
-74.138021780158269
10
12.618191322164304
20
-74.138021780158269
42
0.41421356237309503
10
13.1181913221643
20
-73.638021780158283
10
13.1181913221643
20
-70.638021780158283
42
-0.41421356237309631
10
13.618191322164302
20
-70.138021780158283
10
14.406191322164299
20
-70.138021780158283
42
-0.41421356237309631
10
14.9061913221643
20
-70.638021780158283
10
14.9061913221643
20
-73.649532994080133
42
0.41421356237309243
10
15.406191322164297
20
-74.149532994080133
10
28.406191322164275
20
-74.149532994080133
42
0.41421356237310542
10
28.906191322164268
20
-73.649532994080133
10
28.906191322164268
20
-70.638021780158283
42
-0.41421356237309503
10
29.406191322164265
20
-70.138021780158283
10
30.194191322164265
20
-70.138021780158283
42
-0.41421356237309503
10
30.694191322164261
20
-70.638021780158283
10
30.694191322164261
20
-73.638021780158269
42
0.41421356237310281
10
31.194191322164265
20
-74.138021780158269
10
36.844191322164257
20
-74.138021780158269
42
0.41421356237309764
10
37.344191322164249
20
-73.638021780158269
10
37.344191322164249
20
-60.638021780158297
42
0.41421356237310542
10
36.844191322164249
20
-60.138021780158297
10
31.194191322164258
20
-60.138021780158297
42
0.41421356237309503
10
30.694191322164261
20
-60.638021780158297
10
30.694191322164261
20
-63.638021780158283
42
-0.41421356237309503
0
LWPOLYLINE
5
167
100
AcDbEntity
8
0
100
AcDbPolyline
90
12
70
1
43
0.0
10
77.905274959021256
20
-79.700435633571232
10
77.905274959021256
20
-92.700435633571217
42
0.4142135623730846
10
78.405274959021241
20
-93.200435633571203
10
84.055274959021233
20
-93.200435633571203
10
107.39443178954207
20
-93.188282294945154
10
113.04443178954207
20
-93.188282294945154
42
0.41421356237309503
10
113.54443178954206
20
-92.688282294945154
10
113.54443178954206
20
-79.688282294945139
42
0.41421356237310542
10
113.04443178954205
20
-79.188282294945154
10
107.39443178954207
20
-79.188282294945154
10
84.055274959021233
20
-79.200435633571246
10
78.405274959021241
20
-79.200435633571246
42
0.41421356237309503
0
LWPOLYLINE
5
168
100
AcDbEntity
8
0
100
AcDbPolyline
90
12
70
1
43
0.0
10
77.905274959021256
20
-79.700435633571232
42
-0.41421356237309503
10
78.405274959021241
20
-79.200435633571246
10
84.055274959021233
20
-79.200435633571246
10
107.39443178954207
20
-79.188282294945154
10
113.04443178954205
20
-79.188282294945154
42
-0.41421356237310542
10
113.54443178954206
20
-79.688282294945139
10
113.54443178954207
20
-92.688282294945154
42
-0.41421356237309503
10
113.04443178954207
20
-93.188282294945154
10
107.39443178954207
20
-93.188282294945154
10
84.055274959021233
20
-93.200435633571203
10
78.405274959021241
20
-93.200435633571189
42
-0.4142135623730846
10
77.905274959021256
20
-92.700435633571217
0
LWPOLYLINE
5
169
100
AcDbEntity
8
0
100
AcDbPolyline
90
12
70
1
43
0.0
10
149.34227495902124
20
-79.700435633571232
42
-0.41421356237309503
10
149.84227495902124
20
-79.200435633571246
10
155.49227495902124
20
-79.200435633571246
10
178.83143178954208
20
-79.188282294945154
10
184.48143178954206
20
-79.188282294945139
42
-0.41421356237309503
10
184.98143178954206
20
-79.688282294945139
10
184.98143178954206
20
-92.688282294945154
42
-0.41421356237309503
10
184.48143178954206
20
-93.188282294945154
10
178.83143178954208
20
-93.188282294945154
10
155.49227495902124
20
-93.200435633571203
10
149.84227495902124
20
-93.200435633571189
42
-0.4142135623730846
10
149.34227495902124
20
-92.700435633571217
0
LWPOLYLINE
5
170
100
AcDbEntity
8
0
100
AcDbPolyline
90
8
70
1
43
0.0
10
142.70600183284282
20
-79.200001154839995
10
120.18100183284282
20
-79.200001154839995
42
0.41421356237305862
10
119.68100183284284
20
-79.700001154839995
10
119.68100183284284
20
-92.700001154839981
42
0.41421356237307422
10
120.18100183284284
20
-93.200001154839995
10
142.70600183284282
20
-93.200001154839995
42
0.41421356237307422
10
143.20600183284282
20
-92.700001154839981
10
143.20600183284282
20
-79.700001154839995
42
0.414213562373069
0
CIRCLE
5
171
100
AcDbEntity
8
0
100
AcDbCircle
10
48.100000715255746
20
-77.150001162290579
30
0
40
2.25
210
0
220
0
230
1
0
CIRCLE
5
172
100
AcDbEntity
8
0
100
AcDbCircle
10
57.624912565825738
20
-19.049840219339586
30
0
40
2.25
210
0
220
0
230
1
0
CIRCLE
5
173
100
AcDbEntity
8
0
100
AcDbCircle
10
152.87500227987766
20
-19.05000028312206
30
0
40
2.2499999999999964
210
0
220
0
230
1
0
CIRCLE
5
174
100
AcDbEntity
8
0
100
AcDbCircle
10
146.27400217556965
20
-77.150001184642363
30
0
40
2.2500000000000018
210
0
220
0
230
1
0
CIRCLE
5
175
100
AcDbEntity
8
0
100
AcDbCircle
10
248.6682154648559
20
-19.04976294616182
30
0
40
2.2500000000000098
210
0
220
0
230
1
0
CIRCLE
5
176
100
AcDbEntity
8
0
100
AcDbCircle
10
267.17500398606063
20
-77.150001147389403
30
0
40
2.2500000000000018
210
0
220
0
230
1
0
LWPOLYLINE
5
177
100
AcDbEntity
8
0
100
AcDbPolyline
90
40
70
1
43
0.0
10
272.29395604408342
20
-45.100138055831152
42
-0.41421356237309503
10
271.79395604408336
20
-44.600138055831152
10
271.79395604408336
20
-41.61164926975303
42
0.41421356237310025
10
271.29395604408342
20
-41.11164926975303
10
258.29395604408342
20
-41.11164926975303
42
0.41421356237309503
10
257.79395604408342
20
-41.611649269753038
10
257.79395604408342
20
-44.600138055831152
42
-0.41421356237308982
10
257.29395604408342
20
-45.100138055831152
10
256.5059560440834
20
-45.100138055831131
42
-0.41421356237309503
10
256.00595604408346
20
-44.60013805583116
10
256.00595604408346
20
-41.600138055831167
42
0.41421356237309503
10
255.50595604408343
20
-41.10013805583116
10
249.85595604408346
20
-41.10013805583116
42
0.41421356237309503
10
249.35595604408346
20
-41.600138055831167
10
249.35595604408346
20
-54.600138055831138
42
0.41421356237308982
10
249.85595604408346
20
-55.100138055831131
10
255.50595604408343
20
-55.100138055831138
42
0.41421356237309503
10
256.00595604408346
20
-54.600138055831138
10
256.0059560440834
20
-51.600138055831138
42
-0.41421356237309503
10
256.5059560440834
20
-51.100138055831145
10
257.29395604408342
20
-51.100138055831138
42
-0.41421356237309503
10
257.79395604408342
20
-51.600138055831138
10
257.79395604408342
20
-54.611649269753002
42
0.41421356237309503
10
258.29395604408342
20
-55.111649269753002
10
271.29395604408342
20
-55.111649269753002
42
0.41421356237310542
10
271.79395604408336
20
-54.611649269752995
10
271.79395604408336
20
-51.600138055831138
42
-0.41421356237309503
10
272.29395604408342
20
-51.100138055831145
10
273.08195604408343
20
-51.100138055831167
42
-0.41421356237309503
10
273.58195604408337
20
-51.600138055831138
10
273.58195604408337
20
-54.600138055831131
42
0.41421356237310025
10
274.08195604408337
20
-55.100138055831131
10
279.7319560440834
20
-55.100138055831131
42
0.41421356237310025
10
280.23195604408335
20
-54.600138055831131
10
280.23195604408335
20
-41.60013805583116
42
0.41421356237310025
10
279.7319560440834
20
-41.10013805583116
10
274.08195604408337
20
-41.10013805583116
42
0.41421356237309503
10
273.58195604408337
20
-41.60013805583116
10
273.58195604408343
20
-44.600138055831152
42
-0.41421356237309503
10
273.08195604408343
20
-45.100138055831145
0
LWPOLYLINE
5
178
100
AcDbEntity
8
0
100
AcDbPolyline
90
40
70
1
43
0.0
10
274.67463200726365
20
-6.9887500247240784
42
-0.41421356237309503
10
274.17463200726365
20
-6.4887500247240713
10
274.17463200726365
20
-3.5002612386459528
42
0.41421356237310025
10
273.67463200726365
20
-3.0002612386459546
10
260.67463200726371
20
-3.0002612386459546
42
0.41421356237309503
10
260.17463200726365
20
-3.5002612386459617
10
260.17463200726365
20
-6.4887500247240713
42
-0.41421356237308982
10
259.67463200726365
20
-6.9887500247240784
10
258.88663200726364
20
-6.9887500247240517
42
-0.41421356237309503
10
258.3866320072637
20
-6.4887500247240801
10
258.3866320072637
20
-3.4887500247240908
42
0.41421356237309503
10
257.8866320072637
20
-2.9887500247240837
10
252.23663200726372
20
-2.9887500247240837
42
0.41421356237309503
10
251.73663200726369
20
-3.4887500247240899
10
251.73663200726369
20
-16.488750024724062
42
0.41421356237308982
10
252.23663200726372
20
-16.988750024724052
10
257.8866320072637
20
-16.988750024724059
42
0.41421356237309503
10
258.3866320072637
20
-16.488750024724062
10
258.38663200726364
20
-13.488750024724062
42
-0.41421356237309503
10
258.88663200726364
20
-12.988750024724066
10
259.67463200726365
20
-12.988750024724055
42
-0.41421356237309503
10
260.17463200726365
20
-13.488750024724062
10
260.17463200726365
20
-16.500261238645923
42
0.41421356237309503
10
260.67463200726371
20
-17.000261238645923
10
273.67463200726365
20
-17.000261238645923
42
0.41421356237310542
10
274.17463200726365
20
-16.500261238645916
10
274.17463200726365
20
-13.488750024724062
42
-0.41421356237309503
10
274.67463200726365
20
-12.988750024724066
10
275.46263200726366
20
-12.988750024724055
42
-0.41421356237309503
10
275.96263200726366
20
-13.488750024724062
10
275.96263200726366
20
-16.488750024724052
42
0.41421356237310025
10
276.46263200726361
20
-16.988750024724052
10
282.11263200726364
20
-16.988750024724052
42
0.41421356237310025
10
282.61263200726364
20
-16.488750024724052
10
282.61263200726364
20
-3.4887500247240819
42
0.41421356237312101
10
282.11263200726358
20
-2.9887500247240837
10
276.46263200726361
20
-2.9887500247240837
42
0.41421356237309503
10
275.96263200726366
20
-3.4887500247240819
10
275.96263200726366
20
-6.4887500247240713
42
-0.41421356237309503
10
275.46263200726366
20
-6.9887500247240695
0
ENDSEC
0
SECTION
2
OBJECTS
0
DICTIONARY
5
C
100
AcDbDictionary
3
ACAD_GROUP
350
D
3
ACAD_MLINESTYLE
350
17
0
DICTIONARY
5
D
100
AcDbDictionary
0
DICTIONARY
5
1A
330
C
100
AcDbDictionary
0
DICTIONARY
5
17
100
AcDbDictionary
0
ENDSEC
0
EOF
