%FSLAX45Y45*%
G04 Gerber Fmt 4.5, Leading zero omitted, Abs format (unit mm)*
G04 Created by KiCad (PCBNEW (5.1.10)-1) date 2021-07-26 23:58:04*
%MOMM*%
%LPD*%
G01*
G04 APERTURE LIST*
%TA.AperFunction,Profile*%
%ADD10C,0.150000*%
%TD*%
%ADD11C,0.200000*%
%ADD12C,0.300000*%
G04 APERTURE END LIST*
D10*
X35535325Y-18050222D02*
X5707644Y-18050222D01*
X35866031Y-6100181D02*
X35866031Y-17719516D01*
X5707344Y-5769475D02*
X35535325Y-5769475D01*
X5376638Y-17719816D02*
X5376638Y-6100181D01*
X35535325Y-5769475D02*
G75*
G02*
X35866031Y-6100181I0J-330706D01*
G01*
X35866031Y-17719516D02*
G75*
G02*
X35535325Y-18050222I-330706J0D01*
G01*
X5707644Y-18050222D02*
G75*
G02*
X5376638Y-17719816I-300J330706D01*
G01*
X5376638Y-6100181D02*
G75*
G02*
X5707344Y-5769475I330706J0D01*
G01*
D11*
X5741125Y-9392375D02*
X5911125Y-9562375D01*
X5911125Y-9392375D02*
X5741125Y-9562375D01*
X5979245Y-17011362D02*
X6149245Y-17181362D01*
X6149245Y-17011362D02*
X5979245Y-17181362D01*
X6217375Y-11297375D02*
X6387375Y-11467375D01*
X6387375Y-11297375D02*
X6217375Y-11467375D01*
X6455505Y-13201362D02*
X6625505Y-13371362D01*
X6625505Y-13201362D02*
X6455505Y-13371362D01*
X6757125Y-9392375D02*
X6927125Y-9562375D01*
X6927125Y-9392375D02*
X6757125Y-9562375D01*
X6931745Y-15107375D02*
X7101745Y-15277375D01*
X7101745Y-15107375D02*
X6931745Y-15277375D01*
X6995245Y-17011362D02*
X7165245Y-17181362D01*
X7165245Y-17011362D02*
X6995245Y-17181362D01*
X7233375Y-11297375D02*
X7403375Y-11467375D01*
X7403375Y-11297375D02*
X7233375Y-11467375D01*
X7471505Y-13201362D02*
X7641505Y-13371362D01*
X7641505Y-13201362D02*
X7471505Y-13371362D01*
X7646125Y-9392375D02*
X7816125Y-9562375D01*
X7816125Y-9392375D02*
X7646125Y-9562375D01*
X7947745Y-15107375D02*
X8117745Y-15277375D01*
X8117745Y-15107375D02*
X7947745Y-15277375D01*
X8360505Y-17012375D02*
X8530505Y-17182375D01*
X8530505Y-17012375D02*
X8360505Y-17182375D01*
X8598625Y-11297375D02*
X8768625Y-11467375D01*
X8768625Y-11297375D02*
X8598625Y-11467375D01*
X8662125Y-9392375D02*
X8832125Y-9562375D01*
X8832125Y-9392375D02*
X8662125Y-9562375D01*
X9074875Y-13202375D02*
X9244875Y-13372375D01*
X9244875Y-13202375D02*
X9074875Y-13372375D01*
X9376505Y-17012375D02*
X9546505Y-17182375D01*
X9546505Y-17012375D02*
X9376505Y-17182375D01*
X9551125Y-9392375D02*
X9721125Y-9562375D01*
X9721125Y-9392375D02*
X9551125Y-9562375D01*
X9614625Y-11297375D02*
X9784625Y-11467375D01*
X9784625Y-11297375D02*
X9614625Y-11467375D01*
X10027375Y-15107375D02*
X10197375Y-15277375D01*
X10197375Y-15107375D02*
X10027375Y-15277375D01*
X10090875Y-13202375D02*
X10260875Y-13372375D01*
X10260875Y-13202375D02*
X10090875Y-13372375D01*
X10503625Y-11297375D02*
X10673625Y-11467375D01*
X10673625Y-11297375D02*
X10503625Y-11467375D01*
X10567125Y-9392375D02*
X10737125Y-9562375D01*
X10737125Y-9392375D02*
X10567125Y-9562375D01*
X10741745Y-17011362D02*
X10911745Y-17181362D01*
X10911745Y-17011362D02*
X10741745Y-17181362D01*
X10979875Y-13202375D02*
X11149875Y-13372375D01*
X11149875Y-13202375D02*
X10979875Y-13372375D01*
X11043375Y-15107375D02*
X11213375Y-15277375D01*
X11213375Y-15107375D02*
X11043375Y-15277375D01*
X11456125Y-9392375D02*
X11626125Y-9562375D01*
X11626125Y-9392375D02*
X11456125Y-9562375D01*
X11519625Y-11297375D02*
X11689625Y-11467375D01*
X11689625Y-11297375D02*
X11519625Y-11467375D01*
X11757745Y-17011362D02*
X11927745Y-17181362D01*
X11927745Y-17011362D02*
X11757745Y-17181362D01*
X11932375Y-15107375D02*
X12102375Y-15277375D01*
X12102375Y-15107375D02*
X11932375Y-15277375D01*
X11995875Y-13202375D02*
X12165875Y-13372375D01*
X12165875Y-13202375D02*
X11995875Y-13372375D01*
X12408625Y-11297375D02*
X12578625Y-11467375D01*
X12578625Y-11297375D02*
X12408625Y-11467375D01*
X12472125Y-9392375D02*
X12642125Y-9562375D01*
X12642125Y-9392375D02*
X12472125Y-9562375D01*
X12884875Y-13202375D02*
X13054875Y-13372375D01*
X13054875Y-13202375D02*
X12884875Y-13372375D01*
X12948375Y-15107375D02*
X13118375Y-15277375D01*
X13118375Y-15107375D02*
X12948375Y-15277375D01*
X13361125Y-9392375D02*
X13531125Y-9562375D01*
X13531125Y-9392375D02*
X13361125Y-9562375D01*
X13424625Y-11297375D02*
X13594625Y-11467375D01*
X13594625Y-11297375D02*
X13424625Y-11467375D01*
X13837375Y-15107375D02*
X14007375Y-15277375D01*
X14007375Y-15107375D02*
X13837375Y-15277375D01*
X13900875Y-13202375D02*
X14070875Y-13372375D01*
X14070875Y-13202375D02*
X13900875Y-13372375D01*
X14078000Y-17013000D02*
X14248000Y-17183000D01*
X14248000Y-17013000D02*
X14078000Y-17183000D01*
X14313625Y-11297375D02*
X14483625Y-11467375D01*
X14483625Y-11297375D02*
X14313625Y-11467375D01*
X14377125Y-9392375D02*
X14547125Y-9562375D01*
X14547125Y-9392375D02*
X14377125Y-9562375D01*
X14553000Y-17013000D02*
X14723000Y-17183000D01*
X14723000Y-17013000D02*
X14553000Y-17183000D01*
X14789825Y-13202375D02*
X14959825Y-13372375D01*
X14959825Y-13202375D02*
X14789825Y-13372375D01*
X14853375Y-15107375D02*
X15023375Y-15277375D01*
X15023375Y-15107375D02*
X14853375Y-15277375D01*
X15094000Y-17013000D02*
X15264000Y-17183000D01*
X15264000Y-17013000D02*
X15094000Y-17183000D01*
X15266125Y-9392375D02*
X15436125Y-9562375D01*
X15436125Y-9392375D02*
X15266125Y-9562375D01*
X15329625Y-11297375D02*
X15499625Y-11467375D01*
X15499625Y-11297375D02*
X15329625Y-11467375D01*
X15569000Y-17013000D02*
X15739000Y-17183000D01*
X15739000Y-17013000D02*
X15569000Y-17183000D01*
X15742425Y-15107375D02*
X15912425Y-15277375D01*
X15912425Y-15107375D02*
X15742425Y-15277375D01*
X15805825Y-13202375D02*
X15975825Y-13372375D01*
X15975825Y-13202375D02*
X15805825Y-13372375D01*
X16218625Y-11297375D02*
X16388625Y-11467375D01*
X16388625Y-11297375D02*
X16218625Y-11467375D01*
X16282125Y-9392375D02*
X16452125Y-9562375D01*
X16452125Y-9392375D02*
X16282125Y-9562375D01*
X16694825Y-13202375D02*
X16864825Y-13372375D01*
X16864825Y-13202375D02*
X16694825Y-13372375D01*
X16758425Y-15107375D02*
X16928425Y-15277375D01*
X16928425Y-15107375D02*
X16758425Y-15277375D01*
X17171125Y-9392375D02*
X17341125Y-9562375D01*
X17341125Y-9392375D02*
X17171125Y-9562375D01*
X17234625Y-11297375D02*
X17404625Y-11467375D01*
X17404625Y-11297375D02*
X17234625Y-11467375D01*
X17403000Y-17013000D02*
X17573000Y-17183000D01*
X17573000Y-17013000D02*
X17403000Y-17183000D01*
X17647425Y-15107375D02*
X17817425Y-15277375D01*
X17817425Y-15107375D02*
X17647425Y-15277375D01*
X17710825Y-13202375D02*
X17880825Y-13372375D01*
X17880825Y-13202375D02*
X17710825Y-13372375D01*
X17885500Y-17015550D02*
X18055500Y-17185550D01*
X18055500Y-17015550D02*
X17885500Y-17185550D01*
X18123625Y-11297375D02*
X18293625Y-11467375D01*
X18293625Y-11297375D02*
X18123625Y-11467375D01*
X18187125Y-9392375D02*
X18357125Y-9562375D01*
X18357125Y-9392375D02*
X18187125Y-9562375D01*
X18353000Y-17012375D02*
X18523000Y-17182375D01*
X18523000Y-17012375D02*
X18353000Y-17182375D01*
X18419000Y-17013000D02*
X18589000Y-17183000D01*
X18589000Y-17013000D02*
X18419000Y-17183000D01*
X18599825Y-13202375D02*
X18769825Y-13372375D01*
X18769825Y-13202375D02*
X18599825Y-13372375D01*
X18663425Y-15107375D02*
X18833425Y-15277375D01*
X18833425Y-15107375D02*
X18663425Y-15277375D01*
X18901500Y-17015550D02*
X19071500Y-17185550D01*
X19071500Y-17015550D02*
X18901500Y-17185550D01*
X19076125Y-9392375D02*
X19246125Y-9562375D01*
X19246125Y-9392375D02*
X19076125Y-9562375D01*
X19139625Y-11297375D02*
X19309625Y-11467375D01*
X19309625Y-11297375D02*
X19139625Y-11467375D01*
X19369000Y-17012375D02*
X19539000Y-17182375D01*
X19539000Y-17012375D02*
X19369000Y-17182375D01*
X19552425Y-15107375D02*
X19722425Y-15277375D01*
X19722425Y-15107375D02*
X19552425Y-15277375D01*
X19615825Y-13202375D02*
X19785825Y-13372375D01*
X19785825Y-13202375D02*
X19615825Y-13372375D01*
X20028625Y-11297375D02*
X20198625Y-11467375D01*
X20198625Y-11297375D02*
X20028625Y-11467375D01*
X20092125Y-9392375D02*
X20262125Y-9562375D01*
X20262125Y-9392375D02*
X20092125Y-9562375D01*
X20504825Y-13202375D02*
X20674825Y-13372375D01*
X20674825Y-13202375D02*
X20504825Y-13372375D01*
X20568425Y-15107375D02*
X20738425Y-15277375D01*
X20738425Y-15107375D02*
X20568425Y-15277375D01*
X20981125Y-9392375D02*
X21151125Y-9562375D01*
X21151125Y-9392375D02*
X20981125Y-9562375D01*
X21044625Y-11297375D02*
X21214625Y-11467375D01*
X21214625Y-11297375D02*
X21044625Y-11467375D01*
X21218000Y-17013000D02*
X21388000Y-17183000D01*
X21388000Y-17013000D02*
X21218000Y-17183000D01*
X21457425Y-15107375D02*
X21627425Y-15277375D01*
X21627425Y-15107375D02*
X21457425Y-15277375D01*
X21520825Y-13202375D02*
X21690825Y-13372375D01*
X21690825Y-13202375D02*
X21520825Y-13372375D01*
X21688000Y-17013000D02*
X21858000Y-17183000D01*
X21858000Y-17013000D02*
X21688000Y-17183000D01*
X21933625Y-11297375D02*
X22103625Y-11467375D01*
X22103625Y-11297375D02*
X21933625Y-11467375D01*
X21997125Y-9392375D02*
X22167125Y-9562375D01*
X22167125Y-9392375D02*
X21997125Y-9562375D01*
X22234000Y-17013000D02*
X22404000Y-17183000D01*
X22404000Y-17013000D02*
X22234000Y-17183000D01*
X22409825Y-13202375D02*
X22579825Y-13372375D01*
X22579825Y-13202375D02*
X22409825Y-13372375D01*
X22473425Y-15107375D02*
X22643425Y-15277375D01*
X22643425Y-15107375D02*
X22473425Y-15277375D01*
X22704000Y-17013000D02*
X22874000Y-17183000D01*
X22874000Y-17013000D02*
X22704000Y-17183000D01*
X22886125Y-9392375D02*
X23056125Y-9562375D01*
X23056125Y-9392375D02*
X22886125Y-9562375D01*
X22949625Y-11297375D02*
X23119625Y-11467375D01*
X23119625Y-11297375D02*
X22949625Y-11467375D01*
X23362425Y-15107375D02*
X23532425Y-15277375D01*
X23532425Y-15107375D02*
X23362425Y-15277375D01*
X23425825Y-13202375D02*
X23595825Y-13372375D01*
X23595825Y-13202375D02*
X23425825Y-13372375D01*
X23838625Y-11297375D02*
X24008625Y-11467375D01*
X24008625Y-11297375D02*
X23838625Y-11467375D01*
X23902125Y-9392375D02*
X24072125Y-9562375D01*
X24072125Y-9392375D02*
X23902125Y-9562375D01*
X24314825Y-13202375D02*
X24484825Y-13372375D01*
X24484825Y-13202375D02*
X24314825Y-13372375D01*
X24378425Y-15107375D02*
X24548425Y-15277375D01*
X24548425Y-15107375D02*
X24378425Y-15277375D01*
X24791125Y-9392375D02*
X24961125Y-9562375D01*
X24961125Y-9392375D02*
X24791125Y-9562375D01*
X24854625Y-11297375D02*
X25024625Y-11467375D01*
X25024625Y-11297375D02*
X24854625Y-11467375D01*
X25032000Y-17015000D02*
X25202000Y-17185000D01*
X25202000Y-17015000D02*
X25032000Y-17185000D01*
X25267425Y-15107375D02*
X25437425Y-15277375D01*
X25437425Y-15107375D02*
X25267425Y-15277375D01*
X25330825Y-13202375D02*
X25500825Y-13372375D01*
X25500825Y-13202375D02*
X25330825Y-13372375D01*
X25743625Y-11297375D02*
X25913625Y-11467375D01*
X25913625Y-11297375D02*
X25743625Y-11467375D01*
X25807125Y-9392375D02*
X25977125Y-9562375D01*
X25977125Y-9392375D02*
X25807125Y-9562375D01*
X26048000Y-17015000D02*
X26218000Y-17185000D01*
X26218000Y-17015000D02*
X26048000Y-17185000D01*
X26219825Y-13202375D02*
X26389825Y-13372375D01*
X26389825Y-13202375D02*
X26219825Y-13372375D01*
X26283425Y-15107375D02*
X26453425Y-15277375D01*
X26453425Y-15107375D02*
X26283425Y-15277375D01*
X26696125Y-9392375D02*
X26866125Y-9562375D01*
X26866125Y-9392375D02*
X26696125Y-9562375D01*
X26759625Y-11297375D02*
X26929625Y-11467375D01*
X26929625Y-11297375D02*
X26759625Y-11467375D01*
X27172425Y-15107375D02*
X27342425Y-15277375D01*
X27342425Y-15107375D02*
X27172425Y-15277375D01*
X27235825Y-13202375D02*
X27405825Y-13372375D01*
X27405825Y-13202375D02*
X27235825Y-13372375D01*
X27432000Y-17011362D02*
X27602000Y-17181362D01*
X27602000Y-17011362D02*
X27432000Y-17181362D01*
X27648625Y-11297375D02*
X27818625Y-11467375D01*
X27818625Y-11297375D02*
X27648625Y-11467375D01*
X27712125Y-9392375D02*
X27882125Y-9562375D01*
X27882125Y-9392375D02*
X27712125Y-9562375D01*
X28124825Y-13202375D02*
X28294825Y-13372375D01*
X28294825Y-13202375D02*
X28124825Y-13372375D01*
X28188425Y-15107375D02*
X28358425Y-15277375D01*
X28358425Y-15107375D02*
X28188425Y-15277375D01*
X28448000Y-17011362D02*
X28618000Y-17181362D01*
X28618000Y-17011362D02*
X28448000Y-17181362D01*
X28601125Y-9392375D02*
X28771125Y-9562375D01*
X28771125Y-9392375D02*
X28601125Y-9562375D01*
X28664625Y-11297375D02*
X28834625Y-11467375D01*
X28834625Y-11297375D02*
X28664625Y-11467375D01*
X29140825Y-13202375D02*
X29310825Y-13372375D01*
X29310825Y-13202375D02*
X29140825Y-13372375D01*
X29553625Y-11297375D02*
X29723625Y-11467375D01*
X29723625Y-11297375D02*
X29553625Y-11467375D01*
X29617125Y-9392375D02*
X29787125Y-9562375D01*
X29787125Y-9392375D02*
X29617125Y-9562375D01*
X29791725Y-15107375D02*
X29961725Y-15277375D01*
X29961725Y-15107375D02*
X29791725Y-15277375D01*
X30506125Y-17012375D02*
X30676125Y-17182375D01*
X30676125Y-17012375D02*
X30506125Y-17182375D01*
X30569625Y-11297375D02*
X30739625Y-11467375D01*
X30739625Y-11297375D02*
X30569625Y-11467375D01*
X30807725Y-15107375D02*
X30977725Y-15277375D01*
X30977725Y-15107375D02*
X30807725Y-15277375D01*
X31220525Y-13202375D02*
X31390525Y-13372375D01*
X31390525Y-13202375D02*
X31220525Y-13372375D01*
X31458625Y-9392375D02*
X31628625Y-9562375D01*
X31628625Y-9392375D02*
X31458625Y-9562375D01*
X31522125Y-17012375D02*
X31692125Y-17182375D01*
X31692125Y-17012375D02*
X31522125Y-17182375D01*
X31934825Y-11297375D02*
X32104825Y-11467375D01*
X32104825Y-11297375D02*
X31934825Y-11467375D01*
X32236525Y-13202375D02*
X32406525Y-13372375D01*
X32406525Y-13202375D02*
X32236525Y-13372375D01*
X32411125Y-15107375D02*
X32581125Y-15277375D01*
X32581125Y-15107375D02*
X32411125Y-15277375D01*
X32411125Y-17012375D02*
X32581125Y-17182375D01*
X32581125Y-17012375D02*
X32411125Y-17182375D01*
X32474625Y-9392375D02*
X32644625Y-9562375D01*
X32644625Y-9392375D02*
X32474625Y-9562375D01*
X32950825Y-11297375D02*
X33120825Y-11467375D01*
X33120825Y-11297375D02*
X32950825Y-11467375D01*
X33427125Y-15107375D02*
X33597125Y-15277375D01*
X33597125Y-15107375D02*
X33427125Y-15277375D01*
X33427125Y-17012375D02*
X33597125Y-17182375D01*
X33597125Y-17012375D02*
X33427125Y-17182375D01*
X34315600Y-9394800D02*
X34485600Y-9564800D01*
X34485600Y-9394800D02*
X34315600Y-9564800D01*
X34316125Y-11297375D02*
X34486125Y-11467375D01*
X34486125Y-11297375D02*
X34316125Y-11467375D01*
X34316125Y-13202375D02*
X34486125Y-13372375D01*
X34486125Y-13202375D02*
X34316125Y-13372375D01*
X34316125Y-15107375D02*
X34486125Y-15277375D01*
X34486125Y-15107375D02*
X34316125Y-15277375D01*
X34316125Y-17012375D02*
X34486125Y-17182375D01*
X34486125Y-17012375D02*
X34316125Y-17182375D01*
X35331600Y-9394800D02*
X35501600Y-9564800D01*
X35501600Y-9394800D02*
X35331600Y-9564800D01*
X35332125Y-11297375D02*
X35502125Y-11467375D01*
X35502125Y-11297375D02*
X35332125Y-11467375D01*
X35332125Y-13202375D02*
X35502125Y-13372375D01*
X35502125Y-13202375D02*
X35332125Y-13372375D01*
X35332125Y-15107375D02*
X35502125Y-15277375D01*
X35502125Y-15107375D02*
X35332125Y-15277375D01*
X35332125Y-17012375D02*
X35502125Y-17182375D01*
X35502125Y-17012375D02*
X35332125Y-17182375D01*
X6487245Y-14492375D02*
G75*
G03*
X6487245Y-14492375I-152500J0D01*
G01*
X8867245Y-14492375D02*
G75*
G03*
X8867245Y-14492375I-152500J0D01*
G01*
X13631000Y-17800550D02*
G75*
G03*
X13631000Y-17800550I-152500J0D01*
G01*
X13633500Y-17798000D02*
G75*
G03*
X13633500Y-17798000I-152500J0D01*
G01*
X14108500Y-17798000D02*
G75*
G03*
X14108500Y-17798000I-152500J0D01*
G01*
X16013500Y-17798000D02*
G75*
G03*
X16013500Y-17798000I-152500J0D01*
G01*
X16488500Y-17798000D02*
G75*
G03*
X16488500Y-17798000I-152500J0D01*
G01*
X20773500Y-17798000D02*
G75*
G03*
X20773500Y-17798000I-152500J0D01*
G01*
X21243500Y-17798000D02*
G75*
G03*
X21243500Y-17798000I-152500J0D01*
G01*
X23153500Y-17798000D02*
G75*
G03*
X23153500Y-17798000I-152500J0D01*
G01*
X23623500Y-17798000D02*
G75*
G03*
X23623500Y-17798000I-152500J0D01*
G01*
X23631000Y-17800550D02*
G75*
G03*
X23631000Y-17800550I-152500J0D01*
G01*
X30776025Y-12587375D02*
G75*
G03*
X30776025Y-12587375I-152500J0D01*
G01*
X31014125Y-8777375D02*
G75*
G03*
X31014125Y-8777375I-152500J0D01*
G01*
X33156025Y-12587375D02*
G75*
G03*
X33156025Y-12587375I-152500J0D01*
G01*
X33394125Y-8777375D02*
G75*
G03*
X33394125Y-8777375I-152500J0D01*
G01*
X6334125Y-9277375D02*
X6334125Y-9677375D01*
X6134125Y-9477375D02*
X6534125Y-9477375D01*
X6334745Y-15816375D02*
X6334745Y-16216375D01*
X6134745Y-16016375D02*
X6534745Y-16016375D01*
X6572245Y-16896362D02*
X6572245Y-17296362D01*
X6372245Y-17096362D02*
X6772245Y-17096362D01*
X6810375Y-11182375D02*
X6810375Y-11582375D01*
X6610375Y-11382375D02*
X7010375Y-11382375D01*
X7048505Y-13086362D02*
X7048505Y-13486362D01*
X6848505Y-13286362D02*
X7248505Y-13286362D01*
X7524745Y-14992375D02*
X7524745Y-15392375D01*
X7324745Y-15192375D02*
X7724745Y-15192375D01*
X8239125Y-9277375D02*
X8239125Y-9677375D01*
X8039125Y-9477375D02*
X8439125Y-9477375D01*
X8714745Y-15816375D02*
X8714745Y-16216375D01*
X8514745Y-16016375D02*
X8914745Y-16016375D01*
X8953505Y-16897375D02*
X8953505Y-17297375D01*
X8753505Y-17097375D02*
X9153505Y-17097375D01*
X9191625Y-11182375D02*
X9191625Y-11582375D01*
X8991625Y-11382375D02*
X9391625Y-11382375D01*
X9667875Y-13087375D02*
X9667875Y-13487375D01*
X9467875Y-13287375D02*
X9867875Y-13287375D01*
X10144125Y-9277375D02*
X10144125Y-9677375D01*
X9944125Y-9477375D02*
X10344125Y-9477375D01*
X10620375Y-14992375D02*
X10620375Y-15392375D01*
X10420375Y-15192375D02*
X10820375Y-15192375D01*
X11096625Y-11182375D02*
X11096625Y-11582375D01*
X10896625Y-11382375D02*
X11296625Y-11382375D01*
X11334745Y-16896362D02*
X11334745Y-17296362D01*
X11134745Y-17096362D02*
X11534745Y-17096362D01*
X11572875Y-13087375D02*
X11572875Y-13487375D01*
X11372875Y-13287375D02*
X11772875Y-13287375D01*
X12049125Y-9277375D02*
X12049125Y-9677375D01*
X11849125Y-9477375D02*
X12249125Y-9477375D01*
X12525375Y-14992375D02*
X12525375Y-15392375D01*
X12325375Y-15192375D02*
X12725375Y-15192375D01*
X13001625Y-11182375D02*
X13001625Y-11582375D01*
X12801625Y-11382375D02*
X13201625Y-11382375D01*
X13477875Y-13087375D02*
X13477875Y-13487375D01*
X13277875Y-13287375D02*
X13677875Y-13287375D01*
X13478500Y-16076550D02*
X13478500Y-16476550D01*
X13278500Y-16276550D02*
X13678500Y-16276550D01*
X13481000Y-16074000D02*
X13481000Y-16474000D01*
X13281000Y-16274000D02*
X13681000Y-16274000D01*
X13954125Y-9277375D02*
X13954125Y-9677375D01*
X13754125Y-9477375D02*
X14154125Y-9477375D01*
X13956000Y-16074000D02*
X13956000Y-16474000D01*
X13756000Y-16274000D02*
X14156000Y-16274000D01*
X14430375Y-14992375D02*
X14430375Y-15392375D01*
X14230375Y-15192375D02*
X14630375Y-15192375D01*
X14671000Y-16898000D02*
X14671000Y-17298000D01*
X14471000Y-17098000D02*
X14871000Y-17098000D01*
X14906625Y-11182375D02*
X14906625Y-11582375D01*
X14706625Y-11382375D02*
X15106625Y-11382375D01*
X15146000Y-16898000D02*
X15146000Y-17298000D01*
X14946000Y-17098000D02*
X15346000Y-17098000D01*
X15382825Y-13087375D02*
X15382825Y-13487375D01*
X15182825Y-13287375D02*
X15582825Y-13287375D01*
X15859125Y-9277375D02*
X15859125Y-9677375D01*
X15659125Y-9477375D02*
X16059125Y-9477375D01*
X15861000Y-16074000D02*
X15861000Y-16474000D01*
X15661000Y-16274000D02*
X16061000Y-16274000D01*
X16335425Y-14992375D02*
X16335425Y-15392375D01*
X16135425Y-15192375D02*
X16535425Y-15192375D01*
X16336000Y-16074000D02*
X16336000Y-16474000D01*
X16136000Y-16274000D02*
X16536000Y-16274000D01*
X16811625Y-11182375D02*
X16811625Y-11582375D01*
X16611625Y-11382375D02*
X17011625Y-11382375D01*
X17287825Y-13087375D02*
X17287825Y-13487375D01*
X17087825Y-13287375D02*
X17487825Y-13287375D01*
X17764125Y-9277375D02*
X17764125Y-9677375D01*
X17564125Y-9477375D02*
X17964125Y-9477375D01*
X17996000Y-16898000D02*
X17996000Y-17298000D01*
X17796000Y-17098000D02*
X18196000Y-17098000D01*
X18240425Y-14992375D02*
X18240425Y-15392375D01*
X18040425Y-15192375D02*
X18440425Y-15192375D01*
X18478500Y-16900550D02*
X18478500Y-17300550D01*
X18278500Y-17100550D02*
X18678500Y-17100550D01*
X18716625Y-11182375D02*
X18716625Y-11582375D01*
X18516625Y-11382375D02*
X18916625Y-11382375D01*
X18946000Y-16897375D02*
X18946000Y-17297375D01*
X18746000Y-17097375D02*
X19146000Y-17097375D01*
X19192825Y-13087375D02*
X19192825Y-13487375D01*
X18992825Y-13287375D02*
X19392825Y-13287375D01*
X19669125Y-9277375D02*
X19669125Y-9677375D01*
X19469125Y-9477375D02*
X19869125Y-9477375D01*
X20145425Y-14992375D02*
X20145425Y-15392375D01*
X19945425Y-15192375D02*
X20345425Y-15192375D01*
X20621000Y-16074000D02*
X20621000Y-16474000D01*
X20421000Y-16274000D02*
X20821000Y-16274000D01*
X20621625Y-11182375D02*
X20621625Y-11582375D01*
X20421625Y-11382375D02*
X20821625Y-11382375D01*
X21091000Y-16074000D02*
X21091000Y-16474000D01*
X20891000Y-16274000D02*
X21291000Y-16274000D01*
X21097825Y-13087375D02*
X21097825Y-13487375D01*
X20897825Y-13287375D02*
X21297825Y-13287375D01*
X21574125Y-9277375D02*
X21574125Y-9677375D01*
X21374125Y-9477375D02*
X21774125Y-9477375D01*
X21811000Y-16898000D02*
X21811000Y-17298000D01*
X21611000Y-17098000D02*
X22011000Y-17098000D01*
X22050425Y-14992375D02*
X22050425Y-15392375D01*
X21850425Y-15192375D02*
X22250425Y-15192375D01*
X22281000Y-16898000D02*
X22281000Y-17298000D01*
X22081000Y-17098000D02*
X22481000Y-17098000D01*
X22526625Y-11182375D02*
X22526625Y-11582375D01*
X22326625Y-11382375D02*
X22726625Y-11382375D01*
X23001000Y-16074000D02*
X23001000Y-16474000D01*
X22801000Y-16274000D02*
X23201000Y-16274000D01*
X23002825Y-13087375D02*
X23002825Y-13487375D01*
X22802825Y-13287375D02*
X23202825Y-13287375D01*
X23471000Y-16074000D02*
X23471000Y-16474000D01*
X23271000Y-16274000D02*
X23671000Y-16274000D01*
X23478500Y-16076550D02*
X23478500Y-16476550D01*
X23278500Y-16276550D02*
X23678500Y-16276550D01*
X23479125Y-9277375D02*
X23479125Y-9677375D01*
X23279125Y-9477375D02*
X23679125Y-9477375D01*
X23955425Y-14992375D02*
X23955425Y-15392375D01*
X23755425Y-15192375D02*
X24155425Y-15192375D01*
X24431625Y-11182375D02*
X24431625Y-11582375D01*
X24231625Y-11382375D02*
X24631625Y-11382375D01*
X24907825Y-13087375D02*
X24907825Y-13487375D01*
X24707825Y-13287375D02*
X25107825Y-13287375D01*
X25384125Y-9277375D02*
X25384125Y-9677375D01*
X25184125Y-9477375D02*
X25584125Y-9477375D01*
X25625000Y-16900000D02*
X25625000Y-17300000D01*
X25425000Y-17100000D02*
X25825000Y-17100000D01*
X25860425Y-14992375D02*
X25860425Y-15392375D01*
X25660425Y-15192375D02*
X26060425Y-15192375D01*
X26336625Y-11182375D02*
X26336625Y-11582375D01*
X26136625Y-11382375D02*
X26536625Y-11382375D01*
X26812825Y-13087375D02*
X26812825Y-13487375D01*
X26612825Y-13287375D02*
X27012825Y-13287375D01*
X27289125Y-9277375D02*
X27289125Y-9677375D01*
X27089125Y-9477375D02*
X27489125Y-9477375D01*
X27765425Y-14992375D02*
X27765425Y-15392375D01*
X27565425Y-15192375D02*
X27965425Y-15192375D01*
X28025000Y-16896362D02*
X28025000Y-17296362D01*
X27825000Y-17096362D02*
X28225000Y-17096362D01*
X28241625Y-11182375D02*
X28241625Y-11582375D01*
X28041625Y-11382375D02*
X28441625Y-11382375D01*
X28717825Y-13087375D02*
X28717825Y-13487375D01*
X28517825Y-13287375D02*
X28917825Y-13287375D01*
X29194125Y-9277375D02*
X29194125Y-9677375D01*
X28994125Y-9477375D02*
X29394125Y-9477375D01*
X30146625Y-11182375D02*
X30146625Y-11582375D01*
X29946625Y-11382375D02*
X30346625Y-11382375D01*
X30384725Y-14992375D02*
X30384725Y-15392375D01*
X30184725Y-15192375D02*
X30584725Y-15192375D01*
X30623525Y-13911375D02*
X30623525Y-14311375D01*
X30423525Y-14111375D02*
X30823525Y-14111375D01*
X30861625Y-10101375D02*
X30861625Y-10501375D01*
X30661625Y-10301375D02*
X31061625Y-10301375D01*
X31099125Y-16897375D02*
X31099125Y-17297375D01*
X30899125Y-17097375D02*
X31299125Y-17097375D01*
X31813525Y-13087375D02*
X31813525Y-13487375D01*
X31613525Y-13287375D02*
X32013525Y-13287375D01*
X32051625Y-9277375D02*
X32051625Y-9677375D01*
X31851625Y-9477375D02*
X32251625Y-9477375D01*
X32527825Y-11182375D02*
X32527825Y-11582375D01*
X32327825Y-11382375D02*
X32727825Y-11382375D01*
X33003525Y-13911375D02*
X33003525Y-14311375D01*
X32803525Y-14111375D02*
X33203525Y-14111375D01*
X33004125Y-14992375D02*
X33004125Y-15392375D01*
X32804125Y-15192375D02*
X33204125Y-15192375D01*
X33004125Y-16897375D02*
X33004125Y-17297375D01*
X32804125Y-17097375D02*
X33204125Y-17097375D01*
X33241625Y-10101375D02*
X33241625Y-10501375D01*
X33041625Y-10301375D02*
X33441625Y-10301375D01*
X34908600Y-9279800D02*
X34908600Y-9679800D01*
X34708600Y-9479800D02*
X35108600Y-9479800D01*
X34909125Y-11182375D02*
X34909125Y-11582375D01*
X34709125Y-11382375D02*
X35109125Y-11382375D01*
X34909125Y-13087375D02*
X34909125Y-13487375D01*
X34709125Y-13287375D02*
X35109125Y-13287375D01*
X34909125Y-14992375D02*
X34909125Y-15392375D01*
X34709125Y-15192375D02*
X35109125Y-15192375D01*
X34909125Y-16897375D02*
X34909125Y-17297375D01*
X34709125Y-17097375D02*
X35109125Y-17097375D01*
D12*
X5655567Y-18523436D02*
X5655567Y-18223436D01*
X5726995Y-18223436D01*
X5769852Y-18237722D01*
X5798424Y-18266293D01*
X5812709Y-18294865D01*
X5826995Y-18352008D01*
X5826995Y-18394865D01*
X5812709Y-18452008D01*
X5798424Y-18480579D01*
X5769852Y-18509151D01*
X5726995Y-18523436D01*
X5655567Y-18523436D01*
X5955567Y-18523436D02*
X5955567Y-18323436D01*
X5955567Y-18380579D02*
X5969852Y-18352008D01*
X5984138Y-18337722D01*
X6012709Y-18323436D01*
X6041281Y-18323436D01*
X6141281Y-18523436D02*
X6141281Y-18323436D01*
X6141281Y-18223436D02*
X6126995Y-18237722D01*
X6141281Y-18252008D01*
X6155567Y-18237722D01*
X6141281Y-18223436D01*
X6141281Y-18252008D01*
X6326995Y-18523436D02*
X6298424Y-18509151D01*
X6284138Y-18480579D01*
X6284138Y-18223436D01*
X6484138Y-18523436D02*
X6455567Y-18509151D01*
X6441281Y-18480579D01*
X6441281Y-18223436D01*
X6826995Y-18523436D02*
X6826995Y-18223436D01*
X6926995Y-18437722D01*
X7026995Y-18223436D01*
X7026995Y-18523436D01*
X7298424Y-18523436D02*
X7298424Y-18366293D01*
X7284138Y-18337722D01*
X7255567Y-18323436D01*
X7198424Y-18323436D01*
X7169852Y-18337722D01*
X7298424Y-18509151D02*
X7269852Y-18523436D01*
X7198424Y-18523436D01*
X7169852Y-18509151D01*
X7155567Y-18480579D01*
X7155567Y-18452008D01*
X7169852Y-18423436D01*
X7198424Y-18409151D01*
X7269852Y-18409151D01*
X7298424Y-18394865D01*
X7441281Y-18323436D02*
X7441281Y-18623436D01*
X7441281Y-18337722D02*
X7469852Y-18323436D01*
X7526995Y-18323436D01*
X7555567Y-18337722D01*
X7569852Y-18352008D01*
X7584138Y-18380579D01*
X7584138Y-18466293D01*
X7569852Y-18494865D01*
X7555567Y-18509151D01*
X7526995Y-18523436D01*
X7469852Y-18523436D01*
X7441281Y-18509151D01*
X7712709Y-18494865D02*
X7726995Y-18509151D01*
X7712709Y-18523436D01*
X7698424Y-18509151D01*
X7712709Y-18494865D01*
X7712709Y-18523436D01*
X7712709Y-18337722D02*
X7726995Y-18352008D01*
X7712709Y-18366293D01*
X7698424Y-18352008D01*
X7712709Y-18337722D01*
X7712709Y-18366293D01*
X5199138Y-18932722D02*
X5369138Y-19102722D01*
X5369138Y-18932722D02*
X5199138Y-19102722D01*
X5812709Y-19153436D02*
X5641281Y-19153436D01*
X5726995Y-19153436D02*
X5726995Y-18853436D01*
X5698424Y-18896293D01*
X5669852Y-18924865D01*
X5641281Y-18939151D01*
X5941281Y-19124865D02*
X5955567Y-19139151D01*
X5941281Y-19153436D01*
X5926995Y-19139151D01*
X5941281Y-19124865D01*
X5941281Y-19153436D01*
X6055567Y-18853436D02*
X6255567Y-18853436D01*
X6126995Y-19153436D01*
X6426995Y-18853436D02*
X6455567Y-18853436D01*
X6484138Y-18867722D01*
X6498424Y-18882008D01*
X6512709Y-18910579D01*
X6526995Y-18967722D01*
X6526995Y-19039151D01*
X6512709Y-19096293D01*
X6498424Y-19124865D01*
X6484138Y-19139151D01*
X6455567Y-19153436D01*
X6426995Y-19153436D01*
X6398424Y-19139151D01*
X6384138Y-19124865D01*
X6369852Y-19096293D01*
X6355567Y-19039151D01*
X6355567Y-18967722D01*
X6369852Y-18910579D01*
X6384138Y-18882008D01*
X6398424Y-18867722D01*
X6426995Y-18853436D01*
X6712709Y-18853436D02*
X6741281Y-18853436D01*
X6769852Y-18867722D01*
X6784138Y-18882008D01*
X6798424Y-18910579D01*
X6812709Y-18967722D01*
X6812709Y-19039151D01*
X6798424Y-19096293D01*
X6784138Y-19124865D01*
X6769852Y-19139151D01*
X6741281Y-19153436D01*
X6712709Y-19153436D01*
X6684138Y-19139151D01*
X6669852Y-19124865D01*
X6655567Y-19096293D01*
X6641281Y-19039151D01*
X6641281Y-18967722D01*
X6655567Y-18910579D01*
X6669852Y-18882008D01*
X6684138Y-18867722D01*
X6712709Y-18853436D01*
X6941281Y-19153436D02*
X6941281Y-18953436D01*
X6941281Y-18982008D02*
X6955567Y-18967722D01*
X6984138Y-18953436D01*
X7026995Y-18953436D01*
X7055567Y-18967722D01*
X7069852Y-18996293D01*
X7069852Y-19153436D01*
X7069852Y-18996293D02*
X7084138Y-18967722D01*
X7112709Y-18953436D01*
X7155567Y-18953436D01*
X7184138Y-18967722D01*
X7198424Y-18996293D01*
X7198424Y-19153436D01*
X7341281Y-19153436D02*
X7341281Y-18953436D01*
X7341281Y-18982008D02*
X7355567Y-18967722D01*
X7384138Y-18953436D01*
X7426995Y-18953436D01*
X7455567Y-18967722D01*
X7469852Y-18996293D01*
X7469852Y-19153436D01*
X7469852Y-18996293D02*
X7484138Y-18967722D01*
X7512709Y-18953436D01*
X7555567Y-18953436D01*
X7584138Y-18967722D01*
X7598424Y-18996293D01*
X7598424Y-19153436D01*
X8184138Y-18839151D02*
X7926995Y-19224865D01*
X8569852Y-18853436D02*
X8598424Y-18853436D01*
X8626995Y-18867722D01*
X8641281Y-18882008D01*
X8655567Y-18910579D01*
X8669852Y-18967722D01*
X8669852Y-19039151D01*
X8655567Y-19096293D01*
X8641281Y-19124865D01*
X8626995Y-19139151D01*
X8598424Y-19153436D01*
X8569852Y-19153436D01*
X8541281Y-19139151D01*
X8526995Y-19124865D01*
X8512710Y-19096293D01*
X8498424Y-19039151D01*
X8498424Y-18967722D01*
X8512710Y-18910579D01*
X8526995Y-18882008D01*
X8541281Y-18867722D01*
X8569852Y-18853436D01*
X8798424Y-19124865D02*
X8812710Y-19139151D01*
X8798424Y-19153436D01*
X8784138Y-19139151D01*
X8798424Y-19124865D01*
X8798424Y-19153436D01*
X8998424Y-18853436D02*
X9026995Y-18853436D01*
X9055567Y-18867722D01*
X9069852Y-18882008D01*
X9084138Y-18910579D01*
X9098424Y-18967722D01*
X9098424Y-19039151D01*
X9084138Y-19096293D01*
X9069852Y-19124865D01*
X9055567Y-19139151D01*
X9026995Y-19153436D01*
X8998424Y-19153436D01*
X8969852Y-19139151D01*
X8955567Y-19124865D01*
X8941281Y-19096293D01*
X8926995Y-19039151D01*
X8926995Y-18967722D01*
X8941281Y-18910579D01*
X8955567Y-18882008D01*
X8969852Y-18867722D01*
X8998424Y-18853436D01*
X9355567Y-18853436D02*
X9298424Y-18853436D01*
X9269852Y-18867722D01*
X9255567Y-18882008D01*
X9226995Y-18924865D01*
X9212710Y-18982008D01*
X9212710Y-19096293D01*
X9226995Y-19124865D01*
X9241281Y-19139151D01*
X9269852Y-19153436D01*
X9326995Y-19153436D01*
X9355567Y-19139151D01*
X9369852Y-19124865D01*
X9384138Y-19096293D01*
X9384138Y-19024865D01*
X9369852Y-18996293D01*
X9355567Y-18982008D01*
X9326995Y-18967722D01*
X9269852Y-18967722D01*
X9241281Y-18982008D01*
X9226995Y-18996293D01*
X9212710Y-19024865D01*
X9641281Y-18853436D02*
X9584138Y-18853436D01*
X9555567Y-18867722D01*
X9541281Y-18882008D01*
X9512710Y-18924865D01*
X9498424Y-18982008D01*
X9498424Y-19096293D01*
X9512710Y-19124865D01*
X9526995Y-19139151D01*
X9555567Y-19153436D01*
X9612710Y-19153436D01*
X9641281Y-19139151D01*
X9655567Y-19124865D01*
X9669852Y-19096293D01*
X9669852Y-19024865D01*
X9655567Y-18996293D01*
X9641281Y-18982008D01*
X9612710Y-18967722D01*
X9555567Y-18967722D01*
X9526995Y-18982008D01*
X9512710Y-18996293D01*
X9498424Y-19024865D01*
X9812710Y-19153436D02*
X9869852Y-19153436D01*
X9898424Y-19139151D01*
X9912710Y-19124865D01*
X9941281Y-19082008D01*
X9955567Y-19024865D01*
X9955567Y-18910579D01*
X9941281Y-18882008D01*
X9926995Y-18867722D01*
X9898424Y-18853436D01*
X9841281Y-18853436D01*
X9812710Y-18867722D01*
X9798424Y-18882008D01*
X9784138Y-18910579D01*
X9784138Y-18982008D01*
X9798424Y-19010579D01*
X9812710Y-19024865D01*
X9841281Y-19039151D01*
X9898424Y-19039151D01*
X9926995Y-19024865D01*
X9941281Y-19010579D01*
X9955567Y-18982008D01*
X10069852Y-18853436D02*
X10069852Y-18910579D01*
X10184138Y-18853436D02*
X10184138Y-18910579D01*
X10626995Y-19267722D02*
X10612710Y-19253436D01*
X10584138Y-19210579D01*
X10569852Y-19182008D01*
X10555567Y-19139151D01*
X10541281Y-19067722D01*
X10541281Y-19010579D01*
X10555567Y-18939151D01*
X10569852Y-18896293D01*
X10584138Y-18867722D01*
X10612710Y-18824865D01*
X10626995Y-18810579D01*
X10898424Y-19153436D02*
X10726995Y-19153436D01*
X10812710Y-19153436D02*
X10812710Y-18853436D01*
X10784138Y-18896293D01*
X10755567Y-18924865D01*
X10726995Y-18939151D01*
X11155567Y-18953436D02*
X11155567Y-19153436D01*
X11084138Y-18839151D02*
X11012710Y-19053436D01*
X11198424Y-19053436D01*
X11441281Y-18853436D02*
X11384138Y-18853436D01*
X11355567Y-18867722D01*
X11341281Y-18882008D01*
X11312709Y-18924865D01*
X11298424Y-18982008D01*
X11298424Y-19096293D01*
X11312709Y-19124865D01*
X11326995Y-19139151D01*
X11355567Y-19153436D01*
X11412709Y-19153436D01*
X11441281Y-19139151D01*
X11455567Y-19124865D01*
X11469852Y-19096293D01*
X11469852Y-19024865D01*
X11455567Y-18996293D01*
X11441281Y-18982008D01*
X11412709Y-18967722D01*
X11355567Y-18967722D01*
X11326995Y-18982008D01*
X11312709Y-18996293D01*
X11298424Y-19024865D01*
X11826995Y-19153436D02*
X11826995Y-18853436D01*
X11955567Y-19153436D02*
X11955567Y-18996293D01*
X11941281Y-18967722D01*
X11912709Y-18953436D01*
X11869852Y-18953436D01*
X11841281Y-18967722D01*
X11826995Y-18982008D01*
X12141281Y-19153436D02*
X12112709Y-19139151D01*
X12098424Y-19124865D01*
X12084138Y-19096293D01*
X12084138Y-19010579D01*
X12098424Y-18982008D01*
X12112709Y-18967722D01*
X12141281Y-18953436D01*
X12184138Y-18953436D01*
X12212709Y-18967722D01*
X12226995Y-18982008D01*
X12241281Y-19010579D01*
X12241281Y-19096293D01*
X12226995Y-19124865D01*
X12212709Y-19139151D01*
X12184138Y-19153436D01*
X12141281Y-19153436D01*
X12412709Y-19153436D02*
X12384138Y-19139151D01*
X12369852Y-19110579D01*
X12369852Y-18853436D01*
X12641281Y-19139151D02*
X12612709Y-19153436D01*
X12555567Y-19153436D01*
X12526995Y-19139151D01*
X12512709Y-19110579D01*
X12512709Y-18996293D01*
X12526995Y-18967722D01*
X12555567Y-18953436D01*
X12612709Y-18953436D01*
X12641281Y-18967722D01*
X12655567Y-18996293D01*
X12655567Y-19024865D01*
X12512709Y-19053436D01*
X12769852Y-19139151D02*
X12798424Y-19153436D01*
X12855567Y-19153436D01*
X12884138Y-19139151D01*
X12898424Y-19110579D01*
X12898424Y-19096293D01*
X12884138Y-19067722D01*
X12855567Y-19053436D01*
X12812709Y-19053436D01*
X12784138Y-19039151D01*
X12769852Y-19010579D01*
X12769852Y-18996293D01*
X12784138Y-18967722D01*
X12812709Y-18953436D01*
X12855567Y-18953436D01*
X12884138Y-18967722D01*
X12998424Y-19267722D02*
X13012709Y-19253436D01*
X13041281Y-19210579D01*
X13055567Y-19182008D01*
X13069852Y-19139151D01*
X13084138Y-19067722D01*
X13084138Y-19010579D01*
X13069852Y-18939151D01*
X13055567Y-18896293D01*
X13041281Y-18867722D01*
X13012709Y-18824865D01*
X12998424Y-18810579D01*
X13541281Y-19267722D02*
X13526995Y-19253436D01*
X13498424Y-19210579D01*
X13484138Y-19182008D01*
X13469852Y-19139151D01*
X13455567Y-19067722D01*
X13455567Y-19010579D01*
X13469852Y-18939151D01*
X13484138Y-18896293D01*
X13498424Y-18867722D01*
X13526995Y-18824865D01*
X13541281Y-18810579D01*
X13655567Y-18953436D02*
X13655567Y-19153436D01*
X13655567Y-18982008D02*
X13669852Y-18967722D01*
X13698424Y-18953436D01*
X13741281Y-18953436D01*
X13769852Y-18967722D01*
X13784138Y-18996293D01*
X13784138Y-19153436D01*
X13969852Y-19153436D02*
X13941281Y-19139151D01*
X13926995Y-19124865D01*
X13912709Y-19096293D01*
X13912709Y-19010579D01*
X13926995Y-18982008D01*
X13941281Y-18967722D01*
X13969852Y-18953436D01*
X14012709Y-18953436D01*
X14041281Y-18967722D01*
X14055567Y-18982008D01*
X14069852Y-19010579D01*
X14069852Y-19096293D01*
X14055567Y-19124865D01*
X14041281Y-19139151D01*
X14012709Y-19153436D01*
X13969852Y-19153436D01*
X14155567Y-18953436D02*
X14269852Y-18953436D01*
X14198424Y-18853436D02*
X14198424Y-19110579D01*
X14212709Y-19139151D01*
X14241281Y-19153436D01*
X14269852Y-19153436D01*
X14598424Y-18953436D02*
X14598424Y-19253436D01*
X14598424Y-18967722D02*
X14626995Y-18953436D01*
X14684138Y-18953436D01*
X14712709Y-18967722D01*
X14726995Y-18982008D01*
X14741281Y-19010579D01*
X14741281Y-19096293D01*
X14726995Y-19124865D01*
X14712709Y-19139151D01*
X14684138Y-19153436D01*
X14626995Y-19153436D01*
X14598424Y-19139151D01*
X14912709Y-19153436D02*
X14884138Y-19139151D01*
X14869852Y-19110579D01*
X14869852Y-18853436D01*
X15155567Y-19153436D02*
X15155567Y-18996293D01*
X15141281Y-18967722D01*
X15112709Y-18953436D01*
X15055567Y-18953436D01*
X15026995Y-18967722D01*
X15155567Y-19139151D02*
X15126995Y-19153436D01*
X15055567Y-19153436D01*
X15026995Y-19139151D01*
X15012709Y-19110579D01*
X15012709Y-19082008D01*
X15026995Y-19053436D01*
X15055567Y-19039151D01*
X15126995Y-19039151D01*
X15155567Y-19024865D01*
X15255567Y-18953436D02*
X15369852Y-18953436D01*
X15298424Y-18853436D02*
X15298424Y-19110579D01*
X15312709Y-19139151D01*
X15341281Y-19153436D01*
X15369852Y-19153436D01*
X15584138Y-19139151D02*
X15555567Y-19153436D01*
X15498424Y-19153436D01*
X15469852Y-19139151D01*
X15455567Y-19110579D01*
X15455567Y-18996293D01*
X15469852Y-18967722D01*
X15498424Y-18953436D01*
X15555567Y-18953436D01*
X15584138Y-18967722D01*
X15598424Y-18996293D01*
X15598424Y-19024865D01*
X15455567Y-19053436D01*
X15855567Y-19153436D02*
X15855567Y-18853436D01*
X15855567Y-19139151D02*
X15826995Y-19153436D01*
X15769852Y-19153436D01*
X15741281Y-19139151D01*
X15726995Y-19124865D01*
X15712709Y-19096293D01*
X15712709Y-19010579D01*
X15726995Y-18982008D01*
X15741281Y-18967722D01*
X15769852Y-18953436D01*
X15826995Y-18953436D01*
X15855567Y-18967722D01*
X15969852Y-19267722D02*
X15984138Y-19253436D01*
X16012709Y-19210579D01*
X16026995Y-19182008D01*
X16041281Y-19139151D01*
X16055567Y-19067722D01*
X16055567Y-19010579D01*
X16041281Y-18939151D01*
X16026995Y-18896293D01*
X16012709Y-18867722D01*
X15984138Y-18824865D01*
X15969852Y-18810579D01*
X5369138Y-19413722D02*
G75*
G03*
X5369138Y-19413722I-152500J0D01*
G01*
X5626995Y-19249436D02*
X5812709Y-19249436D01*
X5712709Y-19363722D01*
X5755567Y-19363722D01*
X5784138Y-19378008D01*
X5798424Y-19392293D01*
X5812709Y-19420865D01*
X5812709Y-19492293D01*
X5798424Y-19520865D01*
X5784138Y-19535151D01*
X5755567Y-19549436D01*
X5669852Y-19549436D01*
X5641281Y-19535151D01*
X5626995Y-19520865D01*
X5941281Y-19520865D02*
X5955567Y-19535151D01*
X5941281Y-19549436D01*
X5926995Y-19535151D01*
X5941281Y-19520865D01*
X5941281Y-19549436D01*
X6141281Y-19249436D02*
X6169852Y-19249436D01*
X6198424Y-19263722D01*
X6212709Y-19278008D01*
X6226995Y-19306579D01*
X6241281Y-19363722D01*
X6241281Y-19435151D01*
X6226995Y-19492293D01*
X6212709Y-19520865D01*
X6198424Y-19535151D01*
X6169852Y-19549436D01*
X6141281Y-19549436D01*
X6112709Y-19535151D01*
X6098424Y-19520865D01*
X6084138Y-19492293D01*
X6069852Y-19435151D01*
X6069852Y-19363722D01*
X6084138Y-19306579D01*
X6098424Y-19278008D01*
X6112709Y-19263722D01*
X6141281Y-19249436D01*
X6512709Y-19249436D02*
X6369852Y-19249436D01*
X6355567Y-19392293D01*
X6369852Y-19378008D01*
X6398424Y-19363722D01*
X6469852Y-19363722D01*
X6498424Y-19378008D01*
X6512709Y-19392293D01*
X6526995Y-19420865D01*
X6526995Y-19492293D01*
X6512709Y-19520865D01*
X6498424Y-19535151D01*
X6469852Y-19549436D01*
X6398424Y-19549436D01*
X6369852Y-19535151D01*
X6355567Y-19520865D01*
X6712709Y-19249436D02*
X6741281Y-19249436D01*
X6769852Y-19263722D01*
X6784138Y-19278008D01*
X6798424Y-19306579D01*
X6812709Y-19363722D01*
X6812709Y-19435151D01*
X6798424Y-19492293D01*
X6784138Y-19520865D01*
X6769852Y-19535151D01*
X6741281Y-19549436D01*
X6712709Y-19549436D01*
X6684138Y-19535151D01*
X6669852Y-19520865D01*
X6655567Y-19492293D01*
X6641281Y-19435151D01*
X6641281Y-19363722D01*
X6655567Y-19306579D01*
X6669852Y-19278008D01*
X6684138Y-19263722D01*
X6712709Y-19249436D01*
X6941281Y-19549436D02*
X6941281Y-19349436D01*
X6941281Y-19378008D02*
X6955567Y-19363722D01*
X6984138Y-19349436D01*
X7026995Y-19349436D01*
X7055567Y-19363722D01*
X7069852Y-19392293D01*
X7069852Y-19549436D01*
X7069852Y-19392293D02*
X7084138Y-19363722D01*
X7112709Y-19349436D01*
X7155567Y-19349436D01*
X7184138Y-19363722D01*
X7198424Y-19392293D01*
X7198424Y-19549436D01*
X7341281Y-19549436D02*
X7341281Y-19349436D01*
X7341281Y-19378008D02*
X7355567Y-19363722D01*
X7384138Y-19349436D01*
X7426995Y-19349436D01*
X7455567Y-19363722D01*
X7469852Y-19392293D01*
X7469852Y-19549436D01*
X7469852Y-19392293D02*
X7484138Y-19363722D01*
X7512709Y-19349436D01*
X7555567Y-19349436D01*
X7584138Y-19363722D01*
X7598424Y-19392293D01*
X7598424Y-19549436D01*
X8184138Y-19235151D02*
X7926995Y-19620865D01*
X8569852Y-19249436D02*
X8598424Y-19249436D01*
X8626995Y-19263722D01*
X8641281Y-19278008D01*
X8655567Y-19306579D01*
X8669852Y-19363722D01*
X8669852Y-19435151D01*
X8655567Y-19492293D01*
X8641281Y-19520865D01*
X8626995Y-19535151D01*
X8598424Y-19549436D01*
X8569852Y-19549436D01*
X8541281Y-19535151D01*
X8526995Y-19520865D01*
X8512710Y-19492293D01*
X8498424Y-19435151D01*
X8498424Y-19363722D01*
X8512710Y-19306579D01*
X8526995Y-19278008D01*
X8541281Y-19263722D01*
X8569852Y-19249436D01*
X8798424Y-19520865D02*
X8812710Y-19535151D01*
X8798424Y-19549436D01*
X8784138Y-19535151D01*
X8798424Y-19520865D01*
X8798424Y-19549436D01*
X9098424Y-19549436D02*
X8926995Y-19549436D01*
X9012710Y-19549436D02*
X9012710Y-19249436D01*
X8984138Y-19292293D01*
X8955567Y-19320865D01*
X8926995Y-19335151D01*
X9212710Y-19278008D02*
X9226995Y-19263722D01*
X9255567Y-19249436D01*
X9326995Y-19249436D01*
X9355567Y-19263722D01*
X9369852Y-19278008D01*
X9384138Y-19306579D01*
X9384138Y-19335151D01*
X9369852Y-19378008D01*
X9198424Y-19549436D01*
X9384138Y-19549436D01*
X9569852Y-19249436D02*
X9598424Y-19249436D01*
X9626995Y-19263722D01*
X9641281Y-19278008D01*
X9655567Y-19306579D01*
X9669852Y-19363722D01*
X9669852Y-19435151D01*
X9655567Y-19492293D01*
X9641281Y-19520865D01*
X9626995Y-19535151D01*
X9598424Y-19549436D01*
X9569852Y-19549436D01*
X9541281Y-19535151D01*
X9526995Y-19520865D01*
X9512710Y-19492293D01*
X9498424Y-19435151D01*
X9498424Y-19363722D01*
X9512710Y-19306579D01*
X9526995Y-19278008D01*
X9541281Y-19263722D01*
X9569852Y-19249436D01*
X9955567Y-19549436D02*
X9784138Y-19549436D01*
X9869852Y-19549436D02*
X9869852Y-19249436D01*
X9841281Y-19292293D01*
X9812710Y-19320865D01*
X9784138Y-19335151D01*
X10069852Y-19249436D02*
X10069852Y-19306579D01*
X10184138Y-19249436D02*
X10184138Y-19306579D01*
X10626995Y-19663722D02*
X10612710Y-19649436D01*
X10584138Y-19606579D01*
X10569852Y-19578008D01*
X10555567Y-19535151D01*
X10541281Y-19463722D01*
X10541281Y-19406579D01*
X10555567Y-19335151D01*
X10569852Y-19292293D01*
X10584138Y-19263722D01*
X10612710Y-19220865D01*
X10626995Y-19206579D01*
X10898424Y-19549436D02*
X10726995Y-19549436D01*
X10812710Y-19549436D02*
X10812710Y-19249436D01*
X10784138Y-19292293D01*
X10755567Y-19320865D01*
X10726995Y-19335151D01*
X11155567Y-19249436D02*
X11098424Y-19249436D01*
X11069852Y-19263722D01*
X11055567Y-19278008D01*
X11026995Y-19320865D01*
X11012710Y-19378008D01*
X11012710Y-19492293D01*
X11026995Y-19520865D01*
X11041281Y-19535151D01*
X11069852Y-19549436D01*
X11126995Y-19549436D01*
X11155567Y-19535151D01*
X11169852Y-19520865D01*
X11184138Y-19492293D01*
X11184138Y-19420865D01*
X11169852Y-19392293D01*
X11155567Y-19378008D01*
X11126995Y-19363722D01*
X11069852Y-19363722D01*
X11041281Y-19378008D01*
X11026995Y-19392293D01*
X11012710Y-19420865D01*
X11541281Y-19549436D02*
X11541281Y-19249436D01*
X11669852Y-19549436D02*
X11669852Y-19392293D01*
X11655567Y-19363722D01*
X11626995Y-19349436D01*
X11584138Y-19349436D01*
X11555567Y-19363722D01*
X11541281Y-19378008D01*
X11855567Y-19549436D02*
X11826995Y-19535151D01*
X11812709Y-19520865D01*
X11798424Y-19492293D01*
X11798424Y-19406579D01*
X11812709Y-19378008D01*
X11826995Y-19363722D01*
X11855567Y-19349436D01*
X11898424Y-19349436D01*
X11926995Y-19363722D01*
X11941281Y-19378008D01*
X11955567Y-19406579D01*
X11955567Y-19492293D01*
X11941281Y-19520865D01*
X11926995Y-19535151D01*
X11898424Y-19549436D01*
X11855567Y-19549436D01*
X12126995Y-19549436D02*
X12098424Y-19535151D01*
X12084138Y-19506579D01*
X12084138Y-19249436D01*
X12355567Y-19535151D02*
X12326995Y-19549436D01*
X12269852Y-19549436D01*
X12241281Y-19535151D01*
X12226995Y-19506579D01*
X12226995Y-19392293D01*
X12241281Y-19363722D01*
X12269852Y-19349436D01*
X12326995Y-19349436D01*
X12355567Y-19363722D01*
X12369852Y-19392293D01*
X12369852Y-19420865D01*
X12226995Y-19449436D01*
X12484138Y-19535151D02*
X12512709Y-19549436D01*
X12569852Y-19549436D01*
X12598424Y-19535151D01*
X12612709Y-19506579D01*
X12612709Y-19492293D01*
X12598424Y-19463722D01*
X12569852Y-19449436D01*
X12526995Y-19449436D01*
X12498424Y-19435151D01*
X12484138Y-19406579D01*
X12484138Y-19392293D01*
X12498424Y-19363722D01*
X12526995Y-19349436D01*
X12569852Y-19349436D01*
X12598424Y-19363722D01*
X12712709Y-19663722D02*
X12726995Y-19649436D01*
X12755567Y-19606579D01*
X12769852Y-19578008D01*
X12784138Y-19535151D01*
X12798424Y-19463722D01*
X12798424Y-19406579D01*
X12784138Y-19335151D01*
X12769852Y-19292293D01*
X12755567Y-19263722D01*
X12726995Y-19220865D01*
X12712709Y-19206579D01*
X13255567Y-19663722D02*
X13241281Y-19649436D01*
X13212709Y-19606579D01*
X13198424Y-19578008D01*
X13184138Y-19535151D01*
X13169852Y-19463722D01*
X13169852Y-19406579D01*
X13184138Y-19335151D01*
X13198424Y-19292293D01*
X13212709Y-19263722D01*
X13241281Y-19220865D01*
X13255567Y-19206579D01*
X13369852Y-19349436D02*
X13369852Y-19549436D01*
X13369852Y-19378008D02*
X13384138Y-19363722D01*
X13412709Y-19349436D01*
X13455567Y-19349436D01*
X13484138Y-19363722D01*
X13498424Y-19392293D01*
X13498424Y-19549436D01*
X13684138Y-19549436D02*
X13655567Y-19535151D01*
X13641281Y-19520865D01*
X13626995Y-19492293D01*
X13626995Y-19406579D01*
X13641281Y-19378008D01*
X13655567Y-19363722D01*
X13684138Y-19349436D01*
X13726995Y-19349436D01*
X13755567Y-19363722D01*
X13769852Y-19378008D01*
X13784138Y-19406579D01*
X13784138Y-19492293D01*
X13769852Y-19520865D01*
X13755567Y-19535151D01*
X13726995Y-19549436D01*
X13684138Y-19549436D01*
X13869852Y-19349436D02*
X13984138Y-19349436D01*
X13912709Y-19249436D02*
X13912709Y-19506579D01*
X13926995Y-19535151D01*
X13955567Y-19549436D01*
X13984138Y-19549436D01*
X14312709Y-19349436D02*
X14312709Y-19649436D01*
X14312709Y-19363722D02*
X14341281Y-19349436D01*
X14398424Y-19349436D01*
X14426995Y-19363722D01*
X14441281Y-19378008D01*
X14455567Y-19406579D01*
X14455567Y-19492293D01*
X14441281Y-19520865D01*
X14426995Y-19535151D01*
X14398424Y-19549436D01*
X14341281Y-19549436D01*
X14312709Y-19535151D01*
X14626995Y-19549436D02*
X14598424Y-19535151D01*
X14584138Y-19506579D01*
X14584138Y-19249436D01*
X14869852Y-19549436D02*
X14869852Y-19392293D01*
X14855567Y-19363722D01*
X14826995Y-19349436D01*
X14769852Y-19349436D01*
X14741281Y-19363722D01*
X14869852Y-19535151D02*
X14841281Y-19549436D01*
X14769852Y-19549436D01*
X14741281Y-19535151D01*
X14726995Y-19506579D01*
X14726995Y-19478008D01*
X14741281Y-19449436D01*
X14769852Y-19435151D01*
X14841281Y-19435151D01*
X14869852Y-19420865D01*
X14969852Y-19349436D02*
X15084138Y-19349436D01*
X15012709Y-19249436D02*
X15012709Y-19506579D01*
X15026995Y-19535151D01*
X15055567Y-19549436D01*
X15084138Y-19549436D01*
X15298424Y-19535151D02*
X15269852Y-19549436D01*
X15212709Y-19549436D01*
X15184138Y-19535151D01*
X15169852Y-19506579D01*
X15169852Y-19392293D01*
X15184138Y-19363722D01*
X15212709Y-19349436D01*
X15269852Y-19349436D01*
X15298424Y-19363722D01*
X15312709Y-19392293D01*
X15312709Y-19420865D01*
X15169852Y-19449436D01*
X15569852Y-19549436D02*
X15569852Y-19249436D01*
X15569852Y-19535151D02*
X15541281Y-19549436D01*
X15484138Y-19549436D01*
X15455567Y-19535151D01*
X15441281Y-19520865D01*
X15426995Y-19492293D01*
X15426995Y-19406579D01*
X15441281Y-19378008D01*
X15455567Y-19363722D01*
X15484138Y-19349436D01*
X15541281Y-19349436D01*
X15569852Y-19363722D01*
X15684138Y-19663722D02*
X15698424Y-19649436D01*
X15726995Y-19606579D01*
X15741281Y-19578008D01*
X15755567Y-19535151D01*
X15769852Y-19463722D01*
X15769852Y-19406579D01*
X15755567Y-19335151D01*
X15741281Y-19292293D01*
X15726995Y-19263722D01*
X15698424Y-19220865D01*
X15684138Y-19206579D01*
X5169138Y-19648722D02*
X5169138Y-20048722D01*
X4969138Y-19848722D02*
X5369138Y-19848722D01*
X5784138Y-19784436D02*
X5784138Y-19984436D01*
X5712709Y-19670151D02*
X5641281Y-19884436D01*
X5826995Y-19884436D01*
X5941281Y-19955865D02*
X5955567Y-19970151D01*
X5941281Y-19984436D01*
X5926995Y-19970151D01*
X5941281Y-19955865D01*
X5941281Y-19984436D01*
X6141281Y-19684436D02*
X6169852Y-19684436D01*
X6198424Y-19698722D01*
X6212709Y-19713008D01*
X6226995Y-19741579D01*
X6241281Y-19798722D01*
X6241281Y-19870151D01*
X6226995Y-19927293D01*
X6212709Y-19955865D01*
X6198424Y-19970151D01*
X6169852Y-19984436D01*
X6141281Y-19984436D01*
X6112709Y-19970151D01*
X6098424Y-19955865D01*
X6084138Y-19927293D01*
X6069852Y-19870151D01*
X6069852Y-19798722D01*
X6084138Y-19741579D01*
X6098424Y-19713008D01*
X6112709Y-19698722D01*
X6141281Y-19684436D01*
X6426995Y-19684436D02*
X6455567Y-19684436D01*
X6484138Y-19698722D01*
X6498424Y-19713008D01*
X6512709Y-19741579D01*
X6526995Y-19798722D01*
X6526995Y-19870151D01*
X6512709Y-19927293D01*
X6498424Y-19955865D01*
X6484138Y-19970151D01*
X6455567Y-19984436D01*
X6426995Y-19984436D01*
X6398424Y-19970151D01*
X6384138Y-19955865D01*
X6369852Y-19927293D01*
X6355567Y-19870151D01*
X6355567Y-19798722D01*
X6369852Y-19741579D01*
X6384138Y-19713008D01*
X6398424Y-19698722D01*
X6426995Y-19684436D01*
X6712709Y-19684436D02*
X6741281Y-19684436D01*
X6769852Y-19698722D01*
X6784138Y-19713008D01*
X6798424Y-19741579D01*
X6812709Y-19798722D01*
X6812709Y-19870151D01*
X6798424Y-19927293D01*
X6784138Y-19955865D01*
X6769852Y-19970151D01*
X6741281Y-19984436D01*
X6712709Y-19984436D01*
X6684138Y-19970151D01*
X6669852Y-19955865D01*
X6655567Y-19927293D01*
X6641281Y-19870151D01*
X6641281Y-19798722D01*
X6655567Y-19741579D01*
X6669852Y-19713008D01*
X6684138Y-19698722D01*
X6712709Y-19684436D01*
X6941281Y-19984436D02*
X6941281Y-19784436D01*
X6941281Y-19813008D02*
X6955567Y-19798722D01*
X6984138Y-19784436D01*
X7026995Y-19784436D01*
X7055567Y-19798722D01*
X7069852Y-19827293D01*
X7069852Y-19984436D01*
X7069852Y-19827293D02*
X7084138Y-19798722D01*
X7112709Y-19784436D01*
X7155567Y-19784436D01*
X7184138Y-19798722D01*
X7198424Y-19827293D01*
X7198424Y-19984436D01*
X7341281Y-19984436D02*
X7341281Y-19784436D01*
X7341281Y-19813008D02*
X7355567Y-19798722D01*
X7384138Y-19784436D01*
X7426995Y-19784436D01*
X7455567Y-19798722D01*
X7469852Y-19827293D01*
X7469852Y-19984436D01*
X7469852Y-19827293D02*
X7484138Y-19798722D01*
X7512709Y-19784436D01*
X7555567Y-19784436D01*
X7584138Y-19798722D01*
X7598424Y-19827293D01*
X7598424Y-19984436D01*
X8184138Y-19670151D02*
X7926995Y-20055865D01*
X8569852Y-19684436D02*
X8598424Y-19684436D01*
X8626995Y-19698722D01*
X8641281Y-19713008D01*
X8655567Y-19741579D01*
X8669852Y-19798722D01*
X8669852Y-19870151D01*
X8655567Y-19927293D01*
X8641281Y-19955865D01*
X8626995Y-19970151D01*
X8598424Y-19984436D01*
X8569852Y-19984436D01*
X8541281Y-19970151D01*
X8526995Y-19955865D01*
X8512710Y-19927293D01*
X8498424Y-19870151D01*
X8498424Y-19798722D01*
X8512710Y-19741579D01*
X8526995Y-19713008D01*
X8541281Y-19698722D01*
X8569852Y-19684436D01*
X8798424Y-19955865D02*
X8812710Y-19970151D01*
X8798424Y-19984436D01*
X8784138Y-19970151D01*
X8798424Y-19955865D01*
X8798424Y-19984436D01*
X9098424Y-19984436D02*
X8926995Y-19984436D01*
X9012710Y-19984436D02*
X9012710Y-19684436D01*
X8984138Y-19727293D01*
X8955567Y-19755865D01*
X8926995Y-19770151D01*
X9369852Y-19684436D02*
X9226995Y-19684436D01*
X9212710Y-19827293D01*
X9226995Y-19813008D01*
X9255567Y-19798722D01*
X9326995Y-19798722D01*
X9355567Y-19813008D01*
X9369852Y-19827293D01*
X9384138Y-19855865D01*
X9384138Y-19927293D01*
X9369852Y-19955865D01*
X9355567Y-19970151D01*
X9326995Y-19984436D01*
X9255567Y-19984436D01*
X9226995Y-19970151D01*
X9212710Y-19955865D01*
X9484138Y-19684436D02*
X9684138Y-19684436D01*
X9555567Y-19984436D01*
X9941281Y-19684436D02*
X9798424Y-19684436D01*
X9784138Y-19827293D01*
X9798424Y-19813008D01*
X9826995Y-19798722D01*
X9898424Y-19798722D01*
X9926995Y-19813008D01*
X9941281Y-19827293D01*
X9955567Y-19855865D01*
X9955567Y-19927293D01*
X9941281Y-19955865D01*
X9926995Y-19970151D01*
X9898424Y-19984436D01*
X9826995Y-19984436D01*
X9798424Y-19970151D01*
X9784138Y-19955865D01*
X10069852Y-19684436D02*
X10069852Y-19741579D01*
X10184138Y-19684436D02*
X10184138Y-19741579D01*
X10626995Y-20098722D02*
X10612710Y-20084436D01*
X10584138Y-20041579D01*
X10569852Y-20013008D01*
X10555567Y-19970151D01*
X10541281Y-19898722D01*
X10541281Y-19841579D01*
X10555567Y-19770151D01*
X10569852Y-19727293D01*
X10584138Y-19698722D01*
X10612710Y-19655865D01*
X10626995Y-19641579D01*
X10784138Y-19813008D02*
X10755567Y-19798722D01*
X10741281Y-19784436D01*
X10726995Y-19755865D01*
X10726995Y-19741579D01*
X10741281Y-19713008D01*
X10755567Y-19698722D01*
X10784138Y-19684436D01*
X10841281Y-19684436D01*
X10869852Y-19698722D01*
X10884138Y-19713008D01*
X10898424Y-19741579D01*
X10898424Y-19755865D01*
X10884138Y-19784436D01*
X10869852Y-19798722D01*
X10841281Y-19813008D01*
X10784138Y-19813008D01*
X10755567Y-19827293D01*
X10741281Y-19841579D01*
X10726995Y-19870151D01*
X10726995Y-19927293D01*
X10741281Y-19955865D01*
X10755567Y-19970151D01*
X10784138Y-19984436D01*
X10841281Y-19984436D01*
X10869852Y-19970151D01*
X10884138Y-19955865D01*
X10898424Y-19927293D01*
X10898424Y-19870151D01*
X10884138Y-19841579D01*
X10869852Y-19827293D01*
X10841281Y-19813008D01*
X11041281Y-19984436D02*
X11098424Y-19984436D01*
X11126995Y-19970151D01*
X11141281Y-19955865D01*
X11169852Y-19913008D01*
X11184138Y-19855865D01*
X11184138Y-19741579D01*
X11169852Y-19713008D01*
X11155567Y-19698722D01*
X11126995Y-19684436D01*
X11069852Y-19684436D01*
X11041281Y-19698722D01*
X11026995Y-19713008D01*
X11012710Y-19741579D01*
X11012710Y-19813008D01*
X11026995Y-19841579D01*
X11041281Y-19855865D01*
X11069852Y-19870151D01*
X11126995Y-19870151D01*
X11155567Y-19855865D01*
X11169852Y-19841579D01*
X11184138Y-19813008D01*
X11541281Y-19984436D02*
X11541281Y-19684436D01*
X11669852Y-19984436D02*
X11669852Y-19827293D01*
X11655567Y-19798722D01*
X11626995Y-19784436D01*
X11584138Y-19784436D01*
X11555567Y-19798722D01*
X11541281Y-19813008D01*
X11855567Y-19984436D02*
X11826995Y-19970151D01*
X11812709Y-19955865D01*
X11798424Y-19927293D01*
X11798424Y-19841579D01*
X11812709Y-19813008D01*
X11826995Y-19798722D01*
X11855567Y-19784436D01*
X11898424Y-19784436D01*
X11926995Y-19798722D01*
X11941281Y-19813008D01*
X11955567Y-19841579D01*
X11955567Y-19927293D01*
X11941281Y-19955865D01*
X11926995Y-19970151D01*
X11898424Y-19984436D01*
X11855567Y-19984436D01*
X12126995Y-19984436D02*
X12098424Y-19970151D01*
X12084138Y-19941579D01*
X12084138Y-19684436D01*
X12355567Y-19970151D02*
X12326995Y-19984436D01*
X12269852Y-19984436D01*
X12241281Y-19970151D01*
X12226995Y-19941579D01*
X12226995Y-19827293D01*
X12241281Y-19798722D01*
X12269852Y-19784436D01*
X12326995Y-19784436D01*
X12355567Y-19798722D01*
X12369852Y-19827293D01*
X12369852Y-19855865D01*
X12226995Y-19884436D01*
X12484138Y-19970151D02*
X12512709Y-19984436D01*
X12569852Y-19984436D01*
X12598424Y-19970151D01*
X12612709Y-19941579D01*
X12612709Y-19927293D01*
X12598424Y-19898722D01*
X12569852Y-19884436D01*
X12526995Y-19884436D01*
X12498424Y-19870151D01*
X12484138Y-19841579D01*
X12484138Y-19827293D01*
X12498424Y-19798722D01*
X12526995Y-19784436D01*
X12569852Y-19784436D01*
X12598424Y-19798722D01*
X12712709Y-20098722D02*
X12726995Y-20084436D01*
X12755567Y-20041579D01*
X12769852Y-20013008D01*
X12784138Y-19970151D01*
X12798424Y-19898722D01*
X12798424Y-19841579D01*
X12784138Y-19770151D01*
X12769852Y-19727293D01*
X12755567Y-19698722D01*
X12726995Y-19655865D01*
X12712709Y-19641579D01*
X13255567Y-20098722D02*
X13241281Y-20084436D01*
X13212709Y-20041579D01*
X13198424Y-20013008D01*
X13184138Y-19970151D01*
X13169852Y-19898722D01*
X13169852Y-19841579D01*
X13184138Y-19770151D01*
X13198424Y-19727293D01*
X13212709Y-19698722D01*
X13241281Y-19655865D01*
X13255567Y-19641579D01*
X13369852Y-19784436D02*
X13369852Y-19984436D01*
X13369852Y-19813008D02*
X13384138Y-19798722D01*
X13412709Y-19784436D01*
X13455567Y-19784436D01*
X13484138Y-19798722D01*
X13498424Y-19827293D01*
X13498424Y-19984436D01*
X13684138Y-19984436D02*
X13655567Y-19970151D01*
X13641281Y-19955865D01*
X13626995Y-19927293D01*
X13626995Y-19841579D01*
X13641281Y-19813008D01*
X13655567Y-19798722D01*
X13684138Y-19784436D01*
X13726995Y-19784436D01*
X13755567Y-19798722D01*
X13769852Y-19813008D01*
X13784138Y-19841579D01*
X13784138Y-19927293D01*
X13769852Y-19955865D01*
X13755567Y-19970151D01*
X13726995Y-19984436D01*
X13684138Y-19984436D01*
X13869852Y-19784436D02*
X13984138Y-19784436D01*
X13912709Y-19684436D02*
X13912709Y-19941579D01*
X13926995Y-19970151D01*
X13955567Y-19984436D01*
X13984138Y-19984436D01*
X14312709Y-19784436D02*
X14312709Y-20084436D01*
X14312709Y-19798722D02*
X14341281Y-19784436D01*
X14398424Y-19784436D01*
X14426995Y-19798722D01*
X14441281Y-19813008D01*
X14455567Y-19841579D01*
X14455567Y-19927293D01*
X14441281Y-19955865D01*
X14426995Y-19970151D01*
X14398424Y-19984436D01*
X14341281Y-19984436D01*
X14312709Y-19970151D01*
X14626995Y-19984436D02*
X14598424Y-19970151D01*
X14584138Y-19941579D01*
X14584138Y-19684436D01*
X14869852Y-19984436D02*
X14869852Y-19827293D01*
X14855567Y-19798722D01*
X14826995Y-19784436D01*
X14769852Y-19784436D01*
X14741281Y-19798722D01*
X14869852Y-19970151D02*
X14841281Y-19984436D01*
X14769852Y-19984436D01*
X14741281Y-19970151D01*
X14726995Y-19941579D01*
X14726995Y-19913008D01*
X14741281Y-19884436D01*
X14769852Y-19870151D01*
X14841281Y-19870151D01*
X14869852Y-19855865D01*
X14969852Y-19784436D02*
X15084138Y-19784436D01*
X15012709Y-19684436D02*
X15012709Y-19941579D01*
X15026995Y-19970151D01*
X15055567Y-19984436D01*
X15084138Y-19984436D01*
X15298424Y-19970151D02*
X15269852Y-19984436D01*
X15212709Y-19984436D01*
X15184138Y-19970151D01*
X15169852Y-19941579D01*
X15169852Y-19827293D01*
X15184138Y-19798722D01*
X15212709Y-19784436D01*
X15269852Y-19784436D01*
X15298424Y-19798722D01*
X15312709Y-19827293D01*
X15312709Y-19855865D01*
X15169852Y-19884436D01*
X15569852Y-19984436D02*
X15569852Y-19684436D01*
X15569852Y-19970151D02*
X15541281Y-19984436D01*
X15484138Y-19984436D01*
X15455567Y-19970151D01*
X15441281Y-19955865D01*
X15426995Y-19927293D01*
X15426995Y-19841579D01*
X15441281Y-19813008D01*
X15455567Y-19798722D01*
X15484138Y-19784436D01*
X15541281Y-19784436D01*
X15569852Y-19798722D01*
X15684138Y-20098722D02*
X15698424Y-20084436D01*
X15726995Y-20041579D01*
X15741281Y-20013008D01*
X15755567Y-19970151D01*
X15769852Y-19898722D01*
X15769852Y-19841579D01*
X15755567Y-19770151D01*
X15741281Y-19727293D01*
X15726995Y-19698722D01*
X15698424Y-19655865D01*
X15684138Y-19641579D01*
M02*
