G04 #@! TF.GenerationSoftware,KiCad,Pcbnew,(5.1.10)-1*
G04 #@! TF.CreationDate,2021-07-24T00:02:27-04:00*
G04 #@! TF.ProjectId,discipline-pcb,64697363-6970-46c6-996e-652d7063622e,rev?*
G04 #@! TF.SameCoordinates,Original*
G04 #@! TF.FileFunction,Legend,Top*
G04 #@! TF.FilePolarity,Positive*
%FSLAX46Y46*%
G04 Gerber Fmt 4.6, Leading zero omitted, Abs format (unit mm)*
G04 Created by KiCad (PCBNEW (5.1.10)-1) date 2021-07-24 00:02:27*
%MOMM*%
%LPD*%
G01*
G04 APERTURE LIST*
%ADD10C,0.100000*%
%ADD11C,0.120000*%
%ADD12C,0.150000*%
%ADD13C,0.200000*%
%ADD14C,0.203200*%
%ADD15C,1.500000*%
%ADD16C,0.010000*%
%ADD17C,1.802000*%
%ADD18C,4.102000*%
%ADD19C,2.302000*%
%ADD20C,2.102000*%
%ADD21C,3.152000*%
%ADD22C,4.502000*%
%ADD23O,1.702000X1.702000*%
%ADD24C,1.702000*%
%ADD25C,1.302000*%
%ADD26O,1.502000X1.502000*%
%ADD27C,1.502000*%
%ADD28C,1.602000*%
%ADD29C,1.902000*%
%ADD30O,0.752000X1.102000*%
%ADD31O,1.002000X2.502000*%
%ADD32O,1.002000X1.802000*%
G04 APERTURE END LIST*
D10*
X268571435Y-65993549D02*
X268190483Y-65993549D01*
X268152388Y-66374502D01*
X268190483Y-66336406D01*
X268266674Y-66298311D01*
X268457150Y-66298311D01*
X268533340Y-66336406D01*
X268571435Y-66374502D01*
X268609531Y-66450692D01*
X268609531Y-66641168D01*
X268571435Y-66717359D01*
X268533340Y-66755454D01*
X268457150Y-66793549D01*
X268266674Y-66793549D01*
X268190483Y-66755454D01*
X268152388Y-66717359D01*
X269104769Y-65993549D02*
X269180959Y-65993549D01*
X269257150Y-66031645D01*
X269295245Y-66069740D01*
X269333340Y-66145930D01*
X269371435Y-66298311D01*
X269371435Y-66488787D01*
X269333340Y-66641168D01*
X269295245Y-66717359D01*
X269257150Y-66755454D01*
X269180959Y-66793549D01*
X269104769Y-66793549D01*
X269028578Y-66755454D01*
X268990483Y-66717359D01*
X268952388Y-66641168D01*
X268914293Y-66488787D01*
X268914293Y-66298311D01*
X268952388Y-66145930D01*
X268990483Y-66069740D01*
X269028578Y-66031645D01*
X269104769Y-65993549D01*
X269866674Y-65993549D02*
X269942864Y-65993549D01*
X270019055Y-66031645D01*
X270057150Y-66069740D01*
X270095245Y-66145930D01*
X270133340Y-66298311D01*
X270133340Y-66488787D01*
X270095245Y-66641168D01*
X270057150Y-66717359D01*
X270019055Y-66755454D01*
X269942864Y-66793549D01*
X269866674Y-66793549D01*
X269790483Y-66755454D01*
X269752388Y-66717359D01*
X269714293Y-66641168D01*
X269676197Y-66488787D01*
X269676197Y-66298311D01*
X269714293Y-66145930D01*
X269752388Y-66069740D01*
X269790483Y-66031645D01*
X269866674Y-65993549D01*
X270476197Y-66793549D02*
X270476197Y-66260216D01*
X270476197Y-66336406D02*
X270514293Y-66298311D01*
X270590483Y-66260216D01*
X270704769Y-66260216D01*
X270780959Y-66298311D01*
X270819055Y-66374502D01*
X270819055Y-66793549D01*
X270819055Y-66374502D02*
X270857150Y-66298311D01*
X270933340Y-66260216D01*
X271047626Y-66260216D01*
X271123816Y-66298311D01*
X271161912Y-66374502D01*
X271161912Y-66793549D01*
X271504769Y-66564978D02*
X271885721Y-66564978D01*
X271428578Y-66793549D02*
X271695245Y-65993549D01*
X271961912Y-66793549D01*
X283351445Y-79586134D02*
X283970493Y-79586134D01*
X283637159Y-79967087D01*
X283780016Y-79967087D01*
X283875255Y-80014706D01*
X283922874Y-80062325D01*
X283970493Y-80157563D01*
X283970493Y-80395658D01*
X283922874Y-80490896D01*
X283875255Y-80538515D01*
X283780016Y-80586134D01*
X283494302Y-80586134D01*
X283399064Y-80538515D01*
X283351445Y-80490896D01*
X284399064Y-80490896D02*
X284446683Y-80538515D01*
X284399064Y-80586134D01*
X284351445Y-80538515D01*
X284399064Y-80490896D01*
X284399064Y-80586134D01*
X285303826Y-79586134D02*
X285113350Y-79586134D01*
X285018112Y-79633754D01*
X284970493Y-79681373D01*
X284875255Y-79824230D01*
X284827636Y-80014706D01*
X284827636Y-80395658D01*
X284875255Y-80490896D01*
X284922874Y-80538515D01*
X285018112Y-80586134D01*
X285208588Y-80586134D01*
X285303826Y-80538515D01*
X285351445Y-80490896D01*
X285399064Y-80395658D01*
X285399064Y-80157563D01*
X285351445Y-80062325D01*
X285303826Y-80014706D01*
X285208588Y-79967087D01*
X285018112Y-79967087D01*
X284922874Y-80014706D01*
X284875255Y-80062325D01*
X284827636Y-80157563D01*
X285684778Y-79586134D02*
X286018112Y-80586134D01*
X286351445Y-79586134D01*
X281167640Y-80761370D02*
X281167640Y-80161370D01*
X282067640Y-80873870D01*
X282067640Y-80273870D01*
X281596212Y-79872085D02*
X281596212Y-79572085D01*
X282067640Y-79502442D02*
X282067640Y-79931013D01*
X281167640Y-79818513D01*
X281167640Y-79389942D01*
X282067640Y-79116728D02*
X281167640Y-79004228D01*
X282067640Y-78602442D01*
X281167640Y-78489942D01*
X281596212Y-78114942D02*
X281596212Y-77814942D01*
X282067640Y-77745299D02*
X282067640Y-78173870D01*
X281167640Y-78061370D01*
X281167640Y-77632799D01*
X282067640Y-76845299D02*
X281639069Y-77091728D01*
X282067640Y-77359585D02*
X281167640Y-77247085D01*
X281167640Y-76904228D01*
X281210498Y-76823870D01*
X281253355Y-76786370D01*
X281339069Y-76754228D01*
X281467640Y-76770299D01*
X281553355Y-76823870D01*
X281596212Y-76872085D01*
X281639069Y-76963156D01*
X281639069Y-77306013D01*
X282067640Y-75773870D02*
X281167640Y-75661370D01*
X281167640Y-75447085D01*
X281210498Y-75323870D01*
X281296212Y-75248870D01*
X281381926Y-75216728D01*
X281553355Y-75195299D01*
X281681926Y-75211370D01*
X281853355Y-75275656D01*
X281939069Y-75329228D01*
X282024783Y-75425656D01*
X282067640Y-75559585D01*
X282067640Y-75773870D01*
X282067640Y-74873870D02*
X281167640Y-74761370D01*
X281167640Y-74161370D02*
X281167640Y-73989942D01*
X281210498Y-73909585D01*
X281296212Y-73834585D01*
X281467640Y-73813156D01*
X281767640Y-73850656D01*
X281939069Y-73914942D01*
X282024783Y-74011370D01*
X282067640Y-74102442D01*
X282067640Y-74273870D01*
X282024783Y-74354228D01*
X281939069Y-74429228D01*
X281767640Y-74450656D01*
X281467640Y-74413156D01*
X281296212Y-74348870D01*
X281210498Y-74252442D01*
X281167640Y-74161370D01*
X282067640Y-73502442D02*
X281167640Y-73389942D01*
X281167640Y-73175656D01*
X281210498Y-73052442D01*
X281296212Y-72977442D01*
X281381926Y-72945299D01*
X281553355Y-72923870D01*
X281681926Y-72939942D01*
X281853355Y-73004228D01*
X281939069Y-73057799D01*
X282024783Y-73154228D01*
X282067640Y-73288156D01*
X282067640Y-73502442D01*
X281596212Y-72543513D02*
X281596212Y-72243513D01*
X282067640Y-72173870D02*
X282067640Y-72602442D01*
X281167640Y-72489942D01*
X281167640Y-72061370D01*
X282024783Y-71825656D02*
X282067640Y-71702442D01*
X282067640Y-71488156D01*
X282024783Y-71397085D01*
X281981926Y-71348870D01*
X281896212Y-71295299D01*
X281810498Y-71284585D01*
X281724783Y-71316728D01*
X281681926Y-71354228D01*
X281639069Y-71434585D01*
X281596212Y-71600656D01*
X281553355Y-71681013D01*
X281510498Y-71718513D01*
X281424783Y-71750656D01*
X281339069Y-71739942D01*
X281253355Y-71686370D01*
X281210498Y-71638156D01*
X281167640Y-71547085D01*
X281167640Y-71332799D01*
X281210498Y-71209585D01*
D11*
X285400010Y-75514666D02*
X285644982Y-75252196D01*
X286734918Y-75251812D02*
X286979890Y-74989342D01*
X282517900Y-75514282D02*
X282762872Y-75251812D01*
X283865246Y-75251812D02*
X284110218Y-74989342D01*
D12*
X228199557Y-66516574D02*
X227866223Y-66040384D01*
X227628128Y-66516574D02*
X227628128Y-65516574D01*
X228009080Y-65516574D01*
X228104318Y-65564194D01*
X228151938Y-65611813D01*
X228199557Y-65707051D01*
X228199557Y-65849908D01*
X228151938Y-65945146D01*
X228104318Y-65992765D01*
X228009080Y-66040384D01*
X227628128Y-66040384D01*
X228628128Y-65992765D02*
X228961461Y-65992765D01*
X229104318Y-66516574D02*
X228628128Y-66516574D01*
X228628128Y-65516574D01*
X229104318Y-65516574D01*
X229485271Y-66468955D02*
X229628128Y-66516574D01*
X229866223Y-66516574D01*
X229961461Y-66468955D01*
X230009080Y-66421336D01*
X230056699Y-66326098D01*
X230056699Y-66230860D01*
X230009080Y-66135622D01*
X229961461Y-66088003D01*
X229866223Y-66040384D01*
X229675747Y-65992765D01*
X229580509Y-65945146D01*
X229532890Y-65897527D01*
X229485271Y-65802289D01*
X229485271Y-65707051D01*
X229532890Y-65611813D01*
X229580509Y-65564194D01*
X229675747Y-65516574D01*
X229913842Y-65516574D01*
X230056699Y-65564194D01*
X230485271Y-65992765D02*
X230818604Y-65992765D01*
X230961461Y-66516574D02*
X230485271Y-66516574D01*
X230485271Y-65516574D01*
X230961461Y-65516574D01*
X231247176Y-65516574D02*
X231818604Y-65516574D01*
X231532890Y-66516574D02*
X231532890Y-65516574D01*
X283095546Y-59326064D02*
X283095546Y-58326064D01*
X283476498Y-58326064D01*
X283571736Y-58373684D01*
X283619355Y-58421303D01*
X283666974Y-58516541D01*
X283666974Y-58659398D01*
X283619355Y-58754636D01*
X283571736Y-58802255D01*
X283476498Y-58849874D01*
X283095546Y-58849874D01*
X284286022Y-58326064D02*
X284476498Y-58326064D01*
X284571736Y-58373684D01*
X284666974Y-58468922D01*
X284714593Y-58659398D01*
X284714593Y-58992731D01*
X284666974Y-59183207D01*
X284571736Y-59278445D01*
X284476498Y-59326064D01*
X284286022Y-59326064D01*
X284190784Y-59278445D01*
X284095546Y-59183207D01*
X284047927Y-58992731D01*
X284047927Y-58659398D01*
X284095546Y-58468922D01*
X284190784Y-58373684D01*
X284286022Y-58326064D01*
X285047927Y-58326064D02*
X285286022Y-59326064D01*
X285476498Y-58611779D01*
X285666974Y-59326064D01*
X285905070Y-58326064D01*
X286286022Y-58802255D02*
X286619355Y-58802255D01*
X286762212Y-59326064D02*
X286286022Y-59326064D01*
X286286022Y-58326064D01*
X286762212Y-58326064D01*
X287762212Y-59326064D02*
X287428879Y-58849874D01*
X287190784Y-59326064D02*
X287190784Y-58326064D01*
X287571736Y-58326064D01*
X287666974Y-58373684D01*
X287714593Y-58421303D01*
X287762212Y-58516541D01*
X287762212Y-58659398D01*
X287714593Y-58754636D01*
X287666974Y-58802255D01*
X287571736Y-58849874D01*
X287190784Y-58849874D01*
X249414796Y-64566827D02*
X249319558Y-64519207D01*
X249176701Y-64519207D01*
X249033843Y-64566827D01*
X248938605Y-64662065D01*
X248890986Y-64757303D01*
X248843367Y-64947779D01*
X248843367Y-65090636D01*
X248890986Y-65281112D01*
X248938605Y-65376350D01*
X249033843Y-65471588D01*
X249176701Y-65519207D01*
X249271939Y-65519207D01*
X249414796Y-65471588D01*
X249462415Y-65423969D01*
X249462415Y-65090636D01*
X249271939Y-65090636D01*
X249890986Y-65519207D02*
X249890986Y-64519207D01*
X250462415Y-65519207D01*
X250462415Y-64519207D01*
X250938605Y-65519207D02*
X250938605Y-64519207D01*
X251176701Y-64519207D01*
X251319558Y-64566827D01*
X251414796Y-64662065D01*
X251462415Y-64757303D01*
X251510034Y-64947779D01*
X251510034Y-65090636D01*
X251462415Y-65281112D01*
X251414796Y-65376350D01*
X251319558Y-65471588D01*
X251176701Y-65519207D01*
X250938605Y-65519207D01*
X256969474Y-60637358D02*
X256969474Y-59637358D01*
X257398045Y-60589739D02*
X257540903Y-60637358D01*
X257778998Y-60637358D01*
X257874236Y-60589739D01*
X257921855Y-60542120D01*
X257969474Y-60446882D01*
X257969474Y-60351644D01*
X257921855Y-60256406D01*
X257874236Y-60208787D01*
X257778998Y-60161168D01*
X257588522Y-60113549D01*
X257493284Y-60065930D01*
X257445665Y-60018311D01*
X257398045Y-59923073D01*
X257398045Y-59827835D01*
X257445665Y-59732597D01*
X257493284Y-59684978D01*
X257588522Y-59637358D01*
X257826617Y-59637358D01*
X257969474Y-59684978D01*
X258398045Y-60637358D02*
X258398045Y-59637358D01*
X258778998Y-59637358D01*
X258874236Y-59684978D01*
X258921855Y-59732597D01*
X258969474Y-59827835D01*
X258969474Y-59970692D01*
X258921855Y-60065930D01*
X258874236Y-60113549D01*
X258778998Y-60161168D01*
X258398045Y-60161168D01*
D10*
X291785363Y-70192989D02*
X291404411Y-70192989D01*
X291366316Y-70573942D01*
X291404411Y-70535846D01*
X291480601Y-70497751D01*
X291671077Y-70497751D01*
X291747268Y-70535846D01*
X291785363Y-70573942D01*
X291823458Y-70650132D01*
X291823458Y-70840608D01*
X291785363Y-70916799D01*
X291747268Y-70954894D01*
X291671077Y-70992989D01*
X291480601Y-70992989D01*
X291404411Y-70954894D01*
X291366316Y-70916799D01*
X292166316Y-70916799D02*
X292204411Y-70954894D01*
X292166316Y-70992989D01*
X292128220Y-70954894D01*
X292166316Y-70916799D01*
X292166316Y-70992989D01*
X292966316Y-70992989D02*
X292509173Y-70992989D01*
X292737744Y-70992989D02*
X292737744Y-70192989D01*
X292661554Y-70307275D01*
X292585363Y-70383465D01*
X292509173Y-70421561D01*
X293309173Y-70992989D02*
X293309173Y-70192989D01*
X293766316Y-70992989D02*
X293423458Y-70535846D01*
X293766316Y-70192989D02*
X293309173Y-70650132D01*
X291785363Y-67639536D02*
X291404411Y-67639536D01*
X291366316Y-68020489D01*
X291404411Y-67982393D01*
X291480601Y-67944298D01*
X291671077Y-67944298D01*
X291747268Y-67982393D01*
X291785363Y-68020489D01*
X291823458Y-68096679D01*
X291823458Y-68287155D01*
X291785363Y-68363346D01*
X291747268Y-68401441D01*
X291671077Y-68439536D01*
X291480601Y-68439536D01*
X291404411Y-68401441D01*
X291366316Y-68363346D01*
X292166316Y-68363346D02*
X292204411Y-68401441D01*
X292166316Y-68439536D01*
X292128220Y-68401441D01*
X292166316Y-68363346D01*
X292166316Y-68439536D01*
X292966316Y-68439536D02*
X292509173Y-68439536D01*
X292737744Y-68439536D02*
X292737744Y-67639536D01*
X292661554Y-67753822D01*
X292585363Y-67830012D01*
X292509173Y-67868108D01*
X293309173Y-68439536D02*
X293309173Y-67639536D01*
X293766316Y-68439536D02*
X293423458Y-67982393D01*
X293766316Y-67639536D02*
X293309173Y-68096679D01*
D11*
X352099500Y-94622000D02*
G75*
G03*
X352099500Y-94622000I-3000000J0D01*
G01*
X274541929Y-73506199D02*
X274541929Y-76476199D01*
X276541929Y-73496199D02*
X276531929Y-76486199D01*
X274541929Y-76486199D02*
X276531929Y-76486199D01*
X275551929Y-76696199D02*
X275551929Y-75576199D01*
X275551929Y-73236199D02*
X275551929Y-74516199D01*
X274541929Y-73496199D02*
X276541929Y-73496199D01*
X275551929Y-74626199D02*
X276091929Y-75576199D01*
X275541929Y-74636199D02*
X275011929Y-75546199D01*
X275011929Y-75576199D02*
X276091929Y-75576199D01*
X275011929Y-74526199D02*
X276091929Y-74526199D01*
X76724000Y-169218000D02*
X76724000Y-172188000D01*
X78724000Y-169208000D02*
X78714000Y-172198000D01*
X76724000Y-172198000D02*
X78714000Y-172198000D01*
X77734000Y-172408000D02*
X77734000Y-171288000D01*
X77734000Y-168948000D02*
X77734000Y-170228000D01*
X76724000Y-169208000D02*
X78724000Y-169208000D01*
X77734000Y-170338000D02*
X78274000Y-171288000D01*
X77724000Y-170348000D02*
X77194000Y-171258000D01*
X77194000Y-171288000D02*
X78274000Y-171288000D01*
X77194000Y-170238000D02*
X78274000Y-170238000D01*
X249444000Y-73460000D02*
X249444000Y-76430000D01*
X251444000Y-73450000D02*
X251434000Y-76440000D01*
X249444000Y-76440000D02*
X251434000Y-76440000D01*
X250454000Y-76650000D02*
X250454000Y-75530000D01*
X250454000Y-73190000D02*
X250454000Y-74470000D01*
X249444000Y-73450000D02*
X251444000Y-73450000D01*
X250454000Y-74580000D02*
X250994000Y-75530000D01*
X250444000Y-74590000D02*
X249914000Y-75500000D01*
X249914000Y-75530000D02*
X250994000Y-75530000D01*
X249914000Y-74480000D02*
X250994000Y-74480000D01*
X255794000Y-70158000D02*
X255794000Y-73128000D01*
X257794000Y-70148000D02*
X257784000Y-73138000D01*
X255794000Y-73138000D02*
X257784000Y-73138000D01*
X256804000Y-73348000D02*
X256804000Y-72228000D01*
X256804000Y-69888000D02*
X256804000Y-71168000D01*
X255794000Y-70148000D02*
X257794000Y-70148000D01*
X256804000Y-71278000D02*
X257344000Y-72228000D01*
X256794000Y-71288000D02*
X256264000Y-72198000D01*
X256264000Y-72228000D02*
X257344000Y-72228000D01*
X256264000Y-71178000D02*
X257344000Y-71178000D01*
X325241062Y-79771416D02*
X325241062Y-79786416D01*
X325241062Y-77646416D02*
X325241062Y-77661416D01*
X320701062Y-79771416D02*
X320701062Y-79786416D01*
X320701062Y-77646416D02*
X320701062Y-77661416D01*
X320701062Y-79786416D02*
X325241062Y-79786416D01*
X320701062Y-77646416D02*
X325241062Y-77646416D01*
X329895530Y-59981178D02*
X329895530Y-59996178D01*
X329895530Y-57856178D02*
X329895530Y-57871178D01*
X325355530Y-59981178D02*
X325355530Y-59996178D01*
X325355530Y-57856178D02*
X325355530Y-57871178D01*
X325355530Y-59996178D02*
X329895530Y-59996178D01*
X325355530Y-57856178D02*
X329895530Y-57856178D01*
X286597676Y-69654866D02*
G75*
G03*
X286597676Y-69654866I-2120000J0D01*
G01*
X285317676Y-69654866D02*
X286557676Y-69654866D01*
X282397676Y-69654866D02*
X283637676Y-69654866D01*
X285317676Y-69614866D02*
X286557676Y-69614866D01*
X282397676Y-69614866D02*
X283637676Y-69614866D01*
X285317676Y-69574866D02*
X286556676Y-69574866D01*
X282398676Y-69574866D02*
X283637676Y-69574866D01*
X282400676Y-69534866D02*
X283637676Y-69534866D01*
X285317676Y-69534866D02*
X286554676Y-69534866D01*
X282403676Y-69494866D02*
X283637676Y-69494866D01*
X285317676Y-69494866D02*
X286551676Y-69494866D01*
X282406676Y-69454866D02*
X283637676Y-69454866D01*
X285317676Y-69454866D02*
X286548676Y-69454866D01*
X282410676Y-69414866D02*
X283637676Y-69414866D01*
X285317676Y-69414866D02*
X286544676Y-69414866D01*
X282415676Y-69374866D02*
X283637676Y-69374866D01*
X285317676Y-69374866D02*
X286539676Y-69374866D01*
X282421676Y-69334866D02*
X283637676Y-69334866D01*
X285317676Y-69334866D02*
X286533676Y-69334866D01*
X282427676Y-69294866D02*
X283637676Y-69294866D01*
X285317676Y-69294866D02*
X286527676Y-69294866D01*
X282435676Y-69254866D02*
X283637676Y-69254866D01*
X285317676Y-69254866D02*
X286519676Y-69254866D01*
X282443676Y-69214866D02*
X283637676Y-69214866D01*
X285317676Y-69214866D02*
X286511676Y-69214866D01*
X282452676Y-69174866D02*
X283637676Y-69174866D01*
X285317676Y-69174866D02*
X286502676Y-69174866D01*
X282461676Y-69134866D02*
X283637676Y-69134866D01*
X285317676Y-69134866D02*
X286493676Y-69134866D01*
X282472676Y-69094866D02*
X283637676Y-69094866D01*
X285317676Y-69094866D02*
X286482676Y-69094866D01*
X282483676Y-69054866D02*
X283637676Y-69054866D01*
X285317676Y-69054866D02*
X286471676Y-69054866D01*
X282495676Y-69014866D02*
X283637676Y-69014866D01*
X285317676Y-69014866D02*
X286459676Y-69014866D01*
X282509676Y-68974866D02*
X283637676Y-68974866D01*
X285317676Y-68974866D02*
X286445676Y-68974866D01*
X282523676Y-68933866D02*
X283637676Y-68933866D01*
X285317676Y-68933866D02*
X286431676Y-68933866D01*
X282537676Y-68893866D02*
X283637676Y-68893866D01*
X285317676Y-68893866D02*
X286417676Y-68893866D01*
X282553676Y-68853866D02*
X283637676Y-68853866D01*
X285317676Y-68853866D02*
X286401676Y-68853866D01*
X282570676Y-68813866D02*
X283637676Y-68813866D01*
X285317676Y-68813866D02*
X286384676Y-68813866D01*
X282588676Y-68773866D02*
X283637676Y-68773866D01*
X285317676Y-68773866D02*
X286366676Y-68773866D01*
X282607676Y-68733866D02*
X283637676Y-68733866D01*
X285317676Y-68733866D02*
X286347676Y-68733866D01*
X282626676Y-68693866D02*
X283637676Y-68693866D01*
X285317676Y-68693866D02*
X286328676Y-68693866D01*
X282647676Y-68653866D02*
X283637676Y-68653866D01*
X285317676Y-68653866D02*
X286307676Y-68653866D01*
X282669676Y-68613866D02*
X283637676Y-68613866D01*
X285317676Y-68613866D02*
X286285676Y-68613866D01*
X282692676Y-68573866D02*
X283637676Y-68573866D01*
X285317676Y-68573866D02*
X286262676Y-68573866D01*
X282717676Y-68533866D02*
X283637676Y-68533866D01*
X285317676Y-68533866D02*
X286237676Y-68533866D01*
X282742676Y-68493866D02*
X283637676Y-68493866D01*
X285317676Y-68493866D02*
X286212676Y-68493866D01*
X282769676Y-68453866D02*
X283637676Y-68453866D01*
X285317676Y-68453866D02*
X286185676Y-68453866D01*
X282797676Y-68413866D02*
X283637676Y-68413866D01*
X285317676Y-68413866D02*
X286157676Y-68413866D01*
X282827676Y-68373866D02*
X283637676Y-68373866D01*
X285317676Y-68373866D02*
X286127676Y-68373866D01*
X282858676Y-68333866D02*
X283637676Y-68333866D01*
X285317676Y-68333866D02*
X286096676Y-68333866D01*
X282890676Y-68293866D02*
X283637676Y-68293866D01*
X285317676Y-68293866D02*
X286064676Y-68293866D01*
X282925676Y-68253866D02*
X283637676Y-68253866D01*
X285317676Y-68253866D02*
X286029676Y-68253866D01*
X282961676Y-68213866D02*
X283637676Y-68213866D01*
X285317676Y-68213866D02*
X285993676Y-68213866D01*
X282999676Y-68173866D02*
X283637676Y-68173866D01*
X285317676Y-68173866D02*
X285955676Y-68173866D01*
X283039676Y-68133866D02*
X283637676Y-68133866D01*
X285317676Y-68133866D02*
X285915676Y-68133866D01*
X283081676Y-68093866D02*
X283637676Y-68093866D01*
X285317676Y-68093866D02*
X285873676Y-68093866D01*
X283126676Y-68053866D02*
X285828676Y-68053866D01*
X283173676Y-68013866D02*
X285781676Y-68013866D01*
X283223676Y-67973866D02*
X285731676Y-67973866D01*
X283277676Y-67933866D02*
X285677676Y-67933866D01*
X283335676Y-67893866D02*
X285619676Y-67893866D01*
X283397676Y-67853866D02*
X285557676Y-67853866D01*
X283464676Y-67813866D02*
X285490676Y-67813866D01*
X283537676Y-67773866D02*
X285417676Y-67773866D01*
X283618676Y-67733866D02*
X285336676Y-67733866D01*
X283709676Y-67693866D02*
X285245676Y-67693866D01*
X283813676Y-67653866D02*
X285141676Y-67653866D01*
X283940676Y-67613866D02*
X285014676Y-67613866D01*
X284107676Y-67573866D02*
X284847676Y-67573866D01*
X283282676Y-71924667D02*
X283282676Y-71524667D01*
X283082676Y-71724667D02*
X283482676Y-71724667D01*
X328600238Y-81385040D02*
X328600238Y-80127040D01*
X326760238Y-81385040D02*
X326760238Y-80127040D01*
X342826112Y-81385040D02*
X342826112Y-80127040D01*
X340986112Y-81385040D02*
X340986112Y-80127040D01*
X294486316Y-77218982D02*
X290646316Y-77218982D01*
X294486316Y-79058982D02*
X290646316Y-79058982D01*
X294486316Y-74725517D02*
X290646316Y-74725517D01*
X294486316Y-76565517D02*
X290646316Y-76565517D01*
X294486316Y-72232052D02*
X290646316Y-72232052D01*
X294486316Y-74072052D02*
X290646316Y-74072052D01*
X290646316Y-71500211D02*
X294486316Y-71500211D01*
X290646316Y-69660211D02*
X294486316Y-69660211D01*
X290646316Y-68980499D02*
X294486316Y-68980499D01*
X290646316Y-67140499D02*
X294486316Y-67140499D01*
X290646316Y-66487034D02*
X294486316Y-66487034D01*
X290646316Y-64647034D02*
X294486316Y-64647034D01*
X294486316Y-62153204D02*
X290646316Y-62153204D01*
X294486316Y-63993204D02*
X290646316Y-63993204D01*
X298423430Y-69769182D02*
X298423430Y-75229182D01*
X298423430Y-75229182D02*
X349343430Y-75229182D01*
X349343430Y-75229182D02*
X349343430Y-62309182D01*
X349343430Y-62309182D02*
X298423430Y-62309182D01*
X298423430Y-62309182D02*
X298423430Y-67769182D01*
X298423430Y-67769182D02*
G75*
G02*
X298423430Y-69769182I0J-1000000D01*
G01*
D13*
X254003830Y-59070870D02*
X254003830Y-58270870D01*
X254003830Y-58270870D02*
X251453830Y-58270870D01*
X251453830Y-58270870D02*
X251453830Y-59070870D01*
D14*
X248943830Y-59080870D02*
X256563830Y-59080870D01*
X256563830Y-64160870D02*
X248943830Y-64160870D01*
X248943830Y-64160870D02*
X248943830Y-59080870D01*
X256563830Y-59080870D02*
X256563830Y-64160870D01*
D11*
X338011644Y-82781240D02*
X331611644Y-82781240D01*
X338011644Y-77731240D02*
X331611644Y-77731240D01*
X338011644Y-77731240D02*
G75*
G02*
X338011644Y-82781240I0J-2525000D01*
G01*
X331611644Y-77731240D02*
G75*
G03*
X331611644Y-82781240I0J-2525000D01*
G01*
X283837716Y-63050830D02*
X283837716Y-63206830D01*
X283837716Y-60734830D02*
X283837716Y-60890830D01*
X286438846Y-63050667D02*
G75*
G02*
X284356755Y-63050830I-1041130J1079837D01*
G01*
X286438846Y-60890993D02*
G75*
G03*
X284356755Y-60890830I-1041130J-1079837D01*
G01*
X287070051Y-63049438D02*
G75*
G02*
X283837716Y-63206346I-1672335J1078608D01*
G01*
X287070051Y-60892222D02*
G75*
G03*
X283837716Y-60735314I-1672335J-1078608D01*
G01*
D12*
X282173468Y-60291022D02*
X272923468Y-60291022D01*
X282023468Y-66951022D02*
X273073468Y-66951022D01*
X273068468Y-58541022D02*
X273073468Y-57781022D01*
X282023468Y-57781022D02*
X273073468Y-57781022D01*
X282023468Y-57781022D02*
X282028468Y-58541022D01*
X277548468Y-60291022D02*
X277548468Y-61561022D01*
D11*
X245235732Y-62836074D02*
X245235732Y-61336074D01*
X243985732Y-58836074D02*
X239485732Y-58836074D01*
X238235732Y-61336074D02*
X238235732Y-62836074D01*
X239485732Y-65336074D02*
X243985732Y-65336074D01*
X233235732Y-62836074D02*
X233235732Y-61336074D01*
X231985732Y-58836074D02*
X227485732Y-58836074D01*
X226235732Y-61336074D02*
X226235732Y-62836074D01*
X227485732Y-65336074D02*
X231985732Y-65336074D01*
X62600284Y-68545612D02*
X62600284Y-71515612D01*
X64600284Y-68535612D02*
X64590284Y-71525612D01*
X62600284Y-71525612D02*
X64590284Y-71525612D01*
X63610284Y-71735612D02*
X63610284Y-70615612D01*
X63610284Y-68275612D02*
X63610284Y-69555612D01*
X62600284Y-68535612D02*
X64600284Y-68535612D01*
X63610284Y-69665612D02*
X64150284Y-70615612D01*
X63600284Y-69675612D02*
X63070284Y-70585612D01*
X63070284Y-70615612D02*
X64150284Y-70615612D01*
X63070284Y-69565612D02*
X64150284Y-69565612D01*
X72108673Y-73506199D02*
X72108673Y-76476199D01*
X74108673Y-73496199D02*
X74098673Y-76486199D01*
X72108673Y-76486199D02*
X74098673Y-76486199D01*
X73118673Y-76696199D02*
X73118673Y-75576199D01*
X73118673Y-73236199D02*
X73118673Y-74516199D01*
X72108673Y-73496199D02*
X74108673Y-73496199D01*
X73118673Y-74626199D02*
X73658673Y-75576199D01*
X73108673Y-74636199D02*
X72578673Y-75546199D01*
X72578673Y-75576199D02*
X73658673Y-75576199D01*
X72578673Y-74526199D02*
X73658673Y-74526199D01*
X84786525Y-73506199D02*
X84786525Y-76476199D01*
X86786525Y-73496199D02*
X86776525Y-76486199D01*
X84786525Y-76486199D02*
X86776525Y-76486199D01*
X85796525Y-76696199D02*
X85796525Y-75576199D01*
X85796525Y-73236199D02*
X85796525Y-74516199D01*
X84786525Y-73496199D02*
X86786525Y-73496199D01*
X85796525Y-74626199D02*
X86336525Y-75576199D01*
X85786525Y-74636199D02*
X85256525Y-75546199D01*
X85256525Y-75576199D02*
X86336525Y-75576199D01*
X85256525Y-74526199D02*
X86336525Y-74526199D01*
X87955988Y-68545612D02*
X87955988Y-71515612D01*
X89955988Y-68535612D02*
X89945988Y-71525612D01*
X87955988Y-71525612D02*
X89945988Y-71525612D01*
X88965988Y-71735612D02*
X88965988Y-70615612D01*
X88965988Y-68275612D02*
X88965988Y-69555612D01*
X87955988Y-68535612D02*
X89955988Y-68535612D01*
X88965988Y-69665612D02*
X89505988Y-70615612D01*
X88955988Y-69675612D02*
X88425988Y-70585612D01*
X88425988Y-70615612D02*
X89505988Y-70615612D01*
X88425988Y-69565612D02*
X89505988Y-69565612D01*
X100633840Y-68545612D02*
X100633840Y-71515612D01*
X102633840Y-68535612D02*
X102623840Y-71525612D01*
X100633840Y-71525612D02*
X102623840Y-71525612D01*
X101643840Y-71735612D02*
X101643840Y-70615612D01*
X101643840Y-68275612D02*
X101643840Y-69555612D01*
X100633840Y-68535612D02*
X102633840Y-68535612D01*
X101643840Y-69665612D02*
X102183840Y-70615612D01*
X101633840Y-69675612D02*
X101103840Y-70585612D01*
X101103840Y-70615612D02*
X102183840Y-70615612D01*
X101103840Y-69565612D02*
X102183840Y-69565612D01*
X113311692Y-68545612D02*
X113311692Y-71515612D01*
X115311692Y-68535612D02*
X115301692Y-71525612D01*
X113311692Y-71525612D02*
X115301692Y-71525612D01*
X114321692Y-71735612D02*
X114321692Y-70615612D01*
X114321692Y-68275612D02*
X114321692Y-69555612D01*
X113311692Y-68535612D02*
X115311692Y-68535612D01*
X114321692Y-69665612D02*
X114861692Y-70615612D01*
X114311692Y-69675612D02*
X113781692Y-70585612D01*
X113781692Y-70615612D02*
X114861692Y-70615612D01*
X113781692Y-69565612D02*
X114861692Y-69565612D01*
X125989544Y-68545612D02*
X125989544Y-71515612D01*
X127989544Y-68535612D02*
X127979544Y-71525612D01*
X125989544Y-71525612D02*
X127979544Y-71525612D01*
X126999544Y-71735612D02*
X126999544Y-70615612D01*
X126999544Y-68275612D02*
X126999544Y-69555612D01*
X125989544Y-68535612D02*
X127989544Y-68535612D01*
X126999544Y-69665612D02*
X127539544Y-70615612D01*
X126989544Y-69675612D02*
X126459544Y-70585612D01*
X126459544Y-70615612D02*
X127539544Y-70615612D01*
X126459544Y-69565612D02*
X127539544Y-69565612D01*
X138667396Y-68545612D02*
X138667396Y-71515612D01*
X140667396Y-68535612D02*
X140657396Y-71525612D01*
X138667396Y-71525612D02*
X140657396Y-71525612D01*
X139677396Y-71735612D02*
X139677396Y-70615612D01*
X139677396Y-68275612D02*
X139677396Y-69555612D01*
X138667396Y-68535612D02*
X140667396Y-68535612D01*
X139677396Y-69665612D02*
X140217396Y-70615612D01*
X139667396Y-69675612D02*
X139137396Y-70585612D01*
X139137396Y-70615612D02*
X140217396Y-70615612D01*
X139137396Y-69565612D02*
X140217396Y-69565612D01*
X151345248Y-68545612D02*
X151345248Y-71515612D01*
X153345248Y-68535612D02*
X153335248Y-71525612D01*
X151345248Y-71525612D02*
X153335248Y-71525612D01*
X152355248Y-71735612D02*
X152355248Y-70615612D01*
X152355248Y-68275612D02*
X152355248Y-69555612D01*
X151345248Y-68535612D02*
X153345248Y-68535612D01*
X152355248Y-69665612D02*
X152895248Y-70615612D01*
X152345248Y-69675612D02*
X151815248Y-70585612D01*
X151815248Y-70615612D02*
X152895248Y-70615612D01*
X151815248Y-69565612D02*
X152895248Y-69565612D01*
X164023100Y-68545612D02*
X164023100Y-71515612D01*
X166023100Y-68535612D02*
X166013100Y-71525612D01*
X164023100Y-71525612D02*
X166013100Y-71525612D01*
X165033100Y-71735612D02*
X165033100Y-70615612D01*
X165033100Y-68275612D02*
X165033100Y-69555612D01*
X164023100Y-68535612D02*
X166023100Y-68535612D01*
X165033100Y-69665612D02*
X165573100Y-70615612D01*
X165023100Y-69675612D02*
X164493100Y-70585612D01*
X164493100Y-70615612D02*
X165573100Y-70615612D01*
X164493100Y-69565612D02*
X165573100Y-69565612D01*
X176700952Y-68545612D02*
X176700952Y-71515612D01*
X178700952Y-68535612D02*
X178690952Y-71525612D01*
X176700952Y-71525612D02*
X178690952Y-71525612D01*
X177710952Y-71735612D02*
X177710952Y-70615612D01*
X177710952Y-68275612D02*
X177710952Y-69555612D01*
X176700952Y-68535612D02*
X178700952Y-68535612D01*
X177710952Y-69665612D02*
X178250952Y-70615612D01*
X177700952Y-69675612D02*
X177170952Y-70585612D01*
X177170952Y-70615612D02*
X178250952Y-70615612D01*
X177170952Y-69565612D02*
X178250952Y-69565612D01*
X189378804Y-68545612D02*
X189378804Y-71515612D01*
X191378804Y-68535612D02*
X191368804Y-71525612D01*
X189378804Y-71525612D02*
X191368804Y-71525612D01*
X190388804Y-71735612D02*
X190388804Y-70615612D01*
X190388804Y-68275612D02*
X190388804Y-69555612D01*
X189378804Y-68535612D02*
X191378804Y-68535612D01*
X190388804Y-69665612D02*
X190928804Y-70615612D01*
X190378804Y-69675612D02*
X189848804Y-70585612D01*
X189848804Y-70615612D02*
X190928804Y-70615612D01*
X189848804Y-69565612D02*
X190928804Y-69565612D01*
X202056656Y-68545612D02*
X202056656Y-71515612D01*
X204056656Y-68535612D02*
X204046656Y-71525612D01*
X202056656Y-71525612D02*
X204046656Y-71525612D01*
X203066656Y-71735612D02*
X203066656Y-70615612D01*
X203066656Y-68275612D02*
X203066656Y-69555612D01*
X202056656Y-68535612D02*
X204056656Y-68535612D01*
X203066656Y-69665612D02*
X203606656Y-70615612D01*
X203056656Y-69675612D02*
X202526656Y-70585612D01*
X202526656Y-70615612D02*
X203606656Y-70615612D01*
X202526656Y-69565612D02*
X203606656Y-69565612D01*
X214734508Y-68545612D02*
X214734508Y-71515612D01*
X216734508Y-68535612D02*
X216724508Y-71525612D01*
X214734508Y-71525612D02*
X216724508Y-71525612D01*
X215744508Y-71735612D02*
X215744508Y-70615612D01*
X215744508Y-68275612D02*
X215744508Y-69555612D01*
X214734508Y-68535612D02*
X216734508Y-68535612D01*
X215744508Y-69665612D02*
X216284508Y-70615612D01*
X215734508Y-69675612D02*
X215204508Y-70585612D01*
X215204508Y-70615612D02*
X216284508Y-70615612D01*
X215204508Y-69565612D02*
X216284508Y-69565612D01*
X227342376Y-68545612D02*
X227342376Y-71515612D01*
X229342376Y-68535612D02*
X229332376Y-71525612D01*
X227342376Y-71525612D02*
X229332376Y-71525612D01*
X228352376Y-71735612D02*
X228352376Y-70615612D01*
X228352376Y-68275612D02*
X228352376Y-69555612D01*
X227342376Y-68535612D02*
X229342376Y-68535612D01*
X228352376Y-69665612D02*
X228892376Y-70615612D01*
X228342376Y-69675612D02*
X227812376Y-70585612D01*
X227812376Y-70615612D02*
X228892376Y-70615612D01*
X227812376Y-69565612D02*
X228892376Y-69565612D01*
X65769747Y-70199141D02*
X65769747Y-73169141D01*
X67769747Y-70189141D02*
X67759747Y-73179141D01*
X65769747Y-73179141D02*
X67759747Y-73179141D01*
X66779747Y-73389141D02*
X66779747Y-72269141D01*
X66779747Y-69929141D02*
X66779747Y-71209141D01*
X65769747Y-70189141D02*
X67769747Y-70189141D01*
X66779747Y-71319141D02*
X67319747Y-72269141D01*
X66769747Y-71329141D02*
X66239747Y-72239141D01*
X66239747Y-72269141D02*
X67319747Y-72269141D01*
X66239747Y-71219141D02*
X67319747Y-71219141D01*
X81617062Y-71852670D02*
X81617062Y-74822670D01*
X83617062Y-71842670D02*
X83607062Y-74832670D01*
X81617062Y-74832670D02*
X83607062Y-74832670D01*
X82627062Y-75042670D02*
X82627062Y-73922670D01*
X82627062Y-71582670D02*
X82627062Y-72862670D01*
X81617062Y-71842670D02*
X83617062Y-71842670D01*
X82627062Y-72972670D02*
X83167062Y-73922670D01*
X82617062Y-72982670D02*
X82087062Y-73892670D01*
X82087062Y-73922670D02*
X83167062Y-73922670D01*
X82087062Y-72872670D02*
X83167062Y-72872670D01*
X91125451Y-70199141D02*
X91125451Y-73169141D01*
X93125451Y-70189141D02*
X93115451Y-73179141D01*
X91125451Y-73179141D02*
X93115451Y-73179141D01*
X92135451Y-73389141D02*
X92135451Y-72269141D01*
X92135451Y-69929141D02*
X92135451Y-71209141D01*
X91125451Y-70189141D02*
X93125451Y-70189141D01*
X92135451Y-71319141D02*
X92675451Y-72269141D01*
X92125451Y-71329141D02*
X91595451Y-72239141D01*
X91595451Y-72269141D02*
X92675451Y-72269141D01*
X91595451Y-71219141D02*
X92675451Y-71219141D01*
X103803303Y-70199141D02*
X103803303Y-73169141D01*
X105803303Y-70189141D02*
X105793303Y-73179141D01*
X103803303Y-73179141D02*
X105793303Y-73179141D01*
X104813303Y-73389141D02*
X104813303Y-72269141D01*
X104813303Y-69929141D02*
X104813303Y-71209141D01*
X103803303Y-70189141D02*
X105803303Y-70189141D01*
X104813303Y-71319141D02*
X105353303Y-72269141D01*
X104803303Y-71329141D02*
X104273303Y-72239141D01*
X104273303Y-72269141D02*
X105353303Y-72269141D01*
X104273303Y-71219141D02*
X105353303Y-71219141D01*
X116481155Y-70199141D02*
X116481155Y-73169141D01*
X118481155Y-70189141D02*
X118471155Y-73179141D01*
X116481155Y-73179141D02*
X118471155Y-73179141D01*
X117491155Y-73389141D02*
X117491155Y-72269141D01*
X117491155Y-69929141D02*
X117491155Y-71209141D01*
X116481155Y-70189141D02*
X118481155Y-70189141D01*
X117491155Y-71319141D02*
X118031155Y-72269141D01*
X117481155Y-71329141D02*
X116951155Y-72239141D01*
X116951155Y-72269141D02*
X118031155Y-72269141D01*
X116951155Y-71219141D02*
X118031155Y-71219141D01*
X129159007Y-70199141D02*
X129159007Y-73169141D01*
X131159007Y-70189141D02*
X131149007Y-73179141D01*
X129159007Y-73179141D02*
X131149007Y-73179141D01*
X130169007Y-73389141D02*
X130169007Y-72269141D01*
X130169007Y-69929141D02*
X130169007Y-71209141D01*
X129159007Y-70189141D02*
X131159007Y-70189141D01*
X130169007Y-71319141D02*
X130709007Y-72269141D01*
X130159007Y-71329141D02*
X129629007Y-72239141D01*
X129629007Y-72269141D02*
X130709007Y-72269141D01*
X129629007Y-71219141D02*
X130709007Y-71219141D01*
X141836859Y-70199141D02*
X141836859Y-73169141D01*
X143836859Y-70189141D02*
X143826859Y-73179141D01*
X141836859Y-73179141D02*
X143826859Y-73179141D01*
X142846859Y-73389141D02*
X142846859Y-72269141D01*
X142846859Y-69929141D02*
X142846859Y-71209141D01*
X141836859Y-70189141D02*
X143836859Y-70189141D01*
X142846859Y-71319141D02*
X143386859Y-72269141D01*
X142836859Y-71329141D02*
X142306859Y-72239141D01*
X142306859Y-72269141D02*
X143386859Y-72269141D01*
X142306859Y-71219141D02*
X143386859Y-71219141D01*
X154514711Y-70199141D02*
X154514711Y-73169141D01*
X156514711Y-70189141D02*
X156504711Y-73179141D01*
X154514711Y-73179141D02*
X156504711Y-73179141D01*
X155524711Y-73389141D02*
X155524711Y-72269141D01*
X155524711Y-69929141D02*
X155524711Y-71209141D01*
X154514711Y-70189141D02*
X156514711Y-70189141D01*
X155524711Y-71319141D02*
X156064711Y-72269141D01*
X155514711Y-71329141D02*
X154984711Y-72239141D01*
X154984711Y-72269141D02*
X156064711Y-72269141D01*
X154984711Y-71219141D02*
X156064711Y-71219141D01*
X167192563Y-70199141D02*
X167192563Y-73169141D01*
X169192563Y-70189141D02*
X169182563Y-73179141D01*
X167192563Y-73179141D02*
X169182563Y-73179141D01*
X168202563Y-73389141D02*
X168202563Y-72269141D01*
X168202563Y-69929141D02*
X168202563Y-71209141D01*
X167192563Y-70189141D02*
X169192563Y-70189141D01*
X168202563Y-71319141D02*
X168742563Y-72269141D01*
X168192563Y-71329141D02*
X167662563Y-72239141D01*
X167662563Y-72269141D02*
X168742563Y-72269141D01*
X167662563Y-71219141D02*
X168742563Y-71219141D01*
X179870415Y-70199141D02*
X179870415Y-73169141D01*
X181870415Y-70189141D02*
X181860415Y-73179141D01*
X179870415Y-73179141D02*
X181860415Y-73179141D01*
X180880415Y-73389141D02*
X180880415Y-72269141D01*
X180880415Y-69929141D02*
X180880415Y-71209141D01*
X179870415Y-70189141D02*
X181870415Y-70189141D01*
X180880415Y-71319141D02*
X181420415Y-72269141D01*
X180870415Y-71329141D02*
X180340415Y-72239141D01*
X180340415Y-72269141D02*
X181420415Y-72269141D01*
X180340415Y-71219141D02*
X181420415Y-71219141D01*
X192548267Y-70199141D02*
X192548267Y-73169141D01*
X194548267Y-70189141D02*
X194538267Y-73179141D01*
X192548267Y-73179141D02*
X194538267Y-73179141D01*
X193558267Y-73389141D02*
X193558267Y-72269141D01*
X193558267Y-69929141D02*
X193558267Y-71209141D01*
X192548267Y-70189141D02*
X194548267Y-70189141D01*
X193558267Y-71319141D02*
X194098267Y-72269141D01*
X193548267Y-71329141D02*
X193018267Y-72239141D01*
X193018267Y-72269141D02*
X194098267Y-72269141D01*
X193018267Y-71219141D02*
X194098267Y-71219141D01*
X205226119Y-70199141D02*
X205226119Y-73169141D01*
X207226119Y-70189141D02*
X207216119Y-73179141D01*
X205226119Y-73179141D02*
X207216119Y-73179141D01*
X206236119Y-73389141D02*
X206236119Y-72269141D01*
X206236119Y-69929141D02*
X206236119Y-71209141D01*
X205226119Y-70189141D02*
X207226119Y-70189141D01*
X206236119Y-71319141D02*
X206776119Y-72269141D01*
X206226119Y-71329141D02*
X205696119Y-72239141D01*
X205696119Y-72269141D02*
X206776119Y-72269141D01*
X205696119Y-71219141D02*
X206776119Y-71219141D01*
X217886475Y-70199141D02*
X217886475Y-73169141D01*
X219886475Y-70189141D02*
X219876475Y-73179141D01*
X217886475Y-73179141D02*
X219876475Y-73179141D01*
X218896475Y-73389141D02*
X218896475Y-72269141D01*
X218896475Y-69929141D02*
X218896475Y-71209141D01*
X217886475Y-70189141D02*
X219886475Y-70189141D01*
X218896475Y-71319141D02*
X219436475Y-72269141D01*
X218886475Y-71329141D02*
X218356475Y-72239141D01*
X218356475Y-72269141D02*
X219436475Y-72269141D01*
X218356475Y-71219141D02*
X219436475Y-71219141D01*
X230493149Y-70199141D02*
X230493149Y-73169141D01*
X232493149Y-70189141D02*
X232483149Y-73179141D01*
X230493149Y-73179141D02*
X232483149Y-73179141D01*
X231503149Y-73389141D02*
X231503149Y-72269141D01*
X231503149Y-69929141D02*
X231503149Y-71209141D01*
X230493149Y-70189141D02*
X232493149Y-70189141D01*
X231503149Y-71319141D02*
X232043149Y-72269141D01*
X231493149Y-71329141D02*
X230963149Y-72239141D01*
X230963149Y-72269141D02*
X232043149Y-72269141D01*
X230963149Y-71219141D02*
X232043149Y-71219141D01*
X271453205Y-71852670D02*
X271453205Y-74822670D01*
X273453205Y-71842670D02*
X273443205Y-74832670D01*
X271453205Y-74832670D02*
X273443205Y-74832670D01*
X272463205Y-75042670D02*
X272463205Y-73922670D01*
X272463205Y-71582670D02*
X272463205Y-72862670D01*
X271453205Y-71842670D02*
X273453205Y-71842670D01*
X272463205Y-72972670D02*
X273003205Y-73922670D01*
X272453205Y-72982670D02*
X271923205Y-73892670D01*
X271923205Y-73922670D02*
X273003205Y-73922670D01*
X271923205Y-72872670D02*
X273003205Y-72872670D01*
X68939210Y-71852670D02*
X68939210Y-74822670D01*
X70939210Y-71842670D02*
X70929210Y-74832670D01*
X68939210Y-74832670D02*
X70929210Y-74832670D01*
X69949210Y-75042670D02*
X69949210Y-73922670D01*
X69949210Y-71582670D02*
X69949210Y-72862670D01*
X68939210Y-71842670D02*
X70939210Y-71842670D01*
X69949210Y-72972670D02*
X70489210Y-73922670D01*
X69939210Y-72982670D02*
X69409210Y-73892670D01*
X69409210Y-73922670D02*
X70489210Y-73922670D01*
X69409210Y-72872670D02*
X70489210Y-72872670D01*
X78447599Y-70199141D02*
X78447599Y-73169141D01*
X80447599Y-70189141D02*
X80437599Y-73179141D01*
X78447599Y-73179141D02*
X80437599Y-73179141D01*
X79457599Y-73389141D02*
X79457599Y-72269141D01*
X79457599Y-69929141D02*
X79457599Y-71209141D01*
X78447599Y-70189141D02*
X80447599Y-70189141D01*
X79457599Y-71319141D02*
X79997599Y-72269141D01*
X79447599Y-71329141D02*
X78917599Y-72239141D01*
X78917599Y-72269141D02*
X79997599Y-72269141D01*
X78917599Y-71219141D02*
X79997599Y-71219141D01*
X94294914Y-71852670D02*
X94294914Y-74822670D01*
X96294914Y-71842670D02*
X96284914Y-74832670D01*
X94294914Y-74832670D02*
X96284914Y-74832670D01*
X95304914Y-75042670D02*
X95304914Y-73922670D01*
X95304914Y-71582670D02*
X95304914Y-72862670D01*
X94294914Y-71842670D02*
X96294914Y-71842670D01*
X95304914Y-72972670D02*
X95844914Y-73922670D01*
X95294914Y-72982670D02*
X94764914Y-73892670D01*
X94764914Y-73922670D02*
X95844914Y-73922670D01*
X94764914Y-72872670D02*
X95844914Y-72872670D01*
X106972766Y-71852670D02*
X106972766Y-74822670D01*
X108972766Y-71842670D02*
X108962766Y-74832670D01*
X106972766Y-74832670D02*
X108962766Y-74832670D01*
X107982766Y-75042670D02*
X107982766Y-73922670D01*
X107982766Y-71582670D02*
X107982766Y-72862670D01*
X106972766Y-71842670D02*
X108972766Y-71842670D01*
X107982766Y-72972670D02*
X108522766Y-73922670D01*
X107972766Y-72982670D02*
X107442766Y-73892670D01*
X107442766Y-73922670D02*
X108522766Y-73922670D01*
X107442766Y-72872670D02*
X108522766Y-72872670D01*
X119650618Y-71852670D02*
X119650618Y-74822670D01*
X121650618Y-71842670D02*
X121640618Y-74832670D01*
X119650618Y-74832670D02*
X121640618Y-74832670D01*
X120660618Y-75042670D02*
X120660618Y-73922670D01*
X120660618Y-71582670D02*
X120660618Y-72862670D01*
X119650618Y-71842670D02*
X121650618Y-71842670D01*
X120660618Y-72972670D02*
X121200618Y-73922670D01*
X120650618Y-72982670D02*
X120120618Y-73892670D01*
X120120618Y-73922670D02*
X121200618Y-73922670D01*
X120120618Y-72872670D02*
X121200618Y-72872670D01*
X132328470Y-71852670D02*
X132328470Y-74822670D01*
X134328470Y-71842670D02*
X134318470Y-74832670D01*
X132328470Y-74832670D02*
X134318470Y-74832670D01*
X133338470Y-75042670D02*
X133338470Y-73922670D01*
X133338470Y-71582670D02*
X133338470Y-72862670D01*
X132328470Y-71842670D02*
X134328470Y-71842670D01*
X133338470Y-72972670D02*
X133878470Y-73922670D01*
X133328470Y-72982670D02*
X132798470Y-73892670D01*
X132798470Y-73922670D02*
X133878470Y-73922670D01*
X132798470Y-72872670D02*
X133878470Y-72872670D01*
X145006322Y-71852670D02*
X145006322Y-74822670D01*
X147006322Y-71842670D02*
X146996322Y-74832670D01*
X145006322Y-74832670D02*
X146996322Y-74832670D01*
X146016322Y-75042670D02*
X146016322Y-73922670D01*
X146016322Y-71582670D02*
X146016322Y-72862670D01*
X145006322Y-71842670D02*
X147006322Y-71842670D01*
X146016322Y-72972670D02*
X146556322Y-73922670D01*
X146006322Y-72982670D02*
X145476322Y-73892670D01*
X145476322Y-73922670D02*
X146556322Y-73922670D01*
X145476322Y-72872670D02*
X146556322Y-72872670D01*
X157684174Y-71852670D02*
X157684174Y-74822670D01*
X159684174Y-71842670D02*
X159674174Y-74832670D01*
X157684174Y-74832670D02*
X159674174Y-74832670D01*
X158694174Y-75042670D02*
X158694174Y-73922670D01*
X158694174Y-71582670D02*
X158694174Y-72862670D01*
X157684174Y-71842670D02*
X159684174Y-71842670D01*
X158694174Y-72972670D02*
X159234174Y-73922670D01*
X158684174Y-72982670D02*
X158154174Y-73892670D01*
X158154174Y-73922670D02*
X159234174Y-73922670D01*
X158154174Y-72872670D02*
X159234174Y-72872670D01*
X170362026Y-71852670D02*
X170362026Y-74822670D01*
X172362026Y-71842670D02*
X172352026Y-74832670D01*
X170362026Y-74832670D02*
X172352026Y-74832670D01*
X171372026Y-75042670D02*
X171372026Y-73922670D01*
X171372026Y-71582670D02*
X171372026Y-72862670D01*
X170362026Y-71842670D02*
X172362026Y-71842670D01*
X171372026Y-72972670D02*
X171912026Y-73922670D01*
X171362026Y-72982670D02*
X170832026Y-73892670D01*
X170832026Y-73922670D02*
X171912026Y-73922670D01*
X170832026Y-72872670D02*
X171912026Y-72872670D01*
X183039878Y-71852670D02*
X183039878Y-74822670D01*
X185039878Y-71842670D02*
X185029878Y-74832670D01*
X183039878Y-74832670D02*
X185029878Y-74832670D01*
X184049878Y-75042670D02*
X184049878Y-73922670D01*
X184049878Y-71582670D02*
X184049878Y-72862670D01*
X183039878Y-71842670D02*
X185039878Y-71842670D01*
X184049878Y-72972670D02*
X184589878Y-73922670D01*
X184039878Y-72982670D02*
X183509878Y-73892670D01*
X183509878Y-73922670D02*
X184589878Y-73922670D01*
X183509878Y-72872670D02*
X184589878Y-72872670D01*
X195717730Y-71852670D02*
X195717730Y-74822670D01*
X197717730Y-71842670D02*
X197707730Y-74832670D01*
X195717730Y-74832670D02*
X197707730Y-74832670D01*
X196727730Y-75042670D02*
X196727730Y-73922670D01*
X196727730Y-71582670D02*
X196727730Y-72862670D01*
X195717730Y-71842670D02*
X197717730Y-71842670D01*
X196727730Y-72972670D02*
X197267730Y-73922670D01*
X196717730Y-72982670D02*
X196187730Y-73892670D01*
X196187730Y-73922670D02*
X197267730Y-73922670D01*
X196187730Y-72872670D02*
X197267730Y-72872670D01*
X208395582Y-71852670D02*
X208395582Y-74822670D01*
X210395582Y-71842670D02*
X210385582Y-74832670D01*
X208395582Y-74832670D02*
X210385582Y-74832670D01*
X209405582Y-75042670D02*
X209405582Y-73922670D01*
X209405582Y-71582670D02*
X209405582Y-72862670D01*
X208395582Y-71842670D02*
X210395582Y-71842670D01*
X209405582Y-72972670D02*
X209945582Y-73922670D01*
X209395582Y-72982670D02*
X208865582Y-73892670D01*
X208865582Y-73922670D02*
X209945582Y-73922670D01*
X208865582Y-72872670D02*
X209945582Y-72872670D01*
X233643922Y-71852670D02*
X233643922Y-74822670D01*
X235643922Y-71842670D02*
X235633922Y-74832670D01*
X233643922Y-74832670D02*
X235633922Y-74832670D01*
X234653922Y-75042670D02*
X234653922Y-73922670D01*
X234653922Y-71582670D02*
X234653922Y-72862670D01*
X233643922Y-71842670D02*
X235643922Y-71842670D01*
X234653922Y-72972670D02*
X235193922Y-73922670D01*
X234643922Y-72982670D02*
X234113922Y-73892670D01*
X234113922Y-73922670D02*
X235193922Y-73922670D01*
X234113922Y-72872670D02*
X235193922Y-72872670D01*
X268364481Y-70199141D02*
X268364481Y-73169141D01*
X270364481Y-70189141D02*
X270354481Y-73179141D01*
X268364481Y-73179141D02*
X270354481Y-73179141D01*
X269374481Y-73389141D02*
X269374481Y-72269141D01*
X269374481Y-69929141D02*
X269374481Y-71209141D01*
X268364481Y-70189141D02*
X270364481Y-70189141D01*
X269374481Y-71319141D02*
X269914481Y-72269141D01*
X269364481Y-71329141D02*
X268834481Y-72239141D01*
X268834481Y-72269141D02*
X269914481Y-72269141D01*
X268834481Y-71219141D02*
X269914481Y-71219141D01*
X97464377Y-73506199D02*
X97464377Y-76476199D01*
X99464377Y-73496199D02*
X99454377Y-76486199D01*
X97464377Y-76486199D02*
X99454377Y-76486199D01*
X98474377Y-76696199D02*
X98474377Y-75576199D01*
X98474377Y-73236199D02*
X98474377Y-74516199D01*
X97464377Y-73496199D02*
X99464377Y-73496199D01*
X98474377Y-74626199D02*
X99014377Y-75576199D01*
X98464377Y-74636199D02*
X97934377Y-75546199D01*
X97934377Y-75576199D02*
X99014377Y-75576199D01*
X97934377Y-74526199D02*
X99014377Y-74526199D01*
X110142229Y-73506199D02*
X110142229Y-76476199D01*
X112142229Y-73496199D02*
X112132229Y-76486199D01*
X110142229Y-76486199D02*
X112132229Y-76486199D01*
X111152229Y-76696199D02*
X111152229Y-75576199D01*
X111152229Y-73236199D02*
X111152229Y-74516199D01*
X110142229Y-73496199D02*
X112142229Y-73496199D01*
X111152229Y-74626199D02*
X111692229Y-75576199D01*
X111142229Y-74636199D02*
X110612229Y-75546199D01*
X110612229Y-75576199D02*
X111692229Y-75576199D01*
X110612229Y-74526199D02*
X111692229Y-74526199D01*
X122820081Y-73506199D02*
X122820081Y-76476199D01*
X124820081Y-73496199D02*
X124810081Y-76486199D01*
X122820081Y-76486199D02*
X124810081Y-76486199D01*
X123830081Y-76696199D02*
X123830081Y-75576199D01*
X123830081Y-73236199D02*
X123830081Y-74516199D01*
X122820081Y-73496199D02*
X124820081Y-73496199D01*
X123830081Y-74626199D02*
X124370081Y-75576199D01*
X123820081Y-74636199D02*
X123290081Y-75546199D01*
X123290081Y-75576199D02*
X124370081Y-75576199D01*
X123290081Y-74526199D02*
X124370081Y-74526199D01*
X135497933Y-73506199D02*
X135497933Y-76476199D01*
X137497933Y-73496199D02*
X137487933Y-76486199D01*
X135497933Y-76486199D02*
X137487933Y-76486199D01*
X136507933Y-76696199D02*
X136507933Y-75576199D01*
X136507933Y-73236199D02*
X136507933Y-74516199D01*
X135497933Y-73496199D02*
X137497933Y-73496199D01*
X136507933Y-74626199D02*
X137047933Y-75576199D01*
X136497933Y-74636199D02*
X135967933Y-75546199D01*
X135967933Y-75576199D02*
X137047933Y-75576199D01*
X135967933Y-74526199D02*
X137047933Y-74526199D01*
X148175785Y-73506199D02*
X148175785Y-76476199D01*
X150175785Y-73496199D02*
X150165785Y-76486199D01*
X148175785Y-76486199D02*
X150165785Y-76486199D01*
X149185785Y-76696199D02*
X149185785Y-75576199D01*
X149185785Y-73236199D02*
X149185785Y-74516199D01*
X148175785Y-73496199D02*
X150175785Y-73496199D01*
X149185785Y-74626199D02*
X149725785Y-75576199D01*
X149175785Y-74636199D02*
X148645785Y-75546199D01*
X148645785Y-75576199D02*
X149725785Y-75576199D01*
X148645785Y-74526199D02*
X149725785Y-74526199D01*
X160853637Y-73506199D02*
X160853637Y-76476199D01*
X162853637Y-73496199D02*
X162843637Y-76486199D01*
X160853637Y-76486199D02*
X162843637Y-76486199D01*
X161863637Y-76696199D02*
X161863637Y-75576199D01*
X161863637Y-73236199D02*
X161863637Y-74516199D01*
X160853637Y-73496199D02*
X162853637Y-73496199D01*
X161863637Y-74626199D02*
X162403637Y-75576199D01*
X161853637Y-74636199D02*
X161323637Y-75546199D01*
X161323637Y-75576199D02*
X162403637Y-75576199D01*
X161323637Y-74526199D02*
X162403637Y-74526199D01*
X173531489Y-73506199D02*
X173531489Y-76476199D01*
X175531489Y-73496199D02*
X175521489Y-76486199D01*
X173531489Y-76486199D02*
X175521489Y-76486199D01*
X174541489Y-76696199D02*
X174541489Y-75576199D01*
X174541489Y-73236199D02*
X174541489Y-74516199D01*
X173531489Y-73496199D02*
X175531489Y-73496199D01*
X174541489Y-74626199D02*
X175081489Y-75576199D01*
X174531489Y-74636199D02*
X174001489Y-75546199D01*
X174001489Y-75576199D02*
X175081489Y-75576199D01*
X174001489Y-74526199D02*
X175081489Y-74526199D01*
X186209341Y-73506199D02*
X186209341Y-76476199D01*
X188209341Y-73496199D02*
X188199341Y-76486199D01*
X186209341Y-76486199D02*
X188199341Y-76486199D01*
X187219341Y-76696199D02*
X187219341Y-75576199D01*
X187219341Y-73236199D02*
X187219341Y-74516199D01*
X186209341Y-73496199D02*
X188209341Y-73496199D01*
X187219341Y-74626199D02*
X187759341Y-75576199D01*
X187209341Y-74636199D02*
X186679341Y-75546199D01*
X186679341Y-75576199D02*
X187759341Y-75576199D01*
X186679341Y-74526199D02*
X187759341Y-74526199D01*
X198887193Y-73506199D02*
X198887193Y-76476199D01*
X200887193Y-73496199D02*
X200877193Y-76486199D01*
X198887193Y-76486199D02*
X200877193Y-76486199D01*
X199897193Y-76696199D02*
X199897193Y-75576199D01*
X199897193Y-73236199D02*
X199897193Y-74516199D01*
X198887193Y-73496199D02*
X200887193Y-73496199D01*
X199897193Y-74626199D02*
X200437193Y-75576199D01*
X199887193Y-74636199D02*
X199357193Y-75546199D01*
X199357193Y-75576199D02*
X200437193Y-75576199D01*
X199357193Y-74526199D02*
X200437193Y-74526199D01*
X211565045Y-73506199D02*
X211565045Y-76476199D01*
X213565045Y-73496199D02*
X213555045Y-76486199D01*
X211565045Y-76486199D02*
X213555045Y-76486199D01*
X212575045Y-76696199D02*
X212575045Y-75576199D01*
X212575045Y-73236199D02*
X212575045Y-74516199D01*
X211565045Y-73496199D02*
X213565045Y-73496199D01*
X212575045Y-74626199D02*
X213115045Y-75576199D01*
X212565045Y-74636199D02*
X212035045Y-75546199D01*
X212035045Y-75576199D02*
X213115045Y-75576199D01*
X212035045Y-74526199D02*
X213115045Y-74526199D01*
X221038442Y-71852670D02*
X221038442Y-74822670D01*
X223038442Y-71842670D02*
X223028442Y-74832670D01*
X221038442Y-74832670D02*
X223028442Y-74832670D01*
X222048442Y-75042670D02*
X222048442Y-73922670D01*
X222048442Y-71582670D02*
X222048442Y-72862670D01*
X221038442Y-71842670D02*
X223038442Y-71842670D01*
X222048442Y-72972670D02*
X222588442Y-73922670D01*
X222038442Y-72982670D02*
X221508442Y-73892670D01*
X221508442Y-73922670D02*
X222588442Y-73922670D01*
X221508442Y-72872670D02*
X222588442Y-72872670D01*
X236794695Y-73506199D02*
X236794695Y-76476199D01*
X238794695Y-73496199D02*
X238784695Y-76486199D01*
X236794695Y-76486199D02*
X238784695Y-76486199D01*
X237804695Y-76696199D02*
X237804695Y-75576199D01*
X237804695Y-73236199D02*
X237804695Y-74516199D01*
X236794695Y-73496199D02*
X238794695Y-73496199D01*
X237804695Y-74626199D02*
X238344695Y-75576199D01*
X237794695Y-74636199D02*
X237264695Y-75546199D01*
X237264695Y-75576199D02*
X238344695Y-75576199D01*
X237264695Y-74526199D02*
X238344695Y-74526199D01*
X265089606Y-68545612D02*
X265089606Y-71515612D01*
X267089606Y-68535612D02*
X267079606Y-71525612D01*
X265089606Y-71525612D02*
X267079606Y-71525612D01*
X266099606Y-71735612D02*
X266099606Y-70615612D01*
X266099606Y-68275612D02*
X266099606Y-69555612D01*
X265089606Y-68535612D02*
X267089606Y-68535612D01*
X266099606Y-69665612D02*
X266639606Y-70615612D01*
X266089606Y-69675612D02*
X265559606Y-70585612D01*
X265559606Y-70615612D02*
X266639606Y-70615612D01*
X265559606Y-69565612D02*
X266639606Y-69565612D01*
X75278136Y-68545612D02*
X75278136Y-71515612D01*
X77278136Y-68535612D02*
X77268136Y-71525612D01*
X75278136Y-71525612D02*
X77268136Y-71525612D01*
X76288136Y-71735612D02*
X76288136Y-70615612D01*
X76288136Y-68275612D02*
X76288136Y-69555612D01*
X75278136Y-68535612D02*
X77278136Y-68535612D01*
X76288136Y-69665612D02*
X76828136Y-70615612D01*
X76278136Y-69675612D02*
X75748136Y-70585612D01*
X75748136Y-70615612D02*
X76828136Y-70615612D01*
X75748136Y-69565612D02*
X76828136Y-69565612D01*
X258842000Y-71936000D02*
X258842000Y-74906000D01*
X260842000Y-71926000D02*
X260832000Y-74916000D01*
X258842000Y-74916000D02*
X260832000Y-74916000D01*
X259852000Y-75126000D02*
X259852000Y-74006000D01*
X259852000Y-71666000D02*
X259852000Y-72946000D01*
X258842000Y-71926000D02*
X260842000Y-71926000D01*
X259852000Y-73056000D02*
X260392000Y-74006000D01*
X259842000Y-73066000D02*
X259312000Y-73976000D01*
X259312000Y-74006000D02*
X260392000Y-74006000D01*
X259312000Y-72956000D02*
X260392000Y-72956000D01*
X252486511Y-68545612D02*
X252486511Y-71515612D01*
X254486511Y-68535612D02*
X254476511Y-71525612D01*
X252486511Y-71525612D02*
X254476511Y-71525612D01*
X253496511Y-71735612D02*
X253496511Y-70615612D01*
X253496511Y-68275612D02*
X253496511Y-69555612D01*
X252486511Y-68535612D02*
X254486511Y-68535612D01*
X253496511Y-69665612D02*
X254036511Y-70615612D01*
X253486511Y-69675612D02*
X252956511Y-70585612D01*
X252956511Y-70615612D02*
X254036511Y-70615612D01*
X252956511Y-69565612D02*
X254036511Y-69565612D01*
X243094000Y-70158000D02*
X243094000Y-73128000D01*
X245094000Y-70148000D02*
X245084000Y-73138000D01*
X243094000Y-73138000D02*
X245084000Y-73138000D01*
X244104000Y-73348000D02*
X244104000Y-72228000D01*
X244104000Y-69888000D02*
X244104000Y-71168000D01*
X243094000Y-70148000D02*
X245094000Y-70148000D01*
X244104000Y-71278000D02*
X244644000Y-72228000D01*
X244094000Y-71288000D02*
X243564000Y-72198000D01*
X243564000Y-72228000D02*
X244644000Y-72228000D01*
X243564000Y-71178000D02*
X244644000Y-71178000D01*
X246269000Y-71936000D02*
X246269000Y-74906000D01*
X248269000Y-71926000D02*
X248259000Y-74916000D01*
X246269000Y-74916000D02*
X248259000Y-74916000D01*
X247279000Y-75126000D02*
X247279000Y-74006000D01*
X247279000Y-71666000D02*
X247279000Y-72946000D01*
X246269000Y-71926000D02*
X248269000Y-71926000D01*
X247279000Y-73056000D02*
X247819000Y-74006000D01*
X247269000Y-73066000D02*
X246739000Y-73976000D01*
X246739000Y-74006000D02*
X247819000Y-74006000D01*
X246739000Y-72956000D02*
X247819000Y-72956000D01*
X224298000Y-73460000D02*
X224298000Y-76430000D01*
X226298000Y-73450000D02*
X226288000Y-76440000D01*
X224298000Y-76440000D02*
X226288000Y-76440000D01*
X225308000Y-76650000D02*
X225308000Y-75530000D01*
X225308000Y-73190000D02*
X225308000Y-74470000D01*
X224298000Y-73450000D02*
X226298000Y-73450000D01*
X225308000Y-74580000D02*
X225848000Y-75530000D01*
X225298000Y-74590000D02*
X224768000Y-75500000D01*
X224768000Y-75530000D02*
X225848000Y-75530000D01*
X224768000Y-74480000D02*
X225848000Y-74480000D01*
X239945468Y-68545612D02*
X239945468Y-71515612D01*
X241945468Y-68535612D02*
X241935468Y-71525612D01*
X239945468Y-71525612D02*
X241935468Y-71525612D01*
X240955468Y-71735612D02*
X240955468Y-70615612D01*
X240955468Y-68275612D02*
X240955468Y-69555612D01*
X239945468Y-68535612D02*
X241945468Y-68535612D01*
X240955468Y-69665612D02*
X241495468Y-70615612D01*
X240945468Y-69675612D02*
X240415468Y-70585612D01*
X240415468Y-70615612D02*
X241495468Y-70615612D01*
X240415468Y-69565612D02*
X241495468Y-69565612D01*
X261938832Y-73506199D02*
X261938832Y-76476199D01*
X263938832Y-73496199D02*
X263928832Y-76486199D01*
X261938832Y-76486199D02*
X263928832Y-76486199D01*
X262948832Y-76696199D02*
X262948832Y-75576199D01*
X262948832Y-73236199D02*
X262948832Y-74516199D01*
X261938832Y-73496199D02*
X263938832Y-73496199D01*
X262948832Y-74626199D02*
X263488832Y-75576199D01*
X262938832Y-74636199D02*
X262408832Y-75546199D01*
X262408832Y-75576199D02*
X263488832Y-75576199D01*
X262408832Y-74526199D02*
X263488832Y-74526199D01*
X285174982Y-74232196D02*
X285174982Y-77202196D01*
X287174982Y-74222196D02*
X287164982Y-77212196D01*
X285174982Y-77212196D02*
X287164982Y-77212196D01*
X286184982Y-77422196D02*
X286184982Y-76302196D01*
X286184982Y-73962196D02*
X286184982Y-75242196D01*
X285174982Y-74222196D02*
X287174982Y-74222196D01*
X286184982Y-75352196D02*
X286724982Y-76302196D01*
X286174982Y-75362196D02*
X285644982Y-76272196D01*
X285644982Y-76302196D02*
X286724982Y-76302196D01*
X285644982Y-75252196D02*
X286724982Y-75252196D01*
X282305310Y-74232196D02*
X282305310Y-77202196D01*
X284305310Y-74222196D02*
X284295310Y-77212196D01*
X282305310Y-77212196D02*
X284295310Y-77212196D01*
X283315310Y-77422196D02*
X283315310Y-76302196D01*
X283315310Y-73962196D02*
X283315310Y-75242196D01*
X282305310Y-74222196D02*
X284305310Y-74222196D01*
X283315310Y-75352196D02*
X283855310Y-76302196D01*
X283305310Y-75362196D02*
X282775310Y-76272196D01*
X282775310Y-76302196D02*
X283855310Y-76302196D01*
X282775310Y-75252196D02*
X283855310Y-75252196D01*
D12*
X347821404Y-94670571D02*
X348154738Y-94670571D01*
X348297595Y-95194380D02*
X347821404Y-95194380D01*
X347821404Y-94194380D01*
X348297595Y-94194380D01*
X348726166Y-95194380D02*
X348726166Y-94194380D01*
X349297595Y-95194380D01*
X349297595Y-94194380D01*
X350345214Y-95099142D02*
X350297595Y-95146761D01*
X350154738Y-95194380D01*
X350059500Y-95194380D01*
X349916642Y-95146761D01*
X349821404Y-95051523D01*
X349773785Y-94956285D01*
X349726166Y-94765809D01*
X349726166Y-94622952D01*
X349773785Y-94432476D01*
X349821404Y-94337238D01*
X349916642Y-94242000D01*
X350059500Y-94194380D01*
X350154738Y-94194380D01*
X350297595Y-94242000D01*
X350345214Y-94289619D01*
X149531428Y-174337619D02*
X149579047Y-174290000D01*
X149674285Y-174242380D01*
X149912380Y-174242380D01*
X150007619Y-174290000D01*
X150055238Y-174337619D01*
X150102857Y-174432857D01*
X150102857Y-174528095D01*
X150055238Y-174670952D01*
X149483809Y-175242380D01*
X150102857Y-175242380D01*
X150531428Y-175147142D02*
X150579047Y-175194761D01*
X150531428Y-175242380D01*
X150483809Y-175194761D01*
X150531428Y-175147142D01*
X150531428Y-175242380D01*
X150912380Y-174242380D02*
X151579047Y-174242380D01*
X151150476Y-175242380D01*
X152436190Y-174242380D02*
X151960000Y-174242380D01*
X151912380Y-174718571D01*
X151960000Y-174670952D01*
X152055238Y-174623333D01*
X152293333Y-174623333D01*
X152388571Y-174670952D01*
X152436190Y-174718571D01*
X152483809Y-174813809D01*
X152483809Y-175051904D01*
X152436190Y-175147142D01*
X152388571Y-175194761D01*
X152293333Y-175242380D01*
X152055238Y-175242380D01*
X151960000Y-175194761D01*
X151912380Y-175147142D01*
X153340952Y-174575714D02*
X153340952Y-175242380D01*
X152912380Y-174575714D02*
X152912380Y-175099523D01*
X152960000Y-175194761D01*
X153055238Y-175242380D01*
X153198095Y-175242380D01*
X153293333Y-175194761D01*
X153340952Y-175147142D01*
X275903833Y-80907627D02*
X275103833Y-80907627D01*
X275103833Y-80717151D01*
X275141929Y-80602865D01*
X275218119Y-80526675D01*
X275294309Y-80488579D01*
X275446690Y-80450484D01*
X275560976Y-80450484D01*
X275713357Y-80488579D01*
X275789548Y-80526675D01*
X275865738Y-80602865D01*
X275903833Y-80717151D01*
X275903833Y-80907627D01*
X275903833Y-79688579D02*
X275903833Y-80145722D01*
X275903833Y-79917151D02*
X275103833Y-79917151D01*
X275218119Y-79993341D01*
X275294309Y-80069532D01*
X275332405Y-80145722D01*
X275103833Y-78964770D02*
X275103833Y-79345722D01*
X275484786Y-79383818D01*
X275446690Y-79345722D01*
X275408595Y-79269532D01*
X275408595Y-79079056D01*
X275446690Y-79002865D01*
X275484786Y-78964770D01*
X275560976Y-78926675D01*
X275751452Y-78926675D01*
X275827643Y-78964770D01*
X275865738Y-79002865D01*
X275903833Y-79079056D01*
X275903833Y-79269532D01*
X275865738Y-79345722D01*
X275827643Y-79383818D01*
X220881428Y-174337619D02*
X220929047Y-174290000D01*
X221024285Y-174242380D01*
X221262380Y-174242380D01*
X221357619Y-174290000D01*
X221405238Y-174337619D01*
X221452857Y-174432857D01*
X221452857Y-174528095D01*
X221405238Y-174670952D01*
X220833809Y-175242380D01*
X221452857Y-175242380D01*
X221881428Y-175147142D02*
X221929047Y-175194761D01*
X221881428Y-175242380D01*
X221833809Y-175194761D01*
X221881428Y-175147142D01*
X221881428Y-175242380D01*
X222310000Y-174337619D02*
X222357619Y-174290000D01*
X222452857Y-174242380D01*
X222690952Y-174242380D01*
X222786190Y-174290000D01*
X222833809Y-174337619D01*
X222881428Y-174432857D01*
X222881428Y-174528095D01*
X222833809Y-174670952D01*
X222262380Y-175242380D01*
X222881428Y-175242380D01*
X223786190Y-174242380D02*
X223310000Y-174242380D01*
X223262380Y-174718571D01*
X223310000Y-174670952D01*
X223405238Y-174623333D01*
X223643333Y-174623333D01*
X223738571Y-174670952D01*
X223786190Y-174718571D01*
X223833809Y-174813809D01*
X223833809Y-175051904D01*
X223786190Y-175147142D01*
X223738571Y-175194761D01*
X223643333Y-175242380D01*
X223405238Y-175242380D01*
X223310000Y-175194761D01*
X223262380Y-175147142D01*
X224690952Y-174575714D02*
X224690952Y-175242380D01*
X224262380Y-174575714D02*
X224262380Y-175099523D01*
X224310000Y-175194761D01*
X224405238Y-175242380D01*
X224548095Y-175242380D01*
X224643333Y-175194761D01*
X224690952Y-175147142D01*
X144781428Y-174337619D02*
X144829047Y-174290000D01*
X144924285Y-174242380D01*
X145162380Y-174242380D01*
X145257619Y-174290000D01*
X145305238Y-174337619D01*
X145352857Y-174432857D01*
X145352857Y-174528095D01*
X145305238Y-174670952D01*
X144733809Y-175242380D01*
X145352857Y-175242380D01*
X145781428Y-175147142D02*
X145829047Y-175194761D01*
X145781428Y-175242380D01*
X145733809Y-175194761D01*
X145781428Y-175147142D01*
X145781428Y-175242380D01*
X146210000Y-174337619D02*
X146257619Y-174290000D01*
X146352857Y-174242380D01*
X146590952Y-174242380D01*
X146686190Y-174290000D01*
X146733809Y-174337619D01*
X146781428Y-174432857D01*
X146781428Y-174528095D01*
X146733809Y-174670952D01*
X146162380Y-175242380D01*
X146781428Y-175242380D01*
X147686190Y-174242380D02*
X147210000Y-174242380D01*
X147162380Y-174718571D01*
X147210000Y-174670952D01*
X147305238Y-174623333D01*
X147543333Y-174623333D01*
X147638571Y-174670952D01*
X147686190Y-174718571D01*
X147733809Y-174813809D01*
X147733809Y-175051904D01*
X147686190Y-175147142D01*
X147638571Y-175194761D01*
X147543333Y-175242380D01*
X147305238Y-175242380D01*
X147210000Y-175194761D01*
X147162380Y-175147142D01*
X148590952Y-174575714D02*
X148590952Y-175242380D01*
X148162380Y-174575714D02*
X148162380Y-175099523D01*
X148210000Y-175194761D01*
X148305238Y-175242380D01*
X148448095Y-175242380D01*
X148543333Y-175194761D01*
X148590952Y-175147142D01*
X216181428Y-174337619D02*
X216229047Y-174290000D01*
X216324285Y-174242380D01*
X216562380Y-174242380D01*
X216657619Y-174290000D01*
X216705238Y-174337619D01*
X216752857Y-174432857D01*
X216752857Y-174528095D01*
X216705238Y-174670952D01*
X216133809Y-175242380D01*
X216752857Y-175242380D01*
X217181428Y-175147142D02*
X217229047Y-175194761D01*
X217181428Y-175242380D01*
X217133809Y-175194761D01*
X217181428Y-175147142D01*
X217181428Y-175242380D01*
X217562380Y-174242380D02*
X218229047Y-174242380D01*
X217800476Y-175242380D01*
X219086190Y-174242380D02*
X218610000Y-174242380D01*
X218562380Y-174718571D01*
X218610000Y-174670952D01*
X218705238Y-174623333D01*
X218943333Y-174623333D01*
X219038571Y-174670952D01*
X219086190Y-174718571D01*
X219133809Y-174813809D01*
X219133809Y-175051904D01*
X219086190Y-175147142D01*
X219038571Y-175194761D01*
X218943333Y-175242380D01*
X218705238Y-175242380D01*
X218610000Y-175194761D01*
X218562380Y-175147142D01*
X219990952Y-174575714D02*
X219990952Y-175242380D01*
X219562380Y-174575714D02*
X219562380Y-175099523D01*
X219610000Y-175194761D01*
X219705238Y-175242380D01*
X219848095Y-175242380D01*
X219943333Y-175194761D01*
X219990952Y-175147142D01*
X183332619Y-174267880D02*
X183142142Y-174267880D01*
X183046904Y-174315500D01*
X182999285Y-174363119D01*
X182904047Y-174505976D01*
X182856428Y-174696452D01*
X182856428Y-175077404D01*
X182904047Y-175172642D01*
X182951666Y-175220261D01*
X183046904Y-175267880D01*
X183237380Y-175267880D01*
X183332619Y-175220261D01*
X183380238Y-175172642D01*
X183427857Y-175077404D01*
X183427857Y-174839309D01*
X183380238Y-174744071D01*
X183332619Y-174696452D01*
X183237380Y-174648833D01*
X183046904Y-174648833D01*
X182951666Y-174696452D01*
X182904047Y-174744071D01*
X182856428Y-174839309D01*
X183856428Y-175172642D02*
X183904047Y-175220261D01*
X183856428Y-175267880D01*
X183808809Y-175220261D01*
X183856428Y-175172642D01*
X183856428Y-175267880D01*
X184285000Y-174363119D02*
X184332619Y-174315500D01*
X184427857Y-174267880D01*
X184665952Y-174267880D01*
X184761190Y-174315500D01*
X184808809Y-174363119D01*
X184856428Y-174458357D01*
X184856428Y-174553595D01*
X184808809Y-174696452D01*
X184237380Y-175267880D01*
X184856428Y-175267880D01*
X185761190Y-174267880D02*
X185285000Y-174267880D01*
X185237380Y-174744071D01*
X185285000Y-174696452D01*
X185380238Y-174648833D01*
X185618333Y-174648833D01*
X185713571Y-174696452D01*
X185761190Y-174744071D01*
X185808809Y-174839309D01*
X185808809Y-175077404D01*
X185761190Y-175172642D01*
X185713571Y-175220261D01*
X185618333Y-175267880D01*
X185380238Y-175267880D01*
X185285000Y-175220261D01*
X185237380Y-175172642D01*
X186665952Y-174601214D02*
X186665952Y-175267880D01*
X186237380Y-174601214D02*
X186237380Y-175125023D01*
X186285000Y-175220261D01*
X186380238Y-175267880D01*
X186523095Y-175267880D01*
X186618333Y-175220261D01*
X186665952Y-175172642D01*
X78085904Y-176619428D02*
X77285904Y-176619428D01*
X77285904Y-176428952D01*
X77324000Y-176314666D01*
X77400190Y-176238476D01*
X77476380Y-176200380D01*
X77628761Y-176162285D01*
X77743047Y-176162285D01*
X77895428Y-176200380D01*
X77971619Y-176238476D01*
X78047809Y-176314666D01*
X78085904Y-176428952D01*
X78085904Y-176619428D01*
X77285904Y-175438476D02*
X77285904Y-175819428D01*
X77666857Y-175857523D01*
X77628761Y-175819428D01*
X77590666Y-175743238D01*
X77590666Y-175552761D01*
X77628761Y-175476571D01*
X77666857Y-175438476D01*
X77743047Y-175400380D01*
X77933523Y-175400380D01*
X78009714Y-175438476D01*
X78047809Y-175476571D01*
X78085904Y-175552761D01*
X78085904Y-175743238D01*
X78047809Y-175819428D01*
X78009714Y-175857523D01*
X78085904Y-175019428D02*
X78085904Y-174867047D01*
X78047809Y-174790857D01*
X78009714Y-174752761D01*
X77895428Y-174676571D01*
X77743047Y-174638476D01*
X77438285Y-174638476D01*
X77362095Y-174676571D01*
X77324000Y-174714666D01*
X77285904Y-174790857D01*
X77285904Y-174943238D01*
X77324000Y-175019428D01*
X77362095Y-175057523D01*
X77438285Y-175095619D01*
X77628761Y-175095619D01*
X77704952Y-175057523D01*
X77743047Y-175019428D01*
X77781142Y-174943238D01*
X77781142Y-174790857D01*
X77743047Y-174714666D01*
X77704952Y-174676571D01*
X77628761Y-174638476D01*
X250805904Y-80861428D02*
X250005904Y-80861428D01*
X250005904Y-80670952D01*
X250044000Y-80556666D01*
X250120190Y-80480476D01*
X250196380Y-80442380D01*
X250348761Y-80404285D01*
X250463047Y-80404285D01*
X250615428Y-80442380D01*
X250691619Y-80480476D01*
X250767809Y-80556666D01*
X250805904Y-80670952D01*
X250805904Y-80861428D01*
X250005904Y-79718571D02*
X250005904Y-79870952D01*
X250044000Y-79947142D01*
X250082095Y-79985238D01*
X250196380Y-80061428D01*
X250348761Y-80099523D01*
X250653523Y-80099523D01*
X250729714Y-80061428D01*
X250767809Y-80023333D01*
X250805904Y-79947142D01*
X250805904Y-79794761D01*
X250767809Y-79718571D01*
X250729714Y-79680476D01*
X250653523Y-79642380D01*
X250463047Y-79642380D01*
X250386857Y-79680476D01*
X250348761Y-79718571D01*
X250310666Y-79794761D01*
X250310666Y-79947142D01*
X250348761Y-80023333D01*
X250386857Y-80061428D01*
X250463047Y-80099523D01*
X250272571Y-78956666D02*
X250805904Y-78956666D01*
X249967809Y-79147142D02*
X250539238Y-79337619D01*
X250539238Y-78842380D01*
X257155904Y-77559428D02*
X256355904Y-77559428D01*
X256355904Y-77368952D01*
X256394000Y-77254666D01*
X256470190Y-77178476D01*
X256546380Y-77140380D01*
X256698761Y-77102285D01*
X256813047Y-77102285D01*
X256965428Y-77140380D01*
X257041619Y-77178476D01*
X257117809Y-77254666D01*
X257155904Y-77368952D01*
X257155904Y-77559428D01*
X256355904Y-76416571D02*
X256355904Y-76568952D01*
X256394000Y-76645142D01*
X256432095Y-76683238D01*
X256546380Y-76759428D01*
X256698761Y-76797523D01*
X257003523Y-76797523D01*
X257079714Y-76759428D01*
X257117809Y-76721333D01*
X257155904Y-76645142D01*
X257155904Y-76492761D01*
X257117809Y-76416571D01*
X257079714Y-76378476D01*
X257003523Y-76340380D01*
X256813047Y-76340380D01*
X256736857Y-76378476D01*
X256698761Y-76416571D01*
X256660666Y-76492761D01*
X256660666Y-76645142D01*
X256698761Y-76721333D01*
X256736857Y-76759428D01*
X256813047Y-76797523D01*
X256432095Y-76035619D02*
X256394000Y-75997523D01*
X256355904Y-75921333D01*
X256355904Y-75730857D01*
X256394000Y-75654666D01*
X256432095Y-75616571D01*
X256508285Y-75578476D01*
X256584476Y-75578476D01*
X256698761Y-75616571D01*
X257155904Y-76073714D01*
X257155904Y-75578476D01*
X322806609Y-79056060D02*
X322758990Y-79103679D01*
X322616133Y-79151298D01*
X322520895Y-79151298D01*
X322378037Y-79103679D01*
X322282799Y-79008441D01*
X322235180Y-78913203D01*
X322187561Y-78722727D01*
X322187561Y-78579870D01*
X322235180Y-78389394D01*
X322282799Y-78294156D01*
X322378037Y-78198918D01*
X322520895Y-78151298D01*
X322616133Y-78151298D01*
X322758990Y-78198918D01*
X322806609Y-78246537D01*
X323711371Y-78151298D02*
X323235180Y-78151298D01*
X323187561Y-78627489D01*
X323235180Y-78579870D01*
X323330418Y-78532251D01*
X323568514Y-78532251D01*
X323663752Y-78579870D01*
X323711371Y-78627489D01*
X323758990Y-78722727D01*
X323758990Y-78960822D01*
X323711371Y-79056060D01*
X323663752Y-79103679D01*
X323568514Y-79151298D01*
X323330418Y-79151298D01*
X323235180Y-79103679D01*
X323187561Y-79056060D01*
X327461077Y-59265822D02*
X327413458Y-59313441D01*
X327270601Y-59361060D01*
X327175363Y-59361060D01*
X327032505Y-59313441D01*
X326937267Y-59218203D01*
X326889648Y-59122965D01*
X326842029Y-58932489D01*
X326842029Y-58789632D01*
X326889648Y-58599156D01*
X326937267Y-58503918D01*
X327032505Y-58408680D01*
X327175363Y-58361060D01*
X327270601Y-58361060D01*
X327413458Y-58408680D01*
X327461077Y-58456299D01*
X328318220Y-58694394D02*
X328318220Y-59361060D01*
X328080124Y-58313441D02*
X327842029Y-59027727D01*
X328461077Y-59027727D01*
X284223519Y-67087428D02*
X284175900Y-67135047D01*
X284033043Y-67182666D01*
X283937805Y-67182666D01*
X283794947Y-67135047D01*
X283699709Y-67039809D01*
X283652090Y-66944571D01*
X283604471Y-66754095D01*
X283604471Y-66611238D01*
X283652090Y-66420762D01*
X283699709Y-66325524D01*
X283794947Y-66230286D01*
X283937805Y-66182666D01*
X284033043Y-66182666D01*
X284175900Y-66230286D01*
X284223519Y-66277905D01*
X284556852Y-66182666D02*
X285175900Y-66182666D01*
X284842566Y-66563619D01*
X284985424Y-66563619D01*
X285080662Y-66611238D01*
X285128281Y-66658857D01*
X285175900Y-66754095D01*
X285175900Y-66992190D01*
X285128281Y-67087428D01*
X285080662Y-67135047D01*
X284985424Y-67182666D01*
X284699709Y-67182666D01*
X284604471Y-67135047D01*
X284556852Y-67087428D01*
X327566065Y-84182974D02*
X327518446Y-84230593D01*
X327375589Y-84278212D01*
X327280351Y-84278212D01*
X327137493Y-84230593D01*
X327042255Y-84135355D01*
X326994636Y-84040117D01*
X326947017Y-83849641D01*
X326947017Y-83706784D01*
X326994636Y-83516308D01*
X327042255Y-83421070D01*
X327137493Y-83325832D01*
X327280351Y-83278212D01*
X327375589Y-83278212D01*
X327518446Y-83325832D01*
X327566065Y-83373451D01*
X327947017Y-83373451D02*
X327994636Y-83325832D01*
X328089874Y-83278212D01*
X328327970Y-83278212D01*
X328423208Y-83325832D01*
X328470827Y-83373451D01*
X328518446Y-83468689D01*
X328518446Y-83563927D01*
X328470827Y-83706784D01*
X327899398Y-84278212D01*
X328518446Y-84278212D01*
X341791939Y-84182974D02*
X341744320Y-84230593D01*
X341601463Y-84278212D01*
X341506225Y-84278212D01*
X341363367Y-84230593D01*
X341268129Y-84135355D01*
X341220510Y-84040117D01*
X341172891Y-83849641D01*
X341172891Y-83706784D01*
X341220510Y-83516308D01*
X341268129Y-83421070D01*
X341363367Y-83325832D01*
X341506225Y-83278212D01*
X341601463Y-83278212D01*
X341744320Y-83325832D01*
X341791939Y-83373451D01*
X342744320Y-84278212D02*
X342172891Y-84278212D01*
X342458606Y-84278212D02*
X342458606Y-83278212D01*
X342363367Y-83421070D01*
X342268129Y-83516308D01*
X342172891Y-83563927D01*
D10*
X296932249Y-78270917D02*
X296551297Y-78537584D01*
X296932249Y-78728060D02*
X296132249Y-78728060D01*
X296132249Y-78423298D01*
X296170345Y-78347107D01*
X296208440Y-78309012D01*
X296284630Y-78270917D01*
X296398916Y-78270917D01*
X296475106Y-78309012D01*
X296513202Y-78347107D01*
X296551297Y-78423298D01*
X296551297Y-78728060D01*
X296132249Y-77547107D02*
X296132249Y-77928060D01*
X296513202Y-77966155D01*
X296475106Y-77928060D01*
X296437011Y-77851869D01*
X296437011Y-77661393D01*
X296475106Y-77585203D01*
X296513202Y-77547107D01*
X296589392Y-77509012D01*
X296779868Y-77509012D01*
X296856059Y-77547107D01*
X296894154Y-77585203D01*
X296932249Y-77661393D01*
X296932249Y-77851869D01*
X296894154Y-77928060D01*
X296856059Y-77966155D01*
X296932249Y-75760001D02*
X296551297Y-76026668D01*
X296932249Y-76217144D02*
X296132249Y-76217144D01*
X296132249Y-75912382D01*
X296170345Y-75836191D01*
X296208440Y-75798096D01*
X296284630Y-75760001D01*
X296398916Y-75760001D01*
X296475106Y-75798096D01*
X296513202Y-75836191D01*
X296551297Y-75912382D01*
X296551297Y-76217144D01*
X296398916Y-75074287D02*
X296932249Y-75074287D01*
X296094154Y-75264763D02*
X296665583Y-75455239D01*
X296665583Y-74960001D01*
X296932249Y-73249086D02*
X296551297Y-73515753D01*
X296932249Y-73706229D02*
X296132249Y-73706229D01*
X296132249Y-73401467D01*
X296170345Y-73325276D01*
X296208440Y-73287181D01*
X296284630Y-73249086D01*
X296398916Y-73249086D01*
X296475106Y-73287181D01*
X296513202Y-73325276D01*
X296551297Y-73401467D01*
X296551297Y-73706229D01*
X296132249Y-72982419D02*
X296132249Y-72487181D01*
X296437011Y-72753848D01*
X296437011Y-72639562D01*
X296475106Y-72563372D01*
X296513202Y-72525276D01*
X296589392Y-72487181D01*
X296779868Y-72487181D01*
X296856059Y-72525276D01*
X296894154Y-72563372D01*
X296932249Y-72639562D01*
X296932249Y-72868133D01*
X296894154Y-72944324D01*
X296856059Y-72982419D01*
X296932249Y-68227256D02*
X296551297Y-68493923D01*
X296932249Y-68684399D02*
X296132249Y-68684399D01*
X296132249Y-68379637D01*
X296170345Y-68303446D01*
X296208440Y-68265351D01*
X296284630Y-68227256D01*
X296398916Y-68227256D01*
X296475106Y-68265351D01*
X296513202Y-68303446D01*
X296551297Y-68379637D01*
X296551297Y-68684399D01*
X296932249Y-67465351D02*
X296932249Y-67922494D01*
X296932249Y-67693923D02*
X296132249Y-67693923D01*
X296246535Y-67770113D01*
X296322725Y-67846303D01*
X296360821Y-67922494D01*
X296932249Y-70738171D02*
X296551297Y-71004838D01*
X296932249Y-71195314D02*
X296132249Y-71195314D01*
X296132249Y-70890552D01*
X296170345Y-70814361D01*
X296208440Y-70776266D01*
X296284630Y-70738171D01*
X296398916Y-70738171D01*
X296475106Y-70776266D01*
X296513202Y-70814361D01*
X296551297Y-70890552D01*
X296551297Y-71195314D01*
X296208440Y-70433409D02*
X296170345Y-70395314D01*
X296132249Y-70319123D01*
X296132249Y-70128647D01*
X296170345Y-70052457D01*
X296208440Y-70014361D01*
X296284630Y-69976266D01*
X296360821Y-69976266D01*
X296475106Y-70014361D01*
X296932249Y-70471504D01*
X296932249Y-69976266D01*
X296932249Y-65716341D02*
X296551297Y-65983008D01*
X296932249Y-66173484D02*
X296132249Y-66173484D01*
X296132249Y-65868722D01*
X296170345Y-65792531D01*
X296208440Y-65754436D01*
X296284630Y-65716341D01*
X296398916Y-65716341D01*
X296475106Y-65754436D01*
X296513202Y-65792531D01*
X296551297Y-65868722D01*
X296551297Y-66173484D01*
X296132249Y-65030627D02*
X296132249Y-65183008D01*
X296170345Y-65259198D01*
X296208440Y-65297293D01*
X296322725Y-65373484D01*
X296475106Y-65411579D01*
X296779868Y-65411579D01*
X296856059Y-65373484D01*
X296894154Y-65335388D01*
X296932249Y-65259198D01*
X296932249Y-65106817D01*
X296894154Y-65030627D01*
X296856059Y-64992531D01*
X296779868Y-64954436D01*
X296589392Y-64954436D01*
X296513202Y-64992531D01*
X296475106Y-65030627D01*
X296437011Y-65106817D01*
X296437011Y-65259198D01*
X296475106Y-65335388D01*
X296513202Y-65373484D01*
X296589392Y-65411579D01*
X296932249Y-63205426D02*
X296551297Y-63472093D01*
X296932249Y-63662569D02*
X296132249Y-63662569D01*
X296132249Y-63357807D01*
X296170345Y-63281616D01*
X296208440Y-63243521D01*
X296284630Y-63205426D01*
X296398916Y-63205426D01*
X296475106Y-63243521D01*
X296513202Y-63281616D01*
X296551297Y-63357807D01*
X296551297Y-63662569D01*
X296132249Y-62938759D02*
X296132249Y-62405426D01*
X296932249Y-62748283D01*
D12*
X323156263Y-68317422D02*
X323156263Y-69126946D01*
X323203882Y-69222184D01*
X323251501Y-69269803D01*
X323346739Y-69317422D01*
X323537215Y-69317422D01*
X323632453Y-69269803D01*
X323680072Y-69222184D01*
X323727691Y-69126946D01*
X323727691Y-68317422D01*
X324727691Y-69317422D02*
X324156263Y-69317422D01*
X324441977Y-69317422D02*
X324441977Y-68317422D01*
X324346739Y-68460280D01*
X324251501Y-68555518D01*
X324156263Y-68603137D01*
X334335453Y-80213494D02*
X334335453Y-80689684D01*
X334002120Y-79689684D02*
X334335453Y-80213494D01*
X334668786Y-79689684D01*
X335525929Y-80689684D02*
X334954501Y-80689684D01*
X335240215Y-80689684D02*
X335240215Y-79689684D01*
X335144977Y-79832542D01*
X335049739Y-79927780D01*
X334954501Y-79975399D01*
X275827870Y-58606032D02*
X275827870Y-59415556D01*
X275875489Y-59510794D01*
X275923108Y-59558413D01*
X276018346Y-59606032D01*
X276208823Y-59606032D01*
X276304061Y-59558413D01*
X276351680Y-59510794D01*
X276399299Y-59415556D01*
X276399299Y-58606032D01*
X276827870Y-59558413D02*
X276970727Y-59606032D01*
X277208823Y-59606032D01*
X277304061Y-59558413D01*
X277351680Y-59510794D01*
X277399299Y-59415556D01*
X277399299Y-59320318D01*
X277351680Y-59225080D01*
X277304061Y-59177461D01*
X277208823Y-59129842D01*
X277018346Y-59082223D01*
X276923108Y-59034604D01*
X276875489Y-58986985D01*
X276827870Y-58891747D01*
X276827870Y-58796509D01*
X276875489Y-58701271D01*
X276923108Y-58653652D01*
X277018346Y-58606032D01*
X277256442Y-58606032D01*
X277399299Y-58653652D01*
X278161204Y-59082223D02*
X278304061Y-59129842D01*
X278351680Y-59177461D01*
X278399299Y-59272699D01*
X278399299Y-59415556D01*
X278351680Y-59510794D01*
X278304061Y-59558413D01*
X278208823Y-59606032D01*
X277827870Y-59606032D01*
X277827870Y-58606032D01*
X278161204Y-58606032D01*
X278256442Y-58653652D01*
X278304061Y-58701271D01*
X278351680Y-58796509D01*
X278351680Y-58891747D01*
X278304061Y-58986985D01*
X278256442Y-59034604D01*
X278161204Y-59082223D01*
X277827870Y-59082223D01*
X279351680Y-59606032D02*
X278780251Y-59606032D01*
X279065966Y-59606032D02*
X279065966Y-58606032D01*
X278970727Y-58748890D01*
X278875489Y-58844128D01*
X278780251Y-58891747D01*
X270006185Y-63190361D02*
X270006185Y-63523695D01*
X270529994Y-63523695D02*
X269529994Y-63523695D01*
X269529994Y-63047504D01*
X269529994Y-62666552D02*
X270339518Y-62666552D01*
X270434756Y-62618933D01*
X270482375Y-62571314D01*
X270529994Y-62476076D01*
X270529994Y-62285599D01*
X270482375Y-62190361D01*
X270434756Y-62142742D01*
X270339518Y-62095123D01*
X269529994Y-62095123D01*
X270482375Y-61666552D02*
X270529994Y-61523695D01*
X270529994Y-61285599D01*
X270482375Y-61190361D01*
X270434756Y-61142742D01*
X270339518Y-61095123D01*
X270244280Y-61095123D01*
X270149042Y-61142742D01*
X270101423Y-61190361D01*
X270053804Y-61285599D01*
X270006185Y-61476076D01*
X269958566Y-61571314D01*
X269910947Y-61618933D01*
X269815709Y-61666552D01*
X269720471Y-61666552D01*
X269625233Y-61618933D01*
X269577614Y-61571314D01*
X269529994Y-61476076D01*
X269529994Y-61237980D01*
X269577614Y-61095123D01*
X270006185Y-60666552D02*
X270006185Y-60333218D01*
X270529994Y-60190361D02*
X270529994Y-60666552D01*
X269529994Y-60666552D01*
X269529994Y-60190361D01*
X63962188Y-75566088D02*
X63162188Y-75566088D01*
X63162188Y-75375612D01*
X63200284Y-75261326D01*
X63276474Y-75185135D01*
X63352664Y-75147040D01*
X63505045Y-75108945D01*
X63619331Y-75108945D01*
X63771712Y-75147040D01*
X63847903Y-75185135D01*
X63924093Y-75261326D01*
X63962188Y-75375612D01*
X63962188Y-75566088D01*
X63962188Y-74347040D02*
X63962188Y-74804183D01*
X63962188Y-74575612D02*
X63162188Y-74575612D01*
X63276474Y-74651802D01*
X63352664Y-74727992D01*
X63390760Y-74804183D01*
X73470577Y-80907627D02*
X72670577Y-80907627D01*
X72670577Y-80717151D01*
X72708673Y-80602865D01*
X72784863Y-80526675D01*
X72861053Y-80488579D01*
X73013434Y-80450484D01*
X73127720Y-80450484D01*
X73280101Y-80488579D01*
X73356292Y-80526675D01*
X73432482Y-80602865D01*
X73470577Y-80717151D01*
X73470577Y-80907627D01*
X72937244Y-79764770D02*
X73470577Y-79764770D01*
X72632482Y-79955246D02*
X73203911Y-80145722D01*
X73203911Y-79650484D01*
X72670577Y-78964770D02*
X72670577Y-79345722D01*
X73051530Y-79383818D01*
X73013434Y-79345722D01*
X72975339Y-79269532D01*
X72975339Y-79079056D01*
X73013434Y-79002865D01*
X73051530Y-78964770D01*
X73127720Y-78926675D01*
X73318196Y-78926675D01*
X73394387Y-78964770D01*
X73432482Y-79002865D01*
X73470577Y-79079056D01*
X73470577Y-79269532D01*
X73432482Y-79345722D01*
X73394387Y-79383818D01*
X86148429Y-80526675D02*
X85348429Y-80526675D01*
X85348429Y-80336199D01*
X85386525Y-80221913D01*
X85462715Y-80145722D01*
X85538905Y-80107627D01*
X85691286Y-80069532D01*
X85805572Y-80069532D01*
X85957953Y-80107627D01*
X86034144Y-80145722D01*
X86110334Y-80221913D01*
X86148429Y-80336199D01*
X86148429Y-80526675D01*
X85424620Y-79764770D02*
X85386525Y-79726675D01*
X85348429Y-79650484D01*
X85348429Y-79460008D01*
X85386525Y-79383818D01*
X85424620Y-79345722D01*
X85500810Y-79307627D01*
X85577001Y-79307627D01*
X85691286Y-79345722D01*
X86148429Y-79802865D01*
X86148429Y-79307627D01*
X89317892Y-75566088D02*
X88517892Y-75566088D01*
X88517892Y-75375612D01*
X88555988Y-75261326D01*
X88632178Y-75185135D01*
X88708368Y-75147040D01*
X88860749Y-75108945D01*
X88975035Y-75108945D01*
X89127416Y-75147040D01*
X89203607Y-75185135D01*
X89279797Y-75261326D01*
X89317892Y-75375612D01*
X89317892Y-75566088D01*
X88517892Y-74842278D02*
X88517892Y-74347040D01*
X88822654Y-74613707D01*
X88822654Y-74499421D01*
X88860749Y-74423231D01*
X88898845Y-74385135D01*
X88975035Y-74347040D01*
X89165511Y-74347040D01*
X89241702Y-74385135D01*
X89279797Y-74423231D01*
X89317892Y-74499421D01*
X89317892Y-74727992D01*
X89279797Y-74804183D01*
X89241702Y-74842278D01*
X101995744Y-75566088D02*
X101195744Y-75566088D01*
X101195744Y-75375612D01*
X101233840Y-75261326D01*
X101310030Y-75185135D01*
X101386220Y-75147040D01*
X101538601Y-75108945D01*
X101652887Y-75108945D01*
X101805268Y-75147040D01*
X101881459Y-75185135D01*
X101957649Y-75261326D01*
X101995744Y-75375612D01*
X101995744Y-75566088D01*
X101462411Y-74423231D02*
X101995744Y-74423231D01*
X101157649Y-74613707D02*
X101729078Y-74804183D01*
X101729078Y-74308945D01*
X114673596Y-75566088D02*
X113873596Y-75566088D01*
X113873596Y-75375612D01*
X113911692Y-75261326D01*
X113987882Y-75185135D01*
X114064072Y-75147040D01*
X114216453Y-75108945D01*
X114330739Y-75108945D01*
X114483120Y-75147040D01*
X114559311Y-75185135D01*
X114635501Y-75261326D01*
X114673596Y-75375612D01*
X114673596Y-75566088D01*
X113873596Y-74385135D02*
X113873596Y-74766088D01*
X114254549Y-74804183D01*
X114216453Y-74766088D01*
X114178358Y-74689897D01*
X114178358Y-74499421D01*
X114216453Y-74423231D01*
X114254549Y-74385135D01*
X114330739Y-74347040D01*
X114521215Y-74347040D01*
X114597406Y-74385135D01*
X114635501Y-74423231D01*
X114673596Y-74499421D01*
X114673596Y-74689897D01*
X114635501Y-74766088D01*
X114597406Y-74804183D01*
X127351448Y-75566088D02*
X126551448Y-75566088D01*
X126551448Y-75375612D01*
X126589544Y-75261326D01*
X126665734Y-75185135D01*
X126741924Y-75147040D01*
X126894305Y-75108945D01*
X127008591Y-75108945D01*
X127160972Y-75147040D01*
X127237163Y-75185135D01*
X127313353Y-75261326D01*
X127351448Y-75375612D01*
X127351448Y-75566088D01*
X126551448Y-74423231D02*
X126551448Y-74575612D01*
X126589544Y-74651802D01*
X126627639Y-74689897D01*
X126741924Y-74766088D01*
X126894305Y-74804183D01*
X127199067Y-74804183D01*
X127275258Y-74766088D01*
X127313353Y-74727992D01*
X127351448Y-74651802D01*
X127351448Y-74499421D01*
X127313353Y-74423231D01*
X127275258Y-74385135D01*
X127199067Y-74347040D01*
X127008591Y-74347040D01*
X126932401Y-74385135D01*
X126894305Y-74423231D01*
X126856210Y-74499421D01*
X126856210Y-74651802D01*
X126894305Y-74727992D01*
X126932401Y-74766088D01*
X127008591Y-74804183D01*
X140029300Y-75566088D02*
X139229300Y-75566088D01*
X139229300Y-75375612D01*
X139267396Y-75261326D01*
X139343586Y-75185135D01*
X139419776Y-75147040D01*
X139572157Y-75108945D01*
X139686443Y-75108945D01*
X139838824Y-75147040D01*
X139915015Y-75185135D01*
X139991205Y-75261326D01*
X140029300Y-75375612D01*
X140029300Y-75566088D01*
X139229300Y-74842278D02*
X139229300Y-74308945D01*
X140029300Y-74651802D01*
X152707152Y-75566088D02*
X151907152Y-75566088D01*
X151907152Y-75375612D01*
X151945248Y-75261326D01*
X152021438Y-75185135D01*
X152097628Y-75147040D01*
X152250009Y-75108945D01*
X152364295Y-75108945D01*
X152516676Y-75147040D01*
X152592867Y-75185135D01*
X152669057Y-75261326D01*
X152707152Y-75375612D01*
X152707152Y-75566088D01*
X152250009Y-74651802D02*
X152211914Y-74727992D01*
X152173819Y-74766088D01*
X152097628Y-74804183D01*
X152059533Y-74804183D01*
X151983343Y-74766088D01*
X151945248Y-74727992D01*
X151907152Y-74651802D01*
X151907152Y-74499421D01*
X151945248Y-74423231D01*
X151983343Y-74385135D01*
X152059533Y-74347040D01*
X152097628Y-74347040D01*
X152173819Y-74385135D01*
X152211914Y-74423231D01*
X152250009Y-74499421D01*
X152250009Y-74651802D01*
X152288105Y-74727992D01*
X152326200Y-74766088D01*
X152402390Y-74804183D01*
X152554771Y-74804183D01*
X152630962Y-74766088D01*
X152669057Y-74727992D01*
X152707152Y-74651802D01*
X152707152Y-74499421D01*
X152669057Y-74423231D01*
X152630962Y-74385135D01*
X152554771Y-74347040D01*
X152402390Y-74347040D01*
X152326200Y-74385135D01*
X152288105Y-74423231D01*
X152250009Y-74499421D01*
X165385004Y-75566088D02*
X164585004Y-75566088D01*
X164585004Y-75375612D01*
X164623100Y-75261326D01*
X164699290Y-75185135D01*
X164775480Y-75147040D01*
X164927861Y-75108945D01*
X165042147Y-75108945D01*
X165194528Y-75147040D01*
X165270719Y-75185135D01*
X165346909Y-75261326D01*
X165385004Y-75375612D01*
X165385004Y-75566088D01*
X165385004Y-74727992D02*
X165385004Y-74575612D01*
X165346909Y-74499421D01*
X165308814Y-74461326D01*
X165194528Y-74385135D01*
X165042147Y-74347040D01*
X164737385Y-74347040D01*
X164661195Y-74385135D01*
X164623100Y-74423231D01*
X164585004Y-74499421D01*
X164585004Y-74651802D01*
X164623100Y-74727992D01*
X164661195Y-74766088D01*
X164737385Y-74804183D01*
X164927861Y-74804183D01*
X165004052Y-74766088D01*
X165042147Y-74727992D01*
X165080242Y-74651802D01*
X165080242Y-74499421D01*
X165042147Y-74423231D01*
X165004052Y-74385135D01*
X164927861Y-74347040D01*
X178062856Y-75947040D02*
X177262856Y-75947040D01*
X177262856Y-75756564D01*
X177300952Y-75642278D01*
X177377142Y-75566088D01*
X177453332Y-75527992D01*
X177605713Y-75489897D01*
X177719999Y-75489897D01*
X177872380Y-75527992D01*
X177948571Y-75566088D01*
X178024761Y-75642278D01*
X178062856Y-75756564D01*
X178062856Y-75947040D01*
X178062856Y-74727992D02*
X178062856Y-75185135D01*
X178062856Y-74956564D02*
X177262856Y-74956564D01*
X177377142Y-75032754D01*
X177453332Y-75108945D01*
X177491428Y-75185135D01*
X177262856Y-74232754D02*
X177262856Y-74156564D01*
X177300952Y-74080373D01*
X177339047Y-74042278D01*
X177415237Y-74004183D01*
X177567618Y-73966088D01*
X177758094Y-73966088D01*
X177910475Y-74004183D01*
X177986666Y-74042278D01*
X178024761Y-74080373D01*
X178062856Y-74156564D01*
X178062856Y-74232754D01*
X178024761Y-74308945D01*
X177986666Y-74347040D01*
X177910475Y-74385135D01*
X177758094Y-74423231D01*
X177567618Y-74423231D01*
X177415237Y-74385135D01*
X177339047Y-74347040D01*
X177300952Y-74308945D01*
X177262856Y-74232754D01*
X190740708Y-75947040D02*
X189940708Y-75947040D01*
X189940708Y-75756564D01*
X189978804Y-75642278D01*
X190054994Y-75566088D01*
X190131184Y-75527992D01*
X190283565Y-75489897D01*
X190397851Y-75489897D01*
X190550232Y-75527992D01*
X190626423Y-75566088D01*
X190702613Y-75642278D01*
X190740708Y-75756564D01*
X190740708Y-75947040D01*
X190740708Y-74727992D02*
X190740708Y-75185135D01*
X190740708Y-74956564D02*
X189940708Y-74956564D01*
X190054994Y-75032754D01*
X190131184Y-75108945D01*
X190169280Y-75185135D01*
X190740708Y-73966088D02*
X190740708Y-74423231D01*
X190740708Y-74194659D02*
X189940708Y-74194659D01*
X190054994Y-74270850D01*
X190131184Y-74347040D01*
X190169280Y-74423231D01*
X203418560Y-75947040D02*
X202618560Y-75947040D01*
X202618560Y-75756564D01*
X202656656Y-75642278D01*
X202732846Y-75566088D01*
X202809036Y-75527992D01*
X202961417Y-75489897D01*
X203075703Y-75489897D01*
X203228084Y-75527992D01*
X203304275Y-75566088D01*
X203380465Y-75642278D01*
X203418560Y-75756564D01*
X203418560Y-75947040D01*
X203418560Y-74727992D02*
X203418560Y-75185135D01*
X203418560Y-74956564D02*
X202618560Y-74956564D01*
X202732846Y-75032754D01*
X202809036Y-75108945D01*
X202847132Y-75185135D01*
X202694751Y-74423231D02*
X202656656Y-74385135D01*
X202618560Y-74308945D01*
X202618560Y-74118469D01*
X202656656Y-74042278D01*
X202694751Y-74004183D01*
X202770941Y-73966088D01*
X202847132Y-73966088D01*
X202961417Y-74004183D01*
X203418560Y-74461326D01*
X203418560Y-73966088D01*
X216096412Y-75947040D02*
X215296412Y-75947040D01*
X215296412Y-75756564D01*
X215334508Y-75642278D01*
X215410698Y-75566088D01*
X215486888Y-75527992D01*
X215639269Y-75489897D01*
X215753555Y-75489897D01*
X215905936Y-75527992D01*
X215982127Y-75566088D01*
X216058317Y-75642278D01*
X216096412Y-75756564D01*
X216096412Y-75947040D01*
X216096412Y-74727992D02*
X216096412Y-75185135D01*
X216096412Y-74956564D02*
X215296412Y-74956564D01*
X215410698Y-75032754D01*
X215486888Y-75108945D01*
X215524984Y-75185135D01*
X215296412Y-74461326D02*
X215296412Y-73966088D01*
X215601174Y-74232754D01*
X215601174Y-74118469D01*
X215639269Y-74042278D01*
X215677365Y-74004183D01*
X215753555Y-73966088D01*
X215944031Y-73966088D01*
X216020222Y-74004183D01*
X216058317Y-74042278D01*
X216096412Y-74118469D01*
X216096412Y-74347040D01*
X216058317Y-74423231D01*
X216020222Y-74461326D01*
X228704280Y-75947040D02*
X227904280Y-75947040D01*
X227904280Y-75756564D01*
X227942376Y-75642278D01*
X228018566Y-75566088D01*
X228094756Y-75527992D01*
X228247137Y-75489897D01*
X228361423Y-75489897D01*
X228513804Y-75527992D01*
X228589995Y-75566088D01*
X228666185Y-75642278D01*
X228704280Y-75756564D01*
X228704280Y-75947040D01*
X228704280Y-74727992D02*
X228704280Y-75185135D01*
X228704280Y-74956564D02*
X227904280Y-74956564D01*
X228018566Y-75032754D01*
X228094756Y-75108945D01*
X228132852Y-75185135D01*
X228170947Y-74042278D02*
X228704280Y-74042278D01*
X227866185Y-74232754D02*
X228437614Y-74423231D01*
X228437614Y-73927992D01*
X67131651Y-77600569D02*
X66331651Y-77600569D01*
X66331651Y-77410093D01*
X66369747Y-77295807D01*
X66445937Y-77219617D01*
X66522127Y-77181521D01*
X66674508Y-77143426D01*
X66788794Y-77143426D01*
X66941175Y-77181521D01*
X67017366Y-77219617D01*
X67093556Y-77295807D01*
X67131651Y-77410093D01*
X67131651Y-77600569D01*
X67131651Y-76381521D02*
X67131651Y-76838664D01*
X67131651Y-76610093D02*
X66331651Y-76610093D01*
X66445937Y-76686283D01*
X66522127Y-76762474D01*
X66560223Y-76838664D01*
X66331651Y-75695807D02*
X66331651Y-75848188D01*
X66369747Y-75924379D01*
X66407842Y-75962474D01*
X66522127Y-76038664D01*
X66674508Y-76076760D01*
X66979270Y-76076760D01*
X67055461Y-76038664D01*
X67093556Y-76000569D01*
X67131651Y-75924379D01*
X67131651Y-75771998D01*
X67093556Y-75695807D01*
X67055461Y-75657712D01*
X66979270Y-75619617D01*
X66788794Y-75619617D01*
X66712604Y-75657712D01*
X66674508Y-75695807D01*
X66636413Y-75771998D01*
X66636413Y-75924379D01*
X66674508Y-76000569D01*
X66712604Y-76038664D01*
X66788794Y-76076760D01*
X82978966Y-79254098D02*
X82178966Y-79254098D01*
X82178966Y-79063622D01*
X82217062Y-78949336D01*
X82293252Y-78873146D01*
X82369442Y-78835050D01*
X82521823Y-78796955D01*
X82636109Y-78796955D01*
X82788490Y-78835050D01*
X82864681Y-78873146D01*
X82940871Y-78949336D01*
X82978966Y-79063622D01*
X82978966Y-79254098D01*
X82978966Y-78035050D02*
X82978966Y-78492193D01*
X82978966Y-78263622D02*
X82178966Y-78263622D01*
X82293252Y-78339812D01*
X82369442Y-78416003D01*
X82407538Y-78492193D01*
X82178966Y-77768384D02*
X82178966Y-77235050D01*
X82978966Y-77577908D01*
X92487355Y-77600569D02*
X91687355Y-77600569D01*
X91687355Y-77410093D01*
X91725451Y-77295807D01*
X91801641Y-77219617D01*
X91877831Y-77181521D01*
X92030212Y-77143426D01*
X92144498Y-77143426D01*
X92296879Y-77181521D01*
X92373070Y-77219617D01*
X92449260Y-77295807D01*
X92487355Y-77410093D01*
X92487355Y-77600569D01*
X92487355Y-76381521D02*
X92487355Y-76838664D01*
X92487355Y-76610093D02*
X91687355Y-76610093D01*
X91801641Y-76686283D01*
X91877831Y-76762474D01*
X91915927Y-76838664D01*
X92030212Y-75924379D02*
X91992117Y-76000569D01*
X91954022Y-76038664D01*
X91877831Y-76076760D01*
X91839736Y-76076760D01*
X91763546Y-76038664D01*
X91725451Y-76000569D01*
X91687355Y-75924379D01*
X91687355Y-75771998D01*
X91725451Y-75695807D01*
X91763546Y-75657712D01*
X91839736Y-75619617D01*
X91877831Y-75619617D01*
X91954022Y-75657712D01*
X91992117Y-75695807D01*
X92030212Y-75771998D01*
X92030212Y-75924379D01*
X92068308Y-76000569D01*
X92106403Y-76038664D01*
X92182593Y-76076760D01*
X92334974Y-76076760D01*
X92411165Y-76038664D01*
X92449260Y-76000569D01*
X92487355Y-75924379D01*
X92487355Y-75771998D01*
X92449260Y-75695807D01*
X92411165Y-75657712D01*
X92334974Y-75619617D01*
X92182593Y-75619617D01*
X92106403Y-75657712D01*
X92068308Y-75695807D01*
X92030212Y-75771998D01*
X105165207Y-77600569D02*
X104365207Y-77600569D01*
X104365207Y-77410093D01*
X104403303Y-77295807D01*
X104479493Y-77219617D01*
X104555683Y-77181521D01*
X104708064Y-77143426D01*
X104822350Y-77143426D01*
X104974731Y-77181521D01*
X105050922Y-77219617D01*
X105127112Y-77295807D01*
X105165207Y-77410093D01*
X105165207Y-77600569D01*
X105165207Y-76381521D02*
X105165207Y-76838664D01*
X105165207Y-76610093D02*
X104365207Y-76610093D01*
X104479493Y-76686283D01*
X104555683Y-76762474D01*
X104593779Y-76838664D01*
X105165207Y-76000569D02*
X105165207Y-75848188D01*
X105127112Y-75771998D01*
X105089017Y-75733902D01*
X104974731Y-75657712D01*
X104822350Y-75619617D01*
X104517588Y-75619617D01*
X104441398Y-75657712D01*
X104403303Y-75695807D01*
X104365207Y-75771998D01*
X104365207Y-75924379D01*
X104403303Y-76000569D01*
X104441398Y-76038664D01*
X104517588Y-76076760D01*
X104708064Y-76076760D01*
X104784255Y-76038664D01*
X104822350Y-76000569D01*
X104860445Y-75924379D01*
X104860445Y-75771998D01*
X104822350Y-75695807D01*
X104784255Y-75657712D01*
X104708064Y-75619617D01*
X117843059Y-77600569D02*
X117043059Y-77600569D01*
X117043059Y-77410093D01*
X117081155Y-77295807D01*
X117157345Y-77219617D01*
X117233535Y-77181521D01*
X117385916Y-77143426D01*
X117500202Y-77143426D01*
X117652583Y-77181521D01*
X117728774Y-77219617D01*
X117804964Y-77295807D01*
X117843059Y-77410093D01*
X117843059Y-77600569D01*
X117119250Y-76838664D02*
X117081155Y-76800569D01*
X117043059Y-76724379D01*
X117043059Y-76533902D01*
X117081155Y-76457712D01*
X117119250Y-76419617D01*
X117195440Y-76381521D01*
X117271631Y-76381521D01*
X117385916Y-76419617D01*
X117843059Y-76876760D01*
X117843059Y-76381521D01*
X117043059Y-75886283D02*
X117043059Y-75810093D01*
X117081155Y-75733902D01*
X117119250Y-75695807D01*
X117195440Y-75657712D01*
X117347821Y-75619617D01*
X117538297Y-75619617D01*
X117690678Y-75657712D01*
X117766869Y-75695807D01*
X117804964Y-75733902D01*
X117843059Y-75810093D01*
X117843059Y-75886283D01*
X117804964Y-75962474D01*
X117766869Y-76000569D01*
X117690678Y-76038664D01*
X117538297Y-76076760D01*
X117347821Y-76076760D01*
X117195440Y-76038664D01*
X117119250Y-76000569D01*
X117081155Y-75962474D01*
X117043059Y-75886283D01*
X130520911Y-77600569D02*
X129720911Y-77600569D01*
X129720911Y-77410093D01*
X129759007Y-77295807D01*
X129835197Y-77219617D01*
X129911387Y-77181521D01*
X130063768Y-77143426D01*
X130178054Y-77143426D01*
X130330435Y-77181521D01*
X130406626Y-77219617D01*
X130482816Y-77295807D01*
X130520911Y-77410093D01*
X130520911Y-77600569D01*
X129797102Y-76838664D02*
X129759007Y-76800569D01*
X129720911Y-76724379D01*
X129720911Y-76533902D01*
X129759007Y-76457712D01*
X129797102Y-76419617D01*
X129873292Y-76381521D01*
X129949483Y-76381521D01*
X130063768Y-76419617D01*
X130520911Y-76876760D01*
X130520911Y-76381521D01*
X130520911Y-75619617D02*
X130520911Y-76076760D01*
X130520911Y-75848188D02*
X129720911Y-75848188D01*
X129835197Y-75924379D01*
X129911387Y-76000569D01*
X129949483Y-76076760D01*
X143198763Y-77600569D02*
X142398763Y-77600569D01*
X142398763Y-77410093D01*
X142436859Y-77295807D01*
X142513049Y-77219617D01*
X142589239Y-77181521D01*
X142741620Y-77143426D01*
X142855906Y-77143426D01*
X143008287Y-77181521D01*
X143084478Y-77219617D01*
X143160668Y-77295807D01*
X143198763Y-77410093D01*
X143198763Y-77600569D01*
X142474954Y-76838664D02*
X142436859Y-76800569D01*
X142398763Y-76724379D01*
X142398763Y-76533902D01*
X142436859Y-76457712D01*
X142474954Y-76419617D01*
X142551144Y-76381521D01*
X142627335Y-76381521D01*
X142741620Y-76419617D01*
X143198763Y-76876760D01*
X143198763Y-76381521D01*
X142474954Y-76076760D02*
X142436859Y-76038664D01*
X142398763Y-75962474D01*
X142398763Y-75771998D01*
X142436859Y-75695807D01*
X142474954Y-75657712D01*
X142551144Y-75619617D01*
X142627335Y-75619617D01*
X142741620Y-75657712D01*
X143198763Y-76114855D01*
X143198763Y-75619617D01*
X155876615Y-77600569D02*
X155076615Y-77600569D01*
X155076615Y-77410093D01*
X155114711Y-77295807D01*
X155190901Y-77219617D01*
X155267091Y-77181521D01*
X155419472Y-77143426D01*
X155533758Y-77143426D01*
X155686139Y-77181521D01*
X155762330Y-77219617D01*
X155838520Y-77295807D01*
X155876615Y-77410093D01*
X155876615Y-77600569D01*
X155152806Y-76838664D02*
X155114711Y-76800569D01*
X155076615Y-76724379D01*
X155076615Y-76533902D01*
X155114711Y-76457712D01*
X155152806Y-76419617D01*
X155228996Y-76381521D01*
X155305187Y-76381521D01*
X155419472Y-76419617D01*
X155876615Y-76876760D01*
X155876615Y-76381521D01*
X155076615Y-76114855D02*
X155076615Y-75619617D01*
X155381377Y-75886283D01*
X155381377Y-75771998D01*
X155419472Y-75695807D01*
X155457568Y-75657712D01*
X155533758Y-75619617D01*
X155724234Y-75619617D01*
X155800425Y-75657712D01*
X155838520Y-75695807D01*
X155876615Y-75771998D01*
X155876615Y-76000569D01*
X155838520Y-76076760D01*
X155800425Y-76114855D01*
X168554467Y-77600569D02*
X167754467Y-77600569D01*
X167754467Y-77410093D01*
X167792563Y-77295807D01*
X167868753Y-77219617D01*
X167944943Y-77181521D01*
X168097324Y-77143426D01*
X168211610Y-77143426D01*
X168363991Y-77181521D01*
X168440182Y-77219617D01*
X168516372Y-77295807D01*
X168554467Y-77410093D01*
X168554467Y-77600569D01*
X167830658Y-76838664D02*
X167792563Y-76800569D01*
X167754467Y-76724379D01*
X167754467Y-76533902D01*
X167792563Y-76457712D01*
X167830658Y-76419617D01*
X167906848Y-76381521D01*
X167983039Y-76381521D01*
X168097324Y-76419617D01*
X168554467Y-76876760D01*
X168554467Y-76381521D01*
X168021134Y-75695807D02*
X168554467Y-75695807D01*
X167716372Y-75886283D02*
X168287801Y-76076760D01*
X168287801Y-75581521D01*
X181232319Y-77600569D02*
X180432319Y-77600569D01*
X180432319Y-77410093D01*
X180470415Y-77295807D01*
X180546605Y-77219617D01*
X180622795Y-77181521D01*
X180775176Y-77143426D01*
X180889462Y-77143426D01*
X181041843Y-77181521D01*
X181118034Y-77219617D01*
X181194224Y-77295807D01*
X181232319Y-77410093D01*
X181232319Y-77600569D01*
X180508510Y-76838664D02*
X180470415Y-76800569D01*
X180432319Y-76724379D01*
X180432319Y-76533902D01*
X180470415Y-76457712D01*
X180508510Y-76419617D01*
X180584700Y-76381521D01*
X180660891Y-76381521D01*
X180775176Y-76419617D01*
X181232319Y-76876760D01*
X181232319Y-76381521D01*
X180432319Y-75657712D02*
X180432319Y-76038664D01*
X180813272Y-76076760D01*
X180775176Y-76038664D01*
X180737081Y-75962474D01*
X180737081Y-75771998D01*
X180775176Y-75695807D01*
X180813272Y-75657712D01*
X180889462Y-75619617D01*
X181079938Y-75619617D01*
X181156129Y-75657712D01*
X181194224Y-75695807D01*
X181232319Y-75771998D01*
X181232319Y-75962474D01*
X181194224Y-76038664D01*
X181156129Y-76076760D01*
X193910171Y-77600569D02*
X193110171Y-77600569D01*
X193110171Y-77410093D01*
X193148267Y-77295807D01*
X193224457Y-77219617D01*
X193300647Y-77181521D01*
X193453028Y-77143426D01*
X193567314Y-77143426D01*
X193719695Y-77181521D01*
X193795886Y-77219617D01*
X193872076Y-77295807D01*
X193910171Y-77410093D01*
X193910171Y-77600569D01*
X193186362Y-76838664D02*
X193148267Y-76800569D01*
X193110171Y-76724379D01*
X193110171Y-76533902D01*
X193148267Y-76457712D01*
X193186362Y-76419617D01*
X193262552Y-76381521D01*
X193338743Y-76381521D01*
X193453028Y-76419617D01*
X193910171Y-76876760D01*
X193910171Y-76381521D01*
X193110171Y-75695807D02*
X193110171Y-75848188D01*
X193148267Y-75924379D01*
X193186362Y-75962474D01*
X193300647Y-76038664D01*
X193453028Y-76076760D01*
X193757790Y-76076760D01*
X193833981Y-76038664D01*
X193872076Y-76000569D01*
X193910171Y-75924379D01*
X193910171Y-75771998D01*
X193872076Y-75695807D01*
X193833981Y-75657712D01*
X193757790Y-75619617D01*
X193567314Y-75619617D01*
X193491124Y-75657712D01*
X193453028Y-75695807D01*
X193414933Y-75771998D01*
X193414933Y-75924379D01*
X193453028Y-76000569D01*
X193491124Y-76038664D01*
X193567314Y-76076760D01*
X206588023Y-77600569D02*
X205788023Y-77600569D01*
X205788023Y-77410093D01*
X205826119Y-77295807D01*
X205902309Y-77219617D01*
X205978499Y-77181521D01*
X206130880Y-77143426D01*
X206245166Y-77143426D01*
X206397547Y-77181521D01*
X206473738Y-77219617D01*
X206549928Y-77295807D01*
X206588023Y-77410093D01*
X206588023Y-77600569D01*
X205864214Y-76838664D02*
X205826119Y-76800569D01*
X205788023Y-76724379D01*
X205788023Y-76533902D01*
X205826119Y-76457712D01*
X205864214Y-76419617D01*
X205940404Y-76381521D01*
X206016595Y-76381521D01*
X206130880Y-76419617D01*
X206588023Y-76876760D01*
X206588023Y-76381521D01*
X205788023Y-76114855D02*
X205788023Y-75581521D01*
X206588023Y-75924379D01*
X219248379Y-77600569D02*
X218448379Y-77600569D01*
X218448379Y-77410093D01*
X218486475Y-77295807D01*
X218562665Y-77219617D01*
X218638855Y-77181521D01*
X218791236Y-77143426D01*
X218905522Y-77143426D01*
X219057903Y-77181521D01*
X219134094Y-77219617D01*
X219210284Y-77295807D01*
X219248379Y-77410093D01*
X219248379Y-77600569D01*
X218524570Y-76838664D02*
X218486475Y-76800569D01*
X218448379Y-76724379D01*
X218448379Y-76533902D01*
X218486475Y-76457712D01*
X218524570Y-76419617D01*
X218600760Y-76381521D01*
X218676951Y-76381521D01*
X218791236Y-76419617D01*
X219248379Y-76876760D01*
X219248379Y-76381521D01*
X218791236Y-75924379D02*
X218753141Y-76000569D01*
X218715046Y-76038664D01*
X218638855Y-76076760D01*
X218600760Y-76076760D01*
X218524570Y-76038664D01*
X218486475Y-76000569D01*
X218448379Y-75924379D01*
X218448379Y-75771998D01*
X218486475Y-75695807D01*
X218524570Y-75657712D01*
X218600760Y-75619617D01*
X218638855Y-75619617D01*
X218715046Y-75657712D01*
X218753141Y-75695807D01*
X218791236Y-75771998D01*
X218791236Y-75924379D01*
X218829332Y-76000569D01*
X218867427Y-76038664D01*
X218943617Y-76076760D01*
X219095998Y-76076760D01*
X219172189Y-76038664D01*
X219210284Y-76000569D01*
X219248379Y-75924379D01*
X219248379Y-75771998D01*
X219210284Y-75695807D01*
X219172189Y-75657712D01*
X219095998Y-75619617D01*
X218943617Y-75619617D01*
X218867427Y-75657712D01*
X218829332Y-75695807D01*
X218791236Y-75771998D01*
X231855053Y-77600569D02*
X231055053Y-77600569D01*
X231055053Y-77410093D01*
X231093149Y-77295807D01*
X231169339Y-77219617D01*
X231245529Y-77181521D01*
X231397910Y-77143426D01*
X231512196Y-77143426D01*
X231664577Y-77181521D01*
X231740768Y-77219617D01*
X231816958Y-77295807D01*
X231855053Y-77410093D01*
X231855053Y-77600569D01*
X231131244Y-76838664D02*
X231093149Y-76800569D01*
X231055053Y-76724379D01*
X231055053Y-76533902D01*
X231093149Y-76457712D01*
X231131244Y-76419617D01*
X231207434Y-76381521D01*
X231283625Y-76381521D01*
X231397910Y-76419617D01*
X231855053Y-76876760D01*
X231855053Y-76381521D01*
X231855053Y-76000569D02*
X231855053Y-75848188D01*
X231816958Y-75771998D01*
X231778863Y-75733902D01*
X231664577Y-75657712D01*
X231512196Y-75619617D01*
X231207434Y-75619617D01*
X231131244Y-75657712D01*
X231093149Y-75695807D01*
X231055053Y-75771998D01*
X231055053Y-75924379D01*
X231093149Y-76000569D01*
X231131244Y-76038664D01*
X231207434Y-76076760D01*
X231397910Y-76076760D01*
X231474101Y-76038664D01*
X231512196Y-76000569D01*
X231550291Y-75924379D01*
X231550291Y-75771998D01*
X231512196Y-75695807D01*
X231474101Y-75657712D01*
X231397910Y-75619617D01*
X272815109Y-79254098D02*
X272015109Y-79254098D01*
X272015109Y-79063622D01*
X272053205Y-78949336D01*
X272129395Y-78873146D01*
X272205585Y-78835050D01*
X272357966Y-78796955D01*
X272472252Y-78796955D01*
X272624633Y-78835050D01*
X272700824Y-78873146D01*
X272777014Y-78949336D01*
X272815109Y-79063622D01*
X272815109Y-79254098D01*
X272015109Y-78530289D02*
X272015109Y-78035050D01*
X272319871Y-78301717D01*
X272319871Y-78187431D01*
X272357966Y-78111241D01*
X272396062Y-78073146D01*
X272472252Y-78035050D01*
X272662728Y-78035050D01*
X272738919Y-78073146D01*
X272777014Y-78111241D01*
X272815109Y-78187431D01*
X272815109Y-78416003D01*
X272777014Y-78492193D01*
X272738919Y-78530289D01*
X272015109Y-77539812D02*
X272015109Y-77463622D01*
X272053205Y-77387431D01*
X272091300Y-77349336D01*
X272167490Y-77311241D01*
X272319871Y-77273146D01*
X272510347Y-77273146D01*
X272662728Y-77311241D01*
X272738919Y-77349336D01*
X272777014Y-77387431D01*
X272815109Y-77463622D01*
X272815109Y-77539812D01*
X272777014Y-77616003D01*
X272738919Y-77654098D01*
X272662728Y-77692193D01*
X272510347Y-77730289D01*
X272319871Y-77730289D01*
X272167490Y-77692193D01*
X272091300Y-77654098D01*
X272053205Y-77616003D01*
X272015109Y-77539812D01*
X70301114Y-79254098D02*
X69501114Y-79254098D01*
X69501114Y-79063622D01*
X69539210Y-78949336D01*
X69615400Y-78873146D01*
X69691590Y-78835050D01*
X69843971Y-78796955D01*
X69958257Y-78796955D01*
X70110638Y-78835050D01*
X70186829Y-78873146D01*
X70263019Y-78949336D01*
X70301114Y-79063622D01*
X70301114Y-79254098D01*
X69501114Y-78530289D02*
X69501114Y-78035050D01*
X69805876Y-78301717D01*
X69805876Y-78187431D01*
X69843971Y-78111241D01*
X69882067Y-78073146D01*
X69958257Y-78035050D01*
X70148733Y-78035050D01*
X70224924Y-78073146D01*
X70263019Y-78111241D01*
X70301114Y-78187431D01*
X70301114Y-78416003D01*
X70263019Y-78492193D01*
X70224924Y-78530289D01*
X70301114Y-77273146D02*
X70301114Y-77730289D01*
X70301114Y-77501717D02*
X69501114Y-77501717D01*
X69615400Y-77577908D01*
X69691590Y-77654098D01*
X69729686Y-77730289D01*
X79809503Y-77600569D02*
X79009503Y-77600569D01*
X79009503Y-77410093D01*
X79047599Y-77295807D01*
X79123789Y-77219617D01*
X79199979Y-77181521D01*
X79352360Y-77143426D01*
X79466646Y-77143426D01*
X79619027Y-77181521D01*
X79695218Y-77219617D01*
X79771408Y-77295807D01*
X79809503Y-77410093D01*
X79809503Y-77600569D01*
X79009503Y-76876760D02*
X79009503Y-76381521D01*
X79314265Y-76648188D01*
X79314265Y-76533902D01*
X79352360Y-76457712D01*
X79390456Y-76419617D01*
X79466646Y-76381521D01*
X79657122Y-76381521D01*
X79733313Y-76419617D01*
X79771408Y-76457712D01*
X79809503Y-76533902D01*
X79809503Y-76762474D01*
X79771408Y-76838664D01*
X79733313Y-76876760D01*
X79085694Y-76076760D02*
X79047599Y-76038664D01*
X79009503Y-75962474D01*
X79009503Y-75771998D01*
X79047599Y-75695807D01*
X79085694Y-75657712D01*
X79161884Y-75619617D01*
X79238075Y-75619617D01*
X79352360Y-75657712D01*
X79809503Y-76114855D01*
X79809503Y-75619617D01*
X95656818Y-79254098D02*
X94856818Y-79254098D01*
X94856818Y-79063622D01*
X94894914Y-78949336D01*
X94971104Y-78873146D01*
X95047294Y-78835050D01*
X95199675Y-78796955D01*
X95313961Y-78796955D01*
X95466342Y-78835050D01*
X95542533Y-78873146D01*
X95618723Y-78949336D01*
X95656818Y-79063622D01*
X95656818Y-79254098D01*
X94856818Y-78530289D02*
X94856818Y-78035050D01*
X95161580Y-78301717D01*
X95161580Y-78187431D01*
X95199675Y-78111241D01*
X95237771Y-78073146D01*
X95313961Y-78035050D01*
X95504437Y-78035050D01*
X95580628Y-78073146D01*
X95618723Y-78111241D01*
X95656818Y-78187431D01*
X95656818Y-78416003D01*
X95618723Y-78492193D01*
X95580628Y-78530289D01*
X94856818Y-77768384D02*
X94856818Y-77273146D01*
X95161580Y-77539812D01*
X95161580Y-77425527D01*
X95199675Y-77349336D01*
X95237771Y-77311241D01*
X95313961Y-77273146D01*
X95504437Y-77273146D01*
X95580628Y-77311241D01*
X95618723Y-77349336D01*
X95656818Y-77425527D01*
X95656818Y-77654098D01*
X95618723Y-77730289D01*
X95580628Y-77768384D01*
X108334670Y-79254098D02*
X107534670Y-79254098D01*
X107534670Y-79063622D01*
X107572766Y-78949336D01*
X107648956Y-78873146D01*
X107725146Y-78835050D01*
X107877527Y-78796955D01*
X107991813Y-78796955D01*
X108144194Y-78835050D01*
X108220385Y-78873146D01*
X108296575Y-78949336D01*
X108334670Y-79063622D01*
X108334670Y-79254098D01*
X107534670Y-78530289D02*
X107534670Y-78035050D01*
X107839432Y-78301717D01*
X107839432Y-78187431D01*
X107877527Y-78111241D01*
X107915623Y-78073146D01*
X107991813Y-78035050D01*
X108182289Y-78035050D01*
X108258480Y-78073146D01*
X108296575Y-78111241D01*
X108334670Y-78187431D01*
X108334670Y-78416003D01*
X108296575Y-78492193D01*
X108258480Y-78530289D01*
X107801337Y-77349336D02*
X108334670Y-77349336D01*
X107496575Y-77539812D02*
X108068004Y-77730289D01*
X108068004Y-77235050D01*
X121012522Y-79254098D02*
X120212522Y-79254098D01*
X120212522Y-79063622D01*
X120250618Y-78949336D01*
X120326808Y-78873146D01*
X120402998Y-78835050D01*
X120555379Y-78796955D01*
X120669665Y-78796955D01*
X120822046Y-78835050D01*
X120898237Y-78873146D01*
X120974427Y-78949336D01*
X121012522Y-79063622D01*
X121012522Y-79254098D01*
X120212522Y-78530289D02*
X120212522Y-78035050D01*
X120517284Y-78301717D01*
X120517284Y-78187431D01*
X120555379Y-78111241D01*
X120593475Y-78073146D01*
X120669665Y-78035050D01*
X120860141Y-78035050D01*
X120936332Y-78073146D01*
X120974427Y-78111241D01*
X121012522Y-78187431D01*
X121012522Y-78416003D01*
X120974427Y-78492193D01*
X120936332Y-78530289D01*
X120212522Y-77311241D02*
X120212522Y-77692193D01*
X120593475Y-77730289D01*
X120555379Y-77692193D01*
X120517284Y-77616003D01*
X120517284Y-77425527D01*
X120555379Y-77349336D01*
X120593475Y-77311241D01*
X120669665Y-77273146D01*
X120860141Y-77273146D01*
X120936332Y-77311241D01*
X120974427Y-77349336D01*
X121012522Y-77425527D01*
X121012522Y-77616003D01*
X120974427Y-77692193D01*
X120936332Y-77730289D01*
X133690374Y-79254098D02*
X132890374Y-79254098D01*
X132890374Y-79063622D01*
X132928470Y-78949336D01*
X133004660Y-78873146D01*
X133080850Y-78835050D01*
X133233231Y-78796955D01*
X133347517Y-78796955D01*
X133499898Y-78835050D01*
X133576089Y-78873146D01*
X133652279Y-78949336D01*
X133690374Y-79063622D01*
X133690374Y-79254098D01*
X132890374Y-78530289D02*
X132890374Y-78035050D01*
X133195136Y-78301717D01*
X133195136Y-78187431D01*
X133233231Y-78111241D01*
X133271327Y-78073146D01*
X133347517Y-78035050D01*
X133537993Y-78035050D01*
X133614184Y-78073146D01*
X133652279Y-78111241D01*
X133690374Y-78187431D01*
X133690374Y-78416003D01*
X133652279Y-78492193D01*
X133614184Y-78530289D01*
X132890374Y-77349336D02*
X132890374Y-77501717D01*
X132928470Y-77577908D01*
X132966565Y-77616003D01*
X133080850Y-77692193D01*
X133233231Y-77730289D01*
X133537993Y-77730289D01*
X133614184Y-77692193D01*
X133652279Y-77654098D01*
X133690374Y-77577908D01*
X133690374Y-77425527D01*
X133652279Y-77349336D01*
X133614184Y-77311241D01*
X133537993Y-77273146D01*
X133347517Y-77273146D01*
X133271327Y-77311241D01*
X133233231Y-77349336D01*
X133195136Y-77425527D01*
X133195136Y-77577908D01*
X133233231Y-77654098D01*
X133271327Y-77692193D01*
X133347517Y-77730289D01*
X146368226Y-79254098D02*
X145568226Y-79254098D01*
X145568226Y-79063622D01*
X145606322Y-78949336D01*
X145682512Y-78873146D01*
X145758702Y-78835050D01*
X145911083Y-78796955D01*
X146025369Y-78796955D01*
X146177750Y-78835050D01*
X146253941Y-78873146D01*
X146330131Y-78949336D01*
X146368226Y-79063622D01*
X146368226Y-79254098D01*
X145568226Y-78530289D02*
X145568226Y-78035050D01*
X145872988Y-78301717D01*
X145872988Y-78187431D01*
X145911083Y-78111241D01*
X145949179Y-78073146D01*
X146025369Y-78035050D01*
X146215845Y-78035050D01*
X146292036Y-78073146D01*
X146330131Y-78111241D01*
X146368226Y-78187431D01*
X146368226Y-78416003D01*
X146330131Y-78492193D01*
X146292036Y-78530289D01*
X145568226Y-77768384D02*
X145568226Y-77235050D01*
X146368226Y-77577908D01*
X159046078Y-79254098D02*
X158246078Y-79254098D01*
X158246078Y-79063622D01*
X158284174Y-78949336D01*
X158360364Y-78873146D01*
X158436554Y-78835050D01*
X158588935Y-78796955D01*
X158703221Y-78796955D01*
X158855602Y-78835050D01*
X158931793Y-78873146D01*
X159007983Y-78949336D01*
X159046078Y-79063622D01*
X159046078Y-79254098D01*
X158246078Y-78530289D02*
X158246078Y-78035050D01*
X158550840Y-78301717D01*
X158550840Y-78187431D01*
X158588935Y-78111241D01*
X158627031Y-78073146D01*
X158703221Y-78035050D01*
X158893697Y-78035050D01*
X158969888Y-78073146D01*
X159007983Y-78111241D01*
X159046078Y-78187431D01*
X159046078Y-78416003D01*
X159007983Y-78492193D01*
X158969888Y-78530289D01*
X158588935Y-77577908D02*
X158550840Y-77654098D01*
X158512745Y-77692193D01*
X158436554Y-77730289D01*
X158398459Y-77730289D01*
X158322269Y-77692193D01*
X158284174Y-77654098D01*
X158246078Y-77577908D01*
X158246078Y-77425527D01*
X158284174Y-77349336D01*
X158322269Y-77311241D01*
X158398459Y-77273146D01*
X158436554Y-77273146D01*
X158512745Y-77311241D01*
X158550840Y-77349336D01*
X158588935Y-77425527D01*
X158588935Y-77577908D01*
X158627031Y-77654098D01*
X158665126Y-77692193D01*
X158741316Y-77730289D01*
X158893697Y-77730289D01*
X158969888Y-77692193D01*
X159007983Y-77654098D01*
X159046078Y-77577908D01*
X159046078Y-77425527D01*
X159007983Y-77349336D01*
X158969888Y-77311241D01*
X158893697Y-77273146D01*
X158741316Y-77273146D01*
X158665126Y-77311241D01*
X158627031Y-77349336D01*
X158588935Y-77425527D01*
X171723930Y-79254098D02*
X170923930Y-79254098D01*
X170923930Y-79063622D01*
X170962026Y-78949336D01*
X171038216Y-78873146D01*
X171114406Y-78835050D01*
X171266787Y-78796955D01*
X171381073Y-78796955D01*
X171533454Y-78835050D01*
X171609645Y-78873146D01*
X171685835Y-78949336D01*
X171723930Y-79063622D01*
X171723930Y-79254098D01*
X170923930Y-78530289D02*
X170923930Y-78035050D01*
X171228692Y-78301717D01*
X171228692Y-78187431D01*
X171266787Y-78111241D01*
X171304883Y-78073146D01*
X171381073Y-78035050D01*
X171571549Y-78035050D01*
X171647740Y-78073146D01*
X171685835Y-78111241D01*
X171723930Y-78187431D01*
X171723930Y-78416003D01*
X171685835Y-78492193D01*
X171647740Y-78530289D01*
X171723930Y-77654098D02*
X171723930Y-77501717D01*
X171685835Y-77425527D01*
X171647740Y-77387431D01*
X171533454Y-77311241D01*
X171381073Y-77273146D01*
X171076311Y-77273146D01*
X171000121Y-77311241D01*
X170962026Y-77349336D01*
X170923930Y-77425527D01*
X170923930Y-77577908D01*
X170962026Y-77654098D01*
X171000121Y-77692193D01*
X171076311Y-77730289D01*
X171266787Y-77730289D01*
X171342978Y-77692193D01*
X171381073Y-77654098D01*
X171419168Y-77577908D01*
X171419168Y-77425527D01*
X171381073Y-77349336D01*
X171342978Y-77311241D01*
X171266787Y-77273146D01*
X184401782Y-79254098D02*
X183601782Y-79254098D01*
X183601782Y-79063622D01*
X183639878Y-78949336D01*
X183716068Y-78873146D01*
X183792258Y-78835050D01*
X183944639Y-78796955D01*
X184058925Y-78796955D01*
X184211306Y-78835050D01*
X184287497Y-78873146D01*
X184363687Y-78949336D01*
X184401782Y-79063622D01*
X184401782Y-79254098D01*
X183868449Y-78111241D02*
X184401782Y-78111241D01*
X183563687Y-78301717D02*
X184135116Y-78492193D01*
X184135116Y-77996955D01*
X183601782Y-77539812D02*
X183601782Y-77463622D01*
X183639878Y-77387431D01*
X183677973Y-77349336D01*
X183754163Y-77311241D01*
X183906544Y-77273146D01*
X184097020Y-77273146D01*
X184249401Y-77311241D01*
X184325592Y-77349336D01*
X184363687Y-77387431D01*
X184401782Y-77463622D01*
X184401782Y-77539812D01*
X184363687Y-77616003D01*
X184325592Y-77654098D01*
X184249401Y-77692193D01*
X184097020Y-77730289D01*
X183906544Y-77730289D01*
X183754163Y-77692193D01*
X183677973Y-77654098D01*
X183639878Y-77616003D01*
X183601782Y-77539812D01*
X197079634Y-79254098D02*
X196279634Y-79254098D01*
X196279634Y-79063622D01*
X196317730Y-78949336D01*
X196393920Y-78873146D01*
X196470110Y-78835050D01*
X196622491Y-78796955D01*
X196736777Y-78796955D01*
X196889158Y-78835050D01*
X196965349Y-78873146D01*
X197041539Y-78949336D01*
X197079634Y-79063622D01*
X197079634Y-79254098D01*
X196546301Y-78111241D02*
X197079634Y-78111241D01*
X196241539Y-78301717D02*
X196812968Y-78492193D01*
X196812968Y-77996955D01*
X197079634Y-77273146D02*
X197079634Y-77730289D01*
X197079634Y-77501717D02*
X196279634Y-77501717D01*
X196393920Y-77577908D01*
X196470110Y-77654098D01*
X196508206Y-77730289D01*
X209757486Y-79254098D02*
X208957486Y-79254098D01*
X208957486Y-79063622D01*
X208995582Y-78949336D01*
X209071772Y-78873146D01*
X209147962Y-78835050D01*
X209300343Y-78796955D01*
X209414629Y-78796955D01*
X209567010Y-78835050D01*
X209643201Y-78873146D01*
X209719391Y-78949336D01*
X209757486Y-79063622D01*
X209757486Y-79254098D01*
X209224153Y-78111241D02*
X209757486Y-78111241D01*
X208919391Y-78301717D02*
X209490820Y-78492193D01*
X209490820Y-77996955D01*
X209033677Y-77730289D02*
X208995582Y-77692193D01*
X208957486Y-77616003D01*
X208957486Y-77425527D01*
X208995582Y-77349336D01*
X209033677Y-77311241D01*
X209109867Y-77273146D01*
X209186058Y-77273146D01*
X209300343Y-77311241D01*
X209757486Y-77768384D01*
X209757486Y-77273146D01*
X235005826Y-79254098D02*
X234205826Y-79254098D01*
X234205826Y-79063622D01*
X234243922Y-78949336D01*
X234320112Y-78873146D01*
X234396302Y-78835050D01*
X234548683Y-78796955D01*
X234662969Y-78796955D01*
X234815350Y-78835050D01*
X234891541Y-78873146D01*
X234967731Y-78949336D01*
X235005826Y-79063622D01*
X235005826Y-79254098D01*
X234472493Y-78111241D02*
X235005826Y-78111241D01*
X234167731Y-78301717D02*
X234739160Y-78492193D01*
X234739160Y-77996955D01*
X234205826Y-77768384D02*
X234205826Y-77273146D01*
X234510588Y-77539812D01*
X234510588Y-77425527D01*
X234548683Y-77349336D01*
X234586779Y-77311241D01*
X234662969Y-77273146D01*
X234853445Y-77273146D01*
X234929636Y-77311241D01*
X234967731Y-77349336D01*
X235005826Y-77425527D01*
X235005826Y-77654098D01*
X234967731Y-77730289D01*
X234929636Y-77768384D01*
X269726385Y-77600569D02*
X268926385Y-77600569D01*
X268926385Y-77410093D01*
X268964481Y-77295807D01*
X269040671Y-77219617D01*
X269116861Y-77181521D01*
X269269242Y-77143426D01*
X269383528Y-77143426D01*
X269535909Y-77181521D01*
X269612100Y-77219617D01*
X269688290Y-77295807D01*
X269726385Y-77410093D01*
X269726385Y-77600569D01*
X269193052Y-76457712D02*
X269726385Y-76457712D01*
X268888290Y-76648188D02*
X269459719Y-76838664D01*
X269459719Y-76343426D01*
X269193052Y-75695807D02*
X269726385Y-75695807D01*
X268888290Y-75886283D02*
X269459719Y-76076760D01*
X269459719Y-75581521D01*
X98826281Y-80907627D02*
X98026281Y-80907627D01*
X98026281Y-80717151D01*
X98064377Y-80602865D01*
X98140567Y-80526675D01*
X98216757Y-80488579D01*
X98369138Y-80450484D01*
X98483424Y-80450484D01*
X98635805Y-80488579D01*
X98711996Y-80526675D01*
X98788186Y-80602865D01*
X98826281Y-80717151D01*
X98826281Y-80907627D01*
X98292948Y-79764770D02*
X98826281Y-79764770D01*
X97988186Y-79955246D02*
X98559615Y-80145722D01*
X98559615Y-79650484D01*
X98026281Y-79002865D02*
X98026281Y-79155246D01*
X98064377Y-79231437D01*
X98102472Y-79269532D01*
X98216757Y-79345722D01*
X98369138Y-79383818D01*
X98673900Y-79383818D01*
X98750091Y-79345722D01*
X98788186Y-79307627D01*
X98826281Y-79231437D01*
X98826281Y-79079056D01*
X98788186Y-79002865D01*
X98750091Y-78964770D01*
X98673900Y-78926675D01*
X98483424Y-78926675D01*
X98407234Y-78964770D01*
X98369138Y-79002865D01*
X98331043Y-79079056D01*
X98331043Y-79231437D01*
X98369138Y-79307627D01*
X98407234Y-79345722D01*
X98483424Y-79383818D01*
X111504133Y-80907627D02*
X110704133Y-80907627D01*
X110704133Y-80717151D01*
X110742229Y-80602865D01*
X110818419Y-80526675D01*
X110894609Y-80488579D01*
X111046990Y-80450484D01*
X111161276Y-80450484D01*
X111313657Y-80488579D01*
X111389848Y-80526675D01*
X111466038Y-80602865D01*
X111504133Y-80717151D01*
X111504133Y-80907627D01*
X110970800Y-79764770D02*
X111504133Y-79764770D01*
X110666038Y-79955246D02*
X111237467Y-80145722D01*
X111237467Y-79650484D01*
X110704133Y-79421913D02*
X110704133Y-78888579D01*
X111504133Y-79231437D01*
X124181985Y-80907627D02*
X123381985Y-80907627D01*
X123381985Y-80717151D01*
X123420081Y-80602865D01*
X123496271Y-80526675D01*
X123572461Y-80488579D01*
X123724842Y-80450484D01*
X123839128Y-80450484D01*
X123991509Y-80488579D01*
X124067700Y-80526675D01*
X124143890Y-80602865D01*
X124181985Y-80717151D01*
X124181985Y-80907627D01*
X123648652Y-79764770D02*
X124181985Y-79764770D01*
X123343890Y-79955246D02*
X123915319Y-80145722D01*
X123915319Y-79650484D01*
X123724842Y-79231437D02*
X123686747Y-79307627D01*
X123648652Y-79345722D01*
X123572461Y-79383818D01*
X123534366Y-79383818D01*
X123458176Y-79345722D01*
X123420081Y-79307627D01*
X123381985Y-79231437D01*
X123381985Y-79079056D01*
X123420081Y-79002865D01*
X123458176Y-78964770D01*
X123534366Y-78926675D01*
X123572461Y-78926675D01*
X123648652Y-78964770D01*
X123686747Y-79002865D01*
X123724842Y-79079056D01*
X123724842Y-79231437D01*
X123762938Y-79307627D01*
X123801033Y-79345722D01*
X123877223Y-79383818D01*
X124029604Y-79383818D01*
X124105795Y-79345722D01*
X124143890Y-79307627D01*
X124181985Y-79231437D01*
X124181985Y-79079056D01*
X124143890Y-79002865D01*
X124105795Y-78964770D01*
X124029604Y-78926675D01*
X123877223Y-78926675D01*
X123801033Y-78964770D01*
X123762938Y-79002865D01*
X123724842Y-79079056D01*
X136859837Y-80907627D02*
X136059837Y-80907627D01*
X136059837Y-80717151D01*
X136097933Y-80602865D01*
X136174123Y-80526675D01*
X136250313Y-80488579D01*
X136402694Y-80450484D01*
X136516980Y-80450484D01*
X136669361Y-80488579D01*
X136745552Y-80526675D01*
X136821742Y-80602865D01*
X136859837Y-80717151D01*
X136859837Y-80907627D01*
X136326504Y-79764770D02*
X136859837Y-79764770D01*
X136021742Y-79955246D02*
X136593171Y-80145722D01*
X136593171Y-79650484D01*
X136859837Y-79307627D02*
X136859837Y-79155246D01*
X136821742Y-79079056D01*
X136783647Y-79040960D01*
X136669361Y-78964770D01*
X136516980Y-78926675D01*
X136212218Y-78926675D01*
X136136028Y-78964770D01*
X136097933Y-79002865D01*
X136059837Y-79079056D01*
X136059837Y-79231437D01*
X136097933Y-79307627D01*
X136136028Y-79345722D01*
X136212218Y-79383818D01*
X136402694Y-79383818D01*
X136478885Y-79345722D01*
X136516980Y-79307627D01*
X136555075Y-79231437D01*
X136555075Y-79079056D01*
X136516980Y-79002865D01*
X136478885Y-78964770D01*
X136402694Y-78926675D01*
X149537689Y-80907627D02*
X148737689Y-80907627D01*
X148737689Y-80717151D01*
X148775785Y-80602865D01*
X148851975Y-80526675D01*
X148928165Y-80488579D01*
X149080546Y-80450484D01*
X149194832Y-80450484D01*
X149347213Y-80488579D01*
X149423404Y-80526675D01*
X149499594Y-80602865D01*
X149537689Y-80717151D01*
X149537689Y-80907627D01*
X148737689Y-79726675D02*
X148737689Y-80107627D01*
X149118642Y-80145722D01*
X149080546Y-80107627D01*
X149042451Y-80031437D01*
X149042451Y-79840960D01*
X149080546Y-79764770D01*
X149118642Y-79726675D01*
X149194832Y-79688579D01*
X149385308Y-79688579D01*
X149461499Y-79726675D01*
X149499594Y-79764770D01*
X149537689Y-79840960D01*
X149537689Y-80031437D01*
X149499594Y-80107627D01*
X149461499Y-80145722D01*
X148737689Y-79193341D02*
X148737689Y-79117151D01*
X148775785Y-79040960D01*
X148813880Y-79002865D01*
X148890070Y-78964770D01*
X149042451Y-78926675D01*
X149232927Y-78926675D01*
X149385308Y-78964770D01*
X149461499Y-79002865D01*
X149499594Y-79040960D01*
X149537689Y-79117151D01*
X149537689Y-79193341D01*
X149499594Y-79269532D01*
X149461499Y-79307627D01*
X149385308Y-79345722D01*
X149232927Y-79383818D01*
X149042451Y-79383818D01*
X148890070Y-79345722D01*
X148813880Y-79307627D01*
X148775785Y-79269532D01*
X148737689Y-79193341D01*
X162215541Y-80907627D02*
X161415541Y-80907627D01*
X161415541Y-80717151D01*
X161453637Y-80602865D01*
X161529827Y-80526675D01*
X161606017Y-80488579D01*
X161758398Y-80450484D01*
X161872684Y-80450484D01*
X162025065Y-80488579D01*
X162101256Y-80526675D01*
X162177446Y-80602865D01*
X162215541Y-80717151D01*
X162215541Y-80907627D01*
X161415541Y-79726675D02*
X161415541Y-80107627D01*
X161796494Y-80145722D01*
X161758398Y-80107627D01*
X161720303Y-80031437D01*
X161720303Y-79840960D01*
X161758398Y-79764770D01*
X161796494Y-79726675D01*
X161872684Y-79688579D01*
X162063160Y-79688579D01*
X162139351Y-79726675D01*
X162177446Y-79764770D01*
X162215541Y-79840960D01*
X162215541Y-80031437D01*
X162177446Y-80107627D01*
X162139351Y-80145722D01*
X162215541Y-78926675D02*
X162215541Y-79383818D01*
X162215541Y-79155246D02*
X161415541Y-79155246D01*
X161529827Y-79231437D01*
X161606017Y-79307627D01*
X161644113Y-79383818D01*
X174893393Y-80907627D02*
X174093393Y-80907627D01*
X174093393Y-80717151D01*
X174131489Y-80602865D01*
X174207679Y-80526675D01*
X174283869Y-80488579D01*
X174436250Y-80450484D01*
X174550536Y-80450484D01*
X174702917Y-80488579D01*
X174779108Y-80526675D01*
X174855298Y-80602865D01*
X174893393Y-80717151D01*
X174893393Y-80907627D01*
X174093393Y-79726675D02*
X174093393Y-80107627D01*
X174474346Y-80145722D01*
X174436250Y-80107627D01*
X174398155Y-80031437D01*
X174398155Y-79840960D01*
X174436250Y-79764770D01*
X174474346Y-79726675D01*
X174550536Y-79688579D01*
X174741012Y-79688579D01*
X174817203Y-79726675D01*
X174855298Y-79764770D01*
X174893393Y-79840960D01*
X174893393Y-80031437D01*
X174855298Y-80107627D01*
X174817203Y-80145722D01*
X174169584Y-79383818D02*
X174131489Y-79345722D01*
X174093393Y-79269532D01*
X174093393Y-79079056D01*
X174131489Y-79002865D01*
X174169584Y-78964770D01*
X174245774Y-78926675D01*
X174321965Y-78926675D01*
X174436250Y-78964770D01*
X174893393Y-79421913D01*
X174893393Y-78926675D01*
X187571245Y-80907627D02*
X186771245Y-80907627D01*
X186771245Y-80717151D01*
X186809341Y-80602865D01*
X186885531Y-80526675D01*
X186961721Y-80488579D01*
X187114102Y-80450484D01*
X187228388Y-80450484D01*
X187380769Y-80488579D01*
X187456960Y-80526675D01*
X187533150Y-80602865D01*
X187571245Y-80717151D01*
X187571245Y-80907627D01*
X186771245Y-79726675D02*
X186771245Y-80107627D01*
X187152198Y-80145722D01*
X187114102Y-80107627D01*
X187076007Y-80031437D01*
X187076007Y-79840960D01*
X187114102Y-79764770D01*
X187152198Y-79726675D01*
X187228388Y-79688579D01*
X187418864Y-79688579D01*
X187495055Y-79726675D01*
X187533150Y-79764770D01*
X187571245Y-79840960D01*
X187571245Y-80031437D01*
X187533150Y-80107627D01*
X187495055Y-80145722D01*
X186771245Y-79421913D02*
X186771245Y-78926675D01*
X187076007Y-79193341D01*
X187076007Y-79079056D01*
X187114102Y-79002865D01*
X187152198Y-78964770D01*
X187228388Y-78926675D01*
X187418864Y-78926675D01*
X187495055Y-78964770D01*
X187533150Y-79002865D01*
X187571245Y-79079056D01*
X187571245Y-79307627D01*
X187533150Y-79383818D01*
X187495055Y-79421913D01*
X200249097Y-80907627D02*
X199449097Y-80907627D01*
X199449097Y-80717151D01*
X199487193Y-80602865D01*
X199563383Y-80526675D01*
X199639573Y-80488579D01*
X199791954Y-80450484D01*
X199906240Y-80450484D01*
X200058621Y-80488579D01*
X200134812Y-80526675D01*
X200211002Y-80602865D01*
X200249097Y-80717151D01*
X200249097Y-80907627D01*
X199449097Y-79726675D02*
X199449097Y-80107627D01*
X199830050Y-80145722D01*
X199791954Y-80107627D01*
X199753859Y-80031437D01*
X199753859Y-79840960D01*
X199791954Y-79764770D01*
X199830050Y-79726675D01*
X199906240Y-79688579D01*
X200096716Y-79688579D01*
X200172907Y-79726675D01*
X200211002Y-79764770D01*
X200249097Y-79840960D01*
X200249097Y-80031437D01*
X200211002Y-80107627D01*
X200172907Y-80145722D01*
X199715764Y-79002865D02*
X200249097Y-79002865D01*
X199411002Y-79193341D02*
X199982431Y-79383818D01*
X199982431Y-78888579D01*
X212926949Y-80907627D02*
X212126949Y-80907627D01*
X212126949Y-80717151D01*
X212165045Y-80602865D01*
X212241235Y-80526675D01*
X212317425Y-80488579D01*
X212469806Y-80450484D01*
X212584092Y-80450484D01*
X212736473Y-80488579D01*
X212812664Y-80526675D01*
X212888854Y-80602865D01*
X212926949Y-80717151D01*
X212926949Y-80907627D01*
X212126949Y-79726675D02*
X212126949Y-80107627D01*
X212507902Y-80145722D01*
X212469806Y-80107627D01*
X212431711Y-80031437D01*
X212431711Y-79840960D01*
X212469806Y-79764770D01*
X212507902Y-79726675D01*
X212584092Y-79688579D01*
X212774568Y-79688579D01*
X212850759Y-79726675D01*
X212888854Y-79764770D01*
X212926949Y-79840960D01*
X212926949Y-80031437D01*
X212888854Y-80107627D01*
X212850759Y-80145722D01*
X212126949Y-78964770D02*
X212126949Y-79345722D01*
X212507902Y-79383818D01*
X212469806Y-79345722D01*
X212431711Y-79269532D01*
X212431711Y-79079056D01*
X212469806Y-79002865D01*
X212507902Y-78964770D01*
X212584092Y-78926675D01*
X212774568Y-78926675D01*
X212850759Y-78964770D01*
X212888854Y-79002865D01*
X212926949Y-79079056D01*
X212926949Y-79269532D01*
X212888854Y-79345722D01*
X212850759Y-79383818D01*
X222400346Y-79254098D02*
X221600346Y-79254098D01*
X221600346Y-79063622D01*
X221638442Y-78949336D01*
X221714632Y-78873146D01*
X221790822Y-78835050D01*
X221943203Y-78796955D01*
X222057489Y-78796955D01*
X222209870Y-78835050D01*
X222286061Y-78873146D01*
X222362251Y-78949336D01*
X222400346Y-79063622D01*
X222400346Y-79254098D01*
X221600346Y-78073146D02*
X221600346Y-78454098D01*
X221981299Y-78492193D01*
X221943203Y-78454098D01*
X221905108Y-78377908D01*
X221905108Y-78187431D01*
X221943203Y-78111241D01*
X221981299Y-78073146D01*
X222057489Y-78035050D01*
X222247965Y-78035050D01*
X222324156Y-78073146D01*
X222362251Y-78111241D01*
X222400346Y-78187431D01*
X222400346Y-78377908D01*
X222362251Y-78454098D01*
X222324156Y-78492193D01*
X221600346Y-77349336D02*
X221600346Y-77501717D01*
X221638442Y-77577908D01*
X221676537Y-77616003D01*
X221790822Y-77692193D01*
X221943203Y-77730289D01*
X222247965Y-77730289D01*
X222324156Y-77692193D01*
X222362251Y-77654098D01*
X222400346Y-77577908D01*
X222400346Y-77425527D01*
X222362251Y-77349336D01*
X222324156Y-77311241D01*
X222247965Y-77273146D01*
X222057489Y-77273146D01*
X221981299Y-77311241D01*
X221943203Y-77349336D01*
X221905108Y-77425527D01*
X221905108Y-77577908D01*
X221943203Y-77654098D01*
X221981299Y-77692193D01*
X222057489Y-77730289D01*
X238156599Y-80907627D02*
X237356599Y-80907627D01*
X237356599Y-80717151D01*
X237394695Y-80602865D01*
X237470885Y-80526675D01*
X237547075Y-80488579D01*
X237699456Y-80450484D01*
X237813742Y-80450484D01*
X237966123Y-80488579D01*
X238042314Y-80526675D01*
X238118504Y-80602865D01*
X238156599Y-80717151D01*
X238156599Y-80907627D01*
X237356599Y-79726675D02*
X237356599Y-80107627D01*
X237737552Y-80145722D01*
X237699456Y-80107627D01*
X237661361Y-80031437D01*
X237661361Y-79840960D01*
X237699456Y-79764770D01*
X237737552Y-79726675D01*
X237813742Y-79688579D01*
X238004218Y-79688579D01*
X238080409Y-79726675D01*
X238118504Y-79764770D01*
X238156599Y-79840960D01*
X238156599Y-80031437D01*
X238118504Y-80107627D01*
X238080409Y-80145722D01*
X237356599Y-79421913D02*
X237356599Y-78888579D01*
X238156599Y-79231437D01*
X266451510Y-75947040D02*
X265651510Y-75947040D01*
X265651510Y-75756564D01*
X265689606Y-75642278D01*
X265765796Y-75566088D01*
X265841986Y-75527992D01*
X265994367Y-75489897D01*
X266108653Y-75489897D01*
X266261034Y-75527992D01*
X266337225Y-75566088D01*
X266413415Y-75642278D01*
X266451510Y-75756564D01*
X266451510Y-75947040D01*
X265651510Y-74766088D02*
X265651510Y-75147040D01*
X266032463Y-75185135D01*
X265994367Y-75147040D01*
X265956272Y-75070850D01*
X265956272Y-74880373D01*
X265994367Y-74804183D01*
X266032463Y-74766088D01*
X266108653Y-74727992D01*
X266299129Y-74727992D01*
X266375320Y-74766088D01*
X266413415Y-74804183D01*
X266451510Y-74880373D01*
X266451510Y-75070850D01*
X266413415Y-75147040D01*
X266375320Y-75185135D01*
X265994367Y-74270850D02*
X265956272Y-74347040D01*
X265918177Y-74385135D01*
X265841986Y-74423231D01*
X265803891Y-74423231D01*
X265727701Y-74385135D01*
X265689606Y-74347040D01*
X265651510Y-74270850D01*
X265651510Y-74118469D01*
X265689606Y-74042278D01*
X265727701Y-74004183D01*
X265803891Y-73966088D01*
X265841986Y-73966088D01*
X265918177Y-74004183D01*
X265956272Y-74042278D01*
X265994367Y-74118469D01*
X265994367Y-74270850D01*
X266032463Y-74347040D01*
X266070558Y-74385135D01*
X266146748Y-74423231D01*
X266299129Y-74423231D01*
X266375320Y-74385135D01*
X266413415Y-74347040D01*
X266451510Y-74270850D01*
X266451510Y-74118469D01*
X266413415Y-74042278D01*
X266375320Y-74004183D01*
X266299129Y-73966088D01*
X266146748Y-73966088D01*
X266070558Y-74004183D01*
X266032463Y-74042278D01*
X265994367Y-74118469D01*
X76640040Y-75947040D02*
X75840040Y-75947040D01*
X75840040Y-75756564D01*
X75878136Y-75642278D01*
X75954326Y-75566088D01*
X76030516Y-75527992D01*
X76182897Y-75489897D01*
X76297183Y-75489897D01*
X76449564Y-75527992D01*
X76525755Y-75566088D01*
X76601945Y-75642278D01*
X76640040Y-75756564D01*
X76640040Y-75947040D01*
X75840040Y-74804183D02*
X75840040Y-74956564D01*
X75878136Y-75032754D01*
X75916231Y-75070850D01*
X76030516Y-75147040D01*
X76182897Y-75185135D01*
X76487659Y-75185135D01*
X76563850Y-75147040D01*
X76601945Y-75108945D01*
X76640040Y-75032754D01*
X76640040Y-74880373D01*
X76601945Y-74804183D01*
X76563850Y-74766088D01*
X76487659Y-74727992D01*
X76297183Y-74727992D01*
X76220993Y-74766088D01*
X76182897Y-74804183D01*
X76144802Y-74880373D01*
X76144802Y-75032754D01*
X76182897Y-75108945D01*
X76220993Y-75147040D01*
X76297183Y-75185135D01*
X75840040Y-74232754D02*
X75840040Y-74156564D01*
X75878136Y-74080373D01*
X75916231Y-74042278D01*
X75992421Y-74004183D01*
X76144802Y-73966088D01*
X76335278Y-73966088D01*
X76487659Y-74004183D01*
X76563850Y-74042278D01*
X76601945Y-74080373D01*
X76640040Y-74156564D01*
X76640040Y-74232754D01*
X76601945Y-74308945D01*
X76563850Y-74347040D01*
X76487659Y-74385135D01*
X76335278Y-74423231D01*
X76144802Y-74423231D01*
X75992421Y-74385135D01*
X75916231Y-74347040D01*
X75878136Y-74308945D01*
X75840040Y-74232754D01*
X260203904Y-79337428D02*
X259403904Y-79337428D01*
X259403904Y-79146952D01*
X259442000Y-79032666D01*
X259518190Y-78956476D01*
X259594380Y-78918380D01*
X259746761Y-78880285D01*
X259861047Y-78880285D01*
X260013428Y-78918380D01*
X260089619Y-78956476D01*
X260165809Y-79032666D01*
X260203904Y-79146952D01*
X260203904Y-79337428D01*
X259403904Y-78194571D02*
X259403904Y-78346952D01*
X259442000Y-78423142D01*
X259480095Y-78461238D01*
X259594380Y-78537428D01*
X259746761Y-78575523D01*
X260051523Y-78575523D01*
X260127714Y-78537428D01*
X260165809Y-78499333D01*
X260203904Y-78423142D01*
X260203904Y-78270761D01*
X260165809Y-78194571D01*
X260127714Y-78156476D01*
X260051523Y-78118380D01*
X259861047Y-78118380D01*
X259784857Y-78156476D01*
X259746761Y-78194571D01*
X259708666Y-78270761D01*
X259708666Y-78423142D01*
X259746761Y-78499333D01*
X259784857Y-78537428D01*
X259861047Y-78575523D01*
X260203904Y-77356476D02*
X260203904Y-77813619D01*
X260203904Y-77585047D02*
X259403904Y-77585047D01*
X259518190Y-77661238D01*
X259594380Y-77737428D01*
X259632476Y-77813619D01*
X253848415Y-75947040D02*
X253048415Y-75947040D01*
X253048415Y-75756564D01*
X253086511Y-75642278D01*
X253162701Y-75566088D01*
X253238891Y-75527992D01*
X253391272Y-75489897D01*
X253505558Y-75489897D01*
X253657939Y-75527992D01*
X253734130Y-75566088D01*
X253810320Y-75642278D01*
X253848415Y-75756564D01*
X253848415Y-75947040D01*
X253048415Y-74804183D02*
X253048415Y-74956564D01*
X253086511Y-75032754D01*
X253124606Y-75070850D01*
X253238891Y-75147040D01*
X253391272Y-75185135D01*
X253696034Y-75185135D01*
X253772225Y-75147040D01*
X253810320Y-75108945D01*
X253848415Y-75032754D01*
X253848415Y-74880373D01*
X253810320Y-74804183D01*
X253772225Y-74766088D01*
X253696034Y-74727992D01*
X253505558Y-74727992D01*
X253429368Y-74766088D01*
X253391272Y-74804183D01*
X253353177Y-74880373D01*
X253353177Y-75032754D01*
X253391272Y-75108945D01*
X253429368Y-75147040D01*
X253505558Y-75185135D01*
X253048415Y-74461326D02*
X253048415Y-73966088D01*
X253353177Y-74232754D01*
X253353177Y-74118469D01*
X253391272Y-74042278D01*
X253429368Y-74004183D01*
X253505558Y-73966088D01*
X253696034Y-73966088D01*
X253772225Y-74004183D01*
X253810320Y-74042278D01*
X253848415Y-74118469D01*
X253848415Y-74347040D01*
X253810320Y-74423231D01*
X253772225Y-74461326D01*
X244455904Y-77559428D02*
X243655904Y-77559428D01*
X243655904Y-77368952D01*
X243694000Y-77254666D01*
X243770190Y-77178476D01*
X243846380Y-77140380D01*
X243998761Y-77102285D01*
X244113047Y-77102285D01*
X244265428Y-77140380D01*
X244341619Y-77178476D01*
X244417809Y-77254666D01*
X244455904Y-77368952D01*
X244455904Y-77559428D01*
X243655904Y-76416571D02*
X243655904Y-76568952D01*
X243694000Y-76645142D01*
X243732095Y-76683238D01*
X243846380Y-76759428D01*
X243998761Y-76797523D01*
X244303523Y-76797523D01*
X244379714Y-76759428D01*
X244417809Y-76721333D01*
X244455904Y-76645142D01*
X244455904Y-76492761D01*
X244417809Y-76416571D01*
X244379714Y-76378476D01*
X244303523Y-76340380D01*
X244113047Y-76340380D01*
X244036857Y-76378476D01*
X243998761Y-76416571D01*
X243960666Y-76492761D01*
X243960666Y-76645142D01*
X243998761Y-76721333D01*
X244036857Y-76759428D01*
X244113047Y-76797523D01*
X243655904Y-75654666D02*
X243655904Y-75807047D01*
X243694000Y-75883238D01*
X243732095Y-75921333D01*
X243846380Y-75997523D01*
X243998761Y-76035619D01*
X244303523Y-76035619D01*
X244379714Y-75997523D01*
X244417809Y-75959428D01*
X244455904Y-75883238D01*
X244455904Y-75730857D01*
X244417809Y-75654666D01*
X244379714Y-75616571D01*
X244303523Y-75578476D01*
X244113047Y-75578476D01*
X244036857Y-75616571D01*
X243998761Y-75654666D01*
X243960666Y-75730857D01*
X243960666Y-75883238D01*
X243998761Y-75959428D01*
X244036857Y-75997523D01*
X244113047Y-76035619D01*
X247630904Y-79337428D02*
X246830904Y-79337428D01*
X246830904Y-79146952D01*
X246869000Y-79032666D01*
X246945190Y-78956476D01*
X247021380Y-78918380D01*
X247173761Y-78880285D01*
X247288047Y-78880285D01*
X247440428Y-78918380D01*
X247516619Y-78956476D01*
X247592809Y-79032666D01*
X247630904Y-79146952D01*
X247630904Y-79337428D01*
X246830904Y-78194571D02*
X246830904Y-78346952D01*
X246869000Y-78423142D01*
X246907095Y-78461238D01*
X247021380Y-78537428D01*
X247173761Y-78575523D01*
X247478523Y-78575523D01*
X247554714Y-78537428D01*
X247592809Y-78499333D01*
X247630904Y-78423142D01*
X247630904Y-78270761D01*
X247592809Y-78194571D01*
X247554714Y-78156476D01*
X247478523Y-78118380D01*
X247288047Y-78118380D01*
X247211857Y-78156476D01*
X247173761Y-78194571D01*
X247135666Y-78270761D01*
X247135666Y-78423142D01*
X247173761Y-78499333D01*
X247211857Y-78537428D01*
X247288047Y-78575523D01*
X246830904Y-77394571D02*
X246830904Y-77775523D01*
X247211857Y-77813619D01*
X247173761Y-77775523D01*
X247135666Y-77699333D01*
X247135666Y-77508857D01*
X247173761Y-77432666D01*
X247211857Y-77394571D01*
X247288047Y-77356476D01*
X247478523Y-77356476D01*
X247554714Y-77394571D01*
X247592809Y-77432666D01*
X247630904Y-77508857D01*
X247630904Y-77699333D01*
X247592809Y-77775523D01*
X247554714Y-77813619D01*
X225659904Y-80861428D02*
X224859904Y-80861428D01*
X224859904Y-80670952D01*
X224898000Y-80556666D01*
X224974190Y-80480476D01*
X225050380Y-80442380D01*
X225202761Y-80404285D01*
X225317047Y-80404285D01*
X225469428Y-80442380D01*
X225545619Y-80480476D01*
X225621809Y-80556666D01*
X225659904Y-80670952D01*
X225659904Y-80861428D01*
X224859904Y-79718571D02*
X224859904Y-79870952D01*
X224898000Y-79947142D01*
X224936095Y-79985238D01*
X225050380Y-80061428D01*
X225202761Y-80099523D01*
X225507523Y-80099523D01*
X225583714Y-80061428D01*
X225621809Y-80023333D01*
X225659904Y-79947142D01*
X225659904Y-79794761D01*
X225621809Y-79718571D01*
X225583714Y-79680476D01*
X225507523Y-79642380D01*
X225317047Y-79642380D01*
X225240857Y-79680476D01*
X225202761Y-79718571D01*
X225164666Y-79794761D01*
X225164666Y-79947142D01*
X225202761Y-80023333D01*
X225240857Y-80061428D01*
X225317047Y-80099523D01*
X224859904Y-79375714D02*
X224859904Y-78842380D01*
X225659904Y-79185238D01*
X241307372Y-75947040D02*
X240507372Y-75947040D01*
X240507372Y-75756564D01*
X240545468Y-75642278D01*
X240621658Y-75566088D01*
X240697848Y-75527992D01*
X240850229Y-75489897D01*
X240964515Y-75489897D01*
X241116896Y-75527992D01*
X241193087Y-75566088D01*
X241269277Y-75642278D01*
X241307372Y-75756564D01*
X241307372Y-75947040D01*
X240507372Y-74804183D02*
X240507372Y-74956564D01*
X240545468Y-75032754D01*
X240583563Y-75070850D01*
X240697848Y-75147040D01*
X240850229Y-75185135D01*
X241154991Y-75185135D01*
X241231182Y-75147040D01*
X241269277Y-75108945D01*
X241307372Y-75032754D01*
X241307372Y-74880373D01*
X241269277Y-74804183D01*
X241231182Y-74766088D01*
X241154991Y-74727992D01*
X240964515Y-74727992D01*
X240888325Y-74766088D01*
X240850229Y-74804183D01*
X240812134Y-74880373D01*
X240812134Y-75032754D01*
X240850229Y-75108945D01*
X240888325Y-75147040D01*
X240964515Y-75185135D01*
X240850229Y-74270850D02*
X240812134Y-74347040D01*
X240774039Y-74385135D01*
X240697848Y-74423231D01*
X240659753Y-74423231D01*
X240583563Y-74385135D01*
X240545468Y-74347040D01*
X240507372Y-74270850D01*
X240507372Y-74118469D01*
X240545468Y-74042278D01*
X240583563Y-74004183D01*
X240659753Y-73966088D01*
X240697848Y-73966088D01*
X240774039Y-74004183D01*
X240812134Y-74042278D01*
X240850229Y-74118469D01*
X240850229Y-74270850D01*
X240888325Y-74347040D01*
X240926420Y-74385135D01*
X241002610Y-74423231D01*
X241154991Y-74423231D01*
X241231182Y-74385135D01*
X241269277Y-74347040D01*
X241307372Y-74270850D01*
X241307372Y-74118469D01*
X241269277Y-74042278D01*
X241231182Y-74004183D01*
X241154991Y-73966088D01*
X241002610Y-73966088D01*
X240926420Y-74004183D01*
X240888325Y-74042278D01*
X240850229Y-74118469D01*
X263300736Y-80907627D02*
X262500736Y-80907627D01*
X262500736Y-80717151D01*
X262538832Y-80602865D01*
X262615022Y-80526675D01*
X262691212Y-80488579D01*
X262843593Y-80450484D01*
X262957879Y-80450484D01*
X263110260Y-80488579D01*
X263186451Y-80526675D01*
X263262641Y-80602865D01*
X263300736Y-80717151D01*
X263300736Y-80907627D01*
X262500736Y-79764770D02*
X262500736Y-79917151D01*
X262538832Y-79993341D01*
X262576927Y-80031437D01*
X262691212Y-80107627D01*
X262843593Y-80145722D01*
X263148355Y-80145722D01*
X263224546Y-80107627D01*
X263262641Y-80069532D01*
X263300736Y-79993341D01*
X263300736Y-79840960D01*
X263262641Y-79764770D01*
X263224546Y-79726675D01*
X263148355Y-79688579D01*
X262957879Y-79688579D01*
X262881689Y-79726675D01*
X262843593Y-79764770D01*
X262805498Y-79840960D01*
X262805498Y-79993341D01*
X262843593Y-80069532D01*
X262881689Y-80107627D01*
X262957879Y-80145722D01*
X263300736Y-79307627D02*
X263300736Y-79155246D01*
X263262641Y-79079056D01*
X263224546Y-79040960D01*
X263110260Y-78964770D01*
X262957879Y-78926675D01*
X262653117Y-78926675D01*
X262576927Y-78964770D01*
X262538832Y-79002865D01*
X262500736Y-79079056D01*
X262500736Y-79231437D01*
X262538832Y-79307627D01*
X262576927Y-79345722D01*
X262653117Y-79383818D01*
X262843593Y-79383818D01*
X262919784Y-79345722D01*
X262957879Y-79307627D01*
X262995974Y-79231437D01*
X262995974Y-79079056D01*
X262957879Y-79002865D01*
X262919784Y-78964770D01*
X262843593Y-78926675D01*
%LPC*%
D15*
X223254308Y-59503020D02*
X62883004Y-59503020D01*
X223254308Y-61986290D02*
X62883004Y-61986290D01*
X223254308Y-64469560D02*
X62883004Y-64469560D01*
D16*
G36*
X354287356Y-69739610D02*
G01*
X354856739Y-69741787D01*
X355426122Y-69743963D01*
X355426122Y-70150363D01*
X354287356Y-70154715D01*
X354287356Y-70814996D01*
X355007023Y-70814996D01*
X355007023Y-71246796D01*
X354287356Y-71246796D01*
X354287356Y-71924010D01*
X354856739Y-71926187D01*
X355426122Y-71928363D01*
X355428385Y-72142146D01*
X355430647Y-72355929D01*
X354287356Y-72355929D01*
X354287356Y-72973996D01*
X353847089Y-72973996D01*
X353847089Y-72355929D01*
X352712556Y-72355929D01*
X352712556Y-71924130D01*
X353847089Y-71924130D01*
X353847089Y-71246796D01*
X353135889Y-71246796D01*
X353135889Y-70814996D01*
X353847089Y-70814996D01*
X353847089Y-70154596D01*
X352712556Y-70154596D01*
X352712556Y-69739730D01*
X353846870Y-69739730D01*
X353851322Y-69151296D01*
X354069339Y-69149037D01*
X354287356Y-69146777D01*
X354287356Y-69739610D01*
G37*
X354287356Y-69739610D02*
X354856739Y-69741787D01*
X355426122Y-69743963D01*
X355426122Y-70150363D01*
X354287356Y-70154715D01*
X354287356Y-70814996D01*
X355007023Y-70814996D01*
X355007023Y-71246796D01*
X354287356Y-71246796D01*
X354287356Y-71924010D01*
X354856739Y-71926187D01*
X355426122Y-71928363D01*
X355428385Y-72142146D01*
X355430647Y-72355929D01*
X354287356Y-72355929D01*
X354287356Y-72973996D01*
X353847089Y-72973996D01*
X353847089Y-72355929D01*
X352712556Y-72355929D01*
X352712556Y-71924130D01*
X353847089Y-71924130D01*
X353847089Y-71246796D01*
X353135889Y-71246796D01*
X353135889Y-70814996D01*
X353847089Y-70814996D01*
X353847089Y-70154596D01*
X352712556Y-70154596D01*
X352712556Y-69739730D01*
X353846870Y-69739730D01*
X353851322Y-69151296D01*
X354069339Y-69149037D01*
X354287356Y-69146777D01*
X354287356Y-69739610D01*
G36*
X58671725Y-69739610D02*
G01*
X59241108Y-69741787D01*
X59810491Y-69743963D01*
X59810491Y-70150363D01*
X58671725Y-70154715D01*
X58671725Y-70814996D01*
X59391392Y-70814996D01*
X59391392Y-71246796D01*
X58671725Y-71246796D01*
X58671725Y-71924010D01*
X59241108Y-71926187D01*
X59810491Y-71928363D01*
X59812754Y-72142146D01*
X59815016Y-72355929D01*
X58671725Y-72355929D01*
X58671725Y-72973996D01*
X58231458Y-72973996D01*
X58231458Y-72355929D01*
X57096925Y-72355929D01*
X57096925Y-71924130D01*
X58231458Y-71924130D01*
X58231458Y-71246796D01*
X57520258Y-71246796D01*
X57520258Y-70814996D01*
X58231458Y-70814996D01*
X58231458Y-70154596D01*
X57096925Y-70154596D01*
X57096925Y-69739730D01*
X58231239Y-69739730D01*
X58235691Y-69151296D01*
X58453708Y-69149037D01*
X58671725Y-69146777D01*
X58671725Y-69739610D01*
G37*
X58671725Y-69739610D02*
X59241108Y-69741787D01*
X59810491Y-69743963D01*
X59810491Y-70150363D01*
X58671725Y-70154715D01*
X58671725Y-70814996D01*
X59391392Y-70814996D01*
X59391392Y-71246796D01*
X58671725Y-71246796D01*
X58671725Y-71924010D01*
X59241108Y-71926187D01*
X59810491Y-71928363D01*
X59812754Y-72142146D01*
X59815016Y-72355929D01*
X58671725Y-72355929D01*
X58671725Y-72973996D01*
X58231458Y-72973996D01*
X58231458Y-72355929D01*
X57096925Y-72355929D01*
X57096925Y-71924130D01*
X58231458Y-71924130D01*
X58231458Y-71246796D01*
X57520258Y-71246796D01*
X57520258Y-70814996D01*
X58231458Y-70814996D01*
X58231458Y-70154596D01*
X57096925Y-70154596D01*
X57096925Y-69739730D01*
X58231239Y-69739730D01*
X58235691Y-69151296D01*
X58453708Y-69149037D01*
X58671725Y-69146777D01*
X58671725Y-69739610D01*
D17*
X354166000Y-94798000D03*
X344006000Y-94798000D03*
D18*
X349086000Y-94798000D03*
D19*
X345276000Y-92258000D03*
X351626000Y-89718000D03*
D20*
X346599500Y-101622000D03*
X351599500Y-101622000D03*
G36*
G01*
X342499500Y-92971000D02*
X344499500Y-92971000D01*
G75*
G02*
X344550500Y-93022000I0J-51000D01*
G01*
X344550500Y-96222000D01*
G75*
G02*
X344499500Y-96273000I-51000J0D01*
G01*
X342499500Y-96273000D01*
G75*
G02*
X342448500Y-96222000I0J51000D01*
G01*
X342448500Y-93022000D01*
G75*
G02*
X342499500Y-92971000I51000J0D01*
G01*
G37*
G36*
G01*
X353699500Y-92971000D02*
X355699500Y-92971000D01*
G75*
G02*
X355750500Y-93022000I0J-51000D01*
G01*
X355750500Y-96222000D01*
G75*
G02*
X355699500Y-96273000I-51000J0D01*
G01*
X353699500Y-96273000D01*
G75*
G02*
X353648500Y-96222000I0J51000D01*
G01*
X353648500Y-93022000D01*
G75*
G02*
X353699500Y-92971000I51000J0D01*
G01*
G37*
X346599500Y-87122000D03*
X349099500Y-87122000D03*
G36*
G01*
X350599500Y-86071000D02*
X352599500Y-86071000D01*
G75*
G02*
X352650500Y-86122000I0J-51000D01*
G01*
X352650500Y-88122000D01*
G75*
G02*
X352599500Y-88173000I-51000J0D01*
G01*
X350599500Y-88173000D01*
G75*
G02*
X350548500Y-88122000I0J51000D01*
G01*
X350548500Y-86122000D01*
G75*
G02*
X350599500Y-86071000I51000J0D01*
G01*
G37*
D19*
X154000000Y-165900000D03*
X147650000Y-168440000D03*
D18*
X151460000Y-170980000D03*
D17*
X146380000Y-170980000D03*
X156540000Y-170980000D03*
D18*
X139560000Y-162740000D03*
X163360000Y-162740000D03*
D21*
X163360000Y-177980000D03*
X139560000Y-177980000D03*
X330035250Y-125873750D03*
X306235250Y-125873750D03*
D18*
X306235250Y-141113750D03*
X330035250Y-141113750D03*
D17*
X323215250Y-132873750D03*
X313055250Y-132873750D03*
D18*
X318135250Y-132873750D03*
D19*
X314325250Y-130333750D03*
X320675250Y-127793750D03*
X323056250Y-89693750D03*
X316706250Y-92233750D03*
D18*
X320516250Y-94773750D03*
D17*
X315436250Y-94773750D03*
X325596250Y-94773750D03*
D18*
X332416250Y-103013750D03*
X308616250Y-103013750D03*
D21*
X308616250Y-87773750D03*
X332416250Y-87773750D03*
D19*
X282790000Y-165883620D03*
X276440000Y-168423620D03*
D18*
X280250000Y-170963620D03*
D17*
X275170000Y-170963620D03*
X285330000Y-170963620D03*
D22*
X206213345Y-61694750D03*
X206213345Y-80444750D03*
X199436000Y-161948000D03*
X206236000Y-103848000D03*
X301436000Y-103848000D03*
X110936000Y-103848000D03*
X320536000Y-161848000D03*
X101436000Y-161948000D03*
X354660309Y-80444750D03*
X354660309Y-61694750D03*
X57766382Y-61694750D03*
X57766382Y-80444750D03*
D23*
X275541929Y-77516199D03*
G36*
G01*
X274741929Y-71585199D02*
X276341929Y-71585199D01*
G75*
G02*
X276392929Y-71636199I0J-51000D01*
G01*
X276392929Y-73236199D01*
G75*
G02*
X276341929Y-73287199I-51000J0D01*
G01*
X274741929Y-73287199D01*
G75*
G02*
X274690929Y-73236199I0J51000D01*
G01*
X274690929Y-71636199D01*
G75*
G02*
X274741929Y-71585199I51000J0D01*
G01*
G37*
D21*
X87147450Y-144923750D03*
X63347450Y-144923750D03*
D18*
X63347450Y-160163750D03*
X87147450Y-160163750D03*
D17*
X80327450Y-151923750D03*
X70167450Y-151923750D03*
D18*
X75247450Y-151923750D03*
D19*
X71437450Y-149383750D03*
X77787450Y-146843750D03*
X65881250Y-89693750D03*
X59531250Y-92233750D03*
D18*
X63341250Y-94773750D03*
D17*
X58261250Y-94773750D03*
X68421250Y-94773750D03*
D19*
X258790000Y-165920000D03*
X252440000Y-168460000D03*
D18*
X256250000Y-171000000D03*
D17*
X251170000Y-171000000D03*
X261330000Y-171000000D03*
D19*
X225350000Y-165900000D03*
X219000000Y-168440000D03*
D18*
X222810000Y-170980000D03*
D17*
X217730000Y-170980000D03*
X227890000Y-170980000D03*
D18*
X210910000Y-162740000D03*
X234710000Y-162740000D03*
D21*
X234710000Y-177980000D03*
X210910000Y-177980000D03*
D19*
X149250000Y-165900000D03*
X142900000Y-168440000D03*
D18*
X146710000Y-170980000D03*
D17*
X141630000Y-170980000D03*
X151790000Y-170980000D03*
D18*
X134810000Y-162740000D03*
X158610000Y-162740000D03*
D21*
X158610000Y-177980000D03*
X134810000Y-177980000D03*
D19*
X220650000Y-165900000D03*
X214300000Y-168440000D03*
D18*
X218110000Y-170980000D03*
D17*
X213030000Y-170980000D03*
X223190000Y-170980000D03*
D18*
X206210000Y-162740000D03*
X230010000Y-162740000D03*
D21*
X230010000Y-177980000D03*
X206210000Y-177980000D03*
D19*
X187325000Y-165925500D03*
X180975000Y-168465500D03*
D18*
X184785000Y-171005500D03*
D17*
X179705000Y-171005500D03*
X189865000Y-171005500D03*
D18*
X134785000Y-162765500D03*
X234785000Y-162765500D03*
D21*
X234785000Y-178005500D03*
X134785000Y-178005500D03*
D23*
X77724000Y-173228000D03*
G36*
G01*
X76924000Y-167297000D02*
X78524000Y-167297000D01*
G75*
G02*
X78575000Y-167348000I0J-51000D01*
G01*
X78575000Y-168948000D01*
G75*
G02*
X78524000Y-168999000I-51000J0D01*
G01*
X76924000Y-168999000D01*
G75*
G02*
X76873000Y-168948000I0J51000D01*
G01*
X76873000Y-167348000D01*
G75*
G02*
X76924000Y-167297000I51000J0D01*
G01*
G37*
D19*
X182500000Y-165900000D03*
X176150000Y-168440000D03*
D18*
X179960000Y-170980000D03*
D17*
X174880000Y-170980000D03*
X185040000Y-170980000D03*
D19*
X192000000Y-165893750D03*
X185650000Y-168433750D03*
D18*
X189460000Y-170973750D03*
D17*
X184380000Y-170973750D03*
X194540000Y-170973750D03*
D23*
X250444000Y-77470000D03*
G36*
G01*
X249644000Y-71539000D02*
X251244000Y-71539000D01*
G75*
G02*
X251295000Y-71590000I0J-51000D01*
G01*
X251295000Y-73190000D01*
G75*
G02*
X251244000Y-73241000I-51000J0D01*
G01*
X249644000Y-73241000D01*
G75*
G02*
X249593000Y-73190000I0J51000D01*
G01*
X249593000Y-71590000D01*
G75*
G02*
X249644000Y-71539000I51000J0D01*
G01*
G37*
X256794000Y-74168000D03*
G36*
G01*
X255994000Y-68237000D02*
X257594000Y-68237000D01*
G75*
G02*
X257645000Y-68288000I0J-51000D01*
G01*
X257645000Y-69888000D01*
G75*
G02*
X257594000Y-69939000I-51000J0D01*
G01*
X255994000Y-69939000D01*
G75*
G02*
X255943000Y-69888000I0J51000D01*
G01*
X255943000Y-68288000D01*
G75*
G02*
X255994000Y-68237000I51000J0D01*
G01*
G37*
D24*
X325471062Y-78716416D03*
X320471062Y-78716416D03*
X330125530Y-58926178D03*
X325125530Y-58926178D03*
G36*
G01*
X285077677Y-71055866D02*
X283877675Y-71055866D01*
G75*
G02*
X283826676Y-71004867I0J50999D01*
G01*
X283826676Y-69804865D01*
G75*
G02*
X283877675Y-69753866I50999J0D01*
G01*
X285077677Y-69753866D01*
G75*
G02*
X285128676Y-69804865I0J-50999D01*
G01*
X285128676Y-71004867D01*
G75*
G02*
X285077677Y-71055866I-50999J0D01*
G01*
G37*
D25*
X284477676Y-68904866D03*
D24*
X327680238Y-79506040D03*
X327680238Y-82006040D03*
X341906112Y-79506040D03*
X341906112Y-82006040D03*
D26*
X290026316Y-78138982D03*
D27*
X295106316Y-78138982D03*
D26*
X290026316Y-75645517D03*
D27*
X295106316Y-75645517D03*
D26*
X290026316Y-73152052D03*
D27*
X295106316Y-73152052D03*
D26*
X295106316Y-70580211D03*
D27*
X290026316Y-70580211D03*
D26*
X295106316Y-68060499D03*
D27*
X290026316Y-68060499D03*
D26*
X295106316Y-65567034D03*
D27*
X290026316Y-65567034D03*
D26*
X290026316Y-63073204D03*
D27*
X295106316Y-63073204D03*
G36*
G01*
X300553430Y-77240182D02*
X298953430Y-77240182D01*
G75*
G02*
X298902430Y-77189182I0J51000D01*
G01*
X298902430Y-75589182D01*
G75*
G02*
X298953430Y-75538182I51000J0D01*
G01*
X300553430Y-75538182D01*
G75*
G02*
X300604430Y-75589182I0J-51000D01*
G01*
X300604430Y-77189182D01*
G75*
G02*
X300553430Y-77240182I-51000J0D01*
G01*
G37*
D23*
X348013430Y-61149182D03*
X302293430Y-76389182D03*
X345473430Y-61149182D03*
X304833430Y-76389182D03*
X342933430Y-61149182D03*
X307373430Y-76389182D03*
X340393430Y-61149182D03*
X309913430Y-76389182D03*
X337853430Y-61149182D03*
X312453430Y-76389182D03*
X335313430Y-61149182D03*
X314993430Y-76389182D03*
X332773430Y-61149182D03*
X317533430Y-76389182D03*
X330233430Y-61149182D03*
X320073430Y-76389182D03*
X327693430Y-61149182D03*
X322613430Y-76389182D03*
X325153430Y-61149182D03*
X325153430Y-76389182D03*
X322613430Y-61149182D03*
X327693430Y-76389182D03*
X320073430Y-61149182D03*
X330233430Y-76389182D03*
X317533430Y-61149182D03*
X332773430Y-76389182D03*
X314993430Y-61149182D03*
X335313430Y-76389182D03*
X312453430Y-61149182D03*
X337853430Y-76389182D03*
X309913430Y-61149182D03*
X340393430Y-76389182D03*
X307373430Y-61149182D03*
X342933430Y-76389182D03*
X304833430Y-61149182D03*
X345473430Y-76389182D03*
X302293430Y-61149182D03*
X348013430Y-76389182D03*
X299753430Y-61149182D03*
G36*
G01*
X256194830Y-59500870D02*
X256194830Y-61200870D01*
G75*
G02*
X256143830Y-61251870I-51000J0D01*
G01*
X254443830Y-61251870D01*
G75*
G02*
X254392830Y-61200870I0J51000D01*
G01*
X254392830Y-59500870D01*
G75*
G02*
X254443830Y-59449870I51000J0D01*
G01*
X256143830Y-59449870D01*
G75*
G02*
X256194830Y-59500870I0J-51000D01*
G01*
G37*
D17*
X255293830Y-62890870D03*
X252753830Y-60350870D03*
X252753830Y-62890870D03*
X250213830Y-60350870D03*
X250213830Y-62890870D03*
D19*
X68262450Y-165883620D03*
X61912450Y-168423620D03*
D18*
X65722450Y-170963620D03*
D17*
X60642450Y-170963620D03*
X70802450Y-170963620D03*
D19*
X92075050Y-165893750D03*
X85725050Y-168433750D03*
D18*
X89535050Y-170973750D03*
D17*
X84455050Y-170973750D03*
X94615050Y-170973750D03*
D19*
X115887450Y-165883620D03*
X109537450Y-168423620D03*
D18*
X113347450Y-170963620D03*
D17*
X108267450Y-170963620D03*
X118427450Y-170963620D03*
D19*
X73025050Y-127783620D03*
X66675050Y-130323620D03*
D18*
X70485050Y-132863620D03*
D17*
X65405050Y-132863620D03*
X75565050Y-132863620D03*
D19*
X306387250Y-146843750D03*
X300037250Y-149383750D03*
D18*
X303847250Y-151923750D03*
D17*
X298767250Y-151923750D03*
X308927250Y-151923750D03*
X73183750Y-113823750D03*
X63023750Y-113823750D03*
D18*
X68103750Y-113823750D03*
D19*
X64293750Y-111283750D03*
X70643750Y-108743750D03*
D17*
X330358250Y-113823750D03*
X320198250Y-113823750D03*
D18*
X325278250Y-113823750D03*
D19*
X321468250Y-111283750D03*
X327818250Y-108743750D03*
X294481250Y-89693750D03*
X288131250Y-92233750D03*
D18*
X291941250Y-94773750D03*
D17*
X286861250Y-94773750D03*
X297021250Y-94773750D03*
D19*
X132556250Y-108743750D03*
X126206250Y-111283750D03*
D18*
X130016250Y-113823750D03*
D17*
X124936250Y-113823750D03*
X135096250Y-113823750D03*
D19*
X84931250Y-89693750D03*
X78581250Y-92233750D03*
D18*
X82391250Y-94773750D03*
D17*
X77311250Y-94773750D03*
X87471250Y-94773750D03*
D19*
X103981250Y-89693750D03*
X97631250Y-92233750D03*
D18*
X101441250Y-94773750D03*
D17*
X96361250Y-94773750D03*
X106521250Y-94773750D03*
D19*
X123031250Y-89693750D03*
X116681250Y-92233750D03*
D18*
X120491250Y-94773750D03*
D17*
X115411250Y-94773750D03*
X125571250Y-94773750D03*
D19*
X142081250Y-89693750D03*
X135731250Y-92233750D03*
D18*
X139541250Y-94773750D03*
D17*
X134461250Y-94773750D03*
X144621250Y-94773750D03*
D19*
X161131250Y-89693750D03*
X154781250Y-92233750D03*
D18*
X158591250Y-94773750D03*
D17*
X153511250Y-94773750D03*
X163671250Y-94773750D03*
D19*
X180181250Y-89693750D03*
X173831250Y-92233750D03*
D18*
X177641250Y-94773750D03*
D17*
X172561250Y-94773750D03*
X182721250Y-94773750D03*
D19*
X199231250Y-89693750D03*
X192881250Y-92233750D03*
D18*
X196691250Y-94773750D03*
D17*
X191611250Y-94773750D03*
X201771250Y-94773750D03*
D19*
X218281250Y-89693750D03*
X211931250Y-92233750D03*
D18*
X215741250Y-94773750D03*
D17*
X210661250Y-94773750D03*
X220821250Y-94773750D03*
D19*
X237331250Y-89693750D03*
X230981250Y-92233750D03*
D18*
X234791250Y-94773750D03*
D17*
X229711250Y-94773750D03*
X239871250Y-94773750D03*
D19*
X256381250Y-89693750D03*
X250031250Y-92233750D03*
D18*
X253841250Y-94773750D03*
D17*
X248761250Y-94773750D03*
X258921250Y-94773750D03*
D19*
X275431250Y-89693750D03*
X269081250Y-92233750D03*
D18*
X272891250Y-94773750D03*
D17*
X267811250Y-94773750D03*
X277971250Y-94773750D03*
D19*
X94456250Y-108743750D03*
X88106250Y-111283750D03*
D18*
X91916250Y-113823750D03*
D17*
X86836250Y-113823750D03*
X96996250Y-113823750D03*
D19*
X113506250Y-108743750D03*
X107156250Y-111283750D03*
D18*
X110966250Y-113823750D03*
D17*
X105886250Y-113823750D03*
X116046250Y-113823750D03*
D19*
X151606250Y-108743750D03*
X145256250Y-111283750D03*
D18*
X149066250Y-113823750D03*
D17*
X143986250Y-113823750D03*
X154146250Y-113823750D03*
D19*
X170656250Y-108743750D03*
X164306250Y-111283750D03*
D18*
X168116250Y-113823750D03*
D17*
X163036250Y-113823750D03*
X173196250Y-113823750D03*
D19*
X189706250Y-108743750D03*
X183356250Y-111283750D03*
D18*
X187166250Y-113823750D03*
D17*
X182086250Y-113823750D03*
X192246250Y-113823750D03*
D19*
X208756250Y-108743750D03*
X202406250Y-111283750D03*
D18*
X206216250Y-113823750D03*
D17*
X201136250Y-113823750D03*
X211296250Y-113823750D03*
D19*
X227806250Y-108743750D03*
X221456250Y-111283750D03*
D18*
X225266250Y-113823750D03*
D17*
X220186250Y-113823750D03*
X230346250Y-113823750D03*
D19*
X246856250Y-108743750D03*
X240506250Y-111283750D03*
D18*
X244316250Y-113823750D03*
D17*
X239236250Y-113823750D03*
X249396250Y-113823750D03*
D19*
X265906250Y-108743750D03*
X259556250Y-111283750D03*
D18*
X263366250Y-113823750D03*
D17*
X258286250Y-113823750D03*
X268446250Y-113823750D03*
D19*
X284956250Y-108743750D03*
X278606250Y-111283750D03*
D18*
X282416250Y-113823750D03*
D17*
X277336250Y-113823750D03*
X287496250Y-113823750D03*
D19*
X304006250Y-108743750D03*
X297656250Y-111283750D03*
D18*
X301466250Y-113823750D03*
D17*
X296386250Y-113823750D03*
X306546250Y-113823750D03*
D19*
X351631250Y-108743750D03*
X345281250Y-111283750D03*
D18*
X349091250Y-113823750D03*
D17*
X344011250Y-113823750D03*
X354171250Y-113823750D03*
D19*
X99218750Y-127793750D03*
X92868750Y-130333750D03*
D18*
X96678750Y-132873750D03*
D17*
X91598750Y-132873750D03*
X101758750Y-132873750D03*
D19*
X118268750Y-127793750D03*
X111918750Y-130333750D03*
D18*
X115728750Y-132873750D03*
D17*
X110648750Y-132873750D03*
X120808750Y-132873750D03*
D19*
X137318750Y-127793750D03*
X130968750Y-130333750D03*
D18*
X134778750Y-132873750D03*
D17*
X129698750Y-132873750D03*
X139858750Y-132873750D03*
D19*
X156368250Y-127793750D03*
X150018250Y-130333750D03*
D18*
X153828250Y-132873750D03*
D17*
X148748250Y-132873750D03*
X158908250Y-132873750D03*
D19*
X175418250Y-127793750D03*
X169068250Y-130333750D03*
D18*
X172878250Y-132873750D03*
D17*
X167798250Y-132873750D03*
X177958250Y-132873750D03*
D19*
X194468250Y-127793750D03*
X188118250Y-130333750D03*
D18*
X191928250Y-132873750D03*
D17*
X186848250Y-132873750D03*
X197008250Y-132873750D03*
D19*
X213518250Y-127793750D03*
X207168250Y-130333750D03*
D18*
X210978250Y-132873750D03*
D17*
X205898250Y-132873750D03*
X216058250Y-132873750D03*
D19*
X232568250Y-127793750D03*
X226218250Y-130333750D03*
D18*
X230028250Y-132873750D03*
D17*
X224948250Y-132873750D03*
X235108250Y-132873750D03*
D19*
X251618250Y-127793750D03*
X245268250Y-130333750D03*
D18*
X249078250Y-132873750D03*
D17*
X243998250Y-132873750D03*
X254158250Y-132873750D03*
D19*
X270668250Y-127793750D03*
X264318250Y-130333750D03*
D18*
X268128250Y-132873750D03*
D17*
X263048250Y-132873750D03*
X273208250Y-132873750D03*
D19*
X289718250Y-127793750D03*
X283368250Y-130333750D03*
D18*
X287178250Y-132873750D03*
D17*
X282098250Y-132873750D03*
X292258250Y-132873750D03*
D19*
X351631250Y-127793750D03*
X345281250Y-130333750D03*
D18*
X349091250Y-132873750D03*
D17*
X344011250Y-132873750D03*
X354171250Y-132873750D03*
D19*
X108743750Y-146843750D03*
X102393750Y-149383750D03*
D18*
X106203750Y-151923750D03*
D17*
X101123750Y-151923750D03*
X111283750Y-151923750D03*
D19*
X127793750Y-146843750D03*
X121443750Y-149383750D03*
D18*
X125253750Y-151923750D03*
D17*
X120173750Y-151923750D03*
X130333750Y-151923750D03*
D19*
X146843750Y-146843750D03*
X140493750Y-149383750D03*
D18*
X144303750Y-151923750D03*
D17*
X139223750Y-151923750D03*
X149383750Y-151923750D03*
D19*
X165894250Y-146843750D03*
X159544250Y-149383750D03*
D18*
X163354250Y-151923750D03*
D17*
X158274250Y-151923750D03*
X168434250Y-151923750D03*
D19*
X184944250Y-146843750D03*
X178594250Y-149383750D03*
D18*
X182404250Y-151923750D03*
D17*
X177324250Y-151923750D03*
X187484250Y-151923750D03*
D19*
X203994250Y-146843750D03*
X197644250Y-149383750D03*
D18*
X201454250Y-151923750D03*
D17*
X196374250Y-151923750D03*
X206534250Y-151923750D03*
D19*
X223044250Y-146843750D03*
X216694250Y-149383750D03*
D18*
X220504250Y-151923750D03*
D17*
X215424250Y-151923750D03*
X225584250Y-151923750D03*
D19*
X242094250Y-146843750D03*
X235744250Y-149383750D03*
D18*
X239554250Y-151923750D03*
D17*
X234474250Y-151923750D03*
X244634250Y-151923750D03*
D19*
X261144250Y-146843750D03*
X254794250Y-149383750D03*
D18*
X258604250Y-151923750D03*
D17*
X253524250Y-151923750D03*
X263684250Y-151923750D03*
D19*
X280194250Y-146843750D03*
X273844250Y-149383750D03*
D18*
X277654250Y-151923750D03*
D17*
X272574250Y-151923750D03*
X282734250Y-151923750D03*
D19*
X332581250Y-146843750D03*
X326231250Y-149383750D03*
D18*
X330041250Y-151923750D03*
D17*
X324961250Y-151923750D03*
X335121250Y-151923750D03*
D19*
X351631250Y-146843750D03*
X345281250Y-149383750D03*
D18*
X349091250Y-151923750D03*
D17*
X344011250Y-151923750D03*
X354171250Y-151923750D03*
D19*
X313531250Y-165893750D03*
X307181250Y-168433750D03*
D18*
X310991250Y-170973750D03*
D17*
X305911250Y-170973750D03*
X316071250Y-170973750D03*
D19*
X332581250Y-165893750D03*
X326231250Y-168433750D03*
D18*
X330041250Y-170973750D03*
D17*
X324961250Y-170973750D03*
X335121250Y-170973750D03*
D19*
X351631250Y-165893750D03*
X345281250Y-168433750D03*
D18*
X349091250Y-170973750D03*
D17*
X344011250Y-170973750D03*
X354171250Y-170973750D03*
D28*
X337251644Y-80256240D03*
X332371644Y-80256240D03*
D29*
X286667716Y-61970830D03*
G36*
G01*
X283176716Y-62870830D02*
X283176716Y-61070830D01*
G75*
G02*
X283227716Y-61019830I51000J0D01*
G01*
X285027716Y-61019830D01*
G75*
G02*
X285078716Y-61070830I0J-51000D01*
G01*
X285078716Y-62870830D01*
G75*
G02*
X285027716Y-62921830I-51000J0D01*
G01*
X283227716Y-62921830D01*
G75*
G02*
X283176716Y-62870830I0J51000D01*
G01*
G37*
D30*
X278823468Y-66391022D03*
X280523468Y-66391022D03*
X279673468Y-66391022D03*
X277973468Y-66391022D03*
X277123468Y-66391022D03*
X276273468Y-66391022D03*
X275423468Y-66391022D03*
X274573468Y-66391022D03*
X280523468Y-65066022D03*
X279668468Y-65066022D03*
X278818468Y-65066022D03*
X277968468Y-65066022D03*
X277118468Y-65066022D03*
X276268468Y-65066022D03*
X275418468Y-65066022D03*
X274568468Y-65066022D03*
D31*
X281873468Y-65411022D03*
X273223468Y-65411022D03*
D32*
X281873468Y-62031022D03*
X273223468Y-62031022D03*
D27*
X270047614Y-59350838D03*
X270047614Y-64450838D03*
D20*
X244985732Y-59836074D03*
X244985732Y-64336074D03*
X238485732Y-59836074D03*
X238485732Y-64336074D03*
X232985732Y-59836074D03*
X232985732Y-64336074D03*
X226485732Y-59836074D03*
X226485732Y-64336074D03*
D23*
X63600284Y-72555612D03*
G36*
G01*
X62800284Y-66624612D02*
X64400284Y-66624612D01*
G75*
G02*
X64451284Y-66675612I0J-51000D01*
G01*
X64451284Y-68275612D01*
G75*
G02*
X64400284Y-68326612I-51000J0D01*
G01*
X62800284Y-68326612D01*
G75*
G02*
X62749284Y-68275612I0J51000D01*
G01*
X62749284Y-66675612D01*
G75*
G02*
X62800284Y-66624612I51000J0D01*
G01*
G37*
X73108673Y-77516199D03*
G36*
G01*
X72308673Y-71585199D02*
X73908673Y-71585199D01*
G75*
G02*
X73959673Y-71636199I0J-51000D01*
G01*
X73959673Y-73236199D01*
G75*
G02*
X73908673Y-73287199I-51000J0D01*
G01*
X72308673Y-73287199D01*
G75*
G02*
X72257673Y-73236199I0J51000D01*
G01*
X72257673Y-71636199D01*
G75*
G02*
X72308673Y-71585199I51000J0D01*
G01*
G37*
X85786525Y-77516199D03*
G36*
G01*
X84986525Y-71585199D02*
X86586525Y-71585199D01*
G75*
G02*
X86637525Y-71636199I0J-51000D01*
G01*
X86637525Y-73236199D01*
G75*
G02*
X86586525Y-73287199I-51000J0D01*
G01*
X84986525Y-73287199D01*
G75*
G02*
X84935525Y-73236199I0J51000D01*
G01*
X84935525Y-71636199D01*
G75*
G02*
X84986525Y-71585199I51000J0D01*
G01*
G37*
X88955988Y-72555612D03*
G36*
G01*
X88155988Y-66624612D02*
X89755988Y-66624612D01*
G75*
G02*
X89806988Y-66675612I0J-51000D01*
G01*
X89806988Y-68275612D01*
G75*
G02*
X89755988Y-68326612I-51000J0D01*
G01*
X88155988Y-68326612D01*
G75*
G02*
X88104988Y-68275612I0J51000D01*
G01*
X88104988Y-66675612D01*
G75*
G02*
X88155988Y-66624612I51000J0D01*
G01*
G37*
X101633840Y-72555612D03*
G36*
G01*
X100833840Y-66624612D02*
X102433840Y-66624612D01*
G75*
G02*
X102484840Y-66675612I0J-51000D01*
G01*
X102484840Y-68275612D01*
G75*
G02*
X102433840Y-68326612I-51000J0D01*
G01*
X100833840Y-68326612D01*
G75*
G02*
X100782840Y-68275612I0J51000D01*
G01*
X100782840Y-66675612D01*
G75*
G02*
X100833840Y-66624612I51000J0D01*
G01*
G37*
X114311692Y-72555612D03*
G36*
G01*
X113511692Y-66624612D02*
X115111692Y-66624612D01*
G75*
G02*
X115162692Y-66675612I0J-51000D01*
G01*
X115162692Y-68275612D01*
G75*
G02*
X115111692Y-68326612I-51000J0D01*
G01*
X113511692Y-68326612D01*
G75*
G02*
X113460692Y-68275612I0J51000D01*
G01*
X113460692Y-66675612D01*
G75*
G02*
X113511692Y-66624612I51000J0D01*
G01*
G37*
X126989544Y-72555612D03*
G36*
G01*
X126189544Y-66624612D02*
X127789544Y-66624612D01*
G75*
G02*
X127840544Y-66675612I0J-51000D01*
G01*
X127840544Y-68275612D01*
G75*
G02*
X127789544Y-68326612I-51000J0D01*
G01*
X126189544Y-68326612D01*
G75*
G02*
X126138544Y-68275612I0J51000D01*
G01*
X126138544Y-66675612D01*
G75*
G02*
X126189544Y-66624612I51000J0D01*
G01*
G37*
X139667396Y-72555612D03*
G36*
G01*
X138867396Y-66624612D02*
X140467396Y-66624612D01*
G75*
G02*
X140518396Y-66675612I0J-51000D01*
G01*
X140518396Y-68275612D01*
G75*
G02*
X140467396Y-68326612I-51000J0D01*
G01*
X138867396Y-68326612D01*
G75*
G02*
X138816396Y-68275612I0J51000D01*
G01*
X138816396Y-66675612D01*
G75*
G02*
X138867396Y-66624612I51000J0D01*
G01*
G37*
X152345248Y-72555612D03*
G36*
G01*
X151545248Y-66624612D02*
X153145248Y-66624612D01*
G75*
G02*
X153196248Y-66675612I0J-51000D01*
G01*
X153196248Y-68275612D01*
G75*
G02*
X153145248Y-68326612I-51000J0D01*
G01*
X151545248Y-68326612D01*
G75*
G02*
X151494248Y-68275612I0J51000D01*
G01*
X151494248Y-66675612D01*
G75*
G02*
X151545248Y-66624612I51000J0D01*
G01*
G37*
X165023100Y-72555612D03*
G36*
G01*
X164223100Y-66624612D02*
X165823100Y-66624612D01*
G75*
G02*
X165874100Y-66675612I0J-51000D01*
G01*
X165874100Y-68275612D01*
G75*
G02*
X165823100Y-68326612I-51000J0D01*
G01*
X164223100Y-68326612D01*
G75*
G02*
X164172100Y-68275612I0J51000D01*
G01*
X164172100Y-66675612D01*
G75*
G02*
X164223100Y-66624612I51000J0D01*
G01*
G37*
X177700952Y-72555612D03*
G36*
G01*
X176900952Y-66624612D02*
X178500952Y-66624612D01*
G75*
G02*
X178551952Y-66675612I0J-51000D01*
G01*
X178551952Y-68275612D01*
G75*
G02*
X178500952Y-68326612I-51000J0D01*
G01*
X176900952Y-68326612D01*
G75*
G02*
X176849952Y-68275612I0J51000D01*
G01*
X176849952Y-66675612D01*
G75*
G02*
X176900952Y-66624612I51000J0D01*
G01*
G37*
X190378804Y-72555612D03*
G36*
G01*
X189578804Y-66624612D02*
X191178804Y-66624612D01*
G75*
G02*
X191229804Y-66675612I0J-51000D01*
G01*
X191229804Y-68275612D01*
G75*
G02*
X191178804Y-68326612I-51000J0D01*
G01*
X189578804Y-68326612D01*
G75*
G02*
X189527804Y-68275612I0J51000D01*
G01*
X189527804Y-66675612D01*
G75*
G02*
X189578804Y-66624612I51000J0D01*
G01*
G37*
X203056656Y-72555612D03*
G36*
G01*
X202256656Y-66624612D02*
X203856656Y-66624612D01*
G75*
G02*
X203907656Y-66675612I0J-51000D01*
G01*
X203907656Y-68275612D01*
G75*
G02*
X203856656Y-68326612I-51000J0D01*
G01*
X202256656Y-68326612D01*
G75*
G02*
X202205656Y-68275612I0J51000D01*
G01*
X202205656Y-66675612D01*
G75*
G02*
X202256656Y-66624612I51000J0D01*
G01*
G37*
X215734508Y-72555612D03*
G36*
G01*
X214934508Y-66624612D02*
X216534508Y-66624612D01*
G75*
G02*
X216585508Y-66675612I0J-51000D01*
G01*
X216585508Y-68275612D01*
G75*
G02*
X216534508Y-68326612I-51000J0D01*
G01*
X214934508Y-68326612D01*
G75*
G02*
X214883508Y-68275612I0J51000D01*
G01*
X214883508Y-66675612D01*
G75*
G02*
X214934508Y-66624612I51000J0D01*
G01*
G37*
X228342376Y-72555612D03*
G36*
G01*
X227542376Y-66624612D02*
X229142376Y-66624612D01*
G75*
G02*
X229193376Y-66675612I0J-51000D01*
G01*
X229193376Y-68275612D01*
G75*
G02*
X229142376Y-68326612I-51000J0D01*
G01*
X227542376Y-68326612D01*
G75*
G02*
X227491376Y-68275612I0J51000D01*
G01*
X227491376Y-66675612D01*
G75*
G02*
X227542376Y-66624612I51000J0D01*
G01*
G37*
X66769747Y-74209141D03*
G36*
G01*
X65969747Y-68278141D02*
X67569747Y-68278141D01*
G75*
G02*
X67620747Y-68329141I0J-51000D01*
G01*
X67620747Y-69929141D01*
G75*
G02*
X67569747Y-69980141I-51000J0D01*
G01*
X65969747Y-69980141D01*
G75*
G02*
X65918747Y-69929141I0J51000D01*
G01*
X65918747Y-68329141D01*
G75*
G02*
X65969747Y-68278141I51000J0D01*
G01*
G37*
X82617062Y-75862670D03*
G36*
G01*
X81817062Y-69931670D02*
X83417062Y-69931670D01*
G75*
G02*
X83468062Y-69982670I0J-51000D01*
G01*
X83468062Y-71582670D01*
G75*
G02*
X83417062Y-71633670I-51000J0D01*
G01*
X81817062Y-71633670D01*
G75*
G02*
X81766062Y-71582670I0J51000D01*
G01*
X81766062Y-69982670D01*
G75*
G02*
X81817062Y-69931670I51000J0D01*
G01*
G37*
X92125451Y-74209141D03*
G36*
G01*
X91325451Y-68278141D02*
X92925451Y-68278141D01*
G75*
G02*
X92976451Y-68329141I0J-51000D01*
G01*
X92976451Y-69929141D01*
G75*
G02*
X92925451Y-69980141I-51000J0D01*
G01*
X91325451Y-69980141D01*
G75*
G02*
X91274451Y-69929141I0J51000D01*
G01*
X91274451Y-68329141D01*
G75*
G02*
X91325451Y-68278141I51000J0D01*
G01*
G37*
X104803303Y-74209141D03*
G36*
G01*
X104003303Y-68278141D02*
X105603303Y-68278141D01*
G75*
G02*
X105654303Y-68329141I0J-51000D01*
G01*
X105654303Y-69929141D01*
G75*
G02*
X105603303Y-69980141I-51000J0D01*
G01*
X104003303Y-69980141D01*
G75*
G02*
X103952303Y-69929141I0J51000D01*
G01*
X103952303Y-68329141D01*
G75*
G02*
X104003303Y-68278141I51000J0D01*
G01*
G37*
X117481155Y-74209141D03*
G36*
G01*
X116681155Y-68278141D02*
X118281155Y-68278141D01*
G75*
G02*
X118332155Y-68329141I0J-51000D01*
G01*
X118332155Y-69929141D01*
G75*
G02*
X118281155Y-69980141I-51000J0D01*
G01*
X116681155Y-69980141D01*
G75*
G02*
X116630155Y-69929141I0J51000D01*
G01*
X116630155Y-68329141D01*
G75*
G02*
X116681155Y-68278141I51000J0D01*
G01*
G37*
X130159007Y-74209141D03*
G36*
G01*
X129359007Y-68278141D02*
X130959007Y-68278141D01*
G75*
G02*
X131010007Y-68329141I0J-51000D01*
G01*
X131010007Y-69929141D01*
G75*
G02*
X130959007Y-69980141I-51000J0D01*
G01*
X129359007Y-69980141D01*
G75*
G02*
X129308007Y-69929141I0J51000D01*
G01*
X129308007Y-68329141D01*
G75*
G02*
X129359007Y-68278141I51000J0D01*
G01*
G37*
X142836859Y-74209141D03*
G36*
G01*
X142036859Y-68278141D02*
X143636859Y-68278141D01*
G75*
G02*
X143687859Y-68329141I0J-51000D01*
G01*
X143687859Y-69929141D01*
G75*
G02*
X143636859Y-69980141I-51000J0D01*
G01*
X142036859Y-69980141D01*
G75*
G02*
X141985859Y-69929141I0J51000D01*
G01*
X141985859Y-68329141D01*
G75*
G02*
X142036859Y-68278141I51000J0D01*
G01*
G37*
X155514711Y-74209141D03*
G36*
G01*
X154714711Y-68278141D02*
X156314711Y-68278141D01*
G75*
G02*
X156365711Y-68329141I0J-51000D01*
G01*
X156365711Y-69929141D01*
G75*
G02*
X156314711Y-69980141I-51000J0D01*
G01*
X154714711Y-69980141D01*
G75*
G02*
X154663711Y-69929141I0J51000D01*
G01*
X154663711Y-68329141D01*
G75*
G02*
X154714711Y-68278141I51000J0D01*
G01*
G37*
X168192563Y-74209141D03*
G36*
G01*
X167392563Y-68278141D02*
X168992563Y-68278141D01*
G75*
G02*
X169043563Y-68329141I0J-51000D01*
G01*
X169043563Y-69929141D01*
G75*
G02*
X168992563Y-69980141I-51000J0D01*
G01*
X167392563Y-69980141D01*
G75*
G02*
X167341563Y-69929141I0J51000D01*
G01*
X167341563Y-68329141D01*
G75*
G02*
X167392563Y-68278141I51000J0D01*
G01*
G37*
X180870415Y-74209141D03*
G36*
G01*
X180070415Y-68278141D02*
X181670415Y-68278141D01*
G75*
G02*
X181721415Y-68329141I0J-51000D01*
G01*
X181721415Y-69929141D01*
G75*
G02*
X181670415Y-69980141I-51000J0D01*
G01*
X180070415Y-69980141D01*
G75*
G02*
X180019415Y-69929141I0J51000D01*
G01*
X180019415Y-68329141D01*
G75*
G02*
X180070415Y-68278141I51000J0D01*
G01*
G37*
X193548267Y-74209141D03*
G36*
G01*
X192748267Y-68278141D02*
X194348267Y-68278141D01*
G75*
G02*
X194399267Y-68329141I0J-51000D01*
G01*
X194399267Y-69929141D01*
G75*
G02*
X194348267Y-69980141I-51000J0D01*
G01*
X192748267Y-69980141D01*
G75*
G02*
X192697267Y-69929141I0J51000D01*
G01*
X192697267Y-68329141D01*
G75*
G02*
X192748267Y-68278141I51000J0D01*
G01*
G37*
X206226119Y-74209141D03*
G36*
G01*
X205426119Y-68278141D02*
X207026119Y-68278141D01*
G75*
G02*
X207077119Y-68329141I0J-51000D01*
G01*
X207077119Y-69929141D01*
G75*
G02*
X207026119Y-69980141I-51000J0D01*
G01*
X205426119Y-69980141D01*
G75*
G02*
X205375119Y-69929141I0J51000D01*
G01*
X205375119Y-68329141D01*
G75*
G02*
X205426119Y-68278141I51000J0D01*
G01*
G37*
X218886475Y-74209141D03*
G36*
G01*
X218086475Y-68278141D02*
X219686475Y-68278141D01*
G75*
G02*
X219737475Y-68329141I0J-51000D01*
G01*
X219737475Y-69929141D01*
G75*
G02*
X219686475Y-69980141I-51000J0D01*
G01*
X218086475Y-69980141D01*
G75*
G02*
X218035475Y-69929141I0J51000D01*
G01*
X218035475Y-68329141D01*
G75*
G02*
X218086475Y-68278141I51000J0D01*
G01*
G37*
X231493149Y-74209141D03*
G36*
G01*
X230693149Y-68278141D02*
X232293149Y-68278141D01*
G75*
G02*
X232344149Y-68329141I0J-51000D01*
G01*
X232344149Y-69929141D01*
G75*
G02*
X232293149Y-69980141I-51000J0D01*
G01*
X230693149Y-69980141D01*
G75*
G02*
X230642149Y-69929141I0J51000D01*
G01*
X230642149Y-68329141D01*
G75*
G02*
X230693149Y-68278141I51000J0D01*
G01*
G37*
X272453205Y-75862670D03*
G36*
G01*
X271653205Y-69931670D02*
X273253205Y-69931670D01*
G75*
G02*
X273304205Y-69982670I0J-51000D01*
G01*
X273304205Y-71582670D01*
G75*
G02*
X273253205Y-71633670I-51000J0D01*
G01*
X271653205Y-71633670D01*
G75*
G02*
X271602205Y-71582670I0J51000D01*
G01*
X271602205Y-69982670D01*
G75*
G02*
X271653205Y-69931670I51000J0D01*
G01*
G37*
X69939210Y-75862670D03*
G36*
G01*
X69139210Y-69931670D02*
X70739210Y-69931670D01*
G75*
G02*
X70790210Y-69982670I0J-51000D01*
G01*
X70790210Y-71582670D01*
G75*
G02*
X70739210Y-71633670I-51000J0D01*
G01*
X69139210Y-71633670D01*
G75*
G02*
X69088210Y-71582670I0J51000D01*
G01*
X69088210Y-69982670D01*
G75*
G02*
X69139210Y-69931670I51000J0D01*
G01*
G37*
X79447599Y-74209141D03*
G36*
G01*
X78647599Y-68278141D02*
X80247599Y-68278141D01*
G75*
G02*
X80298599Y-68329141I0J-51000D01*
G01*
X80298599Y-69929141D01*
G75*
G02*
X80247599Y-69980141I-51000J0D01*
G01*
X78647599Y-69980141D01*
G75*
G02*
X78596599Y-69929141I0J51000D01*
G01*
X78596599Y-68329141D01*
G75*
G02*
X78647599Y-68278141I51000J0D01*
G01*
G37*
X95294914Y-75862670D03*
G36*
G01*
X94494914Y-69931670D02*
X96094914Y-69931670D01*
G75*
G02*
X96145914Y-69982670I0J-51000D01*
G01*
X96145914Y-71582670D01*
G75*
G02*
X96094914Y-71633670I-51000J0D01*
G01*
X94494914Y-71633670D01*
G75*
G02*
X94443914Y-71582670I0J51000D01*
G01*
X94443914Y-69982670D01*
G75*
G02*
X94494914Y-69931670I51000J0D01*
G01*
G37*
X107972766Y-75862670D03*
G36*
G01*
X107172766Y-69931670D02*
X108772766Y-69931670D01*
G75*
G02*
X108823766Y-69982670I0J-51000D01*
G01*
X108823766Y-71582670D01*
G75*
G02*
X108772766Y-71633670I-51000J0D01*
G01*
X107172766Y-71633670D01*
G75*
G02*
X107121766Y-71582670I0J51000D01*
G01*
X107121766Y-69982670D01*
G75*
G02*
X107172766Y-69931670I51000J0D01*
G01*
G37*
X120650618Y-75862670D03*
G36*
G01*
X119850618Y-69931670D02*
X121450618Y-69931670D01*
G75*
G02*
X121501618Y-69982670I0J-51000D01*
G01*
X121501618Y-71582670D01*
G75*
G02*
X121450618Y-71633670I-51000J0D01*
G01*
X119850618Y-71633670D01*
G75*
G02*
X119799618Y-71582670I0J51000D01*
G01*
X119799618Y-69982670D01*
G75*
G02*
X119850618Y-69931670I51000J0D01*
G01*
G37*
X133328470Y-75862670D03*
G36*
G01*
X132528470Y-69931670D02*
X134128470Y-69931670D01*
G75*
G02*
X134179470Y-69982670I0J-51000D01*
G01*
X134179470Y-71582670D01*
G75*
G02*
X134128470Y-71633670I-51000J0D01*
G01*
X132528470Y-71633670D01*
G75*
G02*
X132477470Y-71582670I0J51000D01*
G01*
X132477470Y-69982670D01*
G75*
G02*
X132528470Y-69931670I51000J0D01*
G01*
G37*
X146006322Y-75862670D03*
G36*
G01*
X145206322Y-69931670D02*
X146806322Y-69931670D01*
G75*
G02*
X146857322Y-69982670I0J-51000D01*
G01*
X146857322Y-71582670D01*
G75*
G02*
X146806322Y-71633670I-51000J0D01*
G01*
X145206322Y-71633670D01*
G75*
G02*
X145155322Y-71582670I0J51000D01*
G01*
X145155322Y-69982670D01*
G75*
G02*
X145206322Y-69931670I51000J0D01*
G01*
G37*
X158684174Y-75862670D03*
G36*
G01*
X157884174Y-69931670D02*
X159484174Y-69931670D01*
G75*
G02*
X159535174Y-69982670I0J-51000D01*
G01*
X159535174Y-71582670D01*
G75*
G02*
X159484174Y-71633670I-51000J0D01*
G01*
X157884174Y-71633670D01*
G75*
G02*
X157833174Y-71582670I0J51000D01*
G01*
X157833174Y-69982670D01*
G75*
G02*
X157884174Y-69931670I51000J0D01*
G01*
G37*
X171362026Y-75862670D03*
G36*
G01*
X170562026Y-69931670D02*
X172162026Y-69931670D01*
G75*
G02*
X172213026Y-69982670I0J-51000D01*
G01*
X172213026Y-71582670D01*
G75*
G02*
X172162026Y-71633670I-51000J0D01*
G01*
X170562026Y-71633670D01*
G75*
G02*
X170511026Y-71582670I0J51000D01*
G01*
X170511026Y-69982670D01*
G75*
G02*
X170562026Y-69931670I51000J0D01*
G01*
G37*
X184039878Y-75862670D03*
G36*
G01*
X183239878Y-69931670D02*
X184839878Y-69931670D01*
G75*
G02*
X184890878Y-69982670I0J-51000D01*
G01*
X184890878Y-71582670D01*
G75*
G02*
X184839878Y-71633670I-51000J0D01*
G01*
X183239878Y-71633670D01*
G75*
G02*
X183188878Y-71582670I0J51000D01*
G01*
X183188878Y-69982670D01*
G75*
G02*
X183239878Y-69931670I51000J0D01*
G01*
G37*
X196717730Y-75862670D03*
G36*
G01*
X195917730Y-69931670D02*
X197517730Y-69931670D01*
G75*
G02*
X197568730Y-69982670I0J-51000D01*
G01*
X197568730Y-71582670D01*
G75*
G02*
X197517730Y-71633670I-51000J0D01*
G01*
X195917730Y-71633670D01*
G75*
G02*
X195866730Y-71582670I0J51000D01*
G01*
X195866730Y-69982670D01*
G75*
G02*
X195917730Y-69931670I51000J0D01*
G01*
G37*
X209395582Y-75862670D03*
G36*
G01*
X208595582Y-69931670D02*
X210195582Y-69931670D01*
G75*
G02*
X210246582Y-69982670I0J-51000D01*
G01*
X210246582Y-71582670D01*
G75*
G02*
X210195582Y-71633670I-51000J0D01*
G01*
X208595582Y-71633670D01*
G75*
G02*
X208544582Y-71582670I0J51000D01*
G01*
X208544582Y-69982670D01*
G75*
G02*
X208595582Y-69931670I51000J0D01*
G01*
G37*
X234643922Y-75862670D03*
G36*
G01*
X233843922Y-69931670D02*
X235443922Y-69931670D01*
G75*
G02*
X235494922Y-69982670I0J-51000D01*
G01*
X235494922Y-71582670D01*
G75*
G02*
X235443922Y-71633670I-51000J0D01*
G01*
X233843922Y-71633670D01*
G75*
G02*
X233792922Y-71582670I0J51000D01*
G01*
X233792922Y-69982670D01*
G75*
G02*
X233843922Y-69931670I51000J0D01*
G01*
G37*
X269364481Y-74209141D03*
G36*
G01*
X268564481Y-68278141D02*
X270164481Y-68278141D01*
G75*
G02*
X270215481Y-68329141I0J-51000D01*
G01*
X270215481Y-69929141D01*
G75*
G02*
X270164481Y-69980141I-51000J0D01*
G01*
X268564481Y-69980141D01*
G75*
G02*
X268513481Y-69929141I0J51000D01*
G01*
X268513481Y-68329141D01*
G75*
G02*
X268564481Y-68278141I51000J0D01*
G01*
G37*
X98464377Y-77516199D03*
G36*
G01*
X97664377Y-71585199D02*
X99264377Y-71585199D01*
G75*
G02*
X99315377Y-71636199I0J-51000D01*
G01*
X99315377Y-73236199D01*
G75*
G02*
X99264377Y-73287199I-51000J0D01*
G01*
X97664377Y-73287199D01*
G75*
G02*
X97613377Y-73236199I0J51000D01*
G01*
X97613377Y-71636199D01*
G75*
G02*
X97664377Y-71585199I51000J0D01*
G01*
G37*
X111142229Y-77516199D03*
G36*
G01*
X110342229Y-71585199D02*
X111942229Y-71585199D01*
G75*
G02*
X111993229Y-71636199I0J-51000D01*
G01*
X111993229Y-73236199D01*
G75*
G02*
X111942229Y-73287199I-51000J0D01*
G01*
X110342229Y-73287199D01*
G75*
G02*
X110291229Y-73236199I0J51000D01*
G01*
X110291229Y-71636199D01*
G75*
G02*
X110342229Y-71585199I51000J0D01*
G01*
G37*
X123820081Y-77516199D03*
G36*
G01*
X123020081Y-71585199D02*
X124620081Y-71585199D01*
G75*
G02*
X124671081Y-71636199I0J-51000D01*
G01*
X124671081Y-73236199D01*
G75*
G02*
X124620081Y-73287199I-51000J0D01*
G01*
X123020081Y-73287199D01*
G75*
G02*
X122969081Y-73236199I0J51000D01*
G01*
X122969081Y-71636199D01*
G75*
G02*
X123020081Y-71585199I51000J0D01*
G01*
G37*
X136497933Y-77516199D03*
G36*
G01*
X135697933Y-71585199D02*
X137297933Y-71585199D01*
G75*
G02*
X137348933Y-71636199I0J-51000D01*
G01*
X137348933Y-73236199D01*
G75*
G02*
X137297933Y-73287199I-51000J0D01*
G01*
X135697933Y-73287199D01*
G75*
G02*
X135646933Y-73236199I0J51000D01*
G01*
X135646933Y-71636199D01*
G75*
G02*
X135697933Y-71585199I51000J0D01*
G01*
G37*
X149175785Y-77516199D03*
G36*
G01*
X148375785Y-71585199D02*
X149975785Y-71585199D01*
G75*
G02*
X150026785Y-71636199I0J-51000D01*
G01*
X150026785Y-73236199D01*
G75*
G02*
X149975785Y-73287199I-51000J0D01*
G01*
X148375785Y-73287199D01*
G75*
G02*
X148324785Y-73236199I0J51000D01*
G01*
X148324785Y-71636199D01*
G75*
G02*
X148375785Y-71585199I51000J0D01*
G01*
G37*
X161853637Y-77516199D03*
G36*
G01*
X161053637Y-71585199D02*
X162653637Y-71585199D01*
G75*
G02*
X162704637Y-71636199I0J-51000D01*
G01*
X162704637Y-73236199D01*
G75*
G02*
X162653637Y-73287199I-51000J0D01*
G01*
X161053637Y-73287199D01*
G75*
G02*
X161002637Y-73236199I0J51000D01*
G01*
X161002637Y-71636199D01*
G75*
G02*
X161053637Y-71585199I51000J0D01*
G01*
G37*
X174531489Y-77516199D03*
G36*
G01*
X173731489Y-71585199D02*
X175331489Y-71585199D01*
G75*
G02*
X175382489Y-71636199I0J-51000D01*
G01*
X175382489Y-73236199D01*
G75*
G02*
X175331489Y-73287199I-51000J0D01*
G01*
X173731489Y-73287199D01*
G75*
G02*
X173680489Y-73236199I0J51000D01*
G01*
X173680489Y-71636199D01*
G75*
G02*
X173731489Y-71585199I51000J0D01*
G01*
G37*
X187209341Y-77516199D03*
G36*
G01*
X186409341Y-71585199D02*
X188009341Y-71585199D01*
G75*
G02*
X188060341Y-71636199I0J-51000D01*
G01*
X188060341Y-73236199D01*
G75*
G02*
X188009341Y-73287199I-51000J0D01*
G01*
X186409341Y-73287199D01*
G75*
G02*
X186358341Y-73236199I0J51000D01*
G01*
X186358341Y-71636199D01*
G75*
G02*
X186409341Y-71585199I51000J0D01*
G01*
G37*
X199887193Y-77516199D03*
G36*
G01*
X199087193Y-71585199D02*
X200687193Y-71585199D01*
G75*
G02*
X200738193Y-71636199I0J-51000D01*
G01*
X200738193Y-73236199D01*
G75*
G02*
X200687193Y-73287199I-51000J0D01*
G01*
X199087193Y-73287199D01*
G75*
G02*
X199036193Y-73236199I0J51000D01*
G01*
X199036193Y-71636199D01*
G75*
G02*
X199087193Y-71585199I51000J0D01*
G01*
G37*
X212565045Y-77516199D03*
G36*
G01*
X211765045Y-71585199D02*
X213365045Y-71585199D01*
G75*
G02*
X213416045Y-71636199I0J-51000D01*
G01*
X213416045Y-73236199D01*
G75*
G02*
X213365045Y-73287199I-51000J0D01*
G01*
X211765045Y-73287199D01*
G75*
G02*
X211714045Y-73236199I0J51000D01*
G01*
X211714045Y-71636199D01*
G75*
G02*
X211765045Y-71585199I51000J0D01*
G01*
G37*
X222038442Y-75862670D03*
G36*
G01*
X221238442Y-69931670D02*
X222838442Y-69931670D01*
G75*
G02*
X222889442Y-69982670I0J-51000D01*
G01*
X222889442Y-71582670D01*
G75*
G02*
X222838442Y-71633670I-51000J0D01*
G01*
X221238442Y-71633670D01*
G75*
G02*
X221187442Y-71582670I0J51000D01*
G01*
X221187442Y-69982670D01*
G75*
G02*
X221238442Y-69931670I51000J0D01*
G01*
G37*
X237794695Y-77516199D03*
G36*
G01*
X236994695Y-71585199D02*
X238594695Y-71585199D01*
G75*
G02*
X238645695Y-71636199I0J-51000D01*
G01*
X238645695Y-73236199D01*
G75*
G02*
X238594695Y-73287199I-51000J0D01*
G01*
X236994695Y-73287199D01*
G75*
G02*
X236943695Y-73236199I0J51000D01*
G01*
X236943695Y-71636199D01*
G75*
G02*
X236994695Y-71585199I51000J0D01*
G01*
G37*
X266089606Y-72555612D03*
G36*
G01*
X265289606Y-66624612D02*
X266889606Y-66624612D01*
G75*
G02*
X266940606Y-66675612I0J-51000D01*
G01*
X266940606Y-68275612D01*
G75*
G02*
X266889606Y-68326612I-51000J0D01*
G01*
X265289606Y-68326612D01*
G75*
G02*
X265238606Y-68275612I0J51000D01*
G01*
X265238606Y-66675612D01*
G75*
G02*
X265289606Y-66624612I51000J0D01*
G01*
G37*
X76278136Y-72555612D03*
G36*
G01*
X75478136Y-66624612D02*
X77078136Y-66624612D01*
G75*
G02*
X77129136Y-66675612I0J-51000D01*
G01*
X77129136Y-68275612D01*
G75*
G02*
X77078136Y-68326612I-51000J0D01*
G01*
X75478136Y-68326612D01*
G75*
G02*
X75427136Y-68275612I0J51000D01*
G01*
X75427136Y-66675612D01*
G75*
G02*
X75478136Y-66624612I51000J0D01*
G01*
G37*
X259842000Y-75946000D03*
G36*
G01*
X259042000Y-70015000D02*
X260642000Y-70015000D01*
G75*
G02*
X260693000Y-70066000I0J-51000D01*
G01*
X260693000Y-71666000D01*
G75*
G02*
X260642000Y-71717000I-51000J0D01*
G01*
X259042000Y-71717000D01*
G75*
G02*
X258991000Y-71666000I0J51000D01*
G01*
X258991000Y-70066000D01*
G75*
G02*
X259042000Y-70015000I51000J0D01*
G01*
G37*
X253486511Y-72555612D03*
G36*
G01*
X252686511Y-66624612D02*
X254286511Y-66624612D01*
G75*
G02*
X254337511Y-66675612I0J-51000D01*
G01*
X254337511Y-68275612D01*
G75*
G02*
X254286511Y-68326612I-51000J0D01*
G01*
X252686511Y-68326612D01*
G75*
G02*
X252635511Y-68275612I0J51000D01*
G01*
X252635511Y-66675612D01*
G75*
G02*
X252686511Y-66624612I51000J0D01*
G01*
G37*
X244094000Y-74168000D03*
G36*
G01*
X243294000Y-68237000D02*
X244894000Y-68237000D01*
G75*
G02*
X244945000Y-68288000I0J-51000D01*
G01*
X244945000Y-69888000D01*
G75*
G02*
X244894000Y-69939000I-51000J0D01*
G01*
X243294000Y-69939000D01*
G75*
G02*
X243243000Y-69888000I0J51000D01*
G01*
X243243000Y-68288000D01*
G75*
G02*
X243294000Y-68237000I51000J0D01*
G01*
G37*
X247269000Y-75946000D03*
G36*
G01*
X246469000Y-70015000D02*
X248069000Y-70015000D01*
G75*
G02*
X248120000Y-70066000I0J-51000D01*
G01*
X248120000Y-71666000D01*
G75*
G02*
X248069000Y-71717000I-51000J0D01*
G01*
X246469000Y-71717000D01*
G75*
G02*
X246418000Y-71666000I0J51000D01*
G01*
X246418000Y-70066000D01*
G75*
G02*
X246469000Y-70015000I51000J0D01*
G01*
G37*
X225298000Y-77470000D03*
G36*
G01*
X224498000Y-71539000D02*
X226098000Y-71539000D01*
G75*
G02*
X226149000Y-71590000I0J-51000D01*
G01*
X226149000Y-73190000D01*
G75*
G02*
X226098000Y-73241000I-51000J0D01*
G01*
X224498000Y-73241000D01*
G75*
G02*
X224447000Y-73190000I0J51000D01*
G01*
X224447000Y-71590000D01*
G75*
G02*
X224498000Y-71539000I51000J0D01*
G01*
G37*
X240945468Y-72555612D03*
G36*
G01*
X240145468Y-66624612D02*
X241745468Y-66624612D01*
G75*
G02*
X241796468Y-66675612I0J-51000D01*
G01*
X241796468Y-68275612D01*
G75*
G02*
X241745468Y-68326612I-51000J0D01*
G01*
X240145468Y-68326612D01*
G75*
G02*
X240094468Y-68275612I0J51000D01*
G01*
X240094468Y-66675612D01*
G75*
G02*
X240145468Y-66624612I51000J0D01*
G01*
G37*
X262938832Y-77516199D03*
G36*
G01*
X262138832Y-71585199D02*
X263738832Y-71585199D01*
G75*
G02*
X263789832Y-71636199I0J-51000D01*
G01*
X263789832Y-73236199D01*
G75*
G02*
X263738832Y-73287199I-51000J0D01*
G01*
X262138832Y-73287199D01*
G75*
G02*
X262087832Y-73236199I0J51000D01*
G01*
X262087832Y-71636199D01*
G75*
G02*
X262138832Y-71585199I51000J0D01*
G01*
G37*
X286174982Y-78242196D03*
G36*
G01*
X285374982Y-72311196D02*
X286974982Y-72311196D01*
G75*
G02*
X287025982Y-72362196I0J-51000D01*
G01*
X287025982Y-73962196D01*
G75*
G02*
X286974982Y-74013196I-51000J0D01*
G01*
X285374982Y-74013196D01*
G75*
G02*
X285323982Y-73962196I0J51000D01*
G01*
X285323982Y-72362196D01*
G75*
G02*
X285374982Y-72311196I51000J0D01*
G01*
G37*
X283305310Y-78242196D03*
G36*
G01*
X282505310Y-72311196D02*
X284105310Y-72311196D01*
G75*
G02*
X284156310Y-72362196I0J-51000D01*
G01*
X284156310Y-73962196D01*
G75*
G02*
X284105310Y-74013196I-51000J0D01*
G01*
X282505310Y-74013196D01*
G75*
G02*
X282454310Y-73962196I0J51000D01*
G01*
X282454310Y-72362196D01*
G75*
G02*
X282505310Y-72311196I51000J0D01*
G01*
G37*
M02*
