M48
; DRILL file {KiCad (5.1.10)-1} date 07/26/21 23:58:03
; FORMAT={-:-/ absolute / metric / decimal}
; #@! TF.CreationDate,2021-07-26T23:58:03-04:00
; #@! TF.GenerationSoftware,Kicad,Pcbnew,(5.1.10)-1
; #@! TF.FileFunction,Plated,1,2,PTH
FMAT,2
METRIC
T1C0.400
T2C0.600
T3C0.700
T4C0.800
T5C0.900
T6C1.000
T7C1.016
T8C1.100
T9C1.500
T10C2.200
%
G90
G05
T1
X68.326Y-142.24
X75.184Y-75.438
X128.575Y-80.386
X141.178Y-80.386
X154.793Y-80.386
X166.517Y-80.386
X178.024Y-80.386
X184.912Y-178.054
X193.883Y-80.386
X201.788Y-80.386
X209.987Y-80.386
X218.049Y-80.386
X226.085Y-68.367
X231.506Y-80.386
X235.046Y-65.488
X236.726Y-69.328
X238.455Y-69.337
X238.72Y-67.64
X244.003Y-80.386
X249.203Y-67.247
X250.08Y-68.468
X250.199Y-66.013
X250.461Y-67.473
X257.249Y-62.351
X262.303Y-60.237
X263.037Y-64.332
X267.65Y-60.606
X271.85Y-63.633
X274.568Y-65.066
X274.573Y-66.391
X275.418Y-65.066
X275.423Y-66.391
X276.268Y-65.066
X276.273Y-66.391
X276.535Y-67.473
X276.814Y-62.031
X277.118Y-65.066
X277.123Y-66.391
X277.267Y-68.198
X277.968Y-65.066
X277.973Y-66.391
X278.818Y-65.066
X278.823Y-66.391
X278.826Y-68.798
X279.668Y-65.066
X279.673Y-66.391
X280.523Y-65.066
X280.523Y-66.391
X286.239Y-65.382
X293.116Y-62.027
X297.261Y-76.738
X299.664Y-74.122
X299.928Y-78.745
X301.493Y-74.046
X302.302Y-66.117
X303.515Y-88.953
X303.566Y-78.349
X303.967Y-74.046
X304.857Y-66.117
X306.111Y-74.046
X306.131Y-78.567
X307.412Y-66.117
X308.646Y-74.046
X308.651Y-78.831
X309.966Y-66.117
X311.196Y-78.831
X312.521Y-66.117
X314.872Y-71.192
X315.076Y-66.117
X316.265Y-73.704
X316.289Y-78.244
X316.989Y-87.99
X317.63Y-66.117
X317.63Y-71.261
X319.94Y-71.261
X320.548Y-152.146
X322.46Y-71.261
X322.886Y-63.003
X324.443Y-92.68
X332.232Y-120.65
X344.17Y-73.914
X344.17Y-74.93
X349.25Y-178.054
T2
X284.478Y-68.905
X284.478Y-70.405
T3
X270.048Y-59.351
X270.048Y-64.451
X290.026Y-63.073
X290.026Y-65.567
X290.026Y-68.06
X290.026Y-70.58
X290.026Y-73.152
X290.026Y-75.646
X290.026Y-78.139
X295.106Y-63.073
X295.106Y-65.567
X295.106Y-68.06
X295.106Y-70.58
X295.106Y-73.152
X295.106Y-75.646
X295.106Y-78.139
T4
X63.6Y-67.476
X63.6Y-72.556
X66.77Y-69.129
X66.77Y-74.209
X69.939Y-70.783
X69.939Y-75.863
X73.109Y-72.436
X73.109Y-77.516
X76.278Y-67.476
X76.278Y-72.556
X77.724Y-168.148
X77.724Y-173.228
X79.448Y-69.129
X79.448Y-74.209
X82.617Y-70.783
X82.617Y-75.863
X85.787Y-72.436
X85.787Y-77.516
X88.956Y-67.476
X88.956Y-72.556
X92.125Y-69.129
X92.125Y-74.209
X95.295Y-70.783
X95.295Y-75.863
X98.464Y-72.436
X98.464Y-77.516
X101.634Y-67.476
X101.634Y-72.556
X104.803Y-69.129
X104.803Y-74.209
X107.973Y-70.783
X107.973Y-75.863
X111.142Y-72.436
X111.142Y-77.516
X114.312Y-67.476
X114.312Y-72.556
X117.481Y-69.129
X117.481Y-74.209
X120.651Y-70.783
X120.651Y-75.863
X123.82Y-72.436
X123.82Y-77.516
X126.99Y-67.476
X126.99Y-72.556
X130.159Y-69.129
X130.159Y-74.209
X133.328Y-70.783
X133.328Y-75.863
X136.498Y-72.436
X136.498Y-77.516
X139.667Y-67.476
X139.667Y-72.556
X142.837Y-69.129
X142.837Y-74.209
X146.006Y-70.783
X146.006Y-75.863
X149.176Y-72.436
X149.176Y-77.516
X152.345Y-67.476
X152.345Y-72.556
X155.515Y-69.129
X155.515Y-74.209
X158.684Y-70.783
X158.684Y-75.863
X161.854Y-72.436
X161.854Y-77.516
X165.023Y-67.476
X165.023Y-72.556
X168.193Y-69.129
X168.193Y-74.209
X171.362Y-70.783
X171.362Y-75.863
X174.531Y-72.436
X174.531Y-77.516
X177.701Y-67.476
X177.701Y-72.556
X180.87Y-69.129
X180.87Y-74.209
X184.04Y-70.783
X184.04Y-75.863
X187.209Y-72.436
X187.209Y-77.516
X190.379Y-67.476
X190.379Y-72.556
X193.548Y-69.129
X193.548Y-74.209
X196.718Y-70.783
X196.718Y-75.863
X199.887Y-72.436
X199.887Y-77.516
X203.057Y-67.476
X203.057Y-72.556
X206.226Y-69.129
X206.226Y-74.209
X209.396Y-70.783
X209.396Y-75.863
X212.565Y-72.436
X212.565Y-77.516
X215.735Y-67.476
X215.735Y-72.556
X218.886Y-69.129
X218.886Y-74.209
X222.038Y-70.783
X222.038Y-75.863
X225.298Y-72.39
X225.298Y-77.47
X228.342Y-67.476
X228.342Y-72.556
X231.493Y-69.129
X231.493Y-74.209
X234.644Y-70.783
X234.644Y-75.863
X237.795Y-72.436
X237.795Y-77.516
X240.945Y-67.476
X240.945Y-72.556
X244.094Y-69.088
X244.094Y-74.168
X247.269Y-70.866
X247.269Y-75.946
X250.444Y-72.39
X250.444Y-77.47
X253.487Y-67.476
X253.487Y-72.556
X256.794Y-69.088
X256.794Y-74.168
X259.842Y-70.866
X259.842Y-75.946
X262.939Y-72.436
X262.939Y-77.516
X266.09Y-67.476
X266.09Y-72.556
X269.364Y-69.129
X269.364Y-74.209
X272.453Y-70.783
X272.453Y-75.863
X275.542Y-72.436
X275.542Y-77.516
X283.305Y-73.162
X283.305Y-78.242
X286.175Y-73.162
X286.175Y-78.242
X299.753Y-61.149
X299.753Y-76.389
X302.293Y-61.149
X302.293Y-76.389
X304.833Y-61.149
X304.833Y-76.389
X307.373Y-61.149
X307.373Y-76.389
X309.913Y-61.149
X309.913Y-76.389
X312.453Y-61.149
X312.453Y-76.389
X314.993Y-61.149
X314.993Y-76.389
X317.533Y-61.149
X317.533Y-76.389
X320.073Y-61.149
X320.073Y-76.389
X320.471Y-78.716
X322.613Y-61.149
X322.613Y-76.389
X325.126Y-58.926
X325.153Y-61.149
X325.153Y-76.389
X325.471Y-78.716
X327.68Y-79.506
X327.68Y-82.006
X327.693Y-61.149
X327.693Y-76.389
X330.126Y-58.926
X330.233Y-61.149
X330.233Y-76.389
X332.372Y-80.256
X332.773Y-61.149
X332.773Y-76.389
X335.313Y-61.149
X335.313Y-76.389
X337.252Y-80.256
X337.853Y-61.149
X337.853Y-76.389
X340.393Y-61.149
X340.393Y-76.389
X341.906Y-79.506
X341.906Y-82.006
X342.933Y-61.149
X342.933Y-76.389
X345.473Y-61.149
X345.473Y-76.389
X348.013Y-61.149
X348.013Y-76.389
T5
X284.128Y-61.971
X286.668Y-61.971
T6
X346.599Y-87.122
X346.599Y-101.622
X349.099Y-87.122
X351.599Y-87.122
X351.599Y-101.622
T7
X250.214Y-60.351
X250.214Y-62.891
X252.754Y-60.351
X252.754Y-62.891
X255.294Y-60.351
X255.294Y-62.891
T8
X226.486Y-59.836
X226.486Y-64.336
X232.986Y-59.836
X232.986Y-64.336
X238.486Y-59.836
X238.486Y-64.336
X244.986Y-59.836
X244.986Y-64.336
T9
X59.531Y-92.234
X61.912Y-168.424
X64.294Y-111.284
X65.881Y-89.694
X66.675Y-130.324
X68.262Y-165.884
X70.644Y-108.744
X71.437Y-149.384
X73.025Y-127.784
X77.787Y-146.844
X78.581Y-92.234
X84.931Y-89.694
X85.725Y-168.434
X88.106Y-111.284
X92.075Y-165.894
X92.869Y-130.334
X94.456Y-108.744
X97.631Y-92.234
X99.219Y-127.794
X102.394Y-149.384
X103.981Y-89.694
X107.156Y-111.284
X108.744Y-146.844
X109.537Y-168.424
X111.919Y-130.334
X113.506Y-108.744
X115.887Y-165.884
X116.681Y-92.234
X118.269Y-127.794
X121.444Y-149.384
X123.031Y-89.694
X126.206Y-111.284
X127.794Y-146.844
X130.969Y-130.334
X132.556Y-108.744
X135.731Y-92.234
X137.319Y-127.794
X140.494Y-149.384
X142.081Y-89.694
X142.9Y-168.44
X145.256Y-111.284
X146.844Y-146.844
X147.65Y-168.44
X149.25Y-165.9
X150.018Y-130.334
X151.606Y-108.744
X154.0Y-165.9
X154.781Y-92.234
X156.368Y-127.794
X159.544Y-149.384
X161.131Y-89.694
X164.306Y-111.284
X165.894Y-146.844
X169.068Y-130.334
X170.656Y-108.744
X173.831Y-92.234
X175.418Y-127.794
X176.15Y-168.44
X178.594Y-149.384
X180.181Y-89.694
X180.975Y-168.465
X182.5Y-165.9
X183.356Y-111.284
X184.944Y-146.844
X185.65Y-168.434
X187.325Y-165.925
X188.118Y-130.334
X189.706Y-108.744
X192.0Y-165.894
X192.881Y-92.234
X194.468Y-127.794
X197.644Y-149.384
X199.231Y-89.694
X202.406Y-111.284
X203.994Y-146.844
X207.168Y-130.334
X208.756Y-108.744
X211.931Y-92.234
X213.518Y-127.794
X214.3Y-168.44
X216.694Y-149.384
X218.281Y-89.694
X219.0Y-168.44
X220.65Y-165.9
X221.456Y-111.284
X223.044Y-146.844
X225.35Y-165.9
X226.218Y-130.334
X227.806Y-108.744
X230.981Y-92.234
X232.568Y-127.794
X235.744Y-149.384
X237.331Y-89.694
X240.506Y-111.284
X242.094Y-146.844
X245.268Y-130.334
X246.856Y-108.744
X250.031Y-92.234
X251.618Y-127.794
X252.44Y-168.46
X254.794Y-149.384
X256.381Y-89.694
X258.79Y-165.92
X259.556Y-111.284
X261.144Y-146.844
X264.318Y-130.334
X265.906Y-108.744
X269.081Y-92.234
X270.668Y-127.794
X273.844Y-149.384
X275.431Y-89.694
X276.44Y-168.424
X278.606Y-111.284
X280.194Y-146.844
X282.79Y-165.884
X283.368Y-130.334
X284.956Y-108.744
X288.131Y-92.234
X289.718Y-127.794
X294.481Y-89.694
X297.656Y-111.284
X300.037Y-149.384
X304.006Y-108.744
X306.387Y-146.844
X307.181Y-168.434
X313.531Y-165.894
X314.325Y-130.334
X316.706Y-92.234
X320.675Y-127.794
X321.468Y-111.284
X323.056Y-89.694
X326.231Y-149.384
X326.231Y-168.434
X327.818Y-108.744
X332.581Y-146.844
X332.581Y-165.894
X345.276Y-92.258
X345.281Y-111.284
X345.281Y-130.334
X345.281Y-149.384
X345.281Y-168.434
X351.626Y-89.718
X351.631Y-108.744
X351.631Y-127.794
X351.631Y-146.844
X351.631Y-165.894
T2
X273.223Y-62.431G85X273.223Y-61.631
G05
X273.223Y-66.161G85X273.223Y-64.661
G05
X281.873Y-62.431G85X281.873Y-61.631
G05
X281.873Y-66.161G85X281.873Y-64.661
G05
T9
X343.5Y-93.972G85X343.5Y-95.272
G05
X354.7Y-93.972G85X354.7Y-95.272
G05
T10
X56.866Y-61.695G85X58.666Y-61.695
G05
X56.866Y-80.445G85X58.666Y-80.445
G05
X100.536Y-161.948G85X102.336Y-161.948
G05
X110.036Y-103.848G85X111.836Y-103.848
G05
X198.536Y-161.948G85X200.336Y-161.948
G05
X205.313Y-61.695G85X207.113Y-61.695
G05
X205.313Y-80.445G85X207.113Y-80.445
G05
X205.336Y-103.848G85X207.136Y-103.848
G05
X300.536Y-103.848G85X302.336Y-103.848
G05
X319.636Y-161.848G85X321.436Y-161.848
G05
X353.76Y-61.695G85X355.56Y-61.695
G05
X353.76Y-80.445G85X355.56Y-80.445
G05
T0
M30
