%FSLAX45Y45*%
G04 Gerber Fmt 4.5, Leading zero omitted, Abs format (unit mm)*
G04 Created by KiCad (PCBNEW (5.1.10)-1) date 2021-07-24 00:02:33*
%MOMM*%
%LPD*%
G01*
G04 APERTURE LIST*
%TA.AperFunction,Profile*%
%ADD10C,0.150000*%
%TD*%
%ADD11C,0.200000*%
%ADD12C,0.300000*%
G04 APERTURE END LIST*
D10*
X35535325Y-18050222D02*
X5707644Y-18050222D01*
X35866031Y-6100181D02*
X35866031Y-17719516D01*
X5707344Y-5769475D02*
X35535325Y-5769475D01*
X5376638Y-17719816D02*
X5376638Y-6100181D01*
X35535325Y-5769475D02*
G75*
G02*
X35866031Y-6100181I0J-330706D01*
G01*
X35866031Y-17719516D02*
G75*
G02*
X35535325Y-18050222I-330706J0D01*
G01*
X5707644Y-18050222D02*
G75*
G02*
X5376638Y-17719816I-300J330706D01*
G01*
X5376638Y-6100181D02*
G75*
G02*
X5707344Y-5769475I330706J0D01*
G01*
D11*
X6812600Y-14204000D02*
X6852600Y-14244000D01*
X6852600Y-14204000D02*
X6812600Y-14244000D01*
X7498400Y-7523800D02*
X7538400Y-7563800D01*
X7538400Y-7523800D02*
X7498400Y-7563800D01*
X12837480Y-8018592D02*
X12877480Y-8058592D01*
X12877480Y-8018592D02*
X12837480Y-8058592D01*
X14097828Y-8018592D02*
X14137828Y-8058592D01*
X14137828Y-8018592D02*
X14097828Y-8058592D01*
X15459268Y-8018592D02*
X15499268Y-8058592D01*
X15499268Y-8018592D02*
X15459268Y-8058592D01*
X16631732Y-8018592D02*
X16671732Y-8058592D01*
X16671732Y-8018592D02*
X16631732Y-8058592D01*
X17782352Y-8018592D02*
X17822352Y-8058592D01*
X17822352Y-8018592D02*
X17782352Y-8058592D01*
X18471200Y-17785400D02*
X18511200Y-17825400D01*
X18511200Y-17785400D02*
X18471200Y-17825400D01*
X19368328Y-8018592D02*
X19408328Y-8058592D01*
X19408328Y-8018592D02*
X19368328Y-8058592D01*
X20158776Y-8018592D02*
X20198776Y-8058592D01*
X20198776Y-8018592D02*
X20158776Y-8058592D01*
X20978688Y-8018592D02*
X21018688Y-8058592D01*
X21018688Y-8018592D02*
X20978688Y-8058592D01*
X21784884Y-8018592D02*
X21824884Y-8058592D01*
X21824884Y-8018592D02*
X21784884Y-8058592D01*
X22588540Y-6816664D02*
X22628540Y-6856664D01*
X22628540Y-6816664D02*
X22588540Y-6856664D01*
X23130576Y-8018592D02*
X23170576Y-8058592D01*
X23170576Y-8018592D02*
X23130576Y-8058592D01*
X23484583Y-6528793D02*
X23524583Y-6568793D01*
X23524583Y-6528793D02*
X23484583Y-6568793D01*
X23652563Y-6912758D02*
X23692563Y-6952758D01*
X23692563Y-6912758D02*
X23652563Y-6952758D01*
X23825520Y-6913692D02*
X23865520Y-6953692D01*
X23865520Y-6913692D02*
X23825520Y-6953692D01*
X23852041Y-6744018D02*
X23892041Y-6784018D01*
X23892041Y-6744018D02*
X23852041Y-6784018D01*
X24380256Y-8018592D02*
X24420256Y-8058592D01*
X24420256Y-8018592D02*
X24380256Y-8058592D01*
X24900279Y-6704708D02*
X24940279Y-6744708D01*
X24940279Y-6704708D02*
X24900279Y-6744708D01*
X24988047Y-6826773D02*
X25028047Y-6866773D01*
X25028047Y-6826773D02*
X24988047Y-6866773D01*
X24999909Y-6581287D02*
X25039909Y-6621287D01*
X25039909Y-6581287D02*
X24999909Y-6621287D01*
X25026116Y-6727279D02*
X25066116Y-6767279D01*
X25066116Y-6727279D02*
X25026116Y-6767279D01*
X25704929Y-6215116D02*
X25744929Y-6255116D01*
X25744929Y-6215116D02*
X25704929Y-6255116D01*
X26210258Y-6003747D02*
X26250258Y-6043747D01*
X26250258Y-6003747D02*
X26210258Y-6043747D01*
X26283749Y-6413192D02*
X26323749Y-6453192D01*
X26323749Y-6413192D02*
X26283749Y-6453192D01*
X26745039Y-6040599D02*
X26785039Y-6080599D01*
X26785039Y-6040599D02*
X26745039Y-6080599D01*
X27164991Y-6343314D02*
X27204991Y-6383314D01*
X27204991Y-6343314D02*
X27164991Y-6383314D01*
X27436847Y-6486602D02*
X27476847Y-6526602D01*
X27476847Y-6486602D02*
X27436847Y-6526602D01*
X27437347Y-6619102D02*
X27477347Y-6659102D01*
X27477347Y-6619102D02*
X27437347Y-6659102D01*
X27521847Y-6486602D02*
X27561847Y-6526602D01*
X27561847Y-6486602D02*
X27521847Y-6526602D01*
X27522347Y-6619102D02*
X27562347Y-6659102D01*
X27562347Y-6619102D02*
X27522347Y-6659102D01*
X27606847Y-6486602D02*
X27646847Y-6526602D01*
X27646847Y-6486602D02*
X27606847Y-6526602D01*
X27607347Y-6619102D02*
X27647347Y-6659102D01*
X27647347Y-6619102D02*
X27607347Y-6659102D01*
X27633484Y-6727332D02*
X27673484Y-6767332D01*
X27673484Y-6727332D02*
X27633484Y-6767332D01*
X27661355Y-6183102D02*
X27701355Y-6223102D01*
X27701355Y-6183102D02*
X27661355Y-6223102D01*
X27691847Y-6486602D02*
X27731847Y-6526602D01*
X27731847Y-6486602D02*
X27691847Y-6526602D01*
X27692347Y-6619102D02*
X27732347Y-6659102D01*
X27732347Y-6619102D02*
X27692347Y-6659102D01*
X27706695Y-6799833D02*
X27746695Y-6839833D01*
X27746695Y-6799833D02*
X27706695Y-6839833D01*
X27776847Y-6486602D02*
X27816847Y-6526602D01*
X27816847Y-6486602D02*
X27776847Y-6526602D01*
X27777347Y-6619102D02*
X27817347Y-6659102D01*
X27817347Y-6619102D02*
X27777347Y-6659102D01*
X27861847Y-6486602D02*
X27901847Y-6526602D01*
X27901847Y-6486602D02*
X27861847Y-6526602D01*
X27862347Y-6619102D02*
X27902347Y-6659102D01*
X27902347Y-6619102D02*
X27862347Y-6659102D01*
X27862562Y-6859770D02*
X27902562Y-6899770D01*
X27902562Y-6859770D02*
X27862562Y-6899770D01*
X27946847Y-6486602D02*
X27986847Y-6526602D01*
X27986847Y-6486602D02*
X27946847Y-6526602D01*
X27947347Y-6619102D02*
X27987347Y-6659102D01*
X27987347Y-6619102D02*
X27947347Y-6659102D01*
X28032347Y-6486602D02*
X28072347Y-6526602D01*
X28072347Y-6486602D02*
X28032347Y-6526602D01*
X28032347Y-6619102D02*
X28072347Y-6659102D01*
X28072347Y-6619102D02*
X28032347Y-6659102D01*
X28603939Y-6518178D02*
X28643939Y-6558178D01*
X28643939Y-6518178D02*
X28603939Y-6558178D01*
X29291600Y-6182680D02*
X29331600Y-6222680D01*
X29331600Y-6182680D02*
X29291600Y-6222680D01*
X29706128Y-7653848D02*
X29746128Y-7693848D01*
X29746128Y-7653848D02*
X29706128Y-7693848D01*
X29946412Y-7392228D02*
X29986412Y-7432228D01*
X29986412Y-7392228D02*
X29946412Y-7432228D01*
X29972828Y-7854508D02*
X30012828Y-7894508D01*
X30012828Y-7854508D02*
X29972828Y-7894508D01*
X30129343Y-7384608D02*
X30169343Y-7424608D01*
X30169343Y-7384608D02*
X30129343Y-7424608D01*
X30210225Y-6591669D02*
X30250225Y-6631669D01*
X30250225Y-6591669D02*
X30210225Y-6631669D01*
X30331550Y-8875275D02*
X30371550Y-8915275D01*
X30371550Y-8875275D02*
X30331550Y-8915275D01*
X30336556Y-7814884D02*
X30376556Y-7854884D01*
X30376556Y-7814884D02*
X30336556Y-7854884D01*
X30376688Y-7384608D02*
X30416688Y-7424608D01*
X30416688Y-7384608D02*
X30376688Y-7424608D01*
X30465691Y-6591669D02*
X30505691Y-6631669D01*
X30505691Y-6591669D02*
X30465691Y-6631669D01*
X30591064Y-7384608D02*
X30631064Y-7424608D01*
X30631064Y-7384608D02*
X30591064Y-7424608D01*
X30593096Y-7836728D02*
X30633096Y-7876728D01*
X30633096Y-7836728D02*
X30593096Y-7876728D01*
X30721157Y-6591669D02*
X30761157Y-6631669D01*
X30761157Y-6591669D02*
X30721157Y-6631669D01*
X30844556Y-7384608D02*
X30884556Y-7424608D01*
X30884556Y-7384608D02*
X30844556Y-7424608D01*
X30845064Y-7863144D02*
X30885064Y-7903144D01*
X30885064Y-7863144D02*
X30845064Y-7903144D01*
X30976623Y-6591669D02*
X31016623Y-6631669D01*
X31016623Y-6591669D02*
X30976623Y-6631669D01*
X31099572Y-7863144D02*
X31139572Y-7903144D01*
X31139572Y-7863144D02*
X31099572Y-7903144D01*
X31232089Y-6591669D02*
X31272089Y-6631669D01*
X31272089Y-6591669D02*
X31232089Y-6631669D01*
X31467170Y-7099228D02*
X31507170Y-7139228D01*
X31507170Y-7099228D02*
X31467170Y-7139228D01*
X31487554Y-6591669D02*
X31527554Y-6631669D01*
X31527554Y-6591669D02*
X31487554Y-6631669D01*
X31606539Y-7350441D02*
X31646539Y-7390441D01*
X31646539Y-7350441D02*
X31606539Y-7390441D01*
X31608904Y-7804397D02*
X31648904Y-7844397D01*
X31648904Y-7804397D02*
X31608904Y-7844397D01*
X31678896Y-8779036D02*
X31718896Y-8819036D01*
X31718896Y-8779036D02*
X31678896Y-8819036D01*
X31743021Y-6591669D02*
X31783021Y-6631669D01*
X31783021Y-6591669D02*
X31743021Y-6631669D01*
X31743021Y-7106100D02*
X31783021Y-7146100D01*
X31783021Y-7106100D02*
X31743021Y-7146100D01*
X31973990Y-7106100D02*
X32013990Y-7146100D01*
X32013990Y-7106100D02*
X31973990Y-7146100D01*
X32034800Y-15194600D02*
X32074800Y-15234600D01*
X32074800Y-15194600D02*
X32034800Y-15234600D01*
X32225956Y-7106100D02*
X32265956Y-7146100D01*
X32265956Y-7106100D02*
X32225956Y-7146100D01*
X32268579Y-6280321D02*
X32308579Y-6320321D01*
X32308579Y-6280321D02*
X32268579Y-6320321D01*
X32424311Y-9247982D02*
X32464311Y-9287982D01*
X32464311Y-9247982D02*
X32424311Y-9287982D01*
X33203200Y-12045000D02*
X33243200Y-12085000D01*
X33243200Y-12045000D02*
X33203200Y-12085000D01*
X34397000Y-7371400D02*
X34437000Y-7411400D01*
X34437000Y-7371400D02*
X34397000Y-7411400D01*
X34397000Y-7473000D02*
X34437000Y-7513000D01*
X34437000Y-7473000D02*
X34397000Y-7513000D01*
X34905000Y-17785400D02*
X34945000Y-17825400D01*
X34945000Y-17785400D02*
X34905000Y-17825400D01*
X27352347Y-6203102D02*
G75*
G03*
X27352347Y-6203102I-30000J0D01*
G01*
X27342347Y-6243102D02*
X27342347Y-6163102D01*
X27302347Y-6243102D02*
X27302347Y-6163102D01*
X27342347Y-6163102D02*
G75*
G03*
X27302347Y-6163102I-20000J0D01*
G01*
X27302347Y-6243102D02*
G75*
G03*
X27342347Y-6243102I20000J0D01*
G01*
X27352347Y-6541102D02*
G75*
G03*
X27352347Y-6541102I-30000J0D01*
G01*
X27342347Y-6616102D02*
X27342347Y-6466102D01*
X27302347Y-6616102D02*
X27302347Y-6466102D01*
X27342347Y-6466102D02*
G75*
G03*
X27302347Y-6466102I-20000J0D01*
G01*
X27302347Y-6616102D02*
G75*
G03*
X27342347Y-6616102I20000J0D01*
G01*
X28217347Y-6203102D02*
G75*
G03*
X28217347Y-6203102I-30000J0D01*
G01*
X28207347Y-6243102D02*
X28207347Y-6163102D01*
X28167347Y-6243102D02*
X28167347Y-6163102D01*
X28207347Y-6163102D02*
G75*
G03*
X28167347Y-6163102I-20000J0D01*
G01*
X28167347Y-6243102D02*
G75*
G03*
X28207347Y-6243102I20000J0D01*
G01*
X28217347Y-6541102D02*
G75*
G03*
X28217347Y-6541102I-30000J0D01*
G01*
X28207347Y-6616102D02*
X28207347Y-6466102D01*
X28167347Y-6616102D02*
X28167347Y-6466102D01*
X28207347Y-6466102D02*
G75*
G03*
X28167347Y-6466102I-20000J0D01*
G01*
X28167347Y-6616102D02*
G75*
G03*
X28207347Y-6616102I20000J0D01*
G01*
X28477768Y-6890487D02*
G75*
G03*
X28477768Y-6890487I-30000J0D01*
G01*
X28477768Y-7040487D02*
G75*
G03*
X28477768Y-7040487I-30000J0D01*
G01*
X27004761Y-5900084D02*
X27004761Y-5970084D01*
X26969761Y-5935084D02*
X27039761Y-5935084D01*
X27004761Y-6410084D02*
X27004761Y-6480084D01*
X26969761Y-6445084D02*
X27039761Y-6445084D01*
X29002632Y-6272320D02*
X29002632Y-6342320D01*
X28967632Y-6307320D02*
X29037632Y-6307320D01*
X29002632Y-6521703D02*
X29002632Y-6591703D01*
X28967632Y-6556703D02*
X29037632Y-6556703D01*
X29002632Y-6771050D02*
X29002632Y-6841050D01*
X28967632Y-6806050D02*
X29037632Y-6806050D01*
X29002632Y-7023021D02*
X29002632Y-7093021D01*
X28967632Y-7058021D02*
X29037632Y-7058021D01*
X29002632Y-7280205D02*
X29002632Y-7350205D01*
X28967632Y-7315205D02*
X29037632Y-7315205D01*
X29002632Y-7529552D02*
X29002632Y-7599552D01*
X28967632Y-7564552D02*
X29037632Y-7564552D01*
X29002632Y-7778898D02*
X29002632Y-7848898D01*
X28967632Y-7813898D02*
X29037632Y-7813898D01*
X29510632Y-6272320D02*
X29510632Y-6342320D01*
X29475632Y-6307320D02*
X29545632Y-6307320D01*
X29510632Y-6521703D02*
X29510632Y-6591703D01*
X29475632Y-6556703D02*
X29545632Y-6556703D01*
X29510632Y-6771050D02*
X29510632Y-6841050D01*
X29475632Y-6806050D02*
X29545632Y-6806050D01*
X29510632Y-7023021D02*
X29510632Y-7093021D01*
X29475632Y-7058021D02*
X29545632Y-7058021D01*
X29510632Y-7280205D02*
X29510632Y-7350205D01*
X29475632Y-7315205D02*
X29545632Y-7315205D01*
X29510632Y-7529552D02*
X29510632Y-7599552D01*
X29475632Y-7564552D02*
X29545632Y-7564552D01*
X29510632Y-7778898D02*
X29510632Y-7848898D01*
X29475632Y-7813898D02*
X29545632Y-7813898D01*
X6388313Y-6775846D02*
X6388313Y-6719277D01*
X6331744Y-6719277D01*
X6331744Y-6775846D01*
X6388313Y-6775846D01*
X6388313Y-7283846D02*
X6388313Y-7227277D01*
X6331744Y-7227277D01*
X6331744Y-7283846D01*
X6388313Y-7283846D01*
X6705259Y-6941199D02*
X6705259Y-6884630D01*
X6648690Y-6884630D01*
X6648690Y-6941199D01*
X6705259Y-6941199D01*
X6705259Y-7449199D02*
X6705259Y-7392630D01*
X6648690Y-7392630D01*
X6648690Y-7449199D01*
X6705259Y-7449199D01*
X7022205Y-7106551D02*
X7022205Y-7049982D01*
X6965636Y-7049982D01*
X6965636Y-7106551D01*
X7022205Y-7106551D01*
X7022205Y-7614551D02*
X7022205Y-7557982D01*
X6965636Y-7557982D01*
X6965636Y-7614551D01*
X7022205Y-7614551D01*
X7339152Y-7271904D02*
X7339152Y-7215335D01*
X7282583Y-7215335D01*
X7282583Y-7271904D01*
X7339152Y-7271904D01*
X7339152Y-7779904D02*
X7339152Y-7723335D01*
X7282583Y-7723335D01*
X7282583Y-7779904D01*
X7339152Y-7779904D01*
X7656098Y-6775846D02*
X7656098Y-6719277D01*
X7599529Y-6719277D01*
X7599529Y-6775846D01*
X7656098Y-6775846D01*
X7656098Y-7283846D02*
X7656098Y-7227277D01*
X7599529Y-7227277D01*
X7599529Y-7283846D01*
X7656098Y-7283846D01*
X7800684Y-16843085D02*
X7800684Y-16786516D01*
X7744115Y-16786516D01*
X7744115Y-16843085D01*
X7800684Y-16843085D01*
X7800684Y-17351085D02*
X7800684Y-17294516D01*
X7744115Y-17294516D01*
X7744115Y-17351085D01*
X7800684Y-17351085D01*
X7973044Y-6941199D02*
X7973044Y-6884630D01*
X7916475Y-6884630D01*
X7916475Y-6941199D01*
X7973044Y-6941199D01*
X7973044Y-7449199D02*
X7973044Y-7392630D01*
X7916475Y-7392630D01*
X7916475Y-7449199D01*
X7973044Y-7449199D01*
X8289991Y-7106551D02*
X8289991Y-7049982D01*
X8233422Y-7049982D01*
X8233422Y-7106551D01*
X8289991Y-7106551D01*
X8289991Y-7614551D02*
X8289991Y-7557982D01*
X8233422Y-7557982D01*
X8233422Y-7614551D01*
X8289991Y-7614551D01*
X8606937Y-7271904D02*
X8606937Y-7215335D01*
X8550368Y-7215335D01*
X8550368Y-7271904D01*
X8606937Y-7271904D01*
X8606937Y-7779904D02*
X8606937Y-7723335D01*
X8550368Y-7723335D01*
X8550368Y-7779904D01*
X8606937Y-7779904D01*
X8923883Y-6775846D02*
X8923883Y-6719277D01*
X8867314Y-6719277D01*
X8867314Y-6775846D01*
X8923883Y-6775846D01*
X8923883Y-7283846D02*
X8923883Y-7227277D01*
X8867314Y-7227277D01*
X8867314Y-7283846D01*
X8923883Y-7283846D01*
X9240830Y-6941199D02*
X9240830Y-6884630D01*
X9184261Y-6884630D01*
X9184261Y-6941199D01*
X9240830Y-6941199D01*
X9240830Y-7449199D02*
X9240830Y-7392630D01*
X9184261Y-7392630D01*
X9184261Y-7449199D01*
X9240830Y-7449199D01*
X9557776Y-7106551D02*
X9557776Y-7049982D01*
X9501207Y-7049982D01*
X9501207Y-7106551D01*
X9557776Y-7106551D01*
X9557776Y-7614551D02*
X9557776Y-7557982D01*
X9501207Y-7557982D01*
X9501207Y-7614551D01*
X9557776Y-7614551D01*
X9874722Y-7271904D02*
X9874722Y-7215335D01*
X9818153Y-7215335D01*
X9818153Y-7271904D01*
X9874722Y-7271904D01*
X9874722Y-7779904D02*
X9874722Y-7723335D01*
X9818153Y-7723335D01*
X9818153Y-7779904D01*
X9874722Y-7779904D01*
X10191669Y-6775846D02*
X10191669Y-6719277D01*
X10135100Y-6719277D01*
X10135100Y-6775846D01*
X10191669Y-6775846D01*
X10191669Y-7283846D02*
X10191669Y-7227277D01*
X10135100Y-7227277D01*
X10135100Y-7283846D01*
X10191669Y-7283846D01*
X10508615Y-6941199D02*
X10508615Y-6884630D01*
X10452046Y-6884630D01*
X10452046Y-6941199D01*
X10508615Y-6941199D01*
X10508615Y-7449199D02*
X10508615Y-7392630D01*
X10452046Y-7392630D01*
X10452046Y-7449199D01*
X10508615Y-7449199D01*
X10825561Y-7106551D02*
X10825561Y-7049982D01*
X10768992Y-7049982D01*
X10768992Y-7106551D01*
X10825561Y-7106551D01*
X10825561Y-7614551D02*
X10825561Y-7557982D01*
X10768992Y-7557982D01*
X10768992Y-7614551D01*
X10825561Y-7614551D01*
X11142507Y-7271904D02*
X11142507Y-7215335D01*
X11085938Y-7215335D01*
X11085938Y-7271904D01*
X11142507Y-7271904D01*
X11142507Y-7779904D02*
X11142507Y-7723335D01*
X11085938Y-7723335D01*
X11085938Y-7779904D01*
X11142507Y-7779904D01*
X11459454Y-6775846D02*
X11459454Y-6719277D01*
X11402885Y-6719277D01*
X11402885Y-6775846D01*
X11459454Y-6775846D01*
X11459454Y-7283846D02*
X11459454Y-7227277D01*
X11402885Y-7227277D01*
X11402885Y-7283846D01*
X11459454Y-7283846D01*
X11776400Y-6941199D02*
X11776400Y-6884630D01*
X11719831Y-6884630D01*
X11719831Y-6941199D01*
X11776400Y-6941199D01*
X11776400Y-7449199D02*
X11776400Y-7392630D01*
X11719831Y-7392630D01*
X11719831Y-7449199D01*
X11776400Y-7449199D01*
X12093346Y-7106551D02*
X12093346Y-7049982D01*
X12036777Y-7049982D01*
X12036777Y-7106551D01*
X12093346Y-7106551D01*
X12093346Y-7614551D02*
X12093346Y-7557982D01*
X12036777Y-7557982D01*
X12036777Y-7614551D01*
X12093346Y-7614551D01*
X12410293Y-7271904D02*
X12410293Y-7215335D01*
X12353724Y-7215335D01*
X12353724Y-7271904D01*
X12410293Y-7271904D01*
X12410293Y-7779904D02*
X12410293Y-7723335D01*
X12353724Y-7723335D01*
X12353724Y-7779904D01*
X12410293Y-7779904D01*
X12727239Y-6775846D02*
X12727239Y-6719277D01*
X12670670Y-6719277D01*
X12670670Y-6775846D01*
X12727239Y-6775846D01*
X12727239Y-7283846D02*
X12727239Y-7227277D01*
X12670670Y-7227277D01*
X12670670Y-7283846D01*
X12727239Y-7283846D01*
X13044185Y-6941199D02*
X13044185Y-6884630D01*
X12987616Y-6884630D01*
X12987616Y-6941199D01*
X13044185Y-6941199D01*
X13044185Y-7449199D02*
X13044185Y-7392630D01*
X12987616Y-7392630D01*
X12987616Y-7449199D01*
X13044185Y-7449199D01*
X13361131Y-7106551D02*
X13361131Y-7049982D01*
X13304562Y-7049982D01*
X13304562Y-7106551D01*
X13361131Y-7106551D01*
X13361131Y-7614551D02*
X13361131Y-7557982D01*
X13304562Y-7557982D01*
X13304562Y-7614551D01*
X13361131Y-7614551D01*
X13678078Y-7271904D02*
X13678078Y-7215335D01*
X13621509Y-7215335D01*
X13621509Y-7271904D01*
X13678078Y-7271904D01*
X13678078Y-7779904D02*
X13678078Y-7723335D01*
X13621509Y-7723335D01*
X13621509Y-7779904D01*
X13678078Y-7779904D01*
X13995024Y-6775846D02*
X13995024Y-6719277D01*
X13938455Y-6719277D01*
X13938455Y-6775846D01*
X13995024Y-6775846D01*
X13995024Y-7283846D02*
X13995024Y-7227277D01*
X13938455Y-7227277D01*
X13938455Y-7283846D01*
X13995024Y-7283846D01*
X14311970Y-6941199D02*
X14311970Y-6884630D01*
X14255401Y-6884630D01*
X14255401Y-6941199D01*
X14311970Y-6941199D01*
X14311970Y-7449199D02*
X14311970Y-7392630D01*
X14255401Y-7392630D01*
X14255401Y-7449199D01*
X14311970Y-7449199D01*
X14628917Y-7106551D02*
X14628917Y-7049982D01*
X14572348Y-7049982D01*
X14572348Y-7106551D01*
X14628917Y-7106551D01*
X14628917Y-7614551D02*
X14628917Y-7557982D01*
X14572348Y-7557982D01*
X14572348Y-7614551D01*
X14628917Y-7614551D01*
X14945863Y-7271904D02*
X14945863Y-7215335D01*
X14889294Y-7215335D01*
X14889294Y-7271904D01*
X14945863Y-7271904D01*
X14945863Y-7779904D02*
X14945863Y-7723335D01*
X14889294Y-7723335D01*
X14889294Y-7779904D01*
X14945863Y-7779904D01*
X15262809Y-6775846D02*
X15262809Y-6719277D01*
X15206240Y-6719277D01*
X15206240Y-6775846D01*
X15262809Y-6775846D01*
X15262809Y-7283846D02*
X15262809Y-7227277D01*
X15206240Y-7227277D01*
X15206240Y-7283846D01*
X15262809Y-7283846D01*
X15579756Y-6941199D02*
X15579756Y-6884630D01*
X15523187Y-6884630D01*
X15523187Y-6941199D01*
X15579756Y-6941199D01*
X15579756Y-7449199D02*
X15579756Y-7392630D01*
X15523187Y-7392630D01*
X15523187Y-7449199D01*
X15579756Y-7449199D01*
X15896702Y-7106551D02*
X15896702Y-7049982D01*
X15840133Y-7049982D01*
X15840133Y-7106551D01*
X15896702Y-7106551D01*
X15896702Y-7614551D02*
X15896702Y-7557982D01*
X15840133Y-7557982D01*
X15840133Y-7614551D01*
X15896702Y-7614551D01*
X16213648Y-7271904D02*
X16213648Y-7215335D01*
X16157079Y-7215335D01*
X16157079Y-7271904D01*
X16213648Y-7271904D01*
X16213648Y-7779904D02*
X16213648Y-7723335D01*
X16157079Y-7723335D01*
X16157079Y-7779904D01*
X16213648Y-7779904D01*
X16530594Y-6775846D02*
X16530594Y-6719277D01*
X16474025Y-6719277D01*
X16474025Y-6775846D01*
X16530594Y-6775846D01*
X16530594Y-7283846D02*
X16530594Y-7227277D01*
X16474025Y-7227277D01*
X16474025Y-7283846D01*
X16530594Y-7283846D01*
X16847541Y-6941199D02*
X16847541Y-6884630D01*
X16790972Y-6884630D01*
X16790972Y-6941199D01*
X16847541Y-6941199D01*
X16847541Y-7449199D02*
X16847541Y-7392630D01*
X16790972Y-7392630D01*
X16790972Y-7449199D01*
X16847541Y-7449199D01*
X17164487Y-7106551D02*
X17164487Y-7049982D01*
X17107918Y-7049982D01*
X17107918Y-7106551D01*
X17164487Y-7106551D01*
X17164487Y-7614551D02*
X17164487Y-7557982D01*
X17107918Y-7557982D01*
X17107918Y-7614551D01*
X17164487Y-7614551D01*
X17481433Y-7271904D02*
X17481433Y-7215335D01*
X17424864Y-7215335D01*
X17424864Y-7271904D01*
X17481433Y-7271904D01*
X17481433Y-7779904D02*
X17481433Y-7723335D01*
X17424864Y-7723335D01*
X17424864Y-7779904D01*
X17481433Y-7779904D01*
X17798380Y-6775846D02*
X17798380Y-6719277D01*
X17741811Y-6719277D01*
X17741811Y-6775846D01*
X17798380Y-6775846D01*
X17798380Y-7283846D02*
X17798380Y-7227277D01*
X17741811Y-7227277D01*
X17741811Y-7283846D01*
X17798380Y-7283846D01*
X18115326Y-6941199D02*
X18115326Y-6884630D01*
X18058757Y-6884630D01*
X18058757Y-6941199D01*
X18115326Y-6941199D01*
X18115326Y-7449199D02*
X18115326Y-7392630D01*
X18058757Y-7392630D01*
X18058757Y-7449199D01*
X18115326Y-7449199D01*
X18432272Y-7106551D02*
X18432272Y-7049982D01*
X18375703Y-7049982D01*
X18375703Y-7106551D01*
X18432272Y-7106551D01*
X18432272Y-7614551D02*
X18432272Y-7557982D01*
X18375703Y-7557982D01*
X18375703Y-7614551D01*
X18432272Y-7614551D01*
X18749219Y-7271904D02*
X18749219Y-7215335D01*
X18692650Y-7215335D01*
X18692650Y-7271904D01*
X18749219Y-7271904D01*
X18749219Y-7779904D02*
X18749219Y-7723335D01*
X18692650Y-7723335D01*
X18692650Y-7779904D01*
X18749219Y-7779904D01*
X19066165Y-6775846D02*
X19066165Y-6719277D01*
X19009596Y-6719277D01*
X19009596Y-6775846D01*
X19066165Y-6775846D01*
X19066165Y-7283846D02*
X19066165Y-7227277D01*
X19009596Y-7227277D01*
X19009596Y-7283846D01*
X19066165Y-7283846D01*
X19383111Y-6941199D02*
X19383111Y-6884630D01*
X19326542Y-6884630D01*
X19326542Y-6941199D01*
X19383111Y-6941199D01*
X19383111Y-7449199D02*
X19383111Y-7392630D01*
X19326542Y-7392630D01*
X19326542Y-7449199D01*
X19383111Y-7449199D01*
X19700058Y-7106551D02*
X19700058Y-7049982D01*
X19643489Y-7049982D01*
X19643489Y-7106551D01*
X19700058Y-7106551D01*
X19700058Y-7614551D02*
X19700058Y-7557982D01*
X19643489Y-7557982D01*
X19643489Y-7614551D01*
X19700058Y-7614551D01*
X20017004Y-7271904D02*
X20017004Y-7215335D01*
X19960435Y-7215335D01*
X19960435Y-7271904D01*
X20017004Y-7271904D01*
X20017004Y-7779904D02*
X20017004Y-7723335D01*
X19960435Y-7723335D01*
X19960435Y-7779904D01*
X20017004Y-7779904D01*
X20333950Y-6775846D02*
X20333950Y-6719277D01*
X20277381Y-6719277D01*
X20277381Y-6775846D01*
X20333950Y-6775846D01*
X20333950Y-7283846D02*
X20333950Y-7227277D01*
X20277381Y-7227277D01*
X20277381Y-7283846D01*
X20333950Y-7283846D01*
X20650896Y-6941199D02*
X20650896Y-6884630D01*
X20594327Y-6884630D01*
X20594327Y-6941199D01*
X20650896Y-6941199D01*
X20650896Y-7449199D02*
X20650896Y-7392630D01*
X20594327Y-7392630D01*
X20594327Y-7449199D01*
X20650896Y-7449199D01*
X20967843Y-7106551D02*
X20967843Y-7049982D01*
X20911274Y-7049982D01*
X20911274Y-7106551D01*
X20967843Y-7106551D01*
X20967843Y-7614551D02*
X20967843Y-7557982D01*
X20911274Y-7557982D01*
X20911274Y-7614551D01*
X20967843Y-7614551D01*
X21284789Y-7271904D02*
X21284789Y-7215335D01*
X21228220Y-7215335D01*
X21228220Y-7271904D01*
X21284789Y-7271904D01*
X21284789Y-7779904D02*
X21284789Y-7723335D01*
X21228220Y-7723335D01*
X21228220Y-7779904D01*
X21284789Y-7779904D01*
X21601735Y-6775846D02*
X21601735Y-6719277D01*
X21545166Y-6719277D01*
X21545166Y-6775846D01*
X21601735Y-6775846D01*
X21601735Y-7283846D02*
X21601735Y-7227277D01*
X21545166Y-7227277D01*
X21545166Y-7283846D01*
X21601735Y-7283846D01*
X21916932Y-6941199D02*
X21916932Y-6884630D01*
X21860363Y-6884630D01*
X21860363Y-6941199D01*
X21916932Y-6941199D01*
X21916932Y-7449199D02*
X21916932Y-7392630D01*
X21860363Y-7392630D01*
X21860363Y-7449199D01*
X21916932Y-7449199D01*
X22232129Y-7106551D02*
X22232129Y-7049982D01*
X22175560Y-7049982D01*
X22175560Y-7106551D01*
X22232129Y-7106551D01*
X22232129Y-7614551D02*
X22232129Y-7557982D01*
X22175560Y-7557982D01*
X22175560Y-7614551D01*
X22232129Y-7614551D01*
X22558084Y-7267284D02*
X22558084Y-7210715D01*
X22501515Y-7210715D01*
X22501515Y-7267284D01*
X22558084Y-7267284D01*
X22558084Y-7775284D02*
X22558084Y-7718715D01*
X22501515Y-7718715D01*
X22501515Y-7775284D01*
X22558084Y-7775284D01*
X22862522Y-6775846D02*
X22862522Y-6719277D01*
X22805953Y-6719277D01*
X22805953Y-6775846D01*
X22862522Y-6775846D01*
X22862522Y-7283846D02*
X22862522Y-7227277D01*
X22805953Y-7227277D01*
X22805953Y-7283846D01*
X22862522Y-7283846D01*
X23177599Y-6941199D02*
X23177599Y-6884630D01*
X23121030Y-6884630D01*
X23121030Y-6941199D01*
X23177599Y-6941199D01*
X23177599Y-7449199D02*
X23177599Y-7392630D01*
X23121030Y-7392630D01*
X23121030Y-7449199D01*
X23177599Y-7449199D01*
X23492677Y-7106551D02*
X23492677Y-7049982D01*
X23436108Y-7049982D01*
X23436108Y-7106551D01*
X23492677Y-7106551D01*
X23492677Y-7614551D02*
X23492677Y-7557982D01*
X23436108Y-7557982D01*
X23436108Y-7614551D01*
X23492677Y-7614551D01*
X23807754Y-7271904D02*
X23807754Y-7215335D01*
X23751185Y-7215335D01*
X23751185Y-7271904D01*
X23807754Y-7271904D01*
X23807754Y-7779904D02*
X23807754Y-7723335D01*
X23751185Y-7723335D01*
X23751185Y-7779904D01*
X23807754Y-7779904D01*
X24122831Y-6775846D02*
X24122831Y-6719277D01*
X24066262Y-6719277D01*
X24066262Y-6775846D01*
X24122831Y-6775846D01*
X24122831Y-7283846D02*
X24122831Y-7227277D01*
X24066262Y-7227277D01*
X24066262Y-7283846D01*
X24122831Y-7283846D01*
X24437684Y-6937084D02*
X24437684Y-6880515D01*
X24381115Y-6880515D01*
X24381115Y-6937084D01*
X24437684Y-6937084D01*
X24437684Y-7445084D02*
X24437684Y-7388515D01*
X24381115Y-7388515D01*
X24381115Y-7445084D01*
X24437684Y-7445084D01*
X24755184Y-7114884D02*
X24755184Y-7058315D01*
X24698615Y-7058315D01*
X24698615Y-7114884D01*
X24755184Y-7114884D01*
X24755184Y-7622884D02*
X24755184Y-7566315D01*
X24698615Y-7566315D01*
X24698615Y-7622884D01*
X24755184Y-7622884D01*
X25072684Y-7267284D02*
X25072684Y-7210715D01*
X25016115Y-7210715D01*
X25016115Y-7267284D01*
X25072684Y-7267284D01*
X25072684Y-7775284D02*
X25072684Y-7718715D01*
X25016115Y-7718715D01*
X25016115Y-7775284D01*
X25072684Y-7775284D01*
X25376936Y-6775846D02*
X25376936Y-6719277D01*
X25320367Y-6719277D01*
X25320367Y-6775846D01*
X25376936Y-6775846D01*
X25376936Y-7283846D02*
X25376936Y-7227277D01*
X25320367Y-7227277D01*
X25320367Y-7283846D01*
X25376936Y-7283846D01*
X25707684Y-6937084D02*
X25707684Y-6880515D01*
X25651115Y-6880515D01*
X25651115Y-6937084D01*
X25707684Y-6937084D01*
X25707684Y-7445084D02*
X25707684Y-7388515D01*
X25651115Y-7388515D01*
X25651115Y-7445084D01*
X25707684Y-7445084D01*
X26012484Y-7114884D02*
X26012484Y-7058315D01*
X25955915Y-7058315D01*
X25955915Y-7114884D01*
X26012484Y-7114884D01*
X26012484Y-7622884D02*
X26012484Y-7566315D01*
X25955915Y-7566315D01*
X25955915Y-7622884D01*
X26012484Y-7622884D01*
X26322168Y-7271904D02*
X26322168Y-7215335D01*
X26265599Y-7215335D01*
X26265599Y-7271904D01*
X26322168Y-7271904D01*
X26322168Y-7779904D02*
X26322168Y-7723335D01*
X26265599Y-7723335D01*
X26265599Y-7779904D01*
X26322168Y-7779904D01*
X26637245Y-6775846D02*
X26637245Y-6719277D01*
X26580676Y-6719277D01*
X26580676Y-6775846D01*
X26637245Y-6775846D01*
X26637245Y-7283846D02*
X26637245Y-7227277D01*
X26580676Y-7227277D01*
X26580676Y-7283846D01*
X26637245Y-7283846D01*
X26964733Y-6941199D02*
X26964733Y-6884630D01*
X26908164Y-6884630D01*
X26908164Y-6941199D01*
X26964733Y-6941199D01*
X26964733Y-7449199D02*
X26964733Y-7392630D01*
X26908164Y-7392630D01*
X26908164Y-7449199D01*
X26964733Y-7449199D01*
X27273605Y-7106551D02*
X27273605Y-7049982D01*
X27217036Y-7049982D01*
X27217036Y-7106551D01*
X27273605Y-7106551D01*
X27273605Y-7614551D02*
X27273605Y-7557982D01*
X27217036Y-7557982D01*
X27217036Y-7614551D01*
X27273605Y-7614551D01*
X27582477Y-7271904D02*
X27582477Y-7215335D01*
X27525908Y-7215335D01*
X27525908Y-7271904D01*
X27582477Y-7271904D01*
X27582477Y-7779904D02*
X27582477Y-7723335D01*
X27525908Y-7723335D01*
X27525908Y-7779904D01*
X27582477Y-7779904D01*
X28358815Y-7344504D02*
X28358815Y-7287935D01*
X28302246Y-7287935D01*
X28302246Y-7344504D01*
X28358815Y-7344504D01*
X28358815Y-7852504D02*
X28358815Y-7795935D01*
X28302246Y-7795935D01*
X28302246Y-7852504D01*
X28358815Y-7852504D01*
X28645783Y-7344504D02*
X28645783Y-7287935D01*
X28589214Y-7287935D01*
X28589214Y-7344504D01*
X28645783Y-7344504D01*
X28645783Y-7852504D02*
X28645783Y-7795935D01*
X28589214Y-7795935D01*
X28589214Y-7852504D01*
X28645783Y-7852504D01*
X30003627Y-6143203D02*
X30003627Y-6086634D01*
X29947058Y-6086634D01*
X29947058Y-6143203D01*
X30003627Y-6143203D01*
X30003627Y-7667203D02*
X30003627Y-7610634D01*
X29947058Y-7610634D01*
X29947058Y-7667203D01*
X30003627Y-7667203D01*
X30257627Y-6143203D02*
X30257627Y-6086634D01*
X30201058Y-6086634D01*
X30201058Y-6143203D01*
X30257627Y-6143203D01*
X30257627Y-7667203D02*
X30257627Y-7610634D01*
X30201058Y-7610634D01*
X30201058Y-7667203D01*
X30257627Y-7667203D01*
X30511627Y-6143203D02*
X30511627Y-6086634D01*
X30455058Y-6086634D01*
X30455058Y-6143203D01*
X30511627Y-6143203D01*
X30511627Y-7667203D02*
X30511627Y-7610634D01*
X30455058Y-7610634D01*
X30455058Y-7667203D01*
X30511627Y-7667203D01*
X30765627Y-6143203D02*
X30765627Y-6086634D01*
X30709058Y-6086634D01*
X30709058Y-6143203D01*
X30765627Y-6143203D01*
X30765627Y-7667203D02*
X30765627Y-7610634D01*
X30709058Y-7610634D01*
X30709058Y-7667203D01*
X30765627Y-7667203D01*
X31019627Y-6143203D02*
X31019627Y-6086634D01*
X30963058Y-6086634D01*
X30963058Y-6143203D01*
X31019627Y-6143203D01*
X31019627Y-7667203D02*
X31019627Y-7610634D01*
X30963058Y-7610634D01*
X30963058Y-7667203D01*
X31019627Y-7667203D01*
X31273627Y-6143203D02*
X31273627Y-6086634D01*
X31217058Y-6086634D01*
X31217058Y-6143203D01*
X31273627Y-6143203D01*
X31273627Y-7667203D02*
X31273627Y-7610634D01*
X31217058Y-7610634D01*
X31217058Y-7667203D01*
X31273627Y-7667203D01*
X31527627Y-6143203D02*
X31527627Y-6086634D01*
X31471058Y-6086634D01*
X31471058Y-6143203D01*
X31527627Y-6143203D01*
X31527627Y-7667203D02*
X31527627Y-7610634D01*
X31471058Y-7610634D01*
X31471058Y-7667203D01*
X31527627Y-7667203D01*
X31781627Y-6143203D02*
X31781627Y-6086634D01*
X31725058Y-6086634D01*
X31725058Y-6143203D01*
X31781627Y-6143203D01*
X31781627Y-7667203D02*
X31781627Y-7610634D01*
X31725058Y-7610634D01*
X31725058Y-7667203D01*
X31781627Y-7667203D01*
X32035627Y-6143203D02*
X32035627Y-6086634D01*
X31979058Y-6086634D01*
X31979058Y-6143203D01*
X32035627Y-6143203D01*
X32035627Y-7667203D02*
X32035627Y-7610634D01*
X31979058Y-7610634D01*
X31979058Y-7667203D01*
X32035627Y-7667203D01*
X32075391Y-7899926D02*
X32075391Y-7843357D01*
X32018822Y-7843357D01*
X32018822Y-7899926D01*
X32075391Y-7899926D01*
X32289627Y-6143203D02*
X32289627Y-6086634D01*
X32233058Y-6086634D01*
X32233058Y-6143203D01*
X32289627Y-6143203D01*
X32289627Y-7667203D02*
X32289627Y-7610634D01*
X32233058Y-7610634D01*
X32233058Y-7667203D01*
X32289627Y-7667203D01*
X32540837Y-5920902D02*
X32540837Y-5864333D01*
X32484268Y-5864333D01*
X32484268Y-5920902D01*
X32540837Y-5920902D01*
X32543627Y-6143203D02*
X32543627Y-6086634D01*
X32487058Y-6086634D01*
X32487058Y-6143203D01*
X32543627Y-6143203D01*
X32543627Y-7667203D02*
X32543627Y-7610634D01*
X32487058Y-7610634D01*
X32487058Y-7667203D01*
X32543627Y-7667203D01*
X32575391Y-7899926D02*
X32575391Y-7843357D01*
X32518822Y-7843357D01*
X32518822Y-7899926D01*
X32575391Y-7899926D01*
X32796308Y-7978888D02*
X32796308Y-7922319D01*
X32739739Y-7922319D01*
X32739739Y-7978888D01*
X32796308Y-7978888D01*
X32796308Y-8228888D02*
X32796308Y-8172319D01*
X32739739Y-8172319D01*
X32739739Y-8228888D01*
X32796308Y-8228888D01*
X32797627Y-6143203D02*
X32797627Y-6086634D01*
X32741058Y-6086634D01*
X32741058Y-6143203D01*
X32797627Y-6143203D01*
X32797627Y-7667203D02*
X32797627Y-7610634D01*
X32741058Y-7610634D01*
X32741058Y-7667203D01*
X32797627Y-7667203D01*
X33040837Y-5920902D02*
X33040837Y-5864333D01*
X32984268Y-5864333D01*
X32984268Y-5920902D01*
X33040837Y-5920902D01*
X33051627Y-6143203D02*
X33051627Y-6086634D01*
X32995058Y-6086634D01*
X32995058Y-6143203D01*
X33051627Y-6143203D01*
X33051627Y-7667203D02*
X33051627Y-7610634D01*
X32995058Y-7610634D01*
X32995058Y-7667203D01*
X33051627Y-7667203D01*
X33265449Y-8053908D02*
X33265449Y-7997339D01*
X33208880Y-7997339D01*
X33208880Y-8053908D01*
X33265449Y-8053908D01*
X33305627Y-6143203D02*
X33305627Y-6086634D01*
X33249058Y-6086634D01*
X33249058Y-6143203D01*
X33305627Y-6143203D01*
X33305627Y-7667203D02*
X33305627Y-7610634D01*
X33249058Y-7610634D01*
X33249058Y-7667203D01*
X33305627Y-7667203D01*
X33559628Y-6143203D02*
X33559628Y-6086634D01*
X33503058Y-6086634D01*
X33503058Y-6143203D01*
X33559628Y-6143203D01*
X33559628Y-7667203D02*
X33559628Y-7610634D01*
X33503058Y-7610634D01*
X33503058Y-7667203D01*
X33559628Y-7667203D01*
X33753449Y-8053908D02*
X33753449Y-7997339D01*
X33696880Y-7997339D01*
X33696880Y-8053908D01*
X33753449Y-8053908D01*
X33813628Y-6143203D02*
X33813628Y-6086634D01*
X33757059Y-6086634D01*
X33757059Y-6143203D01*
X33813628Y-6143203D01*
X33813628Y-7667203D02*
X33813628Y-7610634D01*
X33757059Y-7610634D01*
X33757059Y-7667203D01*
X33813628Y-7667203D01*
X34067628Y-6143203D02*
X34067628Y-6086634D01*
X34011059Y-6086634D01*
X34011059Y-6143203D01*
X34067628Y-6143203D01*
X34067628Y-7667203D02*
X34067628Y-7610634D01*
X34011059Y-7610634D01*
X34011059Y-7667203D01*
X34067628Y-7667203D01*
X34218896Y-7978888D02*
X34218896Y-7922319D01*
X34162327Y-7922319D01*
X34162327Y-7978888D01*
X34218896Y-7978888D01*
X34218896Y-8228888D02*
X34218896Y-8172319D01*
X34162327Y-8172319D01*
X34162327Y-8228888D01*
X34218896Y-8228888D01*
X34321628Y-6143203D02*
X34321628Y-6086634D01*
X34265059Y-6086634D01*
X34265059Y-6143203D01*
X34321628Y-6143203D01*
X34321628Y-7667203D02*
X34321628Y-7610634D01*
X34265059Y-7610634D01*
X34265059Y-7667203D01*
X34321628Y-7667203D01*
X34575628Y-6143203D02*
X34575628Y-6086634D01*
X34519059Y-6086634D01*
X34519059Y-6143203D01*
X34575628Y-6143203D01*
X34575628Y-7667203D02*
X34575628Y-7610634D01*
X34519059Y-7610634D01*
X34519059Y-7667203D01*
X34575628Y-7667203D01*
X34829628Y-6143203D02*
X34829628Y-6086634D01*
X34773059Y-6086634D01*
X34773059Y-6143203D01*
X34829628Y-6143203D01*
X34829628Y-7667203D02*
X34829628Y-7610634D01*
X34773059Y-7610634D01*
X34773059Y-7667203D01*
X34829628Y-7667203D01*
X28412772Y-6242083D02*
X28457772Y-6197083D01*
X28412772Y-6152083D01*
X28367772Y-6197083D01*
X28412772Y-6242083D01*
X28666772Y-6242083D02*
X28711772Y-6197083D01*
X28666772Y-6152083D01*
X28621772Y-6197083D01*
X28666772Y-6242083D01*
X34609950Y-8662200D02*
X34709950Y-8762200D01*
X34709950Y-8662200D02*
X34609950Y-8762200D01*
X34709950Y-8712200D02*
G75*
G03*
X34709950Y-8712200I-50000J0D01*
G01*
X34609950Y-10112200D02*
X34709950Y-10212200D01*
X34709950Y-10112200D02*
X34609950Y-10212200D01*
X34709950Y-10162200D02*
G75*
G03*
X34709950Y-10162200I-50000J0D01*
G01*
X34859950Y-8662200D02*
X34959950Y-8762200D01*
X34959950Y-8662200D02*
X34859950Y-8762200D01*
X34959950Y-8712200D02*
G75*
G03*
X34959950Y-8712200I-50000J0D01*
G01*
X35109950Y-8662200D02*
X35209950Y-8762200D01*
X35209950Y-8662200D02*
X35109950Y-8762200D01*
X35209950Y-8712200D02*
G75*
G03*
X35209950Y-8712200I-50000J0D01*
G01*
X35109950Y-10112200D02*
X35209950Y-10212200D01*
X35209950Y-10112200D02*
X35109950Y-10212200D01*
X35209950Y-10162200D02*
G75*
G03*
X35209950Y-10162200I-50000J0D01*
G01*
X24970583Y-5984287D02*
X25072183Y-6085887D01*
X25072183Y-5984287D02*
X24970583Y-6085887D01*
X25021383Y-5984287D02*
X25021383Y-6085887D01*
X24970583Y-6035087D02*
X25072183Y-6035087D01*
X24970583Y-6238287D02*
X25072183Y-6339887D01*
X25072183Y-6238287D02*
X24970583Y-6339887D01*
X25021383Y-6238287D02*
X25021383Y-6339887D01*
X24970583Y-6289087D02*
X25072183Y-6289087D01*
X25224583Y-5984287D02*
X25326183Y-6085887D01*
X25326183Y-5984287D02*
X25224583Y-6085887D01*
X25275383Y-5984287D02*
X25275383Y-6085887D01*
X25224583Y-6035087D02*
X25326183Y-6035087D01*
X25224583Y-6238287D02*
X25326183Y-6339887D01*
X25326183Y-6238287D02*
X25224583Y-6339887D01*
X25275383Y-6238287D02*
X25275383Y-6339887D01*
X25224583Y-6289087D02*
X25326183Y-6289087D01*
X25478583Y-5984287D02*
X25580183Y-6085887D01*
X25580183Y-5984287D02*
X25478583Y-6085887D01*
X25529383Y-5984287D02*
X25529383Y-6085887D01*
X25478583Y-6035087D02*
X25580183Y-6035087D01*
X25478583Y-6238287D02*
X25580183Y-6339887D01*
X25580183Y-6238287D02*
X25478583Y-6339887D01*
X25529383Y-6238287D02*
X25529383Y-6339887D01*
X25478583Y-6289087D02*
X25580183Y-6289087D01*
X22593573Y-5928607D02*
X22703573Y-6038607D01*
X22703573Y-5928607D02*
X22593573Y-6038607D01*
X22687464Y-6022499D02*
X22687464Y-5944716D01*
X22609682Y-5944716D01*
X22609682Y-6022499D01*
X22687464Y-6022499D01*
X22593573Y-6378607D02*
X22703573Y-6488607D01*
X22703573Y-6378607D02*
X22593573Y-6488607D01*
X22687464Y-6472499D02*
X22687464Y-6394716D01*
X22609682Y-6394716D01*
X22609682Y-6472499D01*
X22687464Y-6472499D01*
X23243573Y-5928607D02*
X23353573Y-6038607D01*
X23353573Y-5928607D02*
X23243573Y-6038607D01*
X23337464Y-6022499D02*
X23337464Y-5944716D01*
X23259682Y-5944716D01*
X23259682Y-6022499D01*
X23337464Y-6022499D01*
X23243573Y-6378607D02*
X23353573Y-6488607D01*
X23353573Y-6378607D02*
X23243573Y-6488607D01*
X23337464Y-6472499D02*
X23337464Y-6394716D01*
X23259682Y-6394716D01*
X23259682Y-6472499D01*
X23337464Y-6472499D01*
X23793573Y-5928607D02*
X23903573Y-6038607D01*
X23903573Y-5928607D02*
X23793573Y-6038607D01*
X23887464Y-6022499D02*
X23887464Y-5944716D01*
X23809682Y-5944716D01*
X23809682Y-6022499D01*
X23887464Y-6022499D01*
X23793573Y-6378607D02*
X23903573Y-6488607D01*
X23903573Y-6378607D02*
X23793573Y-6488607D01*
X23887464Y-6472499D02*
X23887464Y-6394716D01*
X23809682Y-6394716D01*
X23809682Y-6472499D01*
X23887464Y-6472499D01*
X24443573Y-5928607D02*
X24553573Y-6038607D01*
X24553573Y-5928607D02*
X24443573Y-6038607D01*
X24537464Y-6022499D02*
X24537464Y-5944716D01*
X24459682Y-5944716D01*
X24459682Y-6022499D01*
X24537464Y-6022499D01*
X24443573Y-6378607D02*
X24553573Y-6488607D01*
X24553573Y-6378607D02*
X24443573Y-6488607D01*
X24537464Y-6472499D02*
X24537464Y-6394716D01*
X24459682Y-6394716D01*
X24459682Y-6472499D01*
X24537464Y-6472499D01*
X5878125Y-9148375D02*
X6028125Y-9298375D01*
X6028125Y-9148375D02*
X5878125Y-9298375D01*
X5953125Y-9298375D02*
X6028125Y-9223375D01*
X5953125Y-9148375D01*
X5878125Y-9223375D01*
X5953125Y-9298375D01*
X6116245Y-16767362D02*
X6266245Y-16917362D01*
X6266245Y-16767362D02*
X6116245Y-16917362D01*
X6191245Y-16917362D02*
X6266245Y-16842362D01*
X6191245Y-16767362D01*
X6116245Y-16842362D01*
X6191245Y-16917362D01*
X6354375Y-11053375D02*
X6504375Y-11203375D01*
X6504375Y-11053375D02*
X6354375Y-11203375D01*
X6429375Y-11203375D02*
X6504375Y-11128375D01*
X6429375Y-11053375D01*
X6354375Y-11128375D01*
X6429375Y-11203375D01*
X6513125Y-8894375D02*
X6663125Y-9044375D01*
X6663125Y-8894375D02*
X6513125Y-9044375D01*
X6588125Y-9044375D02*
X6663125Y-8969375D01*
X6588125Y-8894375D01*
X6513125Y-8969375D01*
X6588125Y-9044375D01*
X6592505Y-12957362D02*
X6742505Y-13107362D01*
X6742505Y-12957362D02*
X6592505Y-13107362D01*
X6667505Y-13107362D02*
X6742505Y-13032362D01*
X6667505Y-12957362D01*
X6592505Y-13032362D01*
X6667505Y-13107362D01*
X6751245Y-16513362D02*
X6901245Y-16663362D01*
X6901245Y-16513362D02*
X6751245Y-16663362D01*
X6826245Y-16663362D02*
X6901245Y-16588362D01*
X6826245Y-16513362D01*
X6751245Y-16588362D01*
X6826245Y-16663362D01*
X6989375Y-10799375D02*
X7139375Y-10949375D01*
X7139375Y-10799375D02*
X6989375Y-10949375D01*
X7064375Y-10949375D02*
X7139375Y-10874375D01*
X7064375Y-10799375D01*
X6989375Y-10874375D01*
X7064375Y-10949375D01*
X7068745Y-14863375D02*
X7218745Y-15013375D01*
X7218745Y-14863375D02*
X7068745Y-15013375D01*
X7143745Y-15013375D02*
X7218745Y-14938375D01*
X7143745Y-14863375D01*
X7068745Y-14938375D01*
X7143745Y-15013375D01*
X7227505Y-12703362D02*
X7377505Y-12853362D01*
X7377505Y-12703362D02*
X7227505Y-12853362D01*
X7302505Y-12853362D02*
X7377505Y-12778362D01*
X7302505Y-12703362D01*
X7227505Y-12778362D01*
X7302505Y-12853362D01*
X7703745Y-14609375D02*
X7853745Y-14759375D01*
X7853745Y-14609375D02*
X7703745Y-14759375D01*
X7778745Y-14759375D02*
X7853745Y-14684375D01*
X7778745Y-14609375D01*
X7703745Y-14684375D01*
X7778745Y-14759375D01*
X7783125Y-9148375D02*
X7933125Y-9298375D01*
X7933125Y-9148375D02*
X7783125Y-9298375D01*
X7858125Y-9298375D02*
X7933125Y-9223375D01*
X7858125Y-9148375D01*
X7783125Y-9223375D01*
X7858125Y-9298375D01*
X8418125Y-8894375D02*
X8568125Y-9044375D01*
X8568125Y-8894375D02*
X8418125Y-9044375D01*
X8493125Y-9044375D02*
X8568125Y-8969375D01*
X8493125Y-8894375D01*
X8418125Y-8969375D01*
X8493125Y-9044375D01*
X8497505Y-16768375D02*
X8647505Y-16918375D01*
X8647505Y-16768375D02*
X8497505Y-16918375D01*
X8572505Y-16918375D02*
X8647505Y-16843375D01*
X8572505Y-16768375D01*
X8497505Y-16843375D01*
X8572505Y-16918375D01*
X8735625Y-11053375D02*
X8885625Y-11203375D01*
X8885625Y-11053375D02*
X8735625Y-11203375D01*
X8810625Y-11203375D02*
X8885625Y-11128375D01*
X8810625Y-11053375D01*
X8735625Y-11128375D01*
X8810625Y-11203375D01*
X9132505Y-16514375D02*
X9282505Y-16664375D01*
X9282505Y-16514375D02*
X9132505Y-16664375D01*
X9207505Y-16664375D02*
X9282505Y-16589375D01*
X9207505Y-16514375D01*
X9132505Y-16589375D01*
X9207505Y-16664375D01*
X9211875Y-12958375D02*
X9361875Y-13108375D01*
X9361875Y-12958375D02*
X9211875Y-13108375D01*
X9286875Y-13108375D02*
X9361875Y-13033375D01*
X9286875Y-12958375D01*
X9211875Y-13033375D01*
X9286875Y-13108375D01*
X9370625Y-10799375D02*
X9520625Y-10949375D01*
X9520625Y-10799375D02*
X9370625Y-10949375D01*
X9445625Y-10949375D02*
X9520625Y-10874375D01*
X9445625Y-10799375D01*
X9370625Y-10874375D01*
X9445625Y-10949375D01*
X9688125Y-9148375D02*
X9838125Y-9298375D01*
X9838125Y-9148375D02*
X9688125Y-9298375D01*
X9763125Y-9298375D02*
X9838125Y-9223375D01*
X9763125Y-9148375D01*
X9688125Y-9223375D01*
X9763125Y-9298375D01*
X9846875Y-12704375D02*
X9996875Y-12854375D01*
X9996875Y-12704375D02*
X9846875Y-12854375D01*
X9921875Y-12854375D02*
X9996875Y-12779375D01*
X9921875Y-12704375D01*
X9846875Y-12779375D01*
X9921875Y-12854375D01*
X10164375Y-14863375D02*
X10314375Y-15013375D01*
X10314375Y-14863375D02*
X10164375Y-15013375D01*
X10239375Y-15013375D02*
X10314375Y-14938375D01*
X10239375Y-14863375D01*
X10164375Y-14938375D01*
X10239375Y-15013375D01*
X10323125Y-8894375D02*
X10473125Y-9044375D01*
X10473125Y-8894375D02*
X10323125Y-9044375D01*
X10398125Y-9044375D02*
X10473125Y-8969375D01*
X10398125Y-8894375D01*
X10323125Y-8969375D01*
X10398125Y-9044375D01*
X10640625Y-11053375D02*
X10790625Y-11203375D01*
X10790625Y-11053375D02*
X10640625Y-11203375D01*
X10715625Y-11203375D02*
X10790625Y-11128375D01*
X10715625Y-11053375D01*
X10640625Y-11128375D01*
X10715625Y-11203375D01*
X10799375Y-14609375D02*
X10949375Y-14759375D01*
X10949375Y-14609375D02*
X10799375Y-14759375D01*
X10874375Y-14759375D02*
X10949375Y-14684375D01*
X10874375Y-14609375D01*
X10799375Y-14684375D01*
X10874375Y-14759375D01*
X10878745Y-16767362D02*
X11028745Y-16917362D01*
X11028745Y-16767362D02*
X10878745Y-16917362D01*
X10953745Y-16917362D02*
X11028745Y-16842362D01*
X10953745Y-16767362D01*
X10878745Y-16842362D01*
X10953745Y-16917362D01*
X11116875Y-12958375D02*
X11266875Y-13108375D01*
X11266875Y-12958375D02*
X11116875Y-13108375D01*
X11191875Y-13108375D02*
X11266875Y-13033375D01*
X11191875Y-12958375D01*
X11116875Y-13033375D01*
X11191875Y-13108375D01*
X11275625Y-10799375D02*
X11425625Y-10949375D01*
X11425625Y-10799375D02*
X11275625Y-10949375D01*
X11350625Y-10949375D02*
X11425625Y-10874375D01*
X11350625Y-10799375D01*
X11275625Y-10874375D01*
X11350625Y-10949375D01*
X11513745Y-16513362D02*
X11663745Y-16663362D01*
X11663745Y-16513362D02*
X11513745Y-16663362D01*
X11588745Y-16663362D02*
X11663745Y-16588362D01*
X11588745Y-16513362D01*
X11513745Y-16588362D01*
X11588745Y-16663362D01*
X11593125Y-9148375D02*
X11743125Y-9298375D01*
X11743125Y-9148375D02*
X11593125Y-9298375D01*
X11668125Y-9298375D02*
X11743125Y-9223375D01*
X11668125Y-9148375D01*
X11593125Y-9223375D01*
X11668125Y-9298375D01*
X11751875Y-12704375D02*
X11901875Y-12854375D01*
X11901875Y-12704375D02*
X11751875Y-12854375D01*
X11826875Y-12854375D02*
X11901875Y-12779375D01*
X11826875Y-12704375D01*
X11751875Y-12779375D01*
X11826875Y-12854375D01*
X12069375Y-14863375D02*
X12219375Y-15013375D01*
X12219375Y-14863375D02*
X12069375Y-15013375D01*
X12144375Y-15013375D02*
X12219375Y-14938375D01*
X12144375Y-14863375D01*
X12069375Y-14938375D01*
X12144375Y-15013375D01*
X12228125Y-8894375D02*
X12378125Y-9044375D01*
X12378125Y-8894375D02*
X12228125Y-9044375D01*
X12303125Y-9044375D02*
X12378125Y-8969375D01*
X12303125Y-8894375D01*
X12228125Y-8969375D01*
X12303125Y-9044375D01*
X12545625Y-11053375D02*
X12695625Y-11203375D01*
X12695625Y-11053375D02*
X12545625Y-11203375D01*
X12620625Y-11203375D02*
X12695625Y-11128375D01*
X12620625Y-11053375D01*
X12545625Y-11128375D01*
X12620625Y-11203375D01*
X12704375Y-14609375D02*
X12854375Y-14759375D01*
X12854375Y-14609375D02*
X12704375Y-14759375D01*
X12779375Y-14759375D02*
X12854375Y-14684375D01*
X12779375Y-14609375D01*
X12704375Y-14684375D01*
X12779375Y-14759375D01*
X13021875Y-12958375D02*
X13171875Y-13108375D01*
X13171875Y-12958375D02*
X13021875Y-13108375D01*
X13096875Y-13108375D02*
X13171875Y-13033375D01*
X13096875Y-12958375D01*
X13021875Y-13033375D01*
X13096875Y-13108375D01*
X13180625Y-10799375D02*
X13330625Y-10949375D01*
X13330625Y-10799375D02*
X13180625Y-10949375D01*
X13255625Y-10949375D02*
X13330625Y-10874375D01*
X13255625Y-10799375D01*
X13180625Y-10874375D01*
X13255625Y-10949375D01*
X13498125Y-9148375D02*
X13648125Y-9298375D01*
X13648125Y-9148375D02*
X13498125Y-9298375D01*
X13573125Y-9298375D02*
X13648125Y-9223375D01*
X13573125Y-9148375D01*
X13498125Y-9223375D01*
X13573125Y-9298375D01*
X13656875Y-12704375D02*
X13806875Y-12854375D01*
X13806875Y-12704375D02*
X13656875Y-12854375D01*
X13731875Y-12854375D02*
X13806875Y-12779375D01*
X13731875Y-12704375D01*
X13656875Y-12779375D01*
X13731875Y-12854375D01*
X13974375Y-14863375D02*
X14124375Y-15013375D01*
X14124375Y-14863375D02*
X13974375Y-15013375D01*
X14049375Y-15013375D02*
X14124375Y-14938375D01*
X14049375Y-14863375D01*
X13974375Y-14938375D01*
X14049375Y-15013375D01*
X14133125Y-8894375D02*
X14283125Y-9044375D01*
X14283125Y-8894375D02*
X14133125Y-9044375D01*
X14208125Y-9044375D02*
X14283125Y-8969375D01*
X14208125Y-8894375D01*
X14133125Y-8969375D01*
X14208125Y-9044375D01*
X14215000Y-16769000D02*
X14365000Y-16919000D01*
X14365000Y-16769000D02*
X14215000Y-16919000D01*
X14290000Y-16919000D02*
X14365000Y-16844000D01*
X14290000Y-16769000D01*
X14215000Y-16844000D01*
X14290000Y-16919000D01*
X14450625Y-11053375D02*
X14600625Y-11203375D01*
X14600625Y-11053375D02*
X14450625Y-11203375D01*
X14525625Y-11203375D02*
X14600625Y-11128375D01*
X14525625Y-11053375D01*
X14450625Y-11128375D01*
X14525625Y-11203375D01*
X14609375Y-14609375D02*
X14759375Y-14759375D01*
X14759375Y-14609375D02*
X14609375Y-14759375D01*
X14684375Y-14759375D02*
X14759375Y-14684375D01*
X14684375Y-14609375D01*
X14609375Y-14684375D01*
X14684375Y-14759375D01*
X14690000Y-16769000D02*
X14840000Y-16919000D01*
X14840000Y-16769000D02*
X14690000Y-16919000D01*
X14765000Y-16919000D02*
X14840000Y-16844000D01*
X14765000Y-16769000D01*
X14690000Y-16844000D01*
X14765000Y-16919000D01*
X14850000Y-16515000D02*
X15000000Y-16665000D01*
X15000000Y-16515000D02*
X14850000Y-16665000D01*
X14925000Y-16665000D02*
X15000000Y-16590000D01*
X14925000Y-16515000D01*
X14850000Y-16590000D01*
X14925000Y-16665000D01*
X14926825Y-12958375D02*
X15076825Y-13108375D01*
X15076825Y-12958375D02*
X14926825Y-13108375D01*
X15001825Y-13108375D02*
X15076825Y-13033375D01*
X15001825Y-12958375D01*
X14926825Y-13033375D01*
X15001825Y-13108375D01*
X15085625Y-10799375D02*
X15235625Y-10949375D01*
X15235625Y-10799375D02*
X15085625Y-10949375D01*
X15160625Y-10949375D02*
X15235625Y-10874375D01*
X15160625Y-10799375D01*
X15085625Y-10874375D01*
X15160625Y-10949375D01*
X15325000Y-16515000D02*
X15475000Y-16665000D01*
X15475000Y-16515000D02*
X15325000Y-16665000D01*
X15400000Y-16665000D02*
X15475000Y-16590000D01*
X15400000Y-16515000D01*
X15325000Y-16590000D01*
X15400000Y-16665000D01*
X15403125Y-9148375D02*
X15553125Y-9298375D01*
X15553125Y-9148375D02*
X15403125Y-9298375D01*
X15478125Y-9298375D02*
X15553125Y-9223375D01*
X15478125Y-9148375D01*
X15403125Y-9223375D01*
X15478125Y-9298375D01*
X15561825Y-12704375D02*
X15711825Y-12854375D01*
X15711825Y-12704375D02*
X15561825Y-12854375D01*
X15636825Y-12854375D02*
X15711825Y-12779375D01*
X15636825Y-12704375D01*
X15561825Y-12779375D01*
X15636825Y-12854375D01*
X15879425Y-14863375D02*
X16029425Y-15013375D01*
X16029425Y-14863375D02*
X15879425Y-15013375D01*
X15954425Y-15013375D02*
X16029425Y-14938375D01*
X15954425Y-14863375D01*
X15879425Y-14938375D01*
X15954425Y-15013375D01*
X16038125Y-8894375D02*
X16188125Y-9044375D01*
X16188125Y-8894375D02*
X16038125Y-9044375D01*
X16113125Y-9044375D02*
X16188125Y-8969375D01*
X16113125Y-8894375D01*
X16038125Y-8969375D01*
X16113125Y-9044375D01*
X16355625Y-11053375D02*
X16505625Y-11203375D01*
X16505625Y-11053375D02*
X16355625Y-11203375D01*
X16430625Y-11203375D02*
X16505625Y-11128375D01*
X16430625Y-11053375D01*
X16355625Y-11128375D01*
X16430625Y-11203375D01*
X16514425Y-14609375D02*
X16664425Y-14759375D01*
X16664425Y-14609375D02*
X16514425Y-14759375D01*
X16589425Y-14759375D02*
X16664425Y-14684375D01*
X16589425Y-14609375D01*
X16514425Y-14684375D01*
X16589425Y-14759375D01*
X16831825Y-12958375D02*
X16981825Y-13108375D01*
X16981825Y-12958375D02*
X16831825Y-13108375D01*
X16906825Y-13108375D02*
X16981825Y-13033375D01*
X16906825Y-12958375D01*
X16831825Y-13033375D01*
X16906825Y-13108375D01*
X16990625Y-10799375D02*
X17140625Y-10949375D01*
X17140625Y-10799375D02*
X16990625Y-10949375D01*
X17065625Y-10949375D02*
X17140625Y-10874375D01*
X17065625Y-10799375D01*
X16990625Y-10874375D01*
X17065625Y-10949375D01*
X17308125Y-9148375D02*
X17458125Y-9298375D01*
X17458125Y-9148375D02*
X17308125Y-9298375D01*
X17383125Y-9298375D02*
X17458125Y-9223375D01*
X17383125Y-9148375D01*
X17308125Y-9223375D01*
X17383125Y-9298375D01*
X17466825Y-12704375D02*
X17616825Y-12854375D01*
X17616825Y-12704375D02*
X17466825Y-12854375D01*
X17541825Y-12854375D02*
X17616825Y-12779375D01*
X17541825Y-12704375D01*
X17466825Y-12779375D01*
X17541825Y-12854375D01*
X17540000Y-16769000D02*
X17690000Y-16919000D01*
X17690000Y-16769000D02*
X17540000Y-16919000D01*
X17615000Y-16919000D02*
X17690000Y-16844000D01*
X17615000Y-16769000D01*
X17540000Y-16844000D01*
X17615000Y-16919000D01*
X17784425Y-14863375D02*
X17934425Y-15013375D01*
X17934425Y-14863375D02*
X17784425Y-15013375D01*
X17859425Y-15013375D02*
X17934425Y-14938375D01*
X17859425Y-14863375D01*
X17784425Y-14938375D01*
X17859425Y-15013375D01*
X17943125Y-8894375D02*
X18093125Y-9044375D01*
X18093125Y-8894375D02*
X17943125Y-9044375D01*
X18018125Y-9044375D02*
X18093125Y-8969375D01*
X18018125Y-8894375D01*
X17943125Y-8969375D01*
X18018125Y-9044375D01*
X18022500Y-16771550D02*
X18172500Y-16921550D01*
X18172500Y-16771550D02*
X18022500Y-16921550D01*
X18097500Y-16921550D02*
X18172500Y-16846550D01*
X18097500Y-16771550D01*
X18022500Y-16846550D01*
X18097500Y-16921550D01*
X18175000Y-16515000D02*
X18325000Y-16665000D01*
X18325000Y-16515000D02*
X18175000Y-16665000D01*
X18250000Y-16665000D02*
X18325000Y-16590000D01*
X18250000Y-16515000D01*
X18175000Y-16590000D01*
X18250000Y-16665000D01*
X18260625Y-11053375D02*
X18410625Y-11203375D01*
X18410625Y-11053375D02*
X18260625Y-11203375D01*
X18335625Y-11203375D02*
X18410625Y-11128375D01*
X18335625Y-11053375D01*
X18260625Y-11128375D01*
X18335625Y-11203375D01*
X18419425Y-14609375D02*
X18569425Y-14759375D01*
X18569425Y-14609375D02*
X18419425Y-14759375D01*
X18494425Y-14759375D02*
X18569425Y-14684375D01*
X18494425Y-14609375D01*
X18419425Y-14684375D01*
X18494425Y-14759375D01*
X18490000Y-16768375D02*
X18640000Y-16918375D01*
X18640000Y-16768375D02*
X18490000Y-16918375D01*
X18565000Y-16918375D02*
X18640000Y-16843375D01*
X18565000Y-16768375D01*
X18490000Y-16843375D01*
X18565000Y-16918375D01*
X18657500Y-16517550D02*
X18807500Y-16667550D01*
X18807500Y-16517550D02*
X18657500Y-16667550D01*
X18732500Y-16667550D02*
X18807500Y-16592550D01*
X18732500Y-16517550D01*
X18657500Y-16592550D01*
X18732500Y-16667550D01*
X18736825Y-12958375D02*
X18886825Y-13108375D01*
X18886825Y-12958375D02*
X18736825Y-13108375D01*
X18811825Y-13108375D02*
X18886825Y-13033375D01*
X18811825Y-12958375D01*
X18736825Y-13033375D01*
X18811825Y-13108375D01*
X18895625Y-10799375D02*
X19045625Y-10949375D01*
X19045625Y-10799375D02*
X18895625Y-10949375D01*
X18970625Y-10949375D02*
X19045625Y-10874375D01*
X18970625Y-10799375D01*
X18895625Y-10874375D01*
X18970625Y-10949375D01*
X19125000Y-16514375D02*
X19275000Y-16664375D01*
X19275000Y-16514375D02*
X19125000Y-16664375D01*
X19200000Y-16664375D02*
X19275000Y-16589375D01*
X19200000Y-16514375D01*
X19125000Y-16589375D01*
X19200000Y-16664375D01*
X19213125Y-9148375D02*
X19363125Y-9298375D01*
X19363125Y-9148375D02*
X19213125Y-9298375D01*
X19288125Y-9298375D02*
X19363125Y-9223375D01*
X19288125Y-9148375D01*
X19213125Y-9223375D01*
X19288125Y-9298375D01*
X19371825Y-12704375D02*
X19521825Y-12854375D01*
X19521825Y-12704375D02*
X19371825Y-12854375D01*
X19446825Y-12854375D02*
X19521825Y-12779375D01*
X19446825Y-12704375D01*
X19371825Y-12779375D01*
X19446825Y-12854375D01*
X19689425Y-14863375D02*
X19839425Y-15013375D01*
X19839425Y-14863375D02*
X19689425Y-15013375D01*
X19764425Y-15013375D02*
X19839425Y-14938375D01*
X19764425Y-14863375D01*
X19689425Y-14938375D01*
X19764425Y-15013375D01*
X19848125Y-8894375D02*
X19998125Y-9044375D01*
X19998125Y-8894375D02*
X19848125Y-9044375D01*
X19923125Y-9044375D02*
X19998125Y-8969375D01*
X19923125Y-8894375D01*
X19848125Y-8969375D01*
X19923125Y-9044375D01*
X20165625Y-11053375D02*
X20315625Y-11203375D01*
X20315625Y-11053375D02*
X20165625Y-11203375D01*
X20240625Y-11203375D02*
X20315625Y-11128375D01*
X20240625Y-11053375D01*
X20165625Y-11128375D01*
X20240625Y-11203375D01*
X20324425Y-14609375D02*
X20474425Y-14759375D01*
X20474425Y-14609375D02*
X20324425Y-14759375D01*
X20399425Y-14759375D02*
X20474425Y-14684375D01*
X20399425Y-14609375D01*
X20324425Y-14684375D01*
X20399425Y-14759375D01*
X20641825Y-12958375D02*
X20791825Y-13108375D01*
X20791825Y-12958375D02*
X20641825Y-13108375D01*
X20716825Y-13108375D02*
X20791825Y-13033375D01*
X20716825Y-12958375D01*
X20641825Y-13033375D01*
X20716825Y-13108375D01*
X20800625Y-10799375D02*
X20950625Y-10949375D01*
X20950625Y-10799375D02*
X20800625Y-10949375D01*
X20875625Y-10949375D02*
X20950625Y-10874375D01*
X20875625Y-10799375D01*
X20800625Y-10874375D01*
X20875625Y-10949375D01*
X21118125Y-9148375D02*
X21268125Y-9298375D01*
X21268125Y-9148375D02*
X21118125Y-9298375D01*
X21193125Y-9298375D02*
X21268125Y-9223375D01*
X21193125Y-9148375D01*
X21118125Y-9223375D01*
X21193125Y-9298375D01*
X21276825Y-12704375D02*
X21426825Y-12854375D01*
X21426825Y-12704375D02*
X21276825Y-12854375D01*
X21351825Y-12854375D02*
X21426825Y-12779375D01*
X21351825Y-12704375D01*
X21276825Y-12779375D01*
X21351825Y-12854375D01*
X21355000Y-16769000D02*
X21505000Y-16919000D01*
X21505000Y-16769000D02*
X21355000Y-16919000D01*
X21430000Y-16919000D02*
X21505000Y-16844000D01*
X21430000Y-16769000D01*
X21355000Y-16844000D01*
X21430000Y-16919000D01*
X21594425Y-14863375D02*
X21744425Y-15013375D01*
X21744425Y-14863375D02*
X21594425Y-15013375D01*
X21669425Y-15013375D02*
X21744425Y-14938375D01*
X21669425Y-14863375D01*
X21594425Y-14938375D01*
X21669425Y-15013375D01*
X21753125Y-8894375D02*
X21903125Y-9044375D01*
X21903125Y-8894375D02*
X21753125Y-9044375D01*
X21828125Y-9044375D02*
X21903125Y-8969375D01*
X21828125Y-8894375D01*
X21753125Y-8969375D01*
X21828125Y-9044375D01*
X21825000Y-16769000D02*
X21975000Y-16919000D01*
X21975000Y-16769000D02*
X21825000Y-16919000D01*
X21900000Y-16919000D02*
X21975000Y-16844000D01*
X21900000Y-16769000D01*
X21825000Y-16844000D01*
X21900000Y-16919000D01*
X21990000Y-16515000D02*
X22140000Y-16665000D01*
X22140000Y-16515000D02*
X21990000Y-16665000D01*
X22065000Y-16665000D02*
X22140000Y-16590000D01*
X22065000Y-16515000D01*
X21990000Y-16590000D01*
X22065000Y-16665000D01*
X22070625Y-11053375D02*
X22220625Y-11203375D01*
X22220625Y-11053375D02*
X22070625Y-11203375D01*
X22145625Y-11203375D02*
X22220625Y-11128375D01*
X22145625Y-11053375D01*
X22070625Y-11128375D01*
X22145625Y-11203375D01*
X22229425Y-14609375D02*
X22379425Y-14759375D01*
X22379425Y-14609375D02*
X22229425Y-14759375D01*
X22304425Y-14759375D02*
X22379425Y-14684375D01*
X22304425Y-14609375D01*
X22229425Y-14684375D01*
X22304425Y-14759375D01*
X22460000Y-16515000D02*
X22610000Y-16665000D01*
X22610000Y-16515000D02*
X22460000Y-16665000D01*
X22535000Y-16665000D02*
X22610000Y-16590000D01*
X22535000Y-16515000D01*
X22460000Y-16590000D01*
X22535000Y-16665000D01*
X22546825Y-12958375D02*
X22696825Y-13108375D01*
X22696825Y-12958375D02*
X22546825Y-13108375D01*
X22621825Y-13108375D02*
X22696825Y-13033375D01*
X22621825Y-12958375D01*
X22546825Y-13033375D01*
X22621825Y-13108375D01*
X22705625Y-10799375D02*
X22855625Y-10949375D01*
X22855625Y-10799375D02*
X22705625Y-10949375D01*
X22780625Y-10949375D02*
X22855625Y-10874375D01*
X22780625Y-10799375D01*
X22705625Y-10874375D01*
X22780625Y-10949375D01*
X23023125Y-9148375D02*
X23173125Y-9298375D01*
X23173125Y-9148375D02*
X23023125Y-9298375D01*
X23098125Y-9298375D02*
X23173125Y-9223375D01*
X23098125Y-9148375D01*
X23023125Y-9223375D01*
X23098125Y-9298375D01*
X23181825Y-12704375D02*
X23331825Y-12854375D01*
X23331825Y-12704375D02*
X23181825Y-12854375D01*
X23256825Y-12854375D02*
X23331825Y-12779375D01*
X23256825Y-12704375D01*
X23181825Y-12779375D01*
X23256825Y-12854375D01*
X23499425Y-14863375D02*
X23649425Y-15013375D01*
X23649425Y-14863375D02*
X23499425Y-15013375D01*
X23574425Y-15013375D02*
X23649425Y-14938375D01*
X23574425Y-14863375D01*
X23499425Y-14938375D01*
X23574425Y-15013375D01*
X23658125Y-8894375D02*
X23808125Y-9044375D01*
X23808125Y-8894375D02*
X23658125Y-9044375D01*
X23733125Y-9044375D02*
X23808125Y-8969375D01*
X23733125Y-8894375D01*
X23658125Y-8969375D01*
X23733125Y-9044375D01*
X23975625Y-11053375D02*
X24125625Y-11203375D01*
X24125625Y-11053375D02*
X23975625Y-11203375D01*
X24050625Y-11203375D02*
X24125625Y-11128375D01*
X24050625Y-11053375D01*
X23975625Y-11128375D01*
X24050625Y-11203375D01*
X24134425Y-14609375D02*
X24284425Y-14759375D01*
X24284425Y-14609375D02*
X24134425Y-14759375D01*
X24209425Y-14759375D02*
X24284425Y-14684375D01*
X24209425Y-14609375D01*
X24134425Y-14684375D01*
X24209425Y-14759375D01*
X24451825Y-12958375D02*
X24601825Y-13108375D01*
X24601825Y-12958375D02*
X24451825Y-13108375D01*
X24526825Y-13108375D02*
X24601825Y-13033375D01*
X24526825Y-12958375D01*
X24451825Y-13033375D01*
X24526825Y-13108375D01*
X24610625Y-10799375D02*
X24760625Y-10949375D01*
X24760625Y-10799375D02*
X24610625Y-10949375D01*
X24685625Y-10949375D02*
X24760625Y-10874375D01*
X24685625Y-10799375D01*
X24610625Y-10874375D01*
X24685625Y-10949375D01*
X24928125Y-9148375D02*
X25078125Y-9298375D01*
X25078125Y-9148375D02*
X24928125Y-9298375D01*
X25003125Y-9298375D02*
X25078125Y-9223375D01*
X25003125Y-9148375D01*
X24928125Y-9223375D01*
X25003125Y-9298375D01*
X25086825Y-12704375D02*
X25236825Y-12854375D01*
X25236825Y-12704375D02*
X25086825Y-12854375D01*
X25161825Y-12854375D02*
X25236825Y-12779375D01*
X25161825Y-12704375D01*
X25086825Y-12779375D01*
X25161825Y-12854375D01*
X25169000Y-16771000D02*
X25319000Y-16921000D01*
X25319000Y-16771000D02*
X25169000Y-16921000D01*
X25244000Y-16921000D02*
X25319000Y-16846000D01*
X25244000Y-16771000D01*
X25169000Y-16846000D01*
X25244000Y-16921000D01*
X25404425Y-14863375D02*
X25554425Y-15013375D01*
X25554425Y-14863375D02*
X25404425Y-15013375D01*
X25479425Y-15013375D02*
X25554425Y-14938375D01*
X25479425Y-14863375D01*
X25404425Y-14938375D01*
X25479425Y-15013375D01*
X25563125Y-8894375D02*
X25713125Y-9044375D01*
X25713125Y-8894375D02*
X25563125Y-9044375D01*
X25638125Y-9044375D02*
X25713125Y-8969375D01*
X25638125Y-8894375D01*
X25563125Y-8969375D01*
X25638125Y-9044375D01*
X25804000Y-16517000D02*
X25954000Y-16667000D01*
X25954000Y-16517000D02*
X25804000Y-16667000D01*
X25879000Y-16667000D02*
X25954000Y-16592000D01*
X25879000Y-16517000D01*
X25804000Y-16592000D01*
X25879000Y-16667000D01*
X25880625Y-11053375D02*
X26030625Y-11203375D01*
X26030625Y-11053375D02*
X25880625Y-11203375D01*
X25955625Y-11203375D02*
X26030625Y-11128375D01*
X25955625Y-11053375D01*
X25880625Y-11128375D01*
X25955625Y-11203375D01*
X26039425Y-14609375D02*
X26189425Y-14759375D01*
X26189425Y-14609375D02*
X26039425Y-14759375D01*
X26114425Y-14759375D02*
X26189425Y-14684375D01*
X26114425Y-14609375D01*
X26039425Y-14684375D01*
X26114425Y-14759375D01*
X26356825Y-12958375D02*
X26506825Y-13108375D01*
X26506825Y-12958375D02*
X26356825Y-13108375D01*
X26431825Y-13108375D02*
X26506825Y-13033375D01*
X26431825Y-12958375D01*
X26356825Y-13033375D01*
X26431825Y-13108375D01*
X26515625Y-10799375D02*
X26665625Y-10949375D01*
X26665625Y-10799375D02*
X26515625Y-10949375D01*
X26590625Y-10949375D02*
X26665625Y-10874375D01*
X26590625Y-10799375D01*
X26515625Y-10874375D01*
X26590625Y-10949375D01*
X26833125Y-9148375D02*
X26983125Y-9298375D01*
X26983125Y-9148375D02*
X26833125Y-9298375D01*
X26908125Y-9298375D02*
X26983125Y-9223375D01*
X26908125Y-9148375D01*
X26833125Y-9223375D01*
X26908125Y-9298375D01*
X26991825Y-12704375D02*
X27141825Y-12854375D01*
X27141825Y-12704375D02*
X26991825Y-12854375D01*
X27066825Y-12854375D02*
X27141825Y-12779375D01*
X27066825Y-12704375D01*
X26991825Y-12779375D01*
X27066825Y-12854375D01*
X27309425Y-14863375D02*
X27459425Y-15013375D01*
X27459425Y-14863375D02*
X27309425Y-15013375D01*
X27384425Y-15013375D02*
X27459425Y-14938375D01*
X27384425Y-14863375D01*
X27309425Y-14938375D01*
X27384425Y-15013375D01*
X27468125Y-8894375D02*
X27618125Y-9044375D01*
X27618125Y-8894375D02*
X27468125Y-9044375D01*
X27543125Y-9044375D02*
X27618125Y-8969375D01*
X27543125Y-8894375D01*
X27468125Y-8969375D01*
X27543125Y-9044375D01*
X27569000Y-16767362D02*
X27719000Y-16917362D01*
X27719000Y-16767362D02*
X27569000Y-16917362D01*
X27644000Y-16917362D02*
X27719000Y-16842362D01*
X27644000Y-16767362D01*
X27569000Y-16842362D01*
X27644000Y-16917362D01*
X27785625Y-11053375D02*
X27935625Y-11203375D01*
X27935625Y-11053375D02*
X27785625Y-11203375D01*
X27860625Y-11203375D02*
X27935625Y-11128375D01*
X27860625Y-11053375D01*
X27785625Y-11128375D01*
X27860625Y-11203375D01*
X27944425Y-14609375D02*
X28094425Y-14759375D01*
X28094425Y-14609375D02*
X27944425Y-14759375D01*
X28019425Y-14759375D02*
X28094425Y-14684375D01*
X28019425Y-14609375D01*
X27944425Y-14684375D01*
X28019425Y-14759375D01*
X28204000Y-16513362D02*
X28354000Y-16663362D01*
X28354000Y-16513362D02*
X28204000Y-16663362D01*
X28279000Y-16663362D02*
X28354000Y-16588362D01*
X28279000Y-16513362D01*
X28204000Y-16588362D01*
X28279000Y-16663362D01*
X28261825Y-12958375D02*
X28411825Y-13108375D01*
X28411825Y-12958375D02*
X28261825Y-13108375D01*
X28336825Y-13108375D02*
X28411825Y-13033375D01*
X28336825Y-12958375D01*
X28261825Y-13033375D01*
X28336825Y-13108375D01*
X28420625Y-10799375D02*
X28570625Y-10949375D01*
X28570625Y-10799375D02*
X28420625Y-10949375D01*
X28495625Y-10949375D02*
X28570625Y-10874375D01*
X28495625Y-10799375D01*
X28420625Y-10874375D01*
X28495625Y-10949375D01*
X28738125Y-9148375D02*
X28888125Y-9298375D01*
X28888125Y-9148375D02*
X28738125Y-9298375D01*
X28813125Y-9298375D02*
X28888125Y-9223375D01*
X28813125Y-9148375D01*
X28738125Y-9223375D01*
X28813125Y-9298375D01*
X28896825Y-12704375D02*
X29046825Y-12854375D01*
X29046825Y-12704375D02*
X28896825Y-12854375D01*
X28971825Y-12854375D02*
X29046825Y-12779375D01*
X28971825Y-12704375D01*
X28896825Y-12779375D01*
X28971825Y-12854375D01*
X29373125Y-8894375D02*
X29523125Y-9044375D01*
X29523125Y-8894375D02*
X29373125Y-9044375D01*
X29448125Y-9044375D02*
X29523125Y-8969375D01*
X29448125Y-8894375D01*
X29373125Y-8969375D01*
X29448125Y-9044375D01*
X29690625Y-11053375D02*
X29840625Y-11203375D01*
X29840625Y-11053375D02*
X29690625Y-11203375D01*
X29765625Y-11203375D02*
X29840625Y-11128375D01*
X29765625Y-11053375D01*
X29690625Y-11128375D01*
X29765625Y-11203375D01*
X29928725Y-14863375D02*
X30078725Y-15013375D01*
X30078725Y-14863375D02*
X29928725Y-15013375D01*
X30003725Y-15013375D02*
X30078725Y-14938375D01*
X30003725Y-14863375D01*
X29928725Y-14938375D01*
X30003725Y-15013375D01*
X30325625Y-10799375D02*
X30475625Y-10949375D01*
X30475625Y-10799375D02*
X30325625Y-10949375D01*
X30400625Y-10949375D02*
X30475625Y-10874375D01*
X30400625Y-10799375D01*
X30325625Y-10874375D01*
X30400625Y-10949375D01*
X30563725Y-14609375D02*
X30713725Y-14759375D01*
X30713725Y-14609375D02*
X30563725Y-14759375D01*
X30638725Y-14759375D02*
X30713725Y-14684375D01*
X30638725Y-14609375D01*
X30563725Y-14684375D01*
X30638725Y-14759375D01*
X30643125Y-16768375D02*
X30793125Y-16918375D01*
X30793125Y-16768375D02*
X30643125Y-16918375D01*
X30718125Y-16918375D02*
X30793125Y-16843375D01*
X30718125Y-16768375D01*
X30643125Y-16843375D01*
X30718125Y-16918375D01*
X31278125Y-16514375D02*
X31428125Y-16664375D01*
X31428125Y-16514375D02*
X31278125Y-16664375D01*
X31353125Y-16664375D02*
X31428125Y-16589375D01*
X31353125Y-16514375D01*
X31278125Y-16589375D01*
X31353125Y-16664375D01*
X31357525Y-12958375D02*
X31507525Y-13108375D01*
X31507525Y-12958375D02*
X31357525Y-13108375D01*
X31432525Y-13108375D02*
X31507525Y-13033375D01*
X31432525Y-12958375D01*
X31357525Y-13033375D01*
X31432525Y-13108375D01*
X31595625Y-9148375D02*
X31745625Y-9298375D01*
X31745625Y-9148375D02*
X31595625Y-9298375D01*
X31670625Y-9298375D02*
X31745625Y-9223375D01*
X31670625Y-9148375D01*
X31595625Y-9223375D01*
X31670625Y-9298375D01*
X31992525Y-12704375D02*
X32142525Y-12854375D01*
X32142525Y-12704375D02*
X31992525Y-12854375D01*
X32067525Y-12854375D02*
X32142525Y-12779375D01*
X32067525Y-12704375D01*
X31992525Y-12779375D01*
X32067525Y-12854375D01*
X32071825Y-11053375D02*
X32221825Y-11203375D01*
X32221825Y-11053375D02*
X32071825Y-11203375D01*
X32146825Y-11203375D02*
X32221825Y-11128375D01*
X32146825Y-11053375D01*
X32071825Y-11128375D01*
X32146825Y-11203375D01*
X32230625Y-8894375D02*
X32380625Y-9044375D01*
X32380625Y-8894375D02*
X32230625Y-9044375D01*
X32305625Y-9044375D02*
X32380625Y-8969375D01*
X32305625Y-8894375D01*
X32230625Y-8969375D01*
X32305625Y-9044375D01*
X32548125Y-14863375D02*
X32698125Y-15013375D01*
X32698125Y-14863375D02*
X32548125Y-15013375D01*
X32623125Y-15013375D02*
X32698125Y-14938375D01*
X32623125Y-14863375D01*
X32548125Y-14938375D01*
X32623125Y-15013375D01*
X32548125Y-16768375D02*
X32698125Y-16918375D01*
X32698125Y-16768375D02*
X32548125Y-16918375D01*
X32623125Y-16918375D02*
X32698125Y-16843375D01*
X32623125Y-16768375D01*
X32548125Y-16843375D01*
X32623125Y-16918375D01*
X32706825Y-10799375D02*
X32856825Y-10949375D01*
X32856825Y-10799375D02*
X32706825Y-10949375D01*
X32781825Y-10949375D02*
X32856825Y-10874375D01*
X32781825Y-10799375D01*
X32706825Y-10874375D01*
X32781825Y-10949375D01*
X33183125Y-14609375D02*
X33333125Y-14759375D01*
X33333125Y-14609375D02*
X33183125Y-14759375D01*
X33258125Y-14759375D02*
X33333125Y-14684375D01*
X33258125Y-14609375D01*
X33183125Y-14684375D01*
X33258125Y-14759375D01*
X33183125Y-16514375D02*
X33333125Y-16664375D01*
X33333125Y-16514375D02*
X33183125Y-16664375D01*
X33258125Y-16664375D02*
X33333125Y-16589375D01*
X33258125Y-16514375D01*
X33183125Y-16589375D01*
X33258125Y-16664375D01*
X34274950Y-9387200D02*
X34424950Y-9537200D01*
X34424950Y-9387200D02*
X34274950Y-9537200D01*
X34349950Y-9537200D02*
X34424950Y-9462200D01*
X34349950Y-9387200D01*
X34274950Y-9462200D01*
X34349950Y-9537200D01*
X34284950Y-9397200D02*
X34284950Y-9527200D01*
X34414950Y-9397200D02*
X34414950Y-9527200D01*
X34284950Y-9527200D02*
G75*
G03*
X34414950Y-9527200I65000J0D01*
G01*
X34414950Y-9397200D02*
G75*
G03*
X34284950Y-9397200I-65000J0D01*
G01*
X34452600Y-9150800D02*
X34602600Y-9300800D01*
X34602600Y-9150800D02*
X34452600Y-9300800D01*
X34527600Y-9300800D02*
X34602600Y-9225800D01*
X34527600Y-9150800D01*
X34452600Y-9225800D01*
X34527600Y-9300800D01*
X34453125Y-11053375D02*
X34603125Y-11203375D01*
X34603125Y-11053375D02*
X34453125Y-11203375D01*
X34528125Y-11203375D02*
X34603125Y-11128375D01*
X34528125Y-11053375D01*
X34453125Y-11128375D01*
X34528125Y-11203375D01*
X34453125Y-12958375D02*
X34603125Y-13108375D01*
X34603125Y-12958375D02*
X34453125Y-13108375D01*
X34528125Y-13108375D02*
X34603125Y-13033375D01*
X34528125Y-12958375D01*
X34453125Y-13033375D01*
X34528125Y-13108375D01*
X34453125Y-14863375D02*
X34603125Y-15013375D01*
X34603125Y-14863375D02*
X34453125Y-15013375D01*
X34528125Y-15013375D02*
X34603125Y-14938375D01*
X34528125Y-14863375D01*
X34453125Y-14938375D01*
X34528125Y-15013375D01*
X34453125Y-16768375D02*
X34603125Y-16918375D01*
X34603125Y-16768375D02*
X34453125Y-16918375D01*
X34528125Y-16918375D02*
X34603125Y-16843375D01*
X34528125Y-16768375D01*
X34453125Y-16843375D01*
X34528125Y-16918375D01*
X35087600Y-8896800D02*
X35237600Y-9046800D01*
X35237600Y-8896800D02*
X35087600Y-9046800D01*
X35162600Y-9046800D02*
X35237600Y-8971800D01*
X35162600Y-8896800D01*
X35087600Y-8971800D01*
X35162600Y-9046800D01*
X35088125Y-10799375D02*
X35238125Y-10949375D01*
X35238125Y-10799375D02*
X35088125Y-10949375D01*
X35163125Y-10949375D02*
X35238125Y-10874375D01*
X35163125Y-10799375D01*
X35088125Y-10874375D01*
X35163125Y-10949375D01*
X35088125Y-12704375D02*
X35238125Y-12854375D01*
X35238125Y-12704375D02*
X35088125Y-12854375D01*
X35163125Y-12854375D02*
X35238125Y-12779375D01*
X35163125Y-12704375D01*
X35088125Y-12779375D01*
X35163125Y-12854375D01*
X35088125Y-14609375D02*
X35238125Y-14759375D01*
X35238125Y-14609375D02*
X35088125Y-14759375D01*
X35163125Y-14759375D02*
X35238125Y-14684375D01*
X35163125Y-14609375D01*
X35088125Y-14684375D01*
X35163125Y-14759375D01*
X35088125Y-16514375D02*
X35238125Y-16664375D01*
X35238125Y-16514375D02*
X35088125Y-16664375D01*
X35163125Y-16664375D02*
X35238125Y-16589375D01*
X35163125Y-16514375D01*
X35088125Y-16589375D01*
X35163125Y-16664375D01*
X35394950Y-9387200D02*
X35544950Y-9537200D01*
X35544950Y-9387200D02*
X35394950Y-9537200D01*
X35469950Y-9537200D02*
X35544950Y-9462200D01*
X35469950Y-9387200D01*
X35394950Y-9462200D01*
X35469950Y-9537200D01*
X35404950Y-9397200D02*
X35404950Y-9527200D01*
X35534950Y-9397200D02*
X35534950Y-9527200D01*
X35404950Y-9527200D02*
G75*
G03*
X35534950Y-9527200I65000J0D01*
G01*
X35534950Y-9397200D02*
G75*
G03*
X35404950Y-9397200I-65000J0D01*
G01*
X5776638Y-6059475D02*
X5776638Y-6279475D01*
X5666638Y-6169475D02*
X5886638Y-6169475D01*
X5886638Y-6169475D02*
G75*
G03*
X5886638Y-6169475I-110000J0D01*
G01*
X5776638Y-7934475D02*
X5776638Y-8154475D01*
X5666638Y-8044475D02*
X5886638Y-8044475D01*
X5886638Y-8044475D02*
G75*
G03*
X5886638Y-8044475I-110000J0D01*
G01*
X10143600Y-16084800D02*
X10143600Y-16304800D01*
X10033600Y-16194800D02*
X10253600Y-16194800D01*
X10253600Y-16194800D02*
G75*
G03*
X10253600Y-16194800I-110000J0D01*
G01*
X11093600Y-10274800D02*
X11093600Y-10494800D01*
X10983600Y-10384800D02*
X11203600Y-10384800D01*
X11203600Y-10384800D02*
G75*
G03*
X11203600Y-10384800I-110000J0D01*
G01*
X19943600Y-16084800D02*
X19943600Y-16304800D01*
X19833600Y-16194800D02*
X20053600Y-16194800D01*
X20053600Y-16194800D02*
G75*
G03*
X20053600Y-16194800I-110000J0D01*
G01*
X20621335Y-6059475D02*
X20621335Y-6279475D01*
X20511335Y-6169475D02*
X20731335Y-6169475D01*
X20731335Y-6169475D02*
G75*
G03*
X20731335Y-6169475I-110000J0D01*
G01*
X20621335Y-7934475D02*
X20621335Y-8154475D01*
X20511335Y-8044475D02*
X20731335Y-8044475D01*
X20731335Y-8044475D02*
G75*
G03*
X20731335Y-8044475I-110000J0D01*
G01*
X20623600Y-10274800D02*
X20623600Y-10494800D01*
X20513600Y-10384800D02*
X20733600Y-10384800D01*
X20733600Y-10384800D02*
G75*
G03*
X20733600Y-10384800I-110000J0D01*
G01*
X30143600Y-10274800D02*
X30143600Y-10494800D01*
X30033600Y-10384800D02*
X30253600Y-10384800D01*
X30253600Y-10384800D02*
G75*
G03*
X30253600Y-10384800I-110000J0D01*
G01*
X32053600Y-16074800D02*
X32053600Y-16294800D01*
X31943600Y-16184800D02*
X32163600Y-16184800D01*
X32163600Y-16184800D02*
G75*
G03*
X32163600Y-16184800I-110000J0D01*
G01*
X35466031Y-6059475D02*
X35466031Y-6279475D01*
X35356031Y-6169475D02*
X35576031Y-6169475D01*
X35576031Y-6169475D02*
G75*
G03*
X35576031Y-6169475I-110000J0D01*
G01*
X35466031Y-7934475D02*
X35466031Y-8154475D01*
X35356031Y-8044475D02*
X35576031Y-8044475D01*
X35576031Y-8044475D02*
G75*
G03*
X35576031Y-8044475I-110000J0D01*
G01*
D12*
X5655567Y-18523436D02*
X5655567Y-18223436D01*
X5726995Y-18223436D01*
X5769852Y-18237722D01*
X5798424Y-18266293D01*
X5812709Y-18294865D01*
X5826995Y-18352008D01*
X5826995Y-18394865D01*
X5812709Y-18452008D01*
X5798424Y-18480579D01*
X5769852Y-18509151D01*
X5726995Y-18523436D01*
X5655567Y-18523436D01*
X5955567Y-18523436D02*
X5955567Y-18323436D01*
X5955567Y-18380579D02*
X5969852Y-18352008D01*
X5984138Y-18337722D01*
X6012709Y-18323436D01*
X6041281Y-18323436D01*
X6141281Y-18523436D02*
X6141281Y-18323436D01*
X6141281Y-18223436D02*
X6126995Y-18237722D01*
X6141281Y-18252008D01*
X6155567Y-18237722D01*
X6141281Y-18223436D01*
X6141281Y-18252008D01*
X6326995Y-18523436D02*
X6298424Y-18509151D01*
X6284138Y-18480579D01*
X6284138Y-18223436D01*
X6484138Y-18523436D02*
X6455567Y-18509151D01*
X6441281Y-18480579D01*
X6441281Y-18223436D01*
X6826995Y-18523436D02*
X6826995Y-18223436D01*
X6926995Y-18437722D01*
X7026995Y-18223436D01*
X7026995Y-18523436D01*
X7298424Y-18523436D02*
X7298424Y-18366293D01*
X7284138Y-18337722D01*
X7255567Y-18323436D01*
X7198424Y-18323436D01*
X7169852Y-18337722D01*
X7298424Y-18509151D02*
X7269852Y-18523436D01*
X7198424Y-18523436D01*
X7169852Y-18509151D01*
X7155567Y-18480579D01*
X7155567Y-18452008D01*
X7169852Y-18423436D01*
X7198424Y-18409151D01*
X7269852Y-18409151D01*
X7298424Y-18394865D01*
X7441281Y-18323436D02*
X7441281Y-18623436D01*
X7441281Y-18337722D02*
X7469852Y-18323436D01*
X7526995Y-18323436D01*
X7555567Y-18337722D01*
X7569852Y-18352008D01*
X7584138Y-18380579D01*
X7584138Y-18466293D01*
X7569852Y-18494865D01*
X7555567Y-18509151D01*
X7526995Y-18523436D01*
X7469852Y-18523436D01*
X7441281Y-18509151D01*
X7712709Y-18494865D02*
X7726995Y-18509151D01*
X7712709Y-18523436D01*
X7698424Y-18509151D01*
X7712709Y-18494865D01*
X7712709Y-18523436D01*
X7712709Y-18337722D02*
X7726995Y-18352008D01*
X7712709Y-18366293D01*
X7698424Y-18352008D01*
X7712709Y-18337722D01*
X7712709Y-18366293D01*
X5329138Y-18997722D02*
X5369138Y-19037722D01*
X5369138Y-18997722D02*
X5329138Y-19037722D01*
X5712709Y-18853436D02*
X5741281Y-18853436D01*
X5769852Y-18867722D01*
X5784138Y-18882008D01*
X5798424Y-18910579D01*
X5812709Y-18967722D01*
X5812709Y-19039151D01*
X5798424Y-19096293D01*
X5784138Y-19124865D01*
X5769852Y-19139151D01*
X5741281Y-19153436D01*
X5712709Y-19153436D01*
X5684138Y-19139151D01*
X5669852Y-19124865D01*
X5655567Y-19096293D01*
X5641281Y-19039151D01*
X5641281Y-18967722D01*
X5655567Y-18910579D01*
X5669852Y-18882008D01*
X5684138Y-18867722D01*
X5712709Y-18853436D01*
X5941281Y-19124865D02*
X5955567Y-19139151D01*
X5941281Y-19153436D01*
X5926995Y-19139151D01*
X5941281Y-19124865D01*
X5941281Y-19153436D01*
X6212709Y-18953436D02*
X6212709Y-19153436D01*
X6141281Y-18839151D02*
X6069852Y-19053436D01*
X6255567Y-19053436D01*
X6426995Y-18853436D02*
X6455567Y-18853436D01*
X6484138Y-18867722D01*
X6498424Y-18882008D01*
X6512709Y-18910579D01*
X6526995Y-18967722D01*
X6526995Y-19039151D01*
X6512709Y-19096293D01*
X6498424Y-19124865D01*
X6484138Y-19139151D01*
X6455567Y-19153436D01*
X6426995Y-19153436D01*
X6398424Y-19139151D01*
X6384138Y-19124865D01*
X6369852Y-19096293D01*
X6355567Y-19039151D01*
X6355567Y-18967722D01*
X6369852Y-18910579D01*
X6384138Y-18882008D01*
X6398424Y-18867722D01*
X6426995Y-18853436D01*
X6712709Y-18853436D02*
X6741281Y-18853436D01*
X6769852Y-18867722D01*
X6784138Y-18882008D01*
X6798424Y-18910579D01*
X6812709Y-18967722D01*
X6812709Y-19039151D01*
X6798424Y-19096293D01*
X6784138Y-19124865D01*
X6769852Y-19139151D01*
X6741281Y-19153436D01*
X6712709Y-19153436D01*
X6684138Y-19139151D01*
X6669852Y-19124865D01*
X6655567Y-19096293D01*
X6641281Y-19039151D01*
X6641281Y-18967722D01*
X6655567Y-18910579D01*
X6669852Y-18882008D01*
X6684138Y-18867722D01*
X6712709Y-18853436D01*
X6941281Y-19153436D02*
X6941281Y-18953436D01*
X6941281Y-18982008D02*
X6955567Y-18967722D01*
X6984138Y-18953436D01*
X7026995Y-18953436D01*
X7055567Y-18967722D01*
X7069852Y-18996293D01*
X7069852Y-19153436D01*
X7069852Y-18996293D02*
X7084138Y-18967722D01*
X7112709Y-18953436D01*
X7155567Y-18953436D01*
X7184138Y-18967722D01*
X7198424Y-18996293D01*
X7198424Y-19153436D01*
X7341281Y-19153436D02*
X7341281Y-18953436D01*
X7341281Y-18982008D02*
X7355567Y-18967722D01*
X7384138Y-18953436D01*
X7426995Y-18953436D01*
X7455567Y-18967722D01*
X7469852Y-18996293D01*
X7469852Y-19153436D01*
X7469852Y-18996293D02*
X7484138Y-18967722D01*
X7512709Y-18953436D01*
X7555567Y-18953436D01*
X7584138Y-18967722D01*
X7598424Y-18996293D01*
X7598424Y-19153436D01*
X8184138Y-18839151D02*
X7926995Y-19224865D01*
X8569852Y-18853436D02*
X8598424Y-18853436D01*
X8626995Y-18867722D01*
X8641281Y-18882008D01*
X8655567Y-18910579D01*
X8669852Y-18967722D01*
X8669852Y-19039151D01*
X8655567Y-19096293D01*
X8641281Y-19124865D01*
X8626995Y-19139151D01*
X8598424Y-19153436D01*
X8569852Y-19153436D01*
X8541281Y-19139151D01*
X8526995Y-19124865D01*
X8512710Y-19096293D01*
X8498424Y-19039151D01*
X8498424Y-18967722D01*
X8512710Y-18910579D01*
X8526995Y-18882008D01*
X8541281Y-18867722D01*
X8569852Y-18853436D01*
X8798424Y-19124865D02*
X8812710Y-19139151D01*
X8798424Y-19153436D01*
X8784138Y-19139151D01*
X8798424Y-19124865D01*
X8798424Y-19153436D01*
X8998424Y-18853436D02*
X9026995Y-18853436D01*
X9055567Y-18867722D01*
X9069852Y-18882008D01*
X9084138Y-18910579D01*
X9098424Y-18967722D01*
X9098424Y-19039151D01*
X9084138Y-19096293D01*
X9069852Y-19124865D01*
X9055567Y-19139151D01*
X9026995Y-19153436D01*
X8998424Y-19153436D01*
X8969852Y-19139151D01*
X8955567Y-19124865D01*
X8941281Y-19096293D01*
X8926995Y-19039151D01*
X8926995Y-18967722D01*
X8941281Y-18910579D01*
X8955567Y-18882008D01*
X8969852Y-18867722D01*
X8998424Y-18853436D01*
X9384138Y-19153436D02*
X9212710Y-19153436D01*
X9298424Y-19153436D02*
X9298424Y-18853436D01*
X9269852Y-18896293D01*
X9241281Y-18924865D01*
X9212710Y-18939151D01*
X9655567Y-18853436D02*
X9512710Y-18853436D01*
X9498424Y-18996293D01*
X9512710Y-18982008D01*
X9541281Y-18967722D01*
X9612710Y-18967722D01*
X9641281Y-18982008D01*
X9655567Y-18996293D01*
X9669852Y-19024865D01*
X9669852Y-19096293D01*
X9655567Y-19124865D01*
X9641281Y-19139151D01*
X9612710Y-19153436D01*
X9541281Y-19153436D01*
X9512710Y-19139151D01*
X9498424Y-19124865D01*
X9769852Y-18853436D02*
X9969852Y-18853436D01*
X9841281Y-19153436D01*
X10069852Y-18853436D02*
X10069852Y-18910579D01*
X10184138Y-18853436D02*
X10184138Y-18910579D01*
X10626995Y-19267722D02*
X10612710Y-19253436D01*
X10584138Y-19210579D01*
X10569852Y-19182008D01*
X10555567Y-19139151D01*
X10541281Y-19067722D01*
X10541281Y-19010579D01*
X10555567Y-18939151D01*
X10569852Y-18896293D01*
X10584138Y-18867722D01*
X10612710Y-18824865D01*
X10626995Y-18810579D01*
X10784138Y-18982008D02*
X10755567Y-18967722D01*
X10741281Y-18953436D01*
X10726995Y-18924865D01*
X10726995Y-18910579D01*
X10741281Y-18882008D01*
X10755567Y-18867722D01*
X10784138Y-18853436D01*
X10841281Y-18853436D01*
X10869852Y-18867722D01*
X10884138Y-18882008D01*
X10898424Y-18910579D01*
X10898424Y-18924865D01*
X10884138Y-18953436D01*
X10869852Y-18967722D01*
X10841281Y-18982008D01*
X10784138Y-18982008D01*
X10755567Y-18996293D01*
X10741281Y-19010579D01*
X10726995Y-19039151D01*
X10726995Y-19096293D01*
X10741281Y-19124865D01*
X10755567Y-19139151D01*
X10784138Y-19153436D01*
X10841281Y-19153436D01*
X10869852Y-19139151D01*
X10884138Y-19124865D01*
X10898424Y-19096293D01*
X10898424Y-19039151D01*
X10884138Y-19010579D01*
X10869852Y-18996293D01*
X10841281Y-18982008D01*
X10998424Y-18853436D02*
X11184138Y-18853436D01*
X11084138Y-18967722D01*
X11126995Y-18967722D01*
X11155567Y-18982008D01*
X11169852Y-18996293D01*
X11184138Y-19024865D01*
X11184138Y-19096293D01*
X11169852Y-19124865D01*
X11155567Y-19139151D01*
X11126995Y-19153436D01*
X11041281Y-19153436D01*
X11012710Y-19139151D01*
X10998424Y-19124865D01*
X11541281Y-19153436D02*
X11541281Y-18853436D01*
X11669852Y-19153436D02*
X11669852Y-18996293D01*
X11655567Y-18967722D01*
X11626995Y-18953436D01*
X11584138Y-18953436D01*
X11555567Y-18967722D01*
X11541281Y-18982008D01*
X11855567Y-19153436D02*
X11826995Y-19139151D01*
X11812709Y-19124865D01*
X11798424Y-19096293D01*
X11798424Y-19010579D01*
X11812709Y-18982008D01*
X11826995Y-18967722D01*
X11855567Y-18953436D01*
X11898424Y-18953436D01*
X11926995Y-18967722D01*
X11941281Y-18982008D01*
X11955567Y-19010579D01*
X11955567Y-19096293D01*
X11941281Y-19124865D01*
X11926995Y-19139151D01*
X11898424Y-19153436D01*
X11855567Y-19153436D01*
X12126995Y-19153436D02*
X12098424Y-19139151D01*
X12084138Y-19110579D01*
X12084138Y-18853436D01*
X12355567Y-19139151D02*
X12326995Y-19153436D01*
X12269852Y-19153436D01*
X12241281Y-19139151D01*
X12226995Y-19110579D01*
X12226995Y-18996293D01*
X12241281Y-18967722D01*
X12269852Y-18953436D01*
X12326995Y-18953436D01*
X12355567Y-18967722D01*
X12369852Y-18996293D01*
X12369852Y-19024865D01*
X12226995Y-19053436D01*
X12484138Y-19139151D02*
X12512709Y-19153436D01*
X12569852Y-19153436D01*
X12598424Y-19139151D01*
X12612709Y-19110579D01*
X12612709Y-19096293D01*
X12598424Y-19067722D01*
X12569852Y-19053436D01*
X12526995Y-19053436D01*
X12498424Y-19039151D01*
X12484138Y-19010579D01*
X12484138Y-18996293D01*
X12498424Y-18967722D01*
X12526995Y-18953436D01*
X12569852Y-18953436D01*
X12598424Y-18967722D01*
X12712709Y-19267722D02*
X12726995Y-19253436D01*
X12755567Y-19210579D01*
X12769852Y-19182008D01*
X12784138Y-19139151D01*
X12798424Y-19067722D01*
X12798424Y-19010579D01*
X12784138Y-18939151D01*
X12769852Y-18896293D01*
X12755567Y-18867722D01*
X12726995Y-18824865D01*
X12712709Y-18810579D01*
X5369138Y-19413722D02*
G75*
G03*
X5369138Y-19413722I-30000J0D01*
G01*
X5712709Y-19249436D02*
X5741281Y-19249436D01*
X5769852Y-19263722D01*
X5784138Y-19278008D01*
X5798424Y-19306579D01*
X5812709Y-19363722D01*
X5812709Y-19435151D01*
X5798424Y-19492293D01*
X5784138Y-19520865D01*
X5769852Y-19535151D01*
X5741281Y-19549436D01*
X5712709Y-19549436D01*
X5684138Y-19535151D01*
X5669852Y-19520865D01*
X5655567Y-19492293D01*
X5641281Y-19435151D01*
X5641281Y-19363722D01*
X5655567Y-19306579D01*
X5669852Y-19278008D01*
X5684138Y-19263722D01*
X5712709Y-19249436D01*
X5941281Y-19520865D02*
X5955567Y-19535151D01*
X5941281Y-19549436D01*
X5926995Y-19535151D01*
X5941281Y-19520865D01*
X5941281Y-19549436D01*
X6212709Y-19249436D02*
X6155567Y-19249436D01*
X6126995Y-19263722D01*
X6112709Y-19278008D01*
X6084138Y-19320865D01*
X6069852Y-19378008D01*
X6069852Y-19492293D01*
X6084138Y-19520865D01*
X6098424Y-19535151D01*
X6126995Y-19549436D01*
X6184138Y-19549436D01*
X6212709Y-19535151D01*
X6226995Y-19520865D01*
X6241281Y-19492293D01*
X6241281Y-19420865D01*
X6226995Y-19392293D01*
X6212709Y-19378008D01*
X6184138Y-19363722D01*
X6126995Y-19363722D01*
X6098424Y-19378008D01*
X6084138Y-19392293D01*
X6069852Y-19420865D01*
X6426995Y-19249436D02*
X6455567Y-19249436D01*
X6484138Y-19263722D01*
X6498424Y-19278008D01*
X6512709Y-19306579D01*
X6526995Y-19363722D01*
X6526995Y-19435151D01*
X6512709Y-19492293D01*
X6498424Y-19520865D01*
X6484138Y-19535151D01*
X6455567Y-19549436D01*
X6426995Y-19549436D01*
X6398424Y-19535151D01*
X6384138Y-19520865D01*
X6369852Y-19492293D01*
X6355567Y-19435151D01*
X6355567Y-19363722D01*
X6369852Y-19306579D01*
X6384138Y-19278008D01*
X6398424Y-19263722D01*
X6426995Y-19249436D01*
X6712709Y-19249436D02*
X6741281Y-19249436D01*
X6769852Y-19263722D01*
X6784138Y-19278008D01*
X6798424Y-19306579D01*
X6812709Y-19363722D01*
X6812709Y-19435151D01*
X6798424Y-19492293D01*
X6784138Y-19520865D01*
X6769852Y-19535151D01*
X6741281Y-19549436D01*
X6712709Y-19549436D01*
X6684138Y-19535151D01*
X6669852Y-19520865D01*
X6655567Y-19492293D01*
X6641281Y-19435151D01*
X6641281Y-19363722D01*
X6655567Y-19306579D01*
X6669852Y-19278008D01*
X6684138Y-19263722D01*
X6712709Y-19249436D01*
X6941281Y-19549436D02*
X6941281Y-19349436D01*
X6941281Y-19378008D02*
X6955567Y-19363722D01*
X6984138Y-19349436D01*
X7026995Y-19349436D01*
X7055567Y-19363722D01*
X7069852Y-19392293D01*
X7069852Y-19549436D01*
X7069852Y-19392293D02*
X7084138Y-19363722D01*
X7112709Y-19349436D01*
X7155567Y-19349436D01*
X7184138Y-19363722D01*
X7198424Y-19392293D01*
X7198424Y-19549436D01*
X7341281Y-19549436D02*
X7341281Y-19349436D01*
X7341281Y-19378008D02*
X7355567Y-19363722D01*
X7384138Y-19349436D01*
X7426995Y-19349436D01*
X7455567Y-19363722D01*
X7469852Y-19392293D01*
X7469852Y-19549436D01*
X7469852Y-19392293D02*
X7484138Y-19363722D01*
X7512709Y-19349436D01*
X7555567Y-19349436D01*
X7584138Y-19363722D01*
X7598424Y-19392293D01*
X7598424Y-19549436D01*
X8184138Y-19235151D02*
X7926995Y-19620865D01*
X8569852Y-19249436D02*
X8598424Y-19249436D01*
X8626995Y-19263722D01*
X8641281Y-19278008D01*
X8655567Y-19306579D01*
X8669852Y-19363722D01*
X8669852Y-19435151D01*
X8655567Y-19492293D01*
X8641281Y-19520865D01*
X8626995Y-19535151D01*
X8598424Y-19549436D01*
X8569852Y-19549436D01*
X8541281Y-19535151D01*
X8526995Y-19520865D01*
X8512710Y-19492293D01*
X8498424Y-19435151D01*
X8498424Y-19363722D01*
X8512710Y-19306579D01*
X8526995Y-19278008D01*
X8541281Y-19263722D01*
X8569852Y-19249436D01*
X8798424Y-19520865D02*
X8812710Y-19535151D01*
X8798424Y-19549436D01*
X8784138Y-19535151D01*
X8798424Y-19520865D01*
X8798424Y-19549436D01*
X8998424Y-19249436D02*
X9026995Y-19249436D01*
X9055567Y-19263722D01*
X9069852Y-19278008D01*
X9084138Y-19306579D01*
X9098424Y-19363722D01*
X9098424Y-19435151D01*
X9084138Y-19492293D01*
X9069852Y-19520865D01*
X9055567Y-19535151D01*
X9026995Y-19549436D01*
X8998424Y-19549436D01*
X8969852Y-19535151D01*
X8955567Y-19520865D01*
X8941281Y-19492293D01*
X8926995Y-19435151D01*
X8926995Y-19363722D01*
X8941281Y-19306579D01*
X8955567Y-19278008D01*
X8969852Y-19263722D01*
X8998424Y-19249436D01*
X9212710Y-19278008D02*
X9226995Y-19263722D01*
X9255567Y-19249436D01*
X9326995Y-19249436D01*
X9355567Y-19263722D01*
X9369852Y-19278008D01*
X9384138Y-19306579D01*
X9384138Y-19335151D01*
X9369852Y-19378008D01*
X9198424Y-19549436D01*
X9384138Y-19549436D01*
X9484138Y-19249436D02*
X9669852Y-19249436D01*
X9569852Y-19363722D01*
X9612710Y-19363722D01*
X9641281Y-19378008D01*
X9655567Y-19392293D01*
X9669852Y-19420865D01*
X9669852Y-19492293D01*
X9655567Y-19520865D01*
X9641281Y-19535151D01*
X9612710Y-19549436D01*
X9526995Y-19549436D01*
X9498424Y-19535151D01*
X9484138Y-19520865D01*
X9926995Y-19249436D02*
X9869852Y-19249436D01*
X9841281Y-19263722D01*
X9826995Y-19278008D01*
X9798424Y-19320865D01*
X9784138Y-19378008D01*
X9784138Y-19492293D01*
X9798424Y-19520865D01*
X9812710Y-19535151D01*
X9841281Y-19549436D01*
X9898424Y-19549436D01*
X9926995Y-19535151D01*
X9941281Y-19520865D01*
X9955567Y-19492293D01*
X9955567Y-19420865D01*
X9941281Y-19392293D01*
X9926995Y-19378008D01*
X9898424Y-19363722D01*
X9841281Y-19363722D01*
X9812710Y-19378008D01*
X9798424Y-19392293D01*
X9784138Y-19420865D01*
X10069852Y-19249436D02*
X10069852Y-19306579D01*
X10184138Y-19249436D02*
X10184138Y-19306579D01*
X10626995Y-19663722D02*
X10612710Y-19649436D01*
X10584138Y-19606579D01*
X10569852Y-19578008D01*
X10555567Y-19535151D01*
X10541281Y-19463722D01*
X10541281Y-19406579D01*
X10555567Y-19335151D01*
X10569852Y-19292293D01*
X10584138Y-19263722D01*
X10612710Y-19220865D01*
X10626995Y-19206579D01*
X10726995Y-19278008D02*
X10741281Y-19263722D01*
X10769852Y-19249436D01*
X10841281Y-19249436D01*
X10869852Y-19263722D01*
X10884138Y-19278008D01*
X10898424Y-19306579D01*
X10898424Y-19335151D01*
X10884138Y-19378008D01*
X10712710Y-19549436D01*
X10898424Y-19549436D01*
X11255567Y-19549436D02*
X11255567Y-19249436D01*
X11384138Y-19549436D02*
X11384138Y-19392293D01*
X11369852Y-19363722D01*
X11341281Y-19349436D01*
X11298424Y-19349436D01*
X11269852Y-19363722D01*
X11255567Y-19378008D01*
X11569852Y-19549436D02*
X11541281Y-19535151D01*
X11526995Y-19520865D01*
X11512709Y-19492293D01*
X11512709Y-19406579D01*
X11526995Y-19378008D01*
X11541281Y-19363722D01*
X11569852Y-19349436D01*
X11612709Y-19349436D01*
X11641281Y-19363722D01*
X11655567Y-19378008D01*
X11669852Y-19406579D01*
X11669852Y-19492293D01*
X11655567Y-19520865D01*
X11641281Y-19535151D01*
X11612709Y-19549436D01*
X11569852Y-19549436D01*
X11841281Y-19549436D02*
X11812709Y-19535151D01*
X11798424Y-19506579D01*
X11798424Y-19249436D01*
X12069852Y-19535151D02*
X12041281Y-19549436D01*
X11984138Y-19549436D01*
X11955567Y-19535151D01*
X11941281Y-19506579D01*
X11941281Y-19392293D01*
X11955567Y-19363722D01*
X11984138Y-19349436D01*
X12041281Y-19349436D01*
X12069852Y-19363722D01*
X12084138Y-19392293D01*
X12084138Y-19420865D01*
X11941281Y-19449436D01*
X12198424Y-19535151D02*
X12226995Y-19549436D01*
X12284138Y-19549436D01*
X12312709Y-19535151D01*
X12326995Y-19506579D01*
X12326995Y-19492293D01*
X12312709Y-19463722D01*
X12284138Y-19449436D01*
X12241281Y-19449436D01*
X12212709Y-19435151D01*
X12198424Y-19406579D01*
X12198424Y-19392293D01*
X12212709Y-19363722D01*
X12241281Y-19349436D01*
X12284138Y-19349436D01*
X12312709Y-19363722D01*
X12684138Y-19435151D02*
X12912709Y-19435151D01*
X12798424Y-19549436D02*
X12798424Y-19320865D01*
X13412709Y-19349436D02*
X13412709Y-19549436D01*
X13341281Y-19235151D02*
X13269852Y-19449436D01*
X13455567Y-19449436D01*
X13784138Y-19535151D02*
X13812709Y-19549436D01*
X13869852Y-19549436D01*
X13898424Y-19535151D01*
X13912709Y-19506579D01*
X13912709Y-19492293D01*
X13898424Y-19463722D01*
X13869852Y-19449436D01*
X13826995Y-19449436D01*
X13798424Y-19435151D01*
X13784138Y-19406579D01*
X13784138Y-19392293D01*
X13798424Y-19363722D01*
X13826995Y-19349436D01*
X13869852Y-19349436D01*
X13898424Y-19363722D01*
X14084138Y-19549436D02*
X14055567Y-19535151D01*
X14041281Y-19506579D01*
X14041281Y-19249436D01*
X14241281Y-19549436D02*
X14212709Y-19535151D01*
X14198424Y-19520865D01*
X14184138Y-19492293D01*
X14184138Y-19406579D01*
X14198424Y-19378008D01*
X14212709Y-19363722D01*
X14241281Y-19349436D01*
X14284138Y-19349436D01*
X14312709Y-19363722D01*
X14326995Y-19378008D01*
X14341281Y-19406579D01*
X14341281Y-19492293D01*
X14326995Y-19520865D01*
X14312709Y-19535151D01*
X14284138Y-19549436D01*
X14241281Y-19549436D01*
X14426995Y-19349436D02*
X14541281Y-19349436D01*
X14469852Y-19249436D02*
X14469852Y-19506579D01*
X14484138Y-19535151D01*
X14512709Y-19549436D01*
X14541281Y-19549436D01*
X14626995Y-19535151D02*
X14655567Y-19549436D01*
X14712709Y-19549436D01*
X14741281Y-19535151D01*
X14755567Y-19506579D01*
X14755567Y-19492293D01*
X14741281Y-19463722D01*
X14712709Y-19449436D01*
X14669852Y-19449436D01*
X14641281Y-19435151D01*
X14626995Y-19406579D01*
X14626995Y-19392293D01*
X14641281Y-19363722D01*
X14669852Y-19349436D01*
X14712709Y-19349436D01*
X14741281Y-19363722D01*
X14855567Y-19663722D02*
X14869852Y-19649436D01*
X14898424Y-19606579D01*
X14912709Y-19578008D01*
X14926995Y-19535151D01*
X14941281Y-19463722D01*
X14941281Y-19406579D01*
X14926995Y-19335151D01*
X14912709Y-19292293D01*
X14898424Y-19263722D01*
X14869852Y-19220865D01*
X14855567Y-19206579D01*
X5334138Y-19774722D02*
X5334138Y-19844722D01*
X5299138Y-19809722D02*
X5369138Y-19809722D01*
X5712709Y-19645436D02*
X5741281Y-19645436D01*
X5769852Y-19659722D01*
X5784138Y-19674008D01*
X5798424Y-19702579D01*
X5812709Y-19759722D01*
X5812709Y-19831151D01*
X5798424Y-19888293D01*
X5784138Y-19916865D01*
X5769852Y-19931151D01*
X5741281Y-19945436D01*
X5712709Y-19945436D01*
X5684138Y-19931151D01*
X5669852Y-19916865D01*
X5655567Y-19888293D01*
X5641281Y-19831151D01*
X5641281Y-19759722D01*
X5655567Y-19702579D01*
X5669852Y-19674008D01*
X5684138Y-19659722D01*
X5712709Y-19645436D01*
X5941281Y-19916865D02*
X5955567Y-19931151D01*
X5941281Y-19945436D01*
X5926995Y-19931151D01*
X5941281Y-19916865D01*
X5941281Y-19945436D01*
X6055567Y-19645436D02*
X6255567Y-19645436D01*
X6126995Y-19945436D01*
X6426995Y-19645436D02*
X6455567Y-19645436D01*
X6484138Y-19659722D01*
X6498424Y-19674008D01*
X6512709Y-19702579D01*
X6526995Y-19759722D01*
X6526995Y-19831151D01*
X6512709Y-19888293D01*
X6498424Y-19916865D01*
X6484138Y-19931151D01*
X6455567Y-19945436D01*
X6426995Y-19945436D01*
X6398424Y-19931151D01*
X6384138Y-19916865D01*
X6369852Y-19888293D01*
X6355567Y-19831151D01*
X6355567Y-19759722D01*
X6369852Y-19702579D01*
X6384138Y-19674008D01*
X6398424Y-19659722D01*
X6426995Y-19645436D01*
X6712709Y-19645436D02*
X6741281Y-19645436D01*
X6769852Y-19659722D01*
X6784138Y-19674008D01*
X6798424Y-19702579D01*
X6812709Y-19759722D01*
X6812709Y-19831151D01*
X6798424Y-19888293D01*
X6784138Y-19916865D01*
X6769852Y-19931151D01*
X6741281Y-19945436D01*
X6712709Y-19945436D01*
X6684138Y-19931151D01*
X6669852Y-19916865D01*
X6655567Y-19888293D01*
X6641281Y-19831151D01*
X6641281Y-19759722D01*
X6655567Y-19702579D01*
X6669852Y-19674008D01*
X6684138Y-19659722D01*
X6712709Y-19645436D01*
X6941281Y-19945436D02*
X6941281Y-19745436D01*
X6941281Y-19774008D02*
X6955567Y-19759722D01*
X6984138Y-19745436D01*
X7026995Y-19745436D01*
X7055567Y-19759722D01*
X7069852Y-19788293D01*
X7069852Y-19945436D01*
X7069852Y-19788293D02*
X7084138Y-19759722D01*
X7112709Y-19745436D01*
X7155567Y-19745436D01*
X7184138Y-19759722D01*
X7198424Y-19788293D01*
X7198424Y-19945436D01*
X7341281Y-19945436D02*
X7341281Y-19745436D01*
X7341281Y-19774008D02*
X7355567Y-19759722D01*
X7384138Y-19745436D01*
X7426995Y-19745436D01*
X7455567Y-19759722D01*
X7469852Y-19788293D01*
X7469852Y-19945436D01*
X7469852Y-19788293D02*
X7484138Y-19759722D01*
X7512709Y-19745436D01*
X7555567Y-19745436D01*
X7584138Y-19759722D01*
X7598424Y-19788293D01*
X7598424Y-19945436D01*
X8184138Y-19631151D02*
X7926995Y-20016865D01*
X8569852Y-19645436D02*
X8598424Y-19645436D01*
X8626995Y-19659722D01*
X8641281Y-19674008D01*
X8655567Y-19702579D01*
X8669852Y-19759722D01*
X8669852Y-19831151D01*
X8655567Y-19888293D01*
X8641281Y-19916865D01*
X8626995Y-19931151D01*
X8598424Y-19945436D01*
X8569852Y-19945436D01*
X8541281Y-19931151D01*
X8526995Y-19916865D01*
X8512710Y-19888293D01*
X8498424Y-19831151D01*
X8498424Y-19759722D01*
X8512710Y-19702579D01*
X8526995Y-19674008D01*
X8541281Y-19659722D01*
X8569852Y-19645436D01*
X8798424Y-19916865D02*
X8812710Y-19931151D01*
X8798424Y-19945436D01*
X8784138Y-19931151D01*
X8798424Y-19916865D01*
X8798424Y-19945436D01*
X8998424Y-19645436D02*
X9026995Y-19645436D01*
X9055567Y-19659722D01*
X9069852Y-19674008D01*
X9084138Y-19702579D01*
X9098424Y-19759722D01*
X9098424Y-19831151D01*
X9084138Y-19888293D01*
X9069852Y-19916865D01*
X9055567Y-19931151D01*
X9026995Y-19945436D01*
X8998424Y-19945436D01*
X8969852Y-19931151D01*
X8955567Y-19916865D01*
X8941281Y-19888293D01*
X8926995Y-19831151D01*
X8926995Y-19759722D01*
X8941281Y-19702579D01*
X8955567Y-19674008D01*
X8969852Y-19659722D01*
X8998424Y-19645436D01*
X9212710Y-19674008D02*
X9226995Y-19659722D01*
X9255567Y-19645436D01*
X9326995Y-19645436D01*
X9355567Y-19659722D01*
X9369852Y-19674008D01*
X9384138Y-19702579D01*
X9384138Y-19731151D01*
X9369852Y-19774008D01*
X9198424Y-19945436D01*
X9384138Y-19945436D01*
X9484138Y-19645436D02*
X9684138Y-19645436D01*
X9555567Y-19945436D01*
X9926995Y-19645436D02*
X9869852Y-19645436D01*
X9841281Y-19659722D01*
X9826995Y-19674008D01*
X9798424Y-19716865D01*
X9784138Y-19774008D01*
X9784138Y-19888293D01*
X9798424Y-19916865D01*
X9812710Y-19931151D01*
X9841281Y-19945436D01*
X9898424Y-19945436D01*
X9926995Y-19931151D01*
X9941281Y-19916865D01*
X9955567Y-19888293D01*
X9955567Y-19816865D01*
X9941281Y-19788293D01*
X9926995Y-19774008D01*
X9898424Y-19759722D01*
X9841281Y-19759722D01*
X9812710Y-19774008D01*
X9798424Y-19788293D01*
X9784138Y-19816865D01*
X10069852Y-19645436D02*
X10069852Y-19702579D01*
X10184138Y-19645436D02*
X10184138Y-19702579D01*
X10626995Y-20059722D02*
X10612710Y-20045436D01*
X10584138Y-20002579D01*
X10569852Y-19974008D01*
X10555567Y-19931151D01*
X10541281Y-19859722D01*
X10541281Y-19802579D01*
X10555567Y-19731151D01*
X10569852Y-19688293D01*
X10584138Y-19659722D01*
X10612710Y-19616865D01*
X10626995Y-19602579D01*
X10898424Y-19945436D02*
X10726995Y-19945436D01*
X10812710Y-19945436D02*
X10812710Y-19645436D01*
X10784138Y-19688293D01*
X10755567Y-19716865D01*
X10726995Y-19731151D01*
X11155567Y-19645436D02*
X11098424Y-19645436D01*
X11069852Y-19659722D01*
X11055567Y-19674008D01*
X11026995Y-19716865D01*
X11012710Y-19774008D01*
X11012710Y-19888293D01*
X11026995Y-19916865D01*
X11041281Y-19931151D01*
X11069852Y-19945436D01*
X11126995Y-19945436D01*
X11155567Y-19931151D01*
X11169852Y-19916865D01*
X11184138Y-19888293D01*
X11184138Y-19816865D01*
X11169852Y-19788293D01*
X11155567Y-19774008D01*
X11126995Y-19759722D01*
X11069852Y-19759722D01*
X11041281Y-19774008D01*
X11026995Y-19788293D01*
X11012710Y-19816865D01*
X11541281Y-19945436D02*
X11541281Y-19645436D01*
X11669852Y-19945436D02*
X11669852Y-19788293D01*
X11655567Y-19759722D01*
X11626995Y-19745436D01*
X11584138Y-19745436D01*
X11555567Y-19759722D01*
X11541281Y-19774008D01*
X11855567Y-19945436D02*
X11826995Y-19931151D01*
X11812709Y-19916865D01*
X11798424Y-19888293D01*
X11798424Y-19802579D01*
X11812709Y-19774008D01*
X11826995Y-19759722D01*
X11855567Y-19745436D01*
X11898424Y-19745436D01*
X11926995Y-19759722D01*
X11941281Y-19774008D01*
X11955567Y-19802579D01*
X11955567Y-19888293D01*
X11941281Y-19916865D01*
X11926995Y-19931151D01*
X11898424Y-19945436D01*
X11855567Y-19945436D01*
X12126995Y-19945436D02*
X12098424Y-19931151D01*
X12084138Y-19902579D01*
X12084138Y-19645436D01*
X12355567Y-19931151D02*
X12326995Y-19945436D01*
X12269852Y-19945436D01*
X12241281Y-19931151D01*
X12226995Y-19902579D01*
X12226995Y-19788293D01*
X12241281Y-19759722D01*
X12269852Y-19745436D01*
X12326995Y-19745436D01*
X12355567Y-19759722D01*
X12369852Y-19788293D01*
X12369852Y-19816865D01*
X12226995Y-19845436D01*
X12484138Y-19931151D02*
X12512709Y-19945436D01*
X12569852Y-19945436D01*
X12598424Y-19931151D01*
X12612709Y-19902579D01*
X12612709Y-19888293D01*
X12598424Y-19859722D01*
X12569852Y-19845436D01*
X12526995Y-19845436D01*
X12498424Y-19831151D01*
X12484138Y-19802579D01*
X12484138Y-19788293D01*
X12498424Y-19759722D01*
X12526995Y-19745436D01*
X12569852Y-19745436D01*
X12598424Y-19759722D01*
X12712709Y-20059722D02*
X12726995Y-20045436D01*
X12755567Y-20002579D01*
X12769852Y-19974008D01*
X12784138Y-19931151D01*
X12798424Y-19859722D01*
X12798424Y-19802579D01*
X12784138Y-19731151D01*
X12769852Y-19688293D01*
X12755567Y-19659722D01*
X12726995Y-19616865D01*
X12712709Y-19602579D01*
X5357423Y-20234007D02*
X5357423Y-20177438D01*
X5300854Y-20177438D01*
X5300854Y-20234007D01*
X5357423Y-20234007D01*
X5712709Y-20041436D02*
X5741281Y-20041436D01*
X5769852Y-20055722D01*
X5784138Y-20070008D01*
X5798424Y-20098579D01*
X5812709Y-20155722D01*
X5812709Y-20227151D01*
X5798424Y-20284293D01*
X5784138Y-20312865D01*
X5769852Y-20327151D01*
X5741281Y-20341436D01*
X5712709Y-20341436D01*
X5684138Y-20327151D01*
X5669852Y-20312865D01*
X5655567Y-20284293D01*
X5641281Y-20227151D01*
X5641281Y-20155722D01*
X5655567Y-20098579D01*
X5669852Y-20070008D01*
X5684138Y-20055722D01*
X5712709Y-20041436D01*
X5941281Y-20312865D02*
X5955567Y-20327151D01*
X5941281Y-20341436D01*
X5926995Y-20327151D01*
X5941281Y-20312865D01*
X5941281Y-20341436D01*
X6126995Y-20170008D02*
X6098424Y-20155722D01*
X6084138Y-20141436D01*
X6069852Y-20112865D01*
X6069852Y-20098579D01*
X6084138Y-20070008D01*
X6098424Y-20055722D01*
X6126995Y-20041436D01*
X6184138Y-20041436D01*
X6212709Y-20055722D01*
X6226995Y-20070008D01*
X6241281Y-20098579D01*
X6241281Y-20112865D01*
X6226995Y-20141436D01*
X6212709Y-20155722D01*
X6184138Y-20170008D01*
X6126995Y-20170008D01*
X6098424Y-20184293D01*
X6084138Y-20198579D01*
X6069852Y-20227151D01*
X6069852Y-20284293D01*
X6084138Y-20312865D01*
X6098424Y-20327151D01*
X6126995Y-20341436D01*
X6184138Y-20341436D01*
X6212709Y-20327151D01*
X6226995Y-20312865D01*
X6241281Y-20284293D01*
X6241281Y-20227151D01*
X6226995Y-20198579D01*
X6212709Y-20184293D01*
X6184138Y-20170008D01*
X6426995Y-20041436D02*
X6455567Y-20041436D01*
X6484138Y-20055722D01*
X6498424Y-20070008D01*
X6512709Y-20098579D01*
X6526995Y-20155722D01*
X6526995Y-20227151D01*
X6512709Y-20284293D01*
X6498424Y-20312865D01*
X6484138Y-20327151D01*
X6455567Y-20341436D01*
X6426995Y-20341436D01*
X6398424Y-20327151D01*
X6384138Y-20312865D01*
X6369852Y-20284293D01*
X6355567Y-20227151D01*
X6355567Y-20155722D01*
X6369852Y-20098579D01*
X6384138Y-20070008D01*
X6398424Y-20055722D01*
X6426995Y-20041436D01*
X6712709Y-20041436D02*
X6741281Y-20041436D01*
X6769852Y-20055722D01*
X6784138Y-20070008D01*
X6798424Y-20098579D01*
X6812709Y-20155722D01*
X6812709Y-20227151D01*
X6798424Y-20284293D01*
X6784138Y-20312865D01*
X6769852Y-20327151D01*
X6741281Y-20341436D01*
X6712709Y-20341436D01*
X6684138Y-20327151D01*
X6669852Y-20312865D01*
X6655567Y-20284293D01*
X6641281Y-20227151D01*
X6641281Y-20155722D01*
X6655567Y-20098579D01*
X6669852Y-20070008D01*
X6684138Y-20055722D01*
X6712709Y-20041436D01*
X6941281Y-20341436D02*
X6941281Y-20141436D01*
X6941281Y-20170008D02*
X6955567Y-20155722D01*
X6984138Y-20141436D01*
X7026995Y-20141436D01*
X7055567Y-20155722D01*
X7069852Y-20184293D01*
X7069852Y-20341436D01*
X7069852Y-20184293D02*
X7084138Y-20155722D01*
X7112709Y-20141436D01*
X7155567Y-20141436D01*
X7184138Y-20155722D01*
X7198424Y-20184293D01*
X7198424Y-20341436D01*
X7341281Y-20341436D02*
X7341281Y-20141436D01*
X7341281Y-20170008D02*
X7355567Y-20155722D01*
X7384138Y-20141436D01*
X7426995Y-20141436D01*
X7455567Y-20155722D01*
X7469852Y-20184293D01*
X7469852Y-20341436D01*
X7469852Y-20184293D02*
X7484138Y-20155722D01*
X7512709Y-20141436D01*
X7555567Y-20141436D01*
X7584138Y-20155722D01*
X7598424Y-20184293D01*
X7598424Y-20341436D01*
X8184138Y-20027151D02*
X7926995Y-20412865D01*
X8569852Y-20041436D02*
X8598424Y-20041436D01*
X8626995Y-20055722D01*
X8641281Y-20070008D01*
X8655567Y-20098579D01*
X8669852Y-20155722D01*
X8669852Y-20227151D01*
X8655567Y-20284293D01*
X8641281Y-20312865D01*
X8626995Y-20327151D01*
X8598424Y-20341436D01*
X8569852Y-20341436D01*
X8541281Y-20327151D01*
X8526995Y-20312865D01*
X8512710Y-20284293D01*
X8498424Y-20227151D01*
X8498424Y-20155722D01*
X8512710Y-20098579D01*
X8526995Y-20070008D01*
X8541281Y-20055722D01*
X8569852Y-20041436D01*
X8798424Y-20312865D02*
X8812710Y-20327151D01*
X8798424Y-20341436D01*
X8784138Y-20327151D01*
X8798424Y-20312865D01*
X8798424Y-20341436D01*
X8998424Y-20041436D02*
X9026995Y-20041436D01*
X9055567Y-20055722D01*
X9069852Y-20070008D01*
X9084138Y-20098579D01*
X9098424Y-20155722D01*
X9098424Y-20227151D01*
X9084138Y-20284293D01*
X9069852Y-20312865D01*
X9055567Y-20327151D01*
X9026995Y-20341436D01*
X8998424Y-20341436D01*
X8969852Y-20327151D01*
X8955567Y-20312865D01*
X8941281Y-20284293D01*
X8926995Y-20227151D01*
X8926995Y-20155722D01*
X8941281Y-20098579D01*
X8955567Y-20070008D01*
X8969852Y-20055722D01*
X8998424Y-20041436D01*
X9198424Y-20041436D02*
X9384138Y-20041436D01*
X9284138Y-20155722D01*
X9326995Y-20155722D01*
X9355567Y-20170008D01*
X9369852Y-20184293D01*
X9384138Y-20212865D01*
X9384138Y-20284293D01*
X9369852Y-20312865D01*
X9355567Y-20327151D01*
X9326995Y-20341436D01*
X9241281Y-20341436D01*
X9212710Y-20327151D01*
X9198424Y-20312865D01*
X9669852Y-20341436D02*
X9498424Y-20341436D01*
X9584138Y-20341436D02*
X9584138Y-20041436D01*
X9555567Y-20084293D01*
X9526995Y-20112865D01*
X9498424Y-20127151D01*
X9941281Y-20041436D02*
X9798424Y-20041436D01*
X9784138Y-20184293D01*
X9798424Y-20170008D01*
X9826995Y-20155722D01*
X9898424Y-20155722D01*
X9926995Y-20170008D01*
X9941281Y-20184293D01*
X9955567Y-20212865D01*
X9955567Y-20284293D01*
X9941281Y-20312865D01*
X9926995Y-20327151D01*
X9898424Y-20341436D01*
X9826995Y-20341436D01*
X9798424Y-20327151D01*
X9784138Y-20312865D01*
X10069852Y-20041436D02*
X10069852Y-20098579D01*
X10184138Y-20041436D02*
X10184138Y-20098579D01*
X10626995Y-20455722D02*
X10612710Y-20441436D01*
X10584138Y-20398579D01*
X10569852Y-20370008D01*
X10555567Y-20327151D01*
X10541281Y-20255722D01*
X10541281Y-20198579D01*
X10555567Y-20127151D01*
X10569852Y-20084293D01*
X10584138Y-20055722D01*
X10612710Y-20012865D01*
X10626995Y-19998579D01*
X10898424Y-20341436D02*
X10726995Y-20341436D01*
X10812710Y-20341436D02*
X10812710Y-20041436D01*
X10784138Y-20084293D01*
X10755567Y-20112865D01*
X10726995Y-20127151D01*
X11041281Y-20341436D02*
X11098424Y-20341436D01*
X11126995Y-20327151D01*
X11141281Y-20312865D01*
X11169852Y-20270008D01*
X11184138Y-20212865D01*
X11184138Y-20098579D01*
X11169852Y-20070008D01*
X11155567Y-20055722D01*
X11126995Y-20041436D01*
X11069852Y-20041436D01*
X11041281Y-20055722D01*
X11026995Y-20070008D01*
X11012710Y-20098579D01*
X11012710Y-20170008D01*
X11026995Y-20198579D01*
X11041281Y-20212865D01*
X11069852Y-20227151D01*
X11126995Y-20227151D01*
X11155567Y-20212865D01*
X11169852Y-20198579D01*
X11184138Y-20170008D01*
X11298424Y-20070008D02*
X11312709Y-20055722D01*
X11341281Y-20041436D01*
X11412709Y-20041436D01*
X11441281Y-20055722D01*
X11455567Y-20070008D01*
X11469852Y-20098579D01*
X11469852Y-20127151D01*
X11455567Y-20170008D01*
X11284138Y-20341436D01*
X11469852Y-20341436D01*
X11826995Y-20341436D02*
X11826995Y-20041436D01*
X11955567Y-20341436D02*
X11955567Y-20184293D01*
X11941281Y-20155722D01*
X11912709Y-20141436D01*
X11869852Y-20141436D01*
X11841281Y-20155722D01*
X11826995Y-20170008D01*
X12141281Y-20341436D02*
X12112709Y-20327151D01*
X12098424Y-20312865D01*
X12084138Y-20284293D01*
X12084138Y-20198579D01*
X12098424Y-20170008D01*
X12112709Y-20155722D01*
X12141281Y-20141436D01*
X12184138Y-20141436D01*
X12212709Y-20155722D01*
X12226995Y-20170008D01*
X12241281Y-20198579D01*
X12241281Y-20284293D01*
X12226995Y-20312865D01*
X12212709Y-20327151D01*
X12184138Y-20341436D01*
X12141281Y-20341436D01*
X12412709Y-20341436D02*
X12384138Y-20327151D01*
X12369852Y-20298579D01*
X12369852Y-20041436D01*
X12641281Y-20327151D02*
X12612709Y-20341436D01*
X12555567Y-20341436D01*
X12526995Y-20327151D01*
X12512709Y-20298579D01*
X12512709Y-20184293D01*
X12526995Y-20155722D01*
X12555567Y-20141436D01*
X12612709Y-20141436D01*
X12641281Y-20155722D01*
X12655567Y-20184293D01*
X12655567Y-20212865D01*
X12512709Y-20241436D01*
X12769852Y-20327151D02*
X12798424Y-20341436D01*
X12855567Y-20341436D01*
X12884138Y-20327151D01*
X12898424Y-20298579D01*
X12898424Y-20284293D01*
X12884138Y-20255722D01*
X12855567Y-20241436D01*
X12812709Y-20241436D01*
X12784138Y-20227151D01*
X12769852Y-20198579D01*
X12769852Y-20184293D01*
X12784138Y-20155722D01*
X12812709Y-20141436D01*
X12855567Y-20141436D01*
X12884138Y-20155722D01*
X12998424Y-20455722D02*
X13012709Y-20441436D01*
X13041281Y-20398579D01*
X13055567Y-20370008D01*
X13069852Y-20327151D01*
X13084138Y-20255722D01*
X13084138Y-20198579D01*
X13069852Y-20127151D01*
X13055567Y-20084293D01*
X13041281Y-20055722D01*
X13012709Y-20012865D01*
X12998424Y-19998579D01*
X5324138Y-20646722D02*
X5369138Y-20601722D01*
X5324138Y-20556722D01*
X5279138Y-20601722D01*
X5324138Y-20646722D01*
X5712709Y-20437436D02*
X5741281Y-20437436D01*
X5769852Y-20451722D01*
X5784138Y-20466008D01*
X5798424Y-20494579D01*
X5812709Y-20551722D01*
X5812709Y-20623151D01*
X5798424Y-20680293D01*
X5784138Y-20708865D01*
X5769852Y-20723151D01*
X5741281Y-20737436D01*
X5712709Y-20737436D01*
X5684138Y-20723151D01*
X5669852Y-20708865D01*
X5655567Y-20680293D01*
X5641281Y-20623151D01*
X5641281Y-20551722D01*
X5655567Y-20494579D01*
X5669852Y-20466008D01*
X5684138Y-20451722D01*
X5712709Y-20437436D01*
X5941281Y-20708865D02*
X5955567Y-20723151D01*
X5941281Y-20737436D01*
X5926995Y-20723151D01*
X5941281Y-20708865D01*
X5941281Y-20737436D01*
X6098424Y-20737436D02*
X6155567Y-20737436D01*
X6184138Y-20723151D01*
X6198424Y-20708865D01*
X6226995Y-20666008D01*
X6241281Y-20608865D01*
X6241281Y-20494579D01*
X6226995Y-20466008D01*
X6212709Y-20451722D01*
X6184138Y-20437436D01*
X6126995Y-20437436D01*
X6098424Y-20451722D01*
X6084138Y-20466008D01*
X6069852Y-20494579D01*
X6069852Y-20566008D01*
X6084138Y-20594579D01*
X6098424Y-20608865D01*
X6126995Y-20623151D01*
X6184138Y-20623151D01*
X6212709Y-20608865D01*
X6226995Y-20594579D01*
X6241281Y-20566008D01*
X6426995Y-20437436D02*
X6455567Y-20437436D01*
X6484138Y-20451722D01*
X6498424Y-20466008D01*
X6512709Y-20494579D01*
X6526995Y-20551722D01*
X6526995Y-20623151D01*
X6512709Y-20680293D01*
X6498424Y-20708865D01*
X6484138Y-20723151D01*
X6455567Y-20737436D01*
X6426995Y-20737436D01*
X6398424Y-20723151D01*
X6384138Y-20708865D01*
X6369852Y-20680293D01*
X6355567Y-20623151D01*
X6355567Y-20551722D01*
X6369852Y-20494579D01*
X6384138Y-20466008D01*
X6398424Y-20451722D01*
X6426995Y-20437436D01*
X6712709Y-20437436D02*
X6741281Y-20437436D01*
X6769852Y-20451722D01*
X6784138Y-20466008D01*
X6798424Y-20494579D01*
X6812709Y-20551722D01*
X6812709Y-20623151D01*
X6798424Y-20680293D01*
X6784138Y-20708865D01*
X6769852Y-20723151D01*
X6741281Y-20737436D01*
X6712709Y-20737436D01*
X6684138Y-20723151D01*
X6669852Y-20708865D01*
X6655567Y-20680293D01*
X6641281Y-20623151D01*
X6641281Y-20551722D01*
X6655567Y-20494579D01*
X6669852Y-20466008D01*
X6684138Y-20451722D01*
X6712709Y-20437436D01*
X6941281Y-20737436D02*
X6941281Y-20537436D01*
X6941281Y-20566008D02*
X6955567Y-20551722D01*
X6984138Y-20537436D01*
X7026995Y-20537436D01*
X7055567Y-20551722D01*
X7069852Y-20580293D01*
X7069852Y-20737436D01*
X7069852Y-20580293D02*
X7084138Y-20551722D01*
X7112709Y-20537436D01*
X7155567Y-20537436D01*
X7184138Y-20551722D01*
X7198424Y-20580293D01*
X7198424Y-20737436D01*
X7341281Y-20737436D02*
X7341281Y-20537436D01*
X7341281Y-20566008D02*
X7355567Y-20551722D01*
X7384138Y-20537436D01*
X7426995Y-20537436D01*
X7455567Y-20551722D01*
X7469852Y-20580293D01*
X7469852Y-20737436D01*
X7469852Y-20580293D02*
X7484138Y-20551722D01*
X7512709Y-20537436D01*
X7555567Y-20537436D01*
X7584138Y-20551722D01*
X7598424Y-20580293D01*
X7598424Y-20737436D01*
X8184138Y-20423151D02*
X7926995Y-20808865D01*
X8569852Y-20437436D02*
X8598424Y-20437436D01*
X8626995Y-20451722D01*
X8641281Y-20466008D01*
X8655567Y-20494579D01*
X8669852Y-20551722D01*
X8669852Y-20623151D01*
X8655567Y-20680293D01*
X8641281Y-20708865D01*
X8626995Y-20723151D01*
X8598424Y-20737436D01*
X8569852Y-20737436D01*
X8541281Y-20723151D01*
X8526995Y-20708865D01*
X8512710Y-20680293D01*
X8498424Y-20623151D01*
X8498424Y-20551722D01*
X8512710Y-20494579D01*
X8526995Y-20466008D01*
X8541281Y-20451722D01*
X8569852Y-20437436D01*
X8798424Y-20708865D02*
X8812710Y-20723151D01*
X8798424Y-20737436D01*
X8784138Y-20723151D01*
X8798424Y-20708865D01*
X8798424Y-20737436D01*
X8998424Y-20437436D02*
X9026995Y-20437436D01*
X9055567Y-20451722D01*
X9069852Y-20466008D01*
X9084138Y-20494579D01*
X9098424Y-20551722D01*
X9098424Y-20623151D01*
X9084138Y-20680293D01*
X9069852Y-20708865D01*
X9055567Y-20723151D01*
X9026995Y-20737436D01*
X8998424Y-20737436D01*
X8969852Y-20723151D01*
X8955567Y-20708865D01*
X8941281Y-20680293D01*
X8926995Y-20623151D01*
X8926995Y-20551722D01*
X8941281Y-20494579D01*
X8955567Y-20466008D01*
X8969852Y-20451722D01*
X8998424Y-20437436D01*
X9198424Y-20437436D02*
X9384138Y-20437436D01*
X9284138Y-20551722D01*
X9326995Y-20551722D01*
X9355567Y-20566008D01*
X9369852Y-20580293D01*
X9384138Y-20608865D01*
X9384138Y-20680293D01*
X9369852Y-20708865D01*
X9355567Y-20723151D01*
X9326995Y-20737436D01*
X9241281Y-20737436D01*
X9212710Y-20723151D01*
X9198424Y-20708865D01*
X9655567Y-20437436D02*
X9512710Y-20437436D01*
X9498424Y-20580293D01*
X9512710Y-20566008D01*
X9541281Y-20551722D01*
X9612710Y-20551722D01*
X9641281Y-20566008D01*
X9655567Y-20580293D01*
X9669852Y-20608865D01*
X9669852Y-20680293D01*
X9655567Y-20708865D01*
X9641281Y-20723151D01*
X9612710Y-20737436D01*
X9541281Y-20737436D01*
X9512710Y-20723151D01*
X9498424Y-20708865D01*
X9926995Y-20537436D02*
X9926995Y-20737436D01*
X9855567Y-20423151D02*
X9784138Y-20637436D01*
X9969852Y-20637436D01*
X10069852Y-20437436D02*
X10069852Y-20494579D01*
X10184138Y-20437436D02*
X10184138Y-20494579D01*
X10626995Y-20851722D02*
X10612710Y-20837436D01*
X10584138Y-20794579D01*
X10569852Y-20766008D01*
X10555567Y-20723151D01*
X10541281Y-20651722D01*
X10541281Y-20594579D01*
X10555567Y-20523151D01*
X10569852Y-20480293D01*
X10584138Y-20451722D01*
X10612710Y-20408865D01*
X10626995Y-20394579D01*
X10726995Y-20466008D02*
X10741281Y-20451722D01*
X10769852Y-20437436D01*
X10841281Y-20437436D01*
X10869852Y-20451722D01*
X10884138Y-20466008D01*
X10898424Y-20494579D01*
X10898424Y-20523151D01*
X10884138Y-20566008D01*
X10712710Y-20737436D01*
X10898424Y-20737436D01*
X11255567Y-20737436D02*
X11255567Y-20437436D01*
X11384138Y-20737436D02*
X11384138Y-20580293D01*
X11369852Y-20551722D01*
X11341281Y-20537436D01*
X11298424Y-20537436D01*
X11269852Y-20551722D01*
X11255567Y-20566008D01*
X11569852Y-20737436D02*
X11541281Y-20723151D01*
X11526995Y-20708865D01*
X11512709Y-20680293D01*
X11512709Y-20594579D01*
X11526995Y-20566008D01*
X11541281Y-20551722D01*
X11569852Y-20537436D01*
X11612709Y-20537436D01*
X11641281Y-20551722D01*
X11655567Y-20566008D01*
X11669852Y-20594579D01*
X11669852Y-20680293D01*
X11655567Y-20708865D01*
X11641281Y-20723151D01*
X11612709Y-20737436D01*
X11569852Y-20737436D01*
X11841281Y-20737436D02*
X11812709Y-20723151D01*
X11798424Y-20694579D01*
X11798424Y-20437436D01*
X12069852Y-20723151D02*
X12041281Y-20737436D01*
X11984138Y-20737436D01*
X11955567Y-20723151D01*
X11941281Y-20694579D01*
X11941281Y-20580293D01*
X11955567Y-20551722D01*
X11984138Y-20537436D01*
X12041281Y-20537436D01*
X12069852Y-20551722D01*
X12084138Y-20580293D01*
X12084138Y-20608865D01*
X11941281Y-20637436D01*
X12198424Y-20723151D02*
X12226995Y-20737436D01*
X12284138Y-20737436D01*
X12312709Y-20723151D01*
X12326995Y-20694579D01*
X12326995Y-20680293D01*
X12312709Y-20651722D01*
X12284138Y-20637436D01*
X12241281Y-20637436D01*
X12212709Y-20623151D01*
X12198424Y-20594579D01*
X12198424Y-20580293D01*
X12212709Y-20551722D01*
X12241281Y-20537436D01*
X12284138Y-20537436D01*
X12312709Y-20551722D01*
X12426995Y-20851722D02*
X12441281Y-20837436D01*
X12469852Y-20794579D01*
X12484138Y-20766008D01*
X12498424Y-20723151D01*
X12512709Y-20651722D01*
X12512709Y-20594579D01*
X12498424Y-20523151D01*
X12484138Y-20480293D01*
X12469852Y-20451722D01*
X12441281Y-20408865D01*
X12426995Y-20394579D01*
X5269138Y-20947722D02*
X5369138Y-21047722D01*
X5369138Y-20947722D02*
X5269138Y-21047722D01*
X5369138Y-20997722D02*
G75*
G03*
X5369138Y-20997722I-50000J0D01*
G01*
X5812709Y-21133436D02*
X5641281Y-21133436D01*
X5726995Y-21133436D02*
X5726995Y-20833436D01*
X5698424Y-20876293D01*
X5669852Y-20904865D01*
X5641281Y-20919151D01*
X5941281Y-21104865D02*
X5955567Y-21119151D01*
X5941281Y-21133436D01*
X5926995Y-21119151D01*
X5941281Y-21104865D01*
X5941281Y-21133436D01*
X6141281Y-20833436D02*
X6169852Y-20833436D01*
X6198424Y-20847722D01*
X6212709Y-20862008D01*
X6226995Y-20890579D01*
X6241281Y-20947722D01*
X6241281Y-21019151D01*
X6226995Y-21076293D01*
X6212709Y-21104865D01*
X6198424Y-21119151D01*
X6169852Y-21133436D01*
X6141281Y-21133436D01*
X6112709Y-21119151D01*
X6098424Y-21104865D01*
X6084138Y-21076293D01*
X6069852Y-21019151D01*
X6069852Y-20947722D01*
X6084138Y-20890579D01*
X6098424Y-20862008D01*
X6112709Y-20847722D01*
X6141281Y-20833436D01*
X6426995Y-20833436D02*
X6455567Y-20833436D01*
X6484138Y-20847722D01*
X6498424Y-20862008D01*
X6512709Y-20890579D01*
X6526995Y-20947722D01*
X6526995Y-21019151D01*
X6512709Y-21076293D01*
X6498424Y-21104865D01*
X6484138Y-21119151D01*
X6455567Y-21133436D01*
X6426995Y-21133436D01*
X6398424Y-21119151D01*
X6384138Y-21104865D01*
X6369852Y-21076293D01*
X6355567Y-21019151D01*
X6355567Y-20947722D01*
X6369852Y-20890579D01*
X6384138Y-20862008D01*
X6398424Y-20847722D01*
X6426995Y-20833436D01*
X6712709Y-20833436D02*
X6741281Y-20833436D01*
X6769852Y-20847722D01*
X6784138Y-20862008D01*
X6798424Y-20890579D01*
X6812709Y-20947722D01*
X6812709Y-21019151D01*
X6798424Y-21076293D01*
X6784138Y-21104865D01*
X6769852Y-21119151D01*
X6741281Y-21133436D01*
X6712709Y-21133436D01*
X6684138Y-21119151D01*
X6669852Y-21104865D01*
X6655567Y-21076293D01*
X6641281Y-21019151D01*
X6641281Y-20947722D01*
X6655567Y-20890579D01*
X6669852Y-20862008D01*
X6684138Y-20847722D01*
X6712709Y-20833436D01*
X6941281Y-21133436D02*
X6941281Y-20933436D01*
X6941281Y-20962008D02*
X6955567Y-20947722D01*
X6984138Y-20933436D01*
X7026995Y-20933436D01*
X7055567Y-20947722D01*
X7069852Y-20976293D01*
X7069852Y-21133436D01*
X7069852Y-20976293D02*
X7084138Y-20947722D01*
X7112709Y-20933436D01*
X7155567Y-20933436D01*
X7184138Y-20947722D01*
X7198424Y-20976293D01*
X7198424Y-21133436D01*
X7341281Y-21133436D02*
X7341281Y-20933436D01*
X7341281Y-20962008D02*
X7355567Y-20947722D01*
X7384138Y-20933436D01*
X7426995Y-20933436D01*
X7455567Y-20947722D01*
X7469852Y-20976293D01*
X7469852Y-21133436D01*
X7469852Y-20976293D02*
X7484138Y-20947722D01*
X7512709Y-20933436D01*
X7555567Y-20933436D01*
X7584138Y-20947722D01*
X7598424Y-20976293D01*
X7598424Y-21133436D01*
X8184138Y-20819151D02*
X7926995Y-21204865D01*
X8569852Y-20833436D02*
X8598424Y-20833436D01*
X8626995Y-20847722D01*
X8641281Y-20862008D01*
X8655567Y-20890579D01*
X8669852Y-20947722D01*
X8669852Y-21019151D01*
X8655567Y-21076293D01*
X8641281Y-21104865D01*
X8626995Y-21119151D01*
X8598424Y-21133436D01*
X8569852Y-21133436D01*
X8541281Y-21119151D01*
X8526995Y-21104865D01*
X8512710Y-21076293D01*
X8498424Y-21019151D01*
X8498424Y-20947722D01*
X8512710Y-20890579D01*
X8526995Y-20862008D01*
X8541281Y-20847722D01*
X8569852Y-20833436D01*
X8798424Y-21104865D02*
X8812710Y-21119151D01*
X8798424Y-21133436D01*
X8784138Y-21119151D01*
X8798424Y-21104865D01*
X8798424Y-21133436D01*
X8998424Y-20833436D02*
X9026995Y-20833436D01*
X9055567Y-20847722D01*
X9069852Y-20862008D01*
X9084138Y-20890579D01*
X9098424Y-20947722D01*
X9098424Y-21019151D01*
X9084138Y-21076293D01*
X9069852Y-21104865D01*
X9055567Y-21119151D01*
X9026995Y-21133436D01*
X8998424Y-21133436D01*
X8969852Y-21119151D01*
X8955567Y-21104865D01*
X8941281Y-21076293D01*
X8926995Y-21019151D01*
X8926995Y-20947722D01*
X8941281Y-20890579D01*
X8955567Y-20862008D01*
X8969852Y-20847722D01*
X8998424Y-20833436D01*
X9198424Y-20833436D02*
X9384138Y-20833436D01*
X9284138Y-20947722D01*
X9326995Y-20947722D01*
X9355567Y-20962008D01*
X9369852Y-20976293D01*
X9384138Y-21004865D01*
X9384138Y-21076293D01*
X9369852Y-21104865D01*
X9355567Y-21119151D01*
X9326995Y-21133436D01*
X9241281Y-21133436D01*
X9212710Y-21119151D01*
X9198424Y-21104865D01*
X9526995Y-21133436D02*
X9584138Y-21133436D01*
X9612710Y-21119151D01*
X9626995Y-21104865D01*
X9655567Y-21062008D01*
X9669852Y-21004865D01*
X9669852Y-20890579D01*
X9655567Y-20862008D01*
X9641281Y-20847722D01*
X9612710Y-20833436D01*
X9555567Y-20833436D01*
X9526995Y-20847722D01*
X9512710Y-20862008D01*
X9498424Y-20890579D01*
X9498424Y-20962008D01*
X9512710Y-20990579D01*
X9526995Y-21004865D01*
X9555567Y-21019151D01*
X9612710Y-21019151D01*
X9641281Y-21004865D01*
X9655567Y-20990579D01*
X9669852Y-20962008D01*
X9926995Y-20933436D02*
X9926995Y-21133436D01*
X9855567Y-20819151D02*
X9784138Y-21033436D01*
X9969852Y-21033436D01*
X10069852Y-20833436D02*
X10069852Y-20890579D01*
X10184138Y-20833436D02*
X10184138Y-20890579D01*
X10626995Y-21247722D02*
X10612710Y-21233436D01*
X10584138Y-21190579D01*
X10569852Y-21162008D01*
X10555567Y-21119151D01*
X10541281Y-21047722D01*
X10541281Y-20990579D01*
X10555567Y-20919151D01*
X10569852Y-20876293D01*
X10584138Y-20847722D01*
X10612710Y-20804865D01*
X10626995Y-20790579D01*
X10884138Y-20833436D02*
X10741281Y-20833436D01*
X10726995Y-20976293D01*
X10741281Y-20962008D01*
X10769852Y-20947722D01*
X10841281Y-20947722D01*
X10869852Y-20962008D01*
X10884138Y-20976293D01*
X10898424Y-21004865D01*
X10898424Y-21076293D01*
X10884138Y-21104865D01*
X10869852Y-21119151D01*
X10841281Y-21133436D01*
X10769852Y-21133436D01*
X10741281Y-21119151D01*
X10726995Y-21104865D01*
X11255567Y-21133436D02*
X11255567Y-20833436D01*
X11384138Y-21133436D02*
X11384138Y-20976293D01*
X11369852Y-20947722D01*
X11341281Y-20933436D01*
X11298424Y-20933436D01*
X11269852Y-20947722D01*
X11255567Y-20962008D01*
X11569852Y-21133436D02*
X11541281Y-21119151D01*
X11526995Y-21104865D01*
X11512709Y-21076293D01*
X11512709Y-20990579D01*
X11526995Y-20962008D01*
X11541281Y-20947722D01*
X11569852Y-20933436D01*
X11612709Y-20933436D01*
X11641281Y-20947722D01*
X11655567Y-20962008D01*
X11669852Y-20990579D01*
X11669852Y-21076293D01*
X11655567Y-21104865D01*
X11641281Y-21119151D01*
X11612709Y-21133436D01*
X11569852Y-21133436D01*
X11841281Y-21133436D02*
X11812709Y-21119151D01*
X11798424Y-21090579D01*
X11798424Y-20833436D01*
X12069852Y-21119151D02*
X12041281Y-21133436D01*
X11984138Y-21133436D01*
X11955567Y-21119151D01*
X11941281Y-21090579D01*
X11941281Y-20976293D01*
X11955567Y-20947722D01*
X11984138Y-20933436D01*
X12041281Y-20933436D01*
X12069852Y-20947722D01*
X12084138Y-20976293D01*
X12084138Y-21004865D01*
X11941281Y-21033436D01*
X12198424Y-21119151D02*
X12226995Y-21133436D01*
X12284138Y-21133436D01*
X12312709Y-21119151D01*
X12326995Y-21090579D01*
X12326995Y-21076293D01*
X12312709Y-21047722D01*
X12284138Y-21033436D01*
X12241281Y-21033436D01*
X12212709Y-21019151D01*
X12198424Y-20990579D01*
X12198424Y-20976293D01*
X12212709Y-20947722D01*
X12241281Y-20933436D01*
X12284138Y-20933436D01*
X12312709Y-20947722D01*
X12426995Y-21247722D02*
X12441281Y-21233436D01*
X12469852Y-21190579D01*
X12484138Y-21162008D01*
X12498424Y-21119151D01*
X12512709Y-21047722D01*
X12512709Y-20990579D01*
X12498424Y-20919151D01*
X12484138Y-20876293D01*
X12469852Y-20847722D01*
X12441281Y-20804865D01*
X12426995Y-20790579D01*
X5267538Y-21342922D02*
X5369138Y-21444522D01*
X5369138Y-21342922D02*
X5267538Y-21444522D01*
X5318338Y-21342922D02*
X5318338Y-21444522D01*
X5267538Y-21393722D02*
X5369138Y-21393722D01*
X5812709Y-21529436D02*
X5641281Y-21529436D01*
X5726995Y-21529436D02*
X5726995Y-21229436D01*
X5698424Y-21272293D01*
X5669852Y-21300865D01*
X5641281Y-21315151D01*
X5941281Y-21500865D02*
X5955567Y-21515151D01*
X5941281Y-21529436D01*
X5926995Y-21515151D01*
X5941281Y-21500865D01*
X5941281Y-21529436D01*
X6141281Y-21229436D02*
X6169852Y-21229436D01*
X6198424Y-21243722D01*
X6212709Y-21258008D01*
X6226995Y-21286579D01*
X6241281Y-21343722D01*
X6241281Y-21415151D01*
X6226995Y-21472293D01*
X6212709Y-21500865D01*
X6198424Y-21515151D01*
X6169852Y-21529436D01*
X6141281Y-21529436D01*
X6112709Y-21515151D01*
X6098424Y-21500865D01*
X6084138Y-21472293D01*
X6069852Y-21415151D01*
X6069852Y-21343722D01*
X6084138Y-21286579D01*
X6098424Y-21258008D01*
X6112709Y-21243722D01*
X6141281Y-21229436D01*
X6526995Y-21529436D02*
X6355567Y-21529436D01*
X6441281Y-21529436D02*
X6441281Y-21229436D01*
X6412709Y-21272293D01*
X6384138Y-21300865D01*
X6355567Y-21315151D01*
X6784138Y-21229436D02*
X6726995Y-21229436D01*
X6698424Y-21243722D01*
X6684138Y-21258008D01*
X6655567Y-21300865D01*
X6641281Y-21358008D01*
X6641281Y-21472293D01*
X6655567Y-21500865D01*
X6669852Y-21515151D01*
X6698424Y-21529436D01*
X6755567Y-21529436D01*
X6784138Y-21515151D01*
X6798424Y-21500865D01*
X6812709Y-21472293D01*
X6812709Y-21400865D01*
X6798424Y-21372293D01*
X6784138Y-21358008D01*
X6755567Y-21343722D01*
X6698424Y-21343722D01*
X6669852Y-21358008D01*
X6655567Y-21372293D01*
X6641281Y-21400865D01*
X6941281Y-21529436D02*
X6941281Y-21329436D01*
X6941281Y-21358008D02*
X6955567Y-21343722D01*
X6984138Y-21329436D01*
X7026995Y-21329436D01*
X7055567Y-21343722D01*
X7069852Y-21372293D01*
X7069852Y-21529436D01*
X7069852Y-21372293D02*
X7084138Y-21343722D01*
X7112709Y-21329436D01*
X7155567Y-21329436D01*
X7184138Y-21343722D01*
X7198424Y-21372293D01*
X7198424Y-21529436D01*
X7341281Y-21529436D02*
X7341281Y-21329436D01*
X7341281Y-21358008D02*
X7355567Y-21343722D01*
X7384138Y-21329436D01*
X7426995Y-21329436D01*
X7455567Y-21343722D01*
X7469852Y-21372293D01*
X7469852Y-21529436D01*
X7469852Y-21372293D02*
X7484138Y-21343722D01*
X7512709Y-21329436D01*
X7555567Y-21329436D01*
X7584138Y-21343722D01*
X7598424Y-21372293D01*
X7598424Y-21529436D01*
X8184138Y-21215151D02*
X7926995Y-21600865D01*
X8569852Y-21229436D02*
X8598424Y-21229436D01*
X8626995Y-21243722D01*
X8641281Y-21258008D01*
X8655567Y-21286579D01*
X8669852Y-21343722D01*
X8669852Y-21415151D01*
X8655567Y-21472293D01*
X8641281Y-21500865D01*
X8626995Y-21515151D01*
X8598424Y-21529436D01*
X8569852Y-21529436D01*
X8541281Y-21515151D01*
X8526995Y-21500865D01*
X8512710Y-21472293D01*
X8498424Y-21415151D01*
X8498424Y-21343722D01*
X8512710Y-21286579D01*
X8526995Y-21258008D01*
X8541281Y-21243722D01*
X8569852Y-21229436D01*
X8798424Y-21500865D02*
X8812710Y-21515151D01*
X8798424Y-21529436D01*
X8784138Y-21515151D01*
X8798424Y-21500865D01*
X8798424Y-21529436D01*
X8998424Y-21229436D02*
X9026995Y-21229436D01*
X9055567Y-21243722D01*
X9069852Y-21258008D01*
X9084138Y-21286579D01*
X9098424Y-21343722D01*
X9098424Y-21415151D01*
X9084138Y-21472293D01*
X9069852Y-21500865D01*
X9055567Y-21515151D01*
X9026995Y-21529436D01*
X8998424Y-21529436D01*
X8969852Y-21515151D01*
X8955567Y-21500865D01*
X8941281Y-21472293D01*
X8926995Y-21415151D01*
X8926995Y-21343722D01*
X8941281Y-21286579D01*
X8955567Y-21258008D01*
X8969852Y-21243722D01*
X8998424Y-21229436D01*
X9355567Y-21329436D02*
X9355567Y-21529436D01*
X9284138Y-21215151D02*
X9212710Y-21429436D01*
X9398424Y-21429436D01*
X9569852Y-21229436D02*
X9598424Y-21229436D01*
X9626995Y-21243722D01*
X9641281Y-21258008D01*
X9655567Y-21286579D01*
X9669852Y-21343722D01*
X9669852Y-21415151D01*
X9655567Y-21472293D01*
X9641281Y-21500865D01*
X9626995Y-21515151D01*
X9598424Y-21529436D01*
X9569852Y-21529436D01*
X9541281Y-21515151D01*
X9526995Y-21500865D01*
X9512710Y-21472293D01*
X9498424Y-21415151D01*
X9498424Y-21343722D01*
X9512710Y-21286579D01*
X9526995Y-21258008D01*
X9541281Y-21243722D01*
X9569852Y-21229436D01*
X9855567Y-21229436D02*
X9884138Y-21229436D01*
X9912710Y-21243722D01*
X9926995Y-21258008D01*
X9941281Y-21286579D01*
X9955567Y-21343722D01*
X9955567Y-21415151D01*
X9941281Y-21472293D01*
X9926995Y-21500865D01*
X9912710Y-21515151D01*
X9884138Y-21529436D01*
X9855567Y-21529436D01*
X9826995Y-21515151D01*
X9812710Y-21500865D01*
X9798424Y-21472293D01*
X9784138Y-21415151D01*
X9784138Y-21343722D01*
X9798424Y-21286579D01*
X9812710Y-21258008D01*
X9826995Y-21243722D01*
X9855567Y-21229436D01*
X10069852Y-21229436D02*
X10069852Y-21286579D01*
X10184138Y-21229436D02*
X10184138Y-21286579D01*
X10626995Y-21643722D02*
X10612710Y-21629436D01*
X10584138Y-21586579D01*
X10569852Y-21558008D01*
X10555567Y-21515151D01*
X10541281Y-21443722D01*
X10541281Y-21386579D01*
X10555567Y-21315151D01*
X10569852Y-21272293D01*
X10584138Y-21243722D01*
X10612710Y-21200865D01*
X10626995Y-21186579D01*
X10869852Y-21229436D02*
X10812710Y-21229436D01*
X10784138Y-21243722D01*
X10769852Y-21258008D01*
X10741281Y-21300865D01*
X10726995Y-21358008D01*
X10726995Y-21472293D01*
X10741281Y-21500865D01*
X10755567Y-21515151D01*
X10784138Y-21529436D01*
X10841281Y-21529436D01*
X10869852Y-21515151D01*
X10884138Y-21500865D01*
X10898424Y-21472293D01*
X10898424Y-21400865D01*
X10884138Y-21372293D01*
X10869852Y-21358008D01*
X10841281Y-21343722D01*
X10784138Y-21343722D01*
X10755567Y-21358008D01*
X10741281Y-21372293D01*
X10726995Y-21400865D01*
X11255567Y-21529436D02*
X11255567Y-21229436D01*
X11384138Y-21529436D02*
X11384138Y-21372293D01*
X11369852Y-21343722D01*
X11341281Y-21329436D01*
X11298424Y-21329436D01*
X11269852Y-21343722D01*
X11255567Y-21358008D01*
X11569852Y-21529436D02*
X11541281Y-21515151D01*
X11526995Y-21500865D01*
X11512709Y-21472293D01*
X11512709Y-21386579D01*
X11526995Y-21358008D01*
X11541281Y-21343722D01*
X11569852Y-21329436D01*
X11612709Y-21329436D01*
X11641281Y-21343722D01*
X11655567Y-21358008D01*
X11669852Y-21386579D01*
X11669852Y-21472293D01*
X11655567Y-21500865D01*
X11641281Y-21515151D01*
X11612709Y-21529436D01*
X11569852Y-21529436D01*
X11841281Y-21529436D02*
X11812709Y-21515151D01*
X11798424Y-21486579D01*
X11798424Y-21229436D01*
X12069852Y-21515151D02*
X12041281Y-21529436D01*
X11984138Y-21529436D01*
X11955567Y-21515151D01*
X11941281Y-21486579D01*
X11941281Y-21372293D01*
X11955567Y-21343722D01*
X11984138Y-21329436D01*
X12041281Y-21329436D01*
X12069852Y-21343722D01*
X12084138Y-21372293D01*
X12084138Y-21400865D01*
X11941281Y-21429436D01*
X12198424Y-21515151D02*
X12226995Y-21529436D01*
X12284138Y-21529436D01*
X12312709Y-21515151D01*
X12326995Y-21486579D01*
X12326995Y-21472293D01*
X12312709Y-21443722D01*
X12284138Y-21429436D01*
X12241281Y-21429436D01*
X12212709Y-21415151D01*
X12198424Y-21386579D01*
X12198424Y-21372293D01*
X12212709Y-21343722D01*
X12241281Y-21329436D01*
X12284138Y-21329436D01*
X12312709Y-21343722D01*
X12426995Y-21643722D02*
X12441281Y-21629436D01*
X12469852Y-21586579D01*
X12484138Y-21558008D01*
X12498424Y-21515151D01*
X12512709Y-21443722D01*
X12512709Y-21386579D01*
X12498424Y-21315151D01*
X12484138Y-21272293D01*
X12469852Y-21243722D01*
X12441281Y-21200865D01*
X12426995Y-21186579D01*
X5259138Y-21734722D02*
X5369138Y-21844722D01*
X5369138Y-21734722D02*
X5259138Y-21844722D01*
X5353029Y-21828613D02*
X5353029Y-21750831D01*
X5275247Y-21750831D01*
X5275247Y-21828613D01*
X5353029Y-21828613D01*
X5812709Y-21925436D02*
X5641281Y-21925436D01*
X5726995Y-21925436D02*
X5726995Y-21625436D01*
X5698424Y-21668293D01*
X5669852Y-21696865D01*
X5641281Y-21711151D01*
X5941281Y-21896865D02*
X5955567Y-21911151D01*
X5941281Y-21925436D01*
X5926995Y-21911151D01*
X5941281Y-21896865D01*
X5941281Y-21925436D01*
X6241281Y-21925436D02*
X6069852Y-21925436D01*
X6155567Y-21925436D02*
X6155567Y-21625436D01*
X6126995Y-21668293D01*
X6098424Y-21696865D01*
X6069852Y-21711151D01*
X6426995Y-21625436D02*
X6455567Y-21625436D01*
X6484138Y-21639722D01*
X6498424Y-21654008D01*
X6512709Y-21682579D01*
X6526995Y-21739722D01*
X6526995Y-21811151D01*
X6512709Y-21868293D01*
X6498424Y-21896865D01*
X6484138Y-21911151D01*
X6455567Y-21925436D01*
X6426995Y-21925436D01*
X6398424Y-21911151D01*
X6384138Y-21896865D01*
X6369852Y-21868293D01*
X6355567Y-21811151D01*
X6355567Y-21739722D01*
X6369852Y-21682579D01*
X6384138Y-21654008D01*
X6398424Y-21639722D01*
X6426995Y-21625436D01*
X6712709Y-21625436D02*
X6741281Y-21625436D01*
X6769852Y-21639722D01*
X6784138Y-21654008D01*
X6798424Y-21682579D01*
X6812709Y-21739722D01*
X6812709Y-21811151D01*
X6798424Y-21868293D01*
X6784138Y-21896865D01*
X6769852Y-21911151D01*
X6741281Y-21925436D01*
X6712709Y-21925436D01*
X6684138Y-21911151D01*
X6669852Y-21896865D01*
X6655567Y-21868293D01*
X6641281Y-21811151D01*
X6641281Y-21739722D01*
X6655567Y-21682579D01*
X6669852Y-21654008D01*
X6684138Y-21639722D01*
X6712709Y-21625436D01*
X6941281Y-21925436D02*
X6941281Y-21725436D01*
X6941281Y-21754008D02*
X6955567Y-21739722D01*
X6984138Y-21725436D01*
X7026995Y-21725436D01*
X7055567Y-21739722D01*
X7069852Y-21768293D01*
X7069852Y-21925436D01*
X7069852Y-21768293D02*
X7084138Y-21739722D01*
X7112709Y-21725436D01*
X7155567Y-21725436D01*
X7184138Y-21739722D01*
X7198424Y-21768293D01*
X7198424Y-21925436D01*
X7341281Y-21925436D02*
X7341281Y-21725436D01*
X7341281Y-21754008D02*
X7355567Y-21739722D01*
X7384138Y-21725436D01*
X7426995Y-21725436D01*
X7455567Y-21739722D01*
X7469852Y-21768293D01*
X7469852Y-21925436D01*
X7469852Y-21768293D02*
X7484138Y-21739722D01*
X7512709Y-21725436D01*
X7555567Y-21725436D01*
X7584138Y-21739722D01*
X7598424Y-21768293D01*
X7598424Y-21925436D01*
X8184138Y-21611151D02*
X7926995Y-21996865D01*
X8569852Y-21625436D02*
X8598424Y-21625436D01*
X8626995Y-21639722D01*
X8641281Y-21654008D01*
X8655567Y-21682579D01*
X8669852Y-21739722D01*
X8669852Y-21811151D01*
X8655567Y-21868293D01*
X8641281Y-21896865D01*
X8626995Y-21911151D01*
X8598424Y-21925436D01*
X8569852Y-21925436D01*
X8541281Y-21911151D01*
X8526995Y-21896865D01*
X8512710Y-21868293D01*
X8498424Y-21811151D01*
X8498424Y-21739722D01*
X8512710Y-21682579D01*
X8526995Y-21654008D01*
X8541281Y-21639722D01*
X8569852Y-21625436D01*
X8798424Y-21896865D02*
X8812710Y-21911151D01*
X8798424Y-21925436D01*
X8784138Y-21911151D01*
X8798424Y-21896865D01*
X8798424Y-21925436D01*
X8998424Y-21625436D02*
X9026995Y-21625436D01*
X9055567Y-21639722D01*
X9069852Y-21654008D01*
X9084138Y-21682579D01*
X9098424Y-21739722D01*
X9098424Y-21811151D01*
X9084138Y-21868293D01*
X9069852Y-21896865D01*
X9055567Y-21911151D01*
X9026995Y-21925436D01*
X8998424Y-21925436D01*
X8969852Y-21911151D01*
X8955567Y-21896865D01*
X8941281Y-21868293D01*
X8926995Y-21811151D01*
X8926995Y-21739722D01*
X8941281Y-21682579D01*
X8955567Y-21654008D01*
X8969852Y-21639722D01*
X8998424Y-21625436D01*
X9355567Y-21725436D02*
X9355567Y-21925436D01*
X9284138Y-21611151D02*
X9212710Y-21825436D01*
X9398424Y-21825436D01*
X9484138Y-21625436D02*
X9669852Y-21625436D01*
X9569852Y-21739722D01*
X9612710Y-21739722D01*
X9641281Y-21754008D01*
X9655567Y-21768293D01*
X9669852Y-21796865D01*
X9669852Y-21868293D01*
X9655567Y-21896865D01*
X9641281Y-21911151D01*
X9612710Y-21925436D01*
X9526995Y-21925436D01*
X9498424Y-21911151D01*
X9484138Y-21896865D01*
X9769852Y-21625436D02*
X9955567Y-21625436D01*
X9855567Y-21739722D01*
X9898424Y-21739722D01*
X9926995Y-21754008D01*
X9941281Y-21768293D01*
X9955567Y-21796865D01*
X9955567Y-21868293D01*
X9941281Y-21896865D01*
X9926995Y-21911151D01*
X9898424Y-21925436D01*
X9812710Y-21925436D01*
X9784138Y-21911151D01*
X9769852Y-21896865D01*
X10069852Y-21625436D02*
X10069852Y-21682579D01*
X10184138Y-21625436D02*
X10184138Y-21682579D01*
X10626995Y-22039722D02*
X10612710Y-22025436D01*
X10584138Y-21982579D01*
X10569852Y-21954008D01*
X10555567Y-21911151D01*
X10541281Y-21839722D01*
X10541281Y-21782579D01*
X10555567Y-21711151D01*
X10569852Y-21668293D01*
X10584138Y-21639722D01*
X10612710Y-21596865D01*
X10626995Y-21582579D01*
X10784138Y-21754008D02*
X10755567Y-21739722D01*
X10741281Y-21725436D01*
X10726995Y-21696865D01*
X10726995Y-21682579D01*
X10741281Y-21654008D01*
X10755567Y-21639722D01*
X10784138Y-21625436D01*
X10841281Y-21625436D01*
X10869852Y-21639722D01*
X10884138Y-21654008D01*
X10898424Y-21682579D01*
X10898424Y-21696865D01*
X10884138Y-21725436D01*
X10869852Y-21739722D01*
X10841281Y-21754008D01*
X10784138Y-21754008D01*
X10755567Y-21768293D01*
X10741281Y-21782579D01*
X10726995Y-21811151D01*
X10726995Y-21868293D01*
X10741281Y-21896865D01*
X10755567Y-21911151D01*
X10784138Y-21925436D01*
X10841281Y-21925436D01*
X10869852Y-21911151D01*
X10884138Y-21896865D01*
X10898424Y-21868293D01*
X10898424Y-21811151D01*
X10884138Y-21782579D01*
X10869852Y-21768293D01*
X10841281Y-21754008D01*
X11255567Y-21925436D02*
X11255567Y-21625436D01*
X11384138Y-21925436D02*
X11384138Y-21768293D01*
X11369852Y-21739722D01*
X11341281Y-21725436D01*
X11298424Y-21725436D01*
X11269852Y-21739722D01*
X11255567Y-21754008D01*
X11569852Y-21925436D02*
X11541281Y-21911151D01*
X11526995Y-21896865D01*
X11512709Y-21868293D01*
X11512709Y-21782579D01*
X11526995Y-21754008D01*
X11541281Y-21739722D01*
X11569852Y-21725436D01*
X11612709Y-21725436D01*
X11641281Y-21739722D01*
X11655567Y-21754008D01*
X11669852Y-21782579D01*
X11669852Y-21868293D01*
X11655567Y-21896865D01*
X11641281Y-21911151D01*
X11612709Y-21925436D01*
X11569852Y-21925436D01*
X11841281Y-21925436D02*
X11812709Y-21911151D01*
X11798424Y-21882579D01*
X11798424Y-21625436D01*
X12069852Y-21911151D02*
X12041281Y-21925436D01*
X11984138Y-21925436D01*
X11955567Y-21911151D01*
X11941281Y-21882579D01*
X11941281Y-21768293D01*
X11955567Y-21739722D01*
X11984138Y-21725436D01*
X12041281Y-21725436D01*
X12069852Y-21739722D01*
X12084138Y-21768293D01*
X12084138Y-21796865D01*
X11941281Y-21825436D01*
X12198424Y-21911151D02*
X12226995Y-21925436D01*
X12284138Y-21925436D01*
X12312709Y-21911151D01*
X12326995Y-21882579D01*
X12326995Y-21868293D01*
X12312709Y-21839722D01*
X12284138Y-21825436D01*
X12241281Y-21825436D01*
X12212709Y-21811151D01*
X12198424Y-21782579D01*
X12198424Y-21768293D01*
X12212709Y-21739722D01*
X12241281Y-21725436D01*
X12284138Y-21725436D01*
X12312709Y-21739722D01*
X12426995Y-22039722D02*
X12441281Y-22025436D01*
X12469852Y-21982579D01*
X12484138Y-21954008D01*
X12498424Y-21911151D01*
X12512709Y-21839722D01*
X12512709Y-21782579D01*
X12498424Y-21711151D01*
X12484138Y-21668293D01*
X12469852Y-21639722D01*
X12441281Y-21596865D01*
X12426995Y-21582579D01*
X5219138Y-22110722D02*
X5369138Y-22260722D01*
X5369138Y-22110722D02*
X5219138Y-22260722D01*
X5294138Y-22260722D02*
X5369138Y-22185722D01*
X5294138Y-22110722D01*
X5219138Y-22185722D01*
X5294138Y-22260722D01*
X5812709Y-22321436D02*
X5641281Y-22321436D01*
X5726995Y-22321436D02*
X5726995Y-22021436D01*
X5698424Y-22064293D01*
X5669852Y-22092865D01*
X5641281Y-22107151D01*
X5941281Y-22292865D02*
X5955567Y-22307151D01*
X5941281Y-22321436D01*
X5926995Y-22307151D01*
X5941281Y-22292865D01*
X5941281Y-22321436D01*
X6226995Y-22021436D02*
X6084138Y-22021436D01*
X6069852Y-22164293D01*
X6084138Y-22150008D01*
X6112709Y-22135722D01*
X6184138Y-22135722D01*
X6212709Y-22150008D01*
X6226995Y-22164293D01*
X6241281Y-22192865D01*
X6241281Y-22264293D01*
X6226995Y-22292865D01*
X6212709Y-22307151D01*
X6184138Y-22321436D01*
X6112709Y-22321436D01*
X6084138Y-22307151D01*
X6069852Y-22292865D01*
X6426995Y-22021436D02*
X6455567Y-22021436D01*
X6484138Y-22035722D01*
X6498424Y-22050008D01*
X6512709Y-22078579D01*
X6526995Y-22135722D01*
X6526995Y-22207151D01*
X6512709Y-22264293D01*
X6498424Y-22292865D01*
X6484138Y-22307151D01*
X6455567Y-22321436D01*
X6426995Y-22321436D01*
X6398424Y-22307151D01*
X6384138Y-22292865D01*
X6369852Y-22264293D01*
X6355567Y-22207151D01*
X6355567Y-22135722D01*
X6369852Y-22078579D01*
X6384138Y-22050008D01*
X6398424Y-22035722D01*
X6426995Y-22021436D01*
X6712709Y-22021436D02*
X6741281Y-22021436D01*
X6769852Y-22035722D01*
X6784138Y-22050008D01*
X6798424Y-22078579D01*
X6812709Y-22135722D01*
X6812709Y-22207151D01*
X6798424Y-22264293D01*
X6784138Y-22292865D01*
X6769852Y-22307151D01*
X6741281Y-22321436D01*
X6712709Y-22321436D01*
X6684138Y-22307151D01*
X6669852Y-22292865D01*
X6655567Y-22264293D01*
X6641281Y-22207151D01*
X6641281Y-22135722D01*
X6655567Y-22078579D01*
X6669852Y-22050008D01*
X6684138Y-22035722D01*
X6712709Y-22021436D01*
X6941281Y-22321436D02*
X6941281Y-22121436D01*
X6941281Y-22150008D02*
X6955567Y-22135722D01*
X6984138Y-22121436D01*
X7026995Y-22121436D01*
X7055567Y-22135722D01*
X7069852Y-22164293D01*
X7069852Y-22321436D01*
X7069852Y-22164293D02*
X7084138Y-22135722D01*
X7112709Y-22121436D01*
X7155567Y-22121436D01*
X7184138Y-22135722D01*
X7198424Y-22164293D01*
X7198424Y-22321436D01*
X7341281Y-22321436D02*
X7341281Y-22121436D01*
X7341281Y-22150008D02*
X7355567Y-22135722D01*
X7384138Y-22121436D01*
X7426995Y-22121436D01*
X7455567Y-22135722D01*
X7469852Y-22164293D01*
X7469852Y-22321436D01*
X7469852Y-22164293D02*
X7484138Y-22135722D01*
X7512709Y-22121436D01*
X7555567Y-22121436D01*
X7584138Y-22135722D01*
X7598424Y-22164293D01*
X7598424Y-22321436D01*
X8184138Y-22007151D02*
X7926995Y-22392865D01*
X8569852Y-22021436D02*
X8598424Y-22021436D01*
X8626995Y-22035722D01*
X8641281Y-22050008D01*
X8655567Y-22078579D01*
X8669852Y-22135722D01*
X8669852Y-22207151D01*
X8655567Y-22264293D01*
X8641281Y-22292865D01*
X8626995Y-22307151D01*
X8598424Y-22321436D01*
X8569852Y-22321436D01*
X8541281Y-22307151D01*
X8526995Y-22292865D01*
X8512710Y-22264293D01*
X8498424Y-22207151D01*
X8498424Y-22135722D01*
X8512710Y-22078579D01*
X8526995Y-22050008D01*
X8541281Y-22035722D01*
X8569852Y-22021436D01*
X8798424Y-22292865D02*
X8812710Y-22307151D01*
X8798424Y-22321436D01*
X8784138Y-22307151D01*
X8798424Y-22292865D01*
X8798424Y-22321436D01*
X8998424Y-22021436D02*
X9026995Y-22021436D01*
X9055567Y-22035722D01*
X9069852Y-22050008D01*
X9084138Y-22078579D01*
X9098424Y-22135722D01*
X9098424Y-22207151D01*
X9084138Y-22264293D01*
X9069852Y-22292865D01*
X9055567Y-22307151D01*
X9026995Y-22321436D01*
X8998424Y-22321436D01*
X8969852Y-22307151D01*
X8955567Y-22292865D01*
X8941281Y-22264293D01*
X8926995Y-22207151D01*
X8926995Y-22135722D01*
X8941281Y-22078579D01*
X8955567Y-22050008D01*
X8969852Y-22035722D01*
X8998424Y-22021436D01*
X9369852Y-22021436D02*
X9226995Y-22021436D01*
X9212710Y-22164293D01*
X9226995Y-22150008D01*
X9255567Y-22135722D01*
X9326995Y-22135722D01*
X9355567Y-22150008D01*
X9369852Y-22164293D01*
X9384138Y-22192865D01*
X9384138Y-22264293D01*
X9369852Y-22292865D01*
X9355567Y-22307151D01*
X9326995Y-22321436D01*
X9255567Y-22321436D01*
X9226995Y-22307151D01*
X9212710Y-22292865D01*
X9526995Y-22321436D02*
X9584138Y-22321436D01*
X9612710Y-22307151D01*
X9626995Y-22292865D01*
X9655567Y-22250008D01*
X9669852Y-22192865D01*
X9669852Y-22078579D01*
X9655567Y-22050008D01*
X9641281Y-22035722D01*
X9612710Y-22021436D01*
X9555567Y-22021436D01*
X9526995Y-22035722D01*
X9512710Y-22050008D01*
X9498424Y-22078579D01*
X9498424Y-22150008D01*
X9512710Y-22178579D01*
X9526995Y-22192865D01*
X9555567Y-22207151D01*
X9612710Y-22207151D01*
X9641281Y-22192865D01*
X9655567Y-22178579D01*
X9669852Y-22150008D01*
X9955567Y-22321436D02*
X9784138Y-22321436D01*
X9869852Y-22321436D02*
X9869852Y-22021436D01*
X9841281Y-22064293D01*
X9812710Y-22092865D01*
X9784138Y-22107151D01*
X10069852Y-22021436D02*
X10069852Y-22078579D01*
X10184138Y-22021436D02*
X10184138Y-22078579D01*
X10626995Y-22435722D02*
X10612710Y-22421436D01*
X10584138Y-22378579D01*
X10569852Y-22350008D01*
X10555567Y-22307151D01*
X10541281Y-22235722D01*
X10541281Y-22178579D01*
X10555567Y-22107151D01*
X10569852Y-22064293D01*
X10584138Y-22035722D01*
X10612710Y-21992865D01*
X10626995Y-21978579D01*
X10898424Y-22321436D02*
X10726995Y-22321436D01*
X10812710Y-22321436D02*
X10812710Y-22021436D01*
X10784138Y-22064293D01*
X10755567Y-22092865D01*
X10726995Y-22107151D01*
X11155567Y-22121436D02*
X11155567Y-22321436D01*
X11084138Y-22007151D02*
X11012710Y-22221436D01*
X11198424Y-22221436D01*
X11441281Y-22021436D02*
X11384138Y-22021436D01*
X11355567Y-22035722D01*
X11341281Y-22050008D01*
X11312709Y-22092865D01*
X11298424Y-22150008D01*
X11298424Y-22264293D01*
X11312709Y-22292865D01*
X11326995Y-22307151D01*
X11355567Y-22321436D01*
X11412709Y-22321436D01*
X11441281Y-22307151D01*
X11455567Y-22292865D01*
X11469852Y-22264293D01*
X11469852Y-22192865D01*
X11455567Y-22164293D01*
X11441281Y-22150008D01*
X11412709Y-22135722D01*
X11355567Y-22135722D01*
X11326995Y-22150008D01*
X11312709Y-22164293D01*
X11298424Y-22192865D01*
X11826995Y-22321436D02*
X11826995Y-22021436D01*
X11955567Y-22321436D02*
X11955567Y-22164293D01*
X11941281Y-22135722D01*
X11912709Y-22121436D01*
X11869852Y-22121436D01*
X11841281Y-22135722D01*
X11826995Y-22150008D01*
X12141281Y-22321436D02*
X12112709Y-22307151D01*
X12098424Y-22292865D01*
X12084138Y-22264293D01*
X12084138Y-22178579D01*
X12098424Y-22150008D01*
X12112709Y-22135722D01*
X12141281Y-22121436D01*
X12184138Y-22121436D01*
X12212709Y-22135722D01*
X12226995Y-22150008D01*
X12241281Y-22178579D01*
X12241281Y-22264293D01*
X12226995Y-22292865D01*
X12212709Y-22307151D01*
X12184138Y-22321436D01*
X12141281Y-22321436D01*
X12412709Y-22321436D02*
X12384138Y-22307151D01*
X12369852Y-22278579D01*
X12369852Y-22021436D01*
X12641281Y-22307151D02*
X12612709Y-22321436D01*
X12555567Y-22321436D01*
X12526995Y-22307151D01*
X12512709Y-22278579D01*
X12512709Y-22164293D01*
X12526995Y-22135722D01*
X12555567Y-22121436D01*
X12612709Y-22121436D01*
X12641281Y-22135722D01*
X12655567Y-22164293D01*
X12655567Y-22192865D01*
X12512709Y-22221436D01*
X12769852Y-22307151D02*
X12798424Y-22321436D01*
X12855567Y-22321436D01*
X12884138Y-22307151D01*
X12898424Y-22278579D01*
X12898424Y-22264293D01*
X12884138Y-22235722D01*
X12855567Y-22221436D01*
X12812709Y-22221436D01*
X12784138Y-22207151D01*
X12769852Y-22178579D01*
X12769852Y-22164293D01*
X12784138Y-22135722D01*
X12812709Y-22121436D01*
X12855567Y-22121436D01*
X12884138Y-22135722D01*
X13255567Y-22207151D02*
X13484138Y-22207151D01*
X13369852Y-22321436D02*
X13369852Y-22092865D01*
X13841281Y-22050008D02*
X13855567Y-22035722D01*
X13884138Y-22021436D01*
X13955567Y-22021436D01*
X13984138Y-22035722D01*
X13998424Y-22050008D01*
X14012709Y-22078579D01*
X14012709Y-22107151D01*
X13998424Y-22150008D01*
X13826995Y-22321436D01*
X14012709Y-22321436D01*
X14355567Y-22307151D02*
X14384138Y-22321436D01*
X14441281Y-22321436D01*
X14469852Y-22307151D01*
X14484138Y-22278579D01*
X14484138Y-22264293D01*
X14469852Y-22235722D01*
X14441281Y-22221436D01*
X14398424Y-22221436D01*
X14369852Y-22207151D01*
X14355567Y-22178579D01*
X14355567Y-22164293D01*
X14369852Y-22135722D01*
X14398424Y-22121436D01*
X14441281Y-22121436D01*
X14469852Y-22135722D01*
X14655567Y-22321436D02*
X14626995Y-22307151D01*
X14612709Y-22278579D01*
X14612709Y-22021436D01*
X14812709Y-22321436D02*
X14784138Y-22307151D01*
X14769852Y-22292865D01*
X14755567Y-22264293D01*
X14755567Y-22178579D01*
X14769852Y-22150008D01*
X14784138Y-22135722D01*
X14812709Y-22121436D01*
X14855567Y-22121436D01*
X14884138Y-22135722D01*
X14898424Y-22150008D01*
X14912709Y-22178579D01*
X14912709Y-22264293D01*
X14898424Y-22292865D01*
X14884138Y-22307151D01*
X14855567Y-22321436D01*
X14812709Y-22321436D01*
X14998424Y-22121436D02*
X15112709Y-22121436D01*
X15041281Y-22021436D02*
X15041281Y-22278579D01*
X15055567Y-22307151D01*
X15084138Y-22321436D01*
X15112709Y-22321436D01*
X15198424Y-22307151D02*
X15226995Y-22321436D01*
X15284138Y-22321436D01*
X15312709Y-22307151D01*
X15326995Y-22278579D01*
X15326995Y-22264293D01*
X15312709Y-22235722D01*
X15284138Y-22221436D01*
X15241281Y-22221436D01*
X15212709Y-22207151D01*
X15198424Y-22178579D01*
X15198424Y-22164293D01*
X15212709Y-22135722D01*
X15241281Y-22121436D01*
X15284138Y-22121436D01*
X15312709Y-22135722D01*
X15426995Y-22435722D02*
X15441281Y-22421436D01*
X15469852Y-22378579D01*
X15484138Y-22350008D01*
X15498424Y-22307151D01*
X15512709Y-22235722D01*
X15512709Y-22178579D01*
X15498424Y-22107151D01*
X15484138Y-22064293D01*
X15469852Y-22035722D01*
X15441281Y-21992865D01*
X15426995Y-21978579D01*
X5259138Y-22471722D02*
X5259138Y-22691722D01*
X5149138Y-22581722D02*
X5369138Y-22581722D01*
X5369138Y-22581722D02*
G75*
G03*
X5369138Y-22581722I-110000J0D01*
G01*
X5641281Y-22446008D02*
X5655567Y-22431722D01*
X5684138Y-22417436D01*
X5755567Y-22417436D01*
X5784138Y-22431722D01*
X5798424Y-22446008D01*
X5812709Y-22474579D01*
X5812709Y-22503150D01*
X5798424Y-22546008D01*
X5626995Y-22717436D01*
X5812709Y-22717436D01*
X5941281Y-22688865D02*
X5955567Y-22703150D01*
X5941281Y-22717436D01*
X5926995Y-22703150D01*
X5941281Y-22688865D01*
X5941281Y-22717436D01*
X6069852Y-22446008D02*
X6084138Y-22431722D01*
X6112709Y-22417436D01*
X6184138Y-22417436D01*
X6212709Y-22431722D01*
X6226995Y-22446008D01*
X6241281Y-22474579D01*
X6241281Y-22503150D01*
X6226995Y-22546008D01*
X6055567Y-22717436D01*
X6241281Y-22717436D01*
X6426995Y-22417436D02*
X6455567Y-22417436D01*
X6484138Y-22431722D01*
X6498424Y-22446008D01*
X6512709Y-22474579D01*
X6526995Y-22531722D01*
X6526995Y-22603150D01*
X6512709Y-22660293D01*
X6498424Y-22688865D01*
X6484138Y-22703150D01*
X6455567Y-22717436D01*
X6426995Y-22717436D01*
X6398424Y-22703150D01*
X6384138Y-22688865D01*
X6369852Y-22660293D01*
X6355567Y-22603150D01*
X6355567Y-22531722D01*
X6369852Y-22474579D01*
X6384138Y-22446008D01*
X6398424Y-22431722D01*
X6426995Y-22417436D01*
X6712709Y-22417436D02*
X6741281Y-22417436D01*
X6769852Y-22431722D01*
X6784138Y-22446008D01*
X6798424Y-22474579D01*
X6812709Y-22531722D01*
X6812709Y-22603150D01*
X6798424Y-22660293D01*
X6784138Y-22688865D01*
X6769852Y-22703150D01*
X6741281Y-22717436D01*
X6712709Y-22717436D01*
X6684138Y-22703150D01*
X6669852Y-22688865D01*
X6655567Y-22660293D01*
X6641281Y-22603150D01*
X6641281Y-22531722D01*
X6655567Y-22474579D01*
X6669852Y-22446008D01*
X6684138Y-22431722D01*
X6712709Y-22417436D01*
X6941281Y-22717436D02*
X6941281Y-22517436D01*
X6941281Y-22546008D02*
X6955567Y-22531722D01*
X6984138Y-22517436D01*
X7026995Y-22517436D01*
X7055567Y-22531722D01*
X7069852Y-22560293D01*
X7069852Y-22717436D01*
X7069852Y-22560293D02*
X7084138Y-22531722D01*
X7112709Y-22517436D01*
X7155567Y-22517436D01*
X7184138Y-22531722D01*
X7198424Y-22560293D01*
X7198424Y-22717436D01*
X7341281Y-22717436D02*
X7341281Y-22517436D01*
X7341281Y-22546008D02*
X7355567Y-22531722D01*
X7384138Y-22517436D01*
X7426995Y-22517436D01*
X7455567Y-22531722D01*
X7469852Y-22560293D01*
X7469852Y-22717436D01*
X7469852Y-22560293D02*
X7484138Y-22531722D01*
X7512709Y-22517436D01*
X7555567Y-22517436D01*
X7584138Y-22531722D01*
X7598424Y-22560293D01*
X7598424Y-22717436D01*
X8184138Y-22403150D02*
X7926995Y-22788865D01*
X8569852Y-22417436D02*
X8598424Y-22417436D01*
X8626995Y-22431722D01*
X8641281Y-22446008D01*
X8655567Y-22474579D01*
X8669852Y-22531722D01*
X8669852Y-22603150D01*
X8655567Y-22660293D01*
X8641281Y-22688865D01*
X8626995Y-22703150D01*
X8598424Y-22717436D01*
X8569852Y-22717436D01*
X8541281Y-22703150D01*
X8526995Y-22688865D01*
X8512710Y-22660293D01*
X8498424Y-22603150D01*
X8498424Y-22531722D01*
X8512710Y-22474579D01*
X8526995Y-22446008D01*
X8541281Y-22431722D01*
X8569852Y-22417436D01*
X8798424Y-22688865D02*
X8812710Y-22703150D01*
X8798424Y-22717436D01*
X8784138Y-22703150D01*
X8798424Y-22688865D01*
X8798424Y-22717436D01*
X8998424Y-22417436D02*
X9026995Y-22417436D01*
X9055567Y-22431722D01*
X9069852Y-22446008D01*
X9084138Y-22474579D01*
X9098424Y-22531722D01*
X9098424Y-22603150D01*
X9084138Y-22660293D01*
X9069852Y-22688865D01*
X9055567Y-22703150D01*
X9026995Y-22717436D01*
X8998424Y-22717436D01*
X8969852Y-22703150D01*
X8955567Y-22688865D01*
X8941281Y-22660293D01*
X8926995Y-22603150D01*
X8926995Y-22531722D01*
X8941281Y-22474579D01*
X8955567Y-22446008D01*
X8969852Y-22431722D01*
X8998424Y-22417436D01*
X9269852Y-22546008D02*
X9241281Y-22531722D01*
X9226995Y-22517436D01*
X9212710Y-22488865D01*
X9212710Y-22474579D01*
X9226995Y-22446008D01*
X9241281Y-22431722D01*
X9269852Y-22417436D01*
X9326995Y-22417436D01*
X9355567Y-22431722D01*
X9369852Y-22446008D01*
X9384138Y-22474579D01*
X9384138Y-22488865D01*
X9369852Y-22517436D01*
X9355567Y-22531722D01*
X9326995Y-22546008D01*
X9269852Y-22546008D01*
X9241281Y-22560293D01*
X9226995Y-22574579D01*
X9212710Y-22603150D01*
X9212710Y-22660293D01*
X9226995Y-22688865D01*
X9241281Y-22703150D01*
X9269852Y-22717436D01*
X9326995Y-22717436D01*
X9355567Y-22703150D01*
X9369852Y-22688865D01*
X9384138Y-22660293D01*
X9384138Y-22603150D01*
X9369852Y-22574579D01*
X9355567Y-22560293D01*
X9326995Y-22546008D01*
X9641281Y-22417436D02*
X9584138Y-22417436D01*
X9555567Y-22431722D01*
X9541281Y-22446008D01*
X9512710Y-22488865D01*
X9498424Y-22546008D01*
X9498424Y-22660293D01*
X9512710Y-22688865D01*
X9526995Y-22703150D01*
X9555567Y-22717436D01*
X9612710Y-22717436D01*
X9641281Y-22703150D01*
X9655567Y-22688865D01*
X9669852Y-22660293D01*
X9669852Y-22588865D01*
X9655567Y-22560293D01*
X9641281Y-22546008D01*
X9612710Y-22531722D01*
X9555567Y-22531722D01*
X9526995Y-22546008D01*
X9512710Y-22560293D01*
X9498424Y-22588865D01*
X9926995Y-22417436D02*
X9869852Y-22417436D01*
X9841281Y-22431722D01*
X9826995Y-22446008D01*
X9798424Y-22488865D01*
X9784138Y-22546008D01*
X9784138Y-22660293D01*
X9798424Y-22688865D01*
X9812710Y-22703150D01*
X9841281Y-22717436D01*
X9898424Y-22717436D01*
X9926995Y-22703150D01*
X9941281Y-22688865D01*
X9955567Y-22660293D01*
X9955567Y-22588865D01*
X9941281Y-22560293D01*
X9926995Y-22546008D01*
X9898424Y-22531722D01*
X9841281Y-22531722D01*
X9812710Y-22546008D01*
X9798424Y-22560293D01*
X9784138Y-22588865D01*
X10069852Y-22417436D02*
X10069852Y-22474579D01*
X10184138Y-22417436D02*
X10184138Y-22474579D01*
X10626995Y-22831722D02*
X10612710Y-22817436D01*
X10584138Y-22774579D01*
X10569852Y-22746008D01*
X10555567Y-22703150D01*
X10541281Y-22631722D01*
X10541281Y-22574579D01*
X10555567Y-22503150D01*
X10569852Y-22460293D01*
X10584138Y-22431722D01*
X10612710Y-22388865D01*
X10626995Y-22374579D01*
X10898424Y-22717436D02*
X10726995Y-22717436D01*
X10812710Y-22717436D02*
X10812710Y-22417436D01*
X10784138Y-22460293D01*
X10755567Y-22488865D01*
X10726995Y-22503150D01*
X11012710Y-22446008D02*
X11026995Y-22431722D01*
X11055567Y-22417436D01*
X11126995Y-22417436D01*
X11155567Y-22431722D01*
X11169852Y-22446008D01*
X11184138Y-22474579D01*
X11184138Y-22503150D01*
X11169852Y-22546008D01*
X10998424Y-22717436D01*
X11184138Y-22717436D01*
X11541281Y-22717436D02*
X11541281Y-22417436D01*
X11669852Y-22717436D02*
X11669852Y-22560293D01*
X11655567Y-22531722D01*
X11626995Y-22517436D01*
X11584138Y-22517436D01*
X11555567Y-22531722D01*
X11541281Y-22546008D01*
X11855567Y-22717436D02*
X11826995Y-22703150D01*
X11812709Y-22688865D01*
X11798424Y-22660293D01*
X11798424Y-22574579D01*
X11812709Y-22546008D01*
X11826995Y-22531722D01*
X11855567Y-22517436D01*
X11898424Y-22517436D01*
X11926995Y-22531722D01*
X11941281Y-22546008D01*
X11955567Y-22574579D01*
X11955567Y-22660293D01*
X11941281Y-22688865D01*
X11926995Y-22703150D01*
X11898424Y-22717436D01*
X11855567Y-22717436D01*
X12126995Y-22717436D02*
X12098424Y-22703150D01*
X12084138Y-22674579D01*
X12084138Y-22417436D01*
X12355567Y-22703150D02*
X12326995Y-22717436D01*
X12269852Y-22717436D01*
X12241281Y-22703150D01*
X12226995Y-22674579D01*
X12226995Y-22560293D01*
X12241281Y-22531722D01*
X12269852Y-22517436D01*
X12326995Y-22517436D01*
X12355567Y-22531722D01*
X12369852Y-22560293D01*
X12369852Y-22588865D01*
X12226995Y-22617436D01*
X12484138Y-22703150D02*
X12512709Y-22717436D01*
X12569852Y-22717436D01*
X12598424Y-22703150D01*
X12612709Y-22674579D01*
X12612709Y-22660293D01*
X12598424Y-22631722D01*
X12569852Y-22617436D01*
X12526995Y-22617436D01*
X12498424Y-22603150D01*
X12484138Y-22574579D01*
X12484138Y-22560293D01*
X12498424Y-22531722D01*
X12526995Y-22517436D01*
X12569852Y-22517436D01*
X12598424Y-22531722D01*
X12712709Y-22831722D02*
X12726995Y-22817436D01*
X12755567Y-22774579D01*
X12769852Y-22746008D01*
X12784138Y-22703150D01*
X12798424Y-22631722D01*
X12798424Y-22574579D01*
X12784138Y-22503150D01*
X12769852Y-22460293D01*
X12755567Y-22431722D01*
X12726995Y-22388865D01*
X12712709Y-22374579D01*
M02*
